<svg xmlns="http://www.w3.org/2000/svg" width="32" height="32" viewBox="0 0 32 32" fill="none">
  <g clip-path="url(#clip0_680_101142)">
    <path d="M32 16C32 7.16344 24.8366 0 16 0C7.16344 0 0 7.16344 0 16C0 24.8366 7.16344 32 16 32C24.8366 32 32 24.8366 32 16Z" fill="white"/>
    <path opacity="0.1" d="M28.0419 5.47368C25.7093 9.75579 22.4103 14.1726 18.2882 18.2947C14.1661 22.4168 9.74929 25.7095 5.47351 28.0421C5.20543 27.8091 4.94508 27.5663 4.69245 27.3137C3.16541 25.8376 1.94752 24.0723 1.10979 22.1207C0.272062 20.1691 -0.168741 18.0702 -0.186914 15.9465C-0.205087 13.8227 0.199734 11.7166 1.00394 9.75097C1.80815 7.7853 2.99566 5.99942 4.49721 4.49744C5.99877 2.99547 7.78432 1.80746 9.74976 1.00271C11.7152 0.197947 13.8212 -0.207462 15.9449 -0.189881C18.0687 -0.172301 20.1677 0.267916 22.1195 1.1051C24.0714 1.94229 25.837 3.15969 27.3135 4.68631C27.5661 4.93894 27.8089 5.2014 28.0419 5.47368Z" fill="#057988"/>
    <path d="M19.7887 7.5791H12.2097C10.9813 7.5791 9.80327 8.06707 8.93468 8.93566C8.06609 9.80425 7.57812 10.9823 7.57812 12.2107V19.7896C7.57812 21.018 8.06609 22.1961 8.93468 23.0646C9.80327 23.9332 10.9813 24.4212 12.2097 24.4212H19.7887C21.017 24.4212 22.1951 23.9332 23.0637 23.0646C23.9323 22.1961 24.4202 21.018 24.4202 19.7896V12.2107C24.4202 10.9823 23.9323 9.80425 23.0637 8.93566C22.1951 8.06707 21.017 7.5791 19.7887 7.5791ZM22.9465 19.1244C22.9465 20.1383 22.5438 21.1108 21.8268 21.8277C21.1098 22.5447 20.1374 22.9475 19.1234 22.9475H12.875C11.861 22.9475 10.8886 22.5447 10.1716 21.8277C9.4546 21.1108 9.05181 20.1383 9.05181 19.1244V12.8759C9.05181 11.862 9.4546 10.8895 10.1716 10.1726C10.8886 9.45558 11.861 9.05279 12.875 9.05279H19.1234C20.1374 9.05279 21.1098 9.45558 21.8268 10.1726C22.5438 10.8895 22.9465 11.862 22.9465 12.8759V19.1244Z" fill="#057988"/>
    <path d="M19.0712 12.96L19.0312 12.92L18.9975 12.8863C18.2015 12.0931 17.1234 11.6479 15.9996 11.6484C15.4321 11.6523 14.871 11.7679 14.3482 11.9887C13.8254 12.2095 13.3512 12.5312 12.9528 12.9353C12.5543 13.3394 12.2394 13.8181 12.026 14.3439C11.8126 14.8698 11.7049 15.4325 11.7091 16C11.7082 17.1517 12.1622 18.2571 12.9723 19.0758C13.369 19.4774 13.8418 19.7959 14.3631 20.0128C14.8843 20.2297 15.4435 20.3406 16.008 20.339C16.8549 20.3212 17.6782 20.0574 18.3777 19.5798C19.0772 19.1021 19.6225 18.4312 19.9473 17.6489C20.272 16.8667 20.3621 16.0068 20.2065 15.1742C20.051 14.3416 19.6565 13.5723 19.0712 12.96ZM15.9996 18.8548C15.4334 18.8627 14.8776 18.702 14.4029 18.3932C13.9282 18.0844 13.5561 17.6414 13.3338 17.1205C13.1116 16.5996 13.0494 16.0244 13.155 15.468C13.2605 14.9116 13.5292 14.3992 13.9268 13.996C14.3244 13.5927 14.833 13.3168 15.3878 13.2034C15.9426 13.09 16.5187 13.1441 17.0426 13.359C17.5666 13.5738 18.0148 13.9396 18.3303 14.4099C18.6458 14.8802 18.8143 15.4337 18.8144 16C18.8171 16.3723 18.7465 16.7415 18.6065 17.0865C18.4666 17.4315 18.26 17.7455 17.9986 18.0107C17.7372 18.2758 17.4261 18.4868 17.0831 18.6316C16.7401 18.7765 16.3719 18.8523 15.9996 18.8548Z" fill="#057988"/>
    <path d="M21.5632 11.4486C21.5643 11.5837 21.5387 11.7176 21.488 11.8429C21.4373 11.9681 21.3623 12.082 21.2675 12.1782C21.1727 12.2745 21.0598 12.351 20.9353 12.4035C20.8108 12.4561 20.6772 12.4835 20.5421 12.4844C20.4082 12.4843 20.2756 12.4577 20.152 12.406C20.0284 12.3543 19.9163 12.2786 19.8221 12.1833C19.6795 12.0386 19.5825 11.8552 19.5431 11.6559C19.5037 11.4566 19.5237 11.2501 19.6006 11.062C19.6775 10.8739 19.8079 10.7126 19.9756 10.5979C20.1434 10.4832 20.3411 10.4203 20.5442 10.417C20.782 10.4169 21.0122 10.5004 21.1948 10.6528L21.2158 10.6738C21.2498 10.7015 21.2808 10.7325 21.3084 10.7665L21.3316 10.7917C21.4823 10.9774 21.5641 11.2095 21.5632 11.4486Z" fill="#057988"/>
  </g>
  <defs>
    <clipPath id="clip0_680_101142">
      <rect width="32" height="32" fill="white"/>
    </clipPath>
  </defs>
</svg>