<svg xmlns="http://www.w3.org/2000/svg" width="154" height="154" viewBox="0 0 154 154" fill="none">
  <g clip-path="url(#clip0_102_16977)">
    <path d="M154 77C154 34.4741 119.526 0 77 0C34.4741 0 0 34.4741 0 77C0 119.526 34.4741 154 77 154C119.526 154 154 119.526 154 77Z" fill="#003D45"/>
    <path opacity="0.1" d="M134.953 26.342C123.727 46.9497 107.851 68.2057 88.0131 88.0433C68.1755 107.881 46.9195 123.727 26.3422 134.953C25.0521 133.831 23.7992 132.663 22.5834 131.447C15.2345 124.343 9.37343 115.848 5.34185 106.456C1.31027 97.0637 -0.811091 86.9628 -0.898548 76.7424C-0.986005 66.5219 0.962196 56.3862 4.83246 46.9265C8.70271 37.4667 14.4176 28.8721 21.6438 21.6439C28.87 14.4156 37.463 8.69836 46.9217 4.82546C56.3804 0.95256 66.5155 -0.99847 76.736 -0.913866C86.9565 -0.829261 97.0579 1.28928 106.451 5.31824C115.844 9.34719 124.342 15.2059 131.447 22.5528C132.663 23.7686 133.832 25.0317 134.953 26.342Z" fill="white"/>
    <path d="M95.2339 36.4736H58.7602C52.8486 36.4736 47.1792 38.822 42.9991 43.0021C38.8191 47.1822 36.4707 52.8516 36.4707 58.7631V95.2368C36.4707 101.148 38.8191 106.818 42.9991 110.998C47.1792 115.178 52.8486 117.526 58.7602 117.526H95.2339C101.145 117.526 106.815 115.178 110.995 110.998C115.175 106.818 117.523 101.148 117.523 95.2368V58.7631C117.523 52.8516 115.175 47.1822 110.995 43.0021C106.815 38.822 101.145 36.4736 95.2339 36.4736ZM110.431 92.0352C110.431 96.9149 108.493 101.595 105.042 105.045C101.592 108.496 96.912 110.434 92.0323 110.434H61.9618C57.0821 110.434 52.4022 108.496 48.9517 105.045C45.5013 101.595 43.5628 96.9149 43.5628 92.0352V61.9647C43.5628 57.085 45.5013 52.4051 48.9517 48.9547C52.4022 45.5042 57.0821 43.5657 61.9618 43.5657H92.0323C96.912 43.5657 101.592 45.5042 105.042 48.9547C108.493 52.4051 110.431 57.085 110.431 61.9647V92.0352Z" fill="white"/>
    <path d="M91.7813 62.3701L91.5888 62.1776L91.4267 62.0155C87.5959 58.198 82.4075 56.0556 76.9993 56.0581C74.2682 56.0767 71.5676 56.6332 69.0517 57.6958C66.5358 58.7584 64.2539 60.3063 62.3364 62.2511C60.4188 64.1959 58.9033 66.4994 57.8764 69.0301C56.8494 71.5608 56.3311 74.269 56.3511 77.0001C56.347 82.5426 58.5318 87.8625 62.4301 91.8023C64.3396 93.735 66.6149 95.268 69.1233 96.3117C71.6318 97.3554 74.323 97.889 77.0398 97.8813C81.1151 97.7958 85.0775 96.5263 88.4437 94.2276C91.8099 91.9289 94.4344 88.7003 95.9972 84.9356C97.5601 81.1708 97.9936 77.0327 97.245 73.0259C96.4964 69.019 94.598 65.3166 91.7813 62.3701ZM76.9993 90.7385C74.2742 90.7767 71.5994 90.0035 69.3149 88.5173C67.0305 87.0311 65.2396 84.8991 64.1702 82.3923C63.1008 79.8855 62.8012 77.1173 63.3093 74.4398C63.8175 71.7622 65.1105 69.2963 67.024 67.3557C68.9374 65.415 71.3849 64.0873 74.055 63.5414C76.7251 62.9955 79.4972 63.2561 82.0188 64.2901C84.5404 65.324 86.6976 67.0845 88.2158 69.3478C89.7341 71.6111 90.545 74.2747 90.5452 77.0001C90.5586 78.7918 90.2187 80.5686 89.5451 82.2289C88.8714 83.8892 87.8772 85.4004 86.6192 86.6763C85.3612 87.9522 83.8641 88.9677 82.2135 89.6647C80.5628 90.3617 78.791 90.7266 76.9993 90.7385Z" fill="white"/>
    <path d="M103.775 55.0953C103.781 55.7455 103.658 56.3903 103.413 56.9928C103.169 57.5954 102.809 58.1439 102.352 58.6069C101.896 59.0699 101.353 59.4384 100.754 59.6911C100.155 59.9439 99.5116 60.0761 98.8614 60.0801C98.2168 60.0798 97.5785 59.9516 96.9838 59.7029C96.389 59.4542 95.8495 59.0899 95.3964 58.6313C94.7101 57.9348 94.2432 57.0523 94.0537 56.093C93.8642 55.1338 93.9604 54.14 94.3304 53.2349C94.7004 52.3298 95.328 51.5532 96.1352 51.0015C96.9425 50.4497 97.8939 50.147 98.8716 50.1309C100.016 50.1306 101.124 50.5322 102.002 51.2656L102.104 51.3669C102.267 51.4999 102.416 51.6493 102.549 51.8127L102.661 51.9343C103.386 52.8277 103.78 53.9446 103.775 55.0953Z" fill="white"/>
  </g>
  <defs>
    <clipPath id="clip0_102_16977">
      <rect width="154" height="154" fill="white"/>
    </clipPath>
  </defs>
</svg>