<svg xmlns="http://www.w3.org/2000/svg" width="154" height="154" viewBox="0 0 154 154" fill="none">
  <g clip-path="url(#clip0_102_16974)">
    <path d="M77 154C119.526 154 154 119.526 154 77C154 34.4741 119.526 0 77 0C34.4741 0 0 34.4741 0 77C0 119.526 34.4741 154 77 154Z" fill="#003D45"/>
    <path d="M35.2358 75.3315L109.477 46.7068C112.922 45.4619 115.932 47.5474 114.815 52.7577L114.822 52.7513L102.181 112.304C101.244 116.527 98.7352 117.553 95.2253 115.564L75.9753 101.377L66.6903 110.322C65.6637 111.348 64.7974 112.215 62.8083 112.215L64.175 92.6245L99.8517 60.3935C101.405 59.0268 99.5052 58.2568 97.4583 59.6171L53.3693 87.3756L34.3632 81.4466C30.2373 80.1376 30.1474 77.3207 35.2358 75.3315Z" fill="white"/>
  </g>
  <defs>
    <clipPath id="clip0_102_16974">
      <rect width="154" height="154" fill="white"/>
    </clipPath>
  </defs>
</svg>