<svg xmlns="http://www.w3.org/2000/svg" width="154" height="154" viewBox="0 0 154 154" fill="none">
  <g clip-path="url(#clip0_102_16966)">
    <path d="M154.004 77C154.004 119.524 119.528 154 77 154H76.8558C34.3959 153.92 0 119.467 0 77C0 34.5326 34.3959 0.0758957 76.8558 0H77C119.528 0 154.004 34.4642 154.004 77Z" fill="#003D45"/>
    <path d="M76.8558 0V154C34.3959 153.92 0 119.467 0 77C0 34.5326 34.3959 0.0758957 76.8558 0Z" fill="#003D45"/>
    <path d="M118.898 55.6845L118.803 71.4594C115.729 71.4219 112.671 71.0116 109.695 70.2375C105.105 69.0385 100.776 67.0019 96.926 64.2304C96.926 65.8432 96.9488 68.2491 96.9488 71.1748C96.9488 75.0683 96.9488 77.2807 96.926 79.6296C96.8577 94.1409 97.2182 96.949 95.9432 102.687C95.6779 104.07 95.3152 105.434 94.8579 106.766C92.4064 113.597 87.0634 119.069 81.6178 121.979C80.0982 122.787 78.5031 123.444 76.8554 123.941C66.5639 127.061 54.1967 124.321 47.8139 116.731L47.7722 116.686L47.7228 116.621C42.3001 110.079 41.1161 99.8786 41.0023 97.2678C41.0023 96.9338 40.9795 96.6075 40.9795 96.6075C40.8959 93.041 41.409 89.4857 42.4974 86.0883C43.5979 82.5744 47.2219 75.2391 55.3617 70.784C60.4383 68.0493 66.2326 66.9405 71.9601 67.6077L71.7742 83.5724C71.4516 83.4889 63.6533 81.6409 58.5342 86.9536C53.8969 91.7654 54.1967 99.5181 57.4868 103.909C57.6614 104.144 57.8473 104.372 58.0408 104.584C59.8813 106.637 62.2151 107.407 63.7899 107.946C65.8782 108.634 68.0698 108.955 70.2676 108.895C72.6221 108.858 74.9124 108.123 76.8478 106.781C82.1984 103.146 82.9195 96.672 82.946 96.3039C82.8802 75.463 82.8183 54.622 82.7601 33.781V33.762L92.7897 33.5837H92.9529L94.4063 33.5571C95.478 37.414 97.2944 41.0237 99.7531 44.1825C100.528 45.1706 101.364 46.1085 102.258 46.9907C105.633 50.2758 109.687 52.7809 114.135 54.3298H114.166C115.709 54.8937 117.29 55.3464 118.898 55.6845Z" fill="#FD2854"/>
    <path d="M114.363 62.8226H114.333C108.932 63.688 103.403 63.2681 98.1938 61.5969C94.5567 60.4143 91.1426 58.6329 88.0921 56.326C89.9212 67.3822 89.9212 78.6638 88.0921 89.7201C85.9253 102.713 84.5667 110.857 77.3149 116.067C77.1631 116.177 77.0075 116.287 76.8519 116.39C66.8375 123.171 52.8461 119.805 47.7194 116.614L47.6435 116.568L47.4993 116.477C45.8094 115.358 44.2243 114.088 42.7634 112.682C40.1445 110.142 38.0548 107.108 36.6147 103.756C35.1746 100.403 34.4128 96.7989 34.3731 93.1506C34.2757 89.3716 34.903 85.6089 36.2212 82.066C37.075 79.7891 40.2474 71.691 49.0855 66.7616C54.7448 63.6585 61.2843 62.5517 67.6496 63.6195C67.6243 64.8845 67.6003 66.1494 67.5775 67.4143V67.4409L67.4295 75.4479C64.6595 74.7951 61.7962 74.6358 58.9709 74.9773C56.694 75.2581 54.4627 75.52 52.091 77.0113C49.0535 78.9665 46.9036 82.0347 46.1028 85.5572C45.5961 87.2633 45.4921 89.0637 45.7992 90.8168C45.8903 91.3177 46.5582 94.7975 49.3663 97.2945C50.3112 98.1331 50.7135 98.1673 52.091 99.4537C53.3053 100.592 53.6089 101.139 54.7208 102.083C54.7208 102.083 54.994 102.315 55.4418 102.641C55.4705 102.666 55.5009 102.689 55.5328 102.71C56.1452 103.157 56.7881 103.562 57.4568 103.92C60.2384 105.377 65.2171 105.533 68.8677 103.761C73.9186 101.306 76.6736 95.6589 76.6622 92.3043C76.6015 71.4558 76.5395 50.6085 76.4763 29.7625H76.8254L92.3157 29.6714C92.3046 30.8797 92.4721 32.083 92.8128 33.2423C92.8508 33.3675 92.8887 33.4851 92.9305 33.6218C92.9722 33.7584 92.9988 33.8229 93.0329 33.9177C93.2733 34.5484 93.5508 35.1642 93.864 35.762L94.0803 36.1984V36.2326C94.0768 36.2424 94.0768 36.2531 94.0803 36.2629L94.1144 36.335L94.1486 36.4033C94.1692 36.4475 94.192 36.4905 94.2169 36.5324C94.2397 36.5817 94.2662 36.631 94.2928 36.6804C94.437 36.9574 94.6343 37.3217 94.8582 37.7315C94.9986 37.9858 95.1466 38.24 95.2984 38.4905L95.4616 38.7599C95.5413 38.8965 95.6248 39.0331 95.7082 39.1659L96.0118 39.6479C97.192 41.5111 99.264 44.6494 102.201 47.0211C106.33 50.353 111.073 51.2941 114.048 51.5749C114.067 52.5084 114.09 53.4419 114.109 54.3754C114.22 57.1937 114.305 60.0094 114.363 62.8226Z" fill="#24F6FA"/>
    <path d="M114.41 67.2819C106.591 67.5687 98.9138 65.1375 92.6851 60.4019V93.796C92.6092 95.0749 91.4897 109.18 78.7468 116.944C78.1169 117.324 77.4832 117.677 76.8494 118.003C64.8617 124.12 53.1472 119.327 51.9898 118.83C50.839 118.454 49.736 117.945 48.7035 117.312C48.3809 117.111 48.066 116.902 47.7662 116.686L47.4968 116.485C39.6795 110.55 39.3569 98.4598 39.3076 96.6763C39.2241 93.1098 39.7371 89.5545 40.8255 86.1571C42.1158 82.0398 45.9675 75.0991 53.6898 70.8528C57.9509 68.5339 62.7396 67.3573 67.5901 67.4375V67.464C67.5269 71.4738 67.4637 75.4849 67.4004 79.4973C66.5845 79.2772 61.583 78.0173 56.6953 81.0949C53.6578 83.0501 51.5079 86.1182 50.7071 89.6407C50.228 91.3503 50.1245 93.1432 50.4036 94.8965C50.8369 97.0614 51.8584 99.065 53.3559 100.687C53.9854 101.412 54.6887 102.07 55.4544 102.649C55.4832 102.674 55.5136 102.697 55.5455 102.718C56.1468 103.181 56.791 103.587 57.4695 103.928L57.4922 103.947C58.8483 105.995 60.8044 107.573 63.0924 108.466C65.3805 109.358 67.8886 109.522 70.2731 108.933C71.384 108.702 72.4631 108.337 73.4872 107.848C74.7276 107.258 75.8643 106.471 76.8532 105.518C80.6935 101.826 81.2552 96.718 81.2817 96.4106L81.1148 33.8384L82.7845 33.8043L92.8141 33.6069H92.9583C92.9962 33.7056 93.038 33.8043 93.0797 33.9029C93.3112 34.4608 93.5882 35.0793 93.9108 35.7472L94.1271 36.1836V36.2177C94.1236 36.2276 94.1236 36.2383 94.1271 36.2481L94.1612 36.3202L94.1954 36.3885C94.216 36.4326 94.2388 36.4757 94.2637 36.5175C94.2865 36.5669 94.313 36.6162 94.3396 36.6655C94.5142 37.0071 94.7191 37.36 94.905 37.7167C95.0454 37.9709 95.1934 38.2252 95.3452 38.4756L95.5084 38.7451L95.755 39.1511L96.0586 39.6331C97.7945 42.3479 99.8749 44.8263 102.248 47.0063C105.711 50.177 109.741 52.6668 114.126 54.3454H114.156C114.205 57.1574 114.255 59.9769 114.3 62.7888L114.41 67.2819Z" fill="white"/>
    <path opacity="0.17" d="M118.902 55.6846L118.807 71.4596C115.733 71.422 112.675 71.0117 109.699 70.2376C105.109 69.0386 100.78 67.002 96.93 64.2305C96.93 65.8433 96.9528 68.2492 96.9528 71.175C96.9528 75.0684 96.9528 77.2808 96.93 79.6297C96.8617 94.141 97.2222 96.9491 95.9471 102.687C95.6819 104.071 95.3192 105.434 94.8618 106.766C92.4104 113.597 87.0674 119.069 81.6218 121.98C80.1022 122.787 78.5071 123.445 76.8594 123.941V29.7625L92.3497 29.6714C92.3386 30.8797 92.5061 32.083 92.8468 33.2423C92.8848 33.3675 92.9227 33.4851 92.9644 33.6218L94.4178 33.5952C95.4895 37.452 97.306 41.0617 99.7647 44.2206C100.539 45.2086 101.376 46.1466 102.269 47.0287C106.398 50.3606 111.141 51.3017 114.117 51.5825C114.136 52.516 114.158 53.4495 114.177 54.383C115.719 54.9286 117.298 55.3635 118.902 55.6846Z" fill="#003D45"/>
  </g>
  <defs>
    <clipPath id="clip0_102_16966">
      <rect width="154" height="154" fill="white"/>
    </clipPath>
  </defs>
</svg>