<svg width="358" height="213" viewBox="0 0 358 213" fill="none" xmlns="http://www.w3.org/2000/svg">
<g clip-path="url(#clip0_239_184572)">
<path d="M269.429 201.047C306.58 163.863 306.58 103.575 269.429 66.3903C232.279 29.2058 172.045 29.2058 134.894 66.3903C97.7436 103.575 97.7436 163.863 134.894 201.047C172.045 238.232 232.279 238.232 269.429 201.047Z" fill="#FDEEE1"/>
<path d="M265.279 81.6431H250.959C250.302 81.6431 249.771 82.1755 249.771 82.8322V83.01C249.771 83.6668 250.302 84.1992 250.959 84.1992H265.279C265.935 84.1992 266.467 83.6668 266.467 83.01V82.8322C266.467 82.1755 265.935 81.6431 265.279 81.6431Z" fill="white"/>
<path d="M279.41 87.4463H250.974C250.31 87.4463 249.771 87.9858 249.771 88.6513V88.833C249.771 89.4985 250.31 90.038 250.974 90.038H279.41C280.075 90.038 280.614 89.4985 280.614 88.833V88.6513C280.614 87.9858 280.075 87.4463 279.41 87.4463Z" fill="white"/>
<path d="M261.521 93.2539H250.974C250.31 93.2539 249.771 93.7934 249.771 94.4589V94.6406C249.771 95.3061 250.31 95.8456 250.974 95.8456H261.521C262.186 95.8456 262.725 95.3061 262.725 94.6406V94.4589C262.725 93.7934 262.186 93.2539 261.521 93.2539Z" fill="white"/>
<path d="M276.449 93.2539H265.903C265.238 93.2539 264.699 93.7934 264.699 94.4589V94.6406C264.699 95.3061 265.238 95.8456 265.903 95.8456H276.449C277.114 95.8456 277.653 95.3061 277.653 94.6406V94.4589C277.653 93.7934 277.114 93.2539 276.449 93.2539Z" fill="white"/>
<path d="M227.797 101.1C235.048 102.601 242.141 97.9317 243.641 90.6742C245.14 83.4167 240.475 76.3172 233.224 74.8159C225.973 73.3146 218.88 77.9844 217.38 85.238C215.88 92.4955 220.546 99.595 227.797 101.096V101.1Z" fill="#0BB4CA"/>
<path d="M230.516 101.89C229.585 101.89 228.641 101.796 227.694 101.602C224.055 100.847 220.925 98.7219 218.884 95.6126C216.843 92.5034 216.133 88.7858 216.883 85.1392C218.438 77.617 225.815 72.7655 233.331 74.3182C240.846 75.8748 245.697 83.2587 244.142 90.7769C242.784 97.351 236.978 101.886 230.516 101.886V101.89ZM230.508 75.049C224.521 75.049 219.141 79.2526 217.882 85.3447C217.183 88.7226 217.842 92.1676 219.733 95.0477C221.623 97.9278 224.525 99.8992 227.899 100.598C234.862 102.041 241.699 97.5406 243.139 90.5715C243.838 87.1936 243.179 83.7486 241.288 80.8685C239.397 77.9884 236.496 76.017 233.121 75.3177C232.245 75.136 231.369 75.049 230.508 75.049Z" fill="#303030"/>
<path d="M233.358 95.0516C234.207 95.4309 235.083 95.7193 235.987 95.8774C236.804 96.0235 237.629 95.6877 238.158 95.0516L239.01 94.0165C239.575 93.3331 239.464 92.3217 238.77 91.7725C237.526 90.7927 235.711 89.485 235.059 89.6628C234.037 89.9433 232.561 91.2273 232.561 91.2273C232.561 91.2273 232.391 91.1523 232.087 90.9863C230.015 89.8643 228.282 88.1892 227.094 86.1506C226.92 85.8504 226.837 85.6844 226.837 85.6844C226.837 85.6844 228.069 84.1674 228.318 83.1323C228.475 82.4764 227.11 80.7026 226.087 79.4936C225.515 78.8181 224.505 78.739 223.838 79.3277L222.618 80.4062C221.955 80.991 221.667 81.8996 221.896 82.753C222.077 83.4325 222.432 84.1713 222.914 84.9377C222.914 84.9377 226.458 92.0688 232.565 94.7277L233.358 95.0516Z" fill="white"/>
<path d="M236.37 96.4223C236.212 96.4223 236.058 96.4104 235.9 96.3788C235 96.2169 234.076 95.9285 233.161 95.5176L232.375 95.1976C226.249 92.5269 222.713 85.6644 222.468 85.1785C221.943 84.337 221.588 83.5626 221.406 82.8792C221.134 81.8559 221.477 80.7339 222.286 80.0188L223.506 78.9403C223.932 78.5649 224.473 78.3793 225.037 78.4227C225.602 78.4662 226.115 78.7269 226.482 79.1615C229.063 82.2233 228.894 82.9424 228.819 83.2505C228.61 84.1276 227.836 85.2259 227.449 85.7355C227.477 85.7829 227.504 85.8343 227.54 85.8936C228.685 87.8531 230.342 89.4571 232.336 90.5357C232.395 90.5673 232.446 90.595 232.494 90.6187C232.991 90.2157 234.061 89.4058 234.929 89.1687C235.233 89.0858 235.943 88.8922 239.089 91.3693C239.535 91.7209 239.812 92.2227 239.875 92.7876C239.934 93.3526 239.768 93.9017 239.409 94.3403L238.556 95.3754C238.004 96.043 237.199 96.4223 236.374 96.4223H236.37ZM223.38 84.7281C223.581 85.1232 227.054 91.7683 232.766 94.2612L233.547 94.5773C233.547 94.5773 233.559 94.5813 233.563 94.5852C234.408 94.9645 235.253 95.2292 236.074 95.3754C236.689 95.486 237.341 95.2371 237.759 94.7235L238.612 93.6884C238.797 93.4671 238.88 93.1827 238.849 92.8982C238.817 92.6098 238.675 92.353 238.446 92.1713C235.825 90.1011 235.201 90.1485 235.178 90.1564C234.44 90.3579 233.275 91.2745 232.888 91.6103C232.738 91.7407 232.525 91.7723 232.348 91.6933C232.34 91.6933 232.158 91.6103 231.838 91.4365C229.679 90.271 227.883 88.5327 226.648 86.4111C226.466 86.099 226.379 85.9173 226.375 85.9094C226.289 85.7316 226.312 85.5183 226.439 85.3642C226.762 84.9651 227.639 83.7681 227.816 83.0174C227.816 83.0016 227.844 82.3774 225.693 79.8252C225.507 79.604 225.243 79.4697 224.955 79.446C224.666 79.4223 224.39 79.5171 224.173 79.7107L222.953 80.7892C222.436 81.2475 222.211 81.9665 222.385 82.6184C222.543 83.211 222.866 83.8984 223.344 84.6649C223.356 84.6846 223.368 84.7044 223.376 84.7281H223.38Z" fill="#333333"/>
<path d="M163.778 179.463L162.511 169.33C160.774 171.708 142.08 167.67 135.966 166.177L95.934 154.834C95.934 154.834 101.48 90.6624 101.527 89.8999C104.282 86.7156 108.131 81.0108 108.391 73.7256C112.413 65.6108 116.582 58.0332 118.196 56.5438C120.071 54.8094 120.189 51.8859 118.46 50.0053C116.728 48.1287 113.807 48.0102 111.928 49.7406C110.069 51.4592 107.476 55.643 104.906 60.3247C103.702 57.808 102.439 55.5838 101.555 54.1062C101.318 47.9628 101.085 39.7966 101.275 34.7397L101.622 25.5226C101.717 22.9704 99.743 20.8094 97.1774 20.7264C94.6275 20.6316 92.4803 22.6228 92.3855 25.1749L92.0382 34.392C91.8645 39.0302 92.0145 45.9084 92.2158 51.7437C82.6558 51.3723 67.9565 51.5303 66.5987 55.8998C64.783 61.7272 66.7921 87.2727 66.6185 87.249C66.4606 90.6387 65.9474 94.7317 65.6632 98.4533C65.6751 98.4533 65.6909 98.4533 65.7027 98.4533C61.5306 126.776 57.0742 175.224 68.3828 183.327C85.0991 195.306 141.35 214.06 146.548 221.068C151.747 228.077 159.191 181.952 159.191 181.952L158.769 181.77L163.782 179.463H163.778Z" fill="#FDC3CB"/>
<path d="M147.673 222.305C147.227 222.305 146.675 222.104 146.134 221.373C143.635 218.003 128.23 211.527 111.916 204.673C95.3339 197.704 76.5415 189.806 68.0788 183.742C62.9356 180.056 60.4608 168.188 60.7252 148.47C60.9739 129.7 63.6027 109.223 65.1697 98.5679C65.1539 98.5205 65.15 98.4691 65.1539 98.4178C65.2684 96.9165 65.4223 95.3322 65.5723 93.8033C65.7894 91.5593 66.0184 89.2402 66.1091 87.2293C66.1091 87.2016 66.1131 87.174 66.121 87.1463C66.1249 86.8658 66.0539 85.5423 65.971 84.0213C65.5842 76.9455 64.6724 60.3761 66.1131 55.7498C67.2301 52.1664 75.831 50.6415 91.6907 51.2143C91.442 43.8225 91.3907 38.1571 91.5328 34.3763L91.8802 25.1592C91.9828 22.3937 94.2642 20.2168 97.0075 20.2168C97.0707 20.2168 97.1378 20.2168 97.2009 20.2168C98.5667 20.2603 99.8297 20.8371 100.761 21.8366C101.701 22.844 102.19 24.1596 102.139 25.5424L101.791 34.7595C101.602 39.7967 101.835 47.951 102.064 53.9561C102.822 55.2243 103.88 57.0812 104.941 59.2146C107.767 54.1379 110.006 50.8232 111.588 49.3614C113.668 47.4414 116.925 47.5757 118.843 49.6538C120.762 51.7358 120.627 54.9912 118.547 56.9152C117.15 58.2032 113.365 64.8483 108.9 73.8521C108.608 80.9713 105.032 86.5932 102.024 90.1054C101.732 93.6848 96.9878 148.588 96.4826 154.455L136.112 165.683C139.649 166.544 145.676 167.856 150.965 168.698C160.427 170.203 161.883 169.33 162.104 169.025C162.226 168.856 162.44 168.78 162.645 168.832C162.846 168.883 162.996 169.057 163.024 169.262L164.291 179.396C164.318 179.617 164.2 179.831 163.999 179.926L159.7 181.905C159.7 181.948 159.7 181.988 159.696 182.031C159.681 182.126 158.114 191.805 155.947 201.504C151.506 221.412 148.901 222.048 148.048 222.258C147.938 222.285 147.815 222.301 147.681 222.301L147.673 222.305ZM66.1841 98.319C66.2078 98.3862 66.2157 98.4573 66.2078 98.5284C60.8831 134.654 58.7398 175.793 68.6787 182.912C77.0467 188.909 95.7839 196.783 112.315 203.729C129.473 210.939 144.291 217.169 146.955 220.76C147.401 221.361 147.701 221.29 147.8 221.262C148.652 221.053 151.06 218.69 154.944 201.279C156.854 192.714 158.299 184.169 158.619 182.26L158.567 182.237C158.382 182.158 158.26 181.976 158.26 181.774C158.26 181.573 158.374 181.387 158.556 181.304L163.229 179.151L162.108 170.203C160.865 170.681 157.975 170.847 150.803 169.709C145.483 168.863 139.42 167.544 135.848 166.671L95.7957 155.324C95.5589 155.257 95.405 155.032 95.4247 154.787C95.48 154.147 100.97 90.6151 101.014 89.8684C101.022 89.7577 101.065 89.6511 101.136 89.5642C104.073 86.1705 107.625 80.6671 107.878 73.7059C107.878 73.6348 107.898 73.5637 107.929 73.4965C111.541 66.2113 116.041 57.8318 117.849 56.1646C119.514 54.6238 119.621 52.0163 118.085 50.3491C116.546 48.6819 113.941 48.5752 112.275 50.1121C110.684 51.5817 108.356 55.0979 105.356 60.5657C105.265 60.7316 105.083 60.8383 104.894 60.8304C104.704 60.8265 104.531 60.7119 104.448 60.542C103.236 58.0096 101.969 55.7853 101.117 54.367C101.073 54.2919 101.049 54.209 101.045 54.1221C100.813 48.0853 100.576 39.8204 100.765 34.716L101.113 25.4989C101.156 24.3888 100.761 23.3339 100.011 22.528C99.2653 21.7299 98.2548 21.2716 97.1615 21.2361C94.8879 21.1492 92.9814 22.927 92.8946 25.1947L92.5472 34.4118C92.4012 38.2638 92.4604 44.0911 92.7249 51.7279C92.7288 51.8701 92.6735 52.0084 92.5749 52.1072C92.4722 52.2059 92.342 52.2613 92.1959 52.2573C77.173 51.6726 68.0196 53.0554 67.0841 56.054C65.6986 60.5025 66.6025 76.9455 66.9854 83.966C67.1038 86.0875 67.1472 86.9093 67.1157 87.2727H67.1275C67.0328 89.3113 66.8038 91.6422 66.5867 93.8981C66.4446 95.3638 66.2947 96.877 66.1841 98.319Z" fill="#303030"/>
<path d="M194.108 169.993C194.108 169.993 211.759 167.2 224.959 171.226C238.158 175.252 250.004 196.226 251.985 207.881C253.97 219.536 250.607 222.198 250.607 222.198L224.967 223.253L220.972 280.326L131.241 279.927C131.241 279.927 129.287 223.301 128.885 220.294C128.482 217.288 99.2417 207.304 99.2417 207.304L108.979 156.071L157.616 169.191L194.108 169.997V169.993Z" fill="#0BB4CA"/>
<path d="M220.98 280.831L131.249 280.432C130.977 280.432 130.752 280.215 130.74 279.938C130.72 279.374 128.782 223.305 128.388 220.357C128.348 220.093 127.448 218.493 113.716 213.135C106.457 210.303 99.1588 207.81 99.0877 207.782C98.847 207.699 98.7049 207.454 98.7522 207.201L108.49 155.968C108.518 155.83 108.6 155.707 108.719 155.632C108.837 155.557 108.987 155.534 109.121 155.573L157.695 168.678L194.08 169.48C195.102 169.326 212.284 166.825 225.113 170.736C238.474 174.809 250.442 195.736 252.494 207.794C254.507 219.611 251.077 222.483 250.931 222.597C250.848 222.665 250.742 222.704 250.635 222.708L225.452 223.743L221.489 280.357C221.469 280.626 221.248 280.831 220.98 280.831ZM131.743 279.413L220.506 279.808L224.465 223.214C224.485 222.953 224.694 222.751 224.955 222.74L250.398 221.693C250.911 221.112 253.181 217.892 251.492 207.964C250.465 201.935 246.929 193.895 242.263 186.978C236.816 178.906 230.623 173.486 224.817 171.716C211.886 167.773 194.368 170.471 194.191 170.499C194.159 170.503 194.131 170.507 194.1 170.507L157.608 169.701C157.569 169.701 157.525 169.693 157.486 169.685L109.382 156.707L99.8298 206.964C101.492 207.537 107.811 209.742 114.103 212.195C129.106 218.046 129.307 219.575 129.394 220.227C129.781 223.111 131.533 273.499 131.739 279.421L131.743 279.413Z" fill="#303030"/>
<path d="M80.9345 81.1688C80.9345 81.1688 80.9029 81.1688 80.8871 81.1688C80.6069 81.1411 80.3977 80.8962 80.4253 80.6157C81.2542 71.5013 85.9908 67.1358 89.8195 65.0814C93.9562 62.8611 97.8441 62.7979 98.0099 62.7979H98.0139C98.2941 62.7979 98.523 63.023 98.523 63.3035C98.523 63.584 98.2981 63.8171 98.0178 63.8211C97.9783 63.8211 94.1851 63.8883 90.2656 66.0019C85.0435 68.8227 82.0752 73.7691 81.4437 80.7105C81.42 80.9752 81.1989 81.1767 80.9345 81.1767V81.1688Z" fill="#303030"/>
<path d="M86.7172 44.332C84.7199 44.4743 83.0621 45.616 82.2648 47.145C81.2898 45.8807 79.6083 45.1024 77.7255 45.2368C75.602 45.3908 73.8297 46.6511 73.1034 48.3262C73.0008 48.5672 72.9337 48.8161 72.8745 49.0729C72.0337 47.8087 70.443 47.0067 68.6471 47.1331C66.7406 47.2714 65.1538 48.4013 64.5025 49.9026C64.2736 50.428 64.1591 51.0009 64.1907 51.5935L64.8183 64.3662C64.9328 66.6458 67.1077 68.3407 69.6812 68.155C71.489 68.0246 72.9929 66.9935 73.7034 65.6068C74.3823 67.5426 76.4664 68.8622 78.882 68.6884C80.8793 68.5461 82.545 67.4162 83.3423 65.8912C84.3212 67.1476 85.9948 67.9219 87.8737 67.7876C90.0486 67.6296 91.7814 66.2863 92.4682 64.5519C93.1155 58.4836 92.6261 53.9165 92.105 45.8807C91.1577 45.217 88.0474 44.2412 86.7211 44.3399L86.7172 44.332Z" fill="#FDC3CB"/>
<path d="M78.46 69.2101C76.4193 69.2101 74.5799 68.2185 73.6286 66.6461C72.7129 67.7997 71.288 68.5464 69.713 68.661C68.2408 68.7637 66.8079 68.3015 65.7777 67.3888C64.8857 66.5987 64.3607 65.532 64.3054 64.3863L63.6778 51.6135C63.6463 50.9538 63.7647 50.3098 64.0331 49.6935C64.7791 47.9709 66.5751 46.766 68.6078 46.6198C70.167 46.5092 71.6472 47.0386 72.6734 48.0342C73.5181 46.1813 75.4759 44.8854 77.6903 44.7274C79.4152 44.6049 81.0532 45.1817 82.19 46.2958C83.1887 44.8854 84.8504 43.957 86.6819 43.8266C88.1029 43.7278 91.3474 44.7274 92.3934 45.4583C92.5197 45.5452 92.6026 45.6874 92.6105 45.8454C92.6855 46.9912 92.7566 48.0697 92.8276 49.089C93.25 55.2719 93.5302 59.357 92.9697 64.6036C92.9658 64.651 92.9539 64.6944 92.9382 64.7379C92.1448 66.737 90.1672 68.1316 87.9055 68.2936C86.1806 68.416 84.5544 67.8432 83.4136 66.737C82.419 68.1395 80.7533 69.0639 78.9139 69.1943C78.7599 69.2062 78.61 69.2101 78.46 69.2101ZM73.6997 65.0935C73.6997 65.0935 73.7234 65.0935 73.7352 65.0935C73.9405 65.1053 74.1141 65.2396 74.1812 65.4332C74.8049 67.1992 76.7232 68.3291 78.8428 68.175C80.5875 68.0486 82.1387 67.0807 82.8887 65.6505C82.9676 65.4964 83.1216 65.3937 83.2952 65.3779C83.465 65.3661 83.6386 65.4372 83.7452 65.5715C84.6649 66.7528 86.1964 67.3928 87.8384 67.2703C89.6896 67.136 91.304 66.0219 91.9711 64.4179C92.5079 59.2938 92.2356 55.2522 91.8172 49.1522C91.754 48.208 91.6869 47.2164 91.6158 46.1655C90.5501 45.561 87.8463 44.755 86.7608 44.838C85.0241 44.9644 83.4768 45.9363 82.7268 47.3783C82.6479 47.5324 82.494 47.6351 82.3203 47.6509C82.1506 47.6628 81.9769 47.5917 81.8703 47.4534C80.9506 46.2642 79.4152 45.6203 77.7692 45.7427C75.8983 45.877 74.2523 46.9675 73.5773 48.524C73.4865 48.7334 73.4273 48.9626 73.376 49.1799C73.3286 49.3774 73.1708 49.5315 72.9695 49.567C72.7682 49.6026 72.5668 49.5157 72.4524 49.3458C71.6748 48.1803 70.2262 47.5206 68.6868 47.6351C67.029 47.7537 65.5725 48.7216 64.9725 50.0964C64.7673 50.5666 64.6765 51.0604 64.7002 51.5582L65.3278 64.331C65.3712 65.2001 65.7738 66.014 66.4566 66.6224C67.2816 67.3533 68.4421 67.7246 69.642 67.6377C71.209 67.5271 72.5866 66.654 73.2458 65.3661C73.3326 65.1962 73.5102 65.0856 73.6997 65.0856V65.0935Z" fill="#303030"/>
<path d="M83.3387 66.3969C83.0585 66.3969 82.8296 66.1717 82.8296 65.8912L82.6914 51.7436C82.6914 51.4631 82.9164 51.23 83.1966 51.2261H83.2006C83.4808 51.2261 83.7098 51.4513 83.7098 51.7318L83.8479 65.8794C83.8479 66.1599 83.6229 66.393 83.3427 66.3969H83.3387Z" fill="#303030"/>
<path d="M73.6994 66.1123C73.4231 66.1123 73.1942 65.8911 73.1903 65.6106L72.9297 52.8931C72.9258 52.6126 73.1468 52.3795 73.431 52.3716C73.7152 52.3677 73.9442 52.5889 73.9521 52.8734L74.2126 65.5908C74.2165 65.8713 73.9955 66.1044 73.7113 66.1123H73.6994Z" fill="#303030"/>
<path d="M263.404 103.293L282.402 105.802C285.97 106.272 287.336 109.29 285.457 112.538L265.232 147.502C263.353 150.753 258.936 153.005 255.368 152.535L236.37 150.026C232.802 149.556 231.436 146.538 233.315 143.29L253.54 108.326C255.419 105.075 259.836 102.823 263.404 103.293Z" fill="#81A8C2"/>
<path d="M256.319 153.104C255.975 153.104 255.632 153.084 255.301 153.037L236.303 150.528C234.456 150.283 233.062 149.394 232.387 148.019C231.677 146.569 231.846 144.8 232.873 143.026L253.098 108.062C255.068 104.652 259.721 102.282 263.471 102.779L282.469 105.288C284.316 105.533 285.709 106.422 286.384 107.797C287.095 109.247 286.925 111.017 285.899 112.791L265.674 147.755C263.878 150.86 259.856 153.104 256.319 153.104ZM262.421 103.739C259.236 103.739 255.604 105.77 253.978 108.579L233.753 143.543C232.904 145.009 232.746 146.439 233.303 147.573C233.824 148.632 234.937 149.323 236.437 149.521L255.435 152.029C258.814 152.476 263.005 150.331 264.789 147.249L285.015 112.285C285.863 110.819 286.021 109.389 285.465 108.255C284.944 107.196 283.831 106.505 282.331 106.307L263.333 103.799C263.033 103.759 262.729 103.739 262.421 103.739Z" fill="#333333"/>
<path d="M274.95 110.724C275.593 109.412 277.318 108.508 278.802 108.705C280.286 108.903 280.973 110.124 280.33 111.435C279.686 112.747 277.961 113.652 276.477 113.454C274.989 113.257 274.306 112.036 274.95 110.724Z" fill="#303030"/>
<path d="M276.899 113.992C276.738 113.992 276.572 113.98 276.414 113.96C275.526 113.842 274.811 113.391 274.452 112.72C274.101 112.06 274.113 111.27 274.492 110.495C275.234 108.978 277.156 107.967 278.869 108.196C279.757 108.314 280.472 108.765 280.831 109.433C281.182 110.092 281.17 110.882 280.791 111.657C280.12 113.032 278.478 113.988 276.899 113.988V113.992ZM278.395 109.188C277.211 109.188 275.905 109.938 275.407 110.946C275.178 111.416 275.159 111.874 275.352 112.238C275.557 112.621 275.98 112.87 276.548 112.945C277.807 113.111 279.335 112.317 279.876 111.206C280.105 110.736 280.124 110.278 279.931 109.914C279.726 109.531 279.303 109.282 278.735 109.207C278.624 109.192 278.506 109.184 278.391 109.184L278.395 109.188Z" fill="#333333"/>
<path d="M273.367 115.979C273.753 115.188 274.795 114.643 275.691 114.762C276.587 114.88 277.002 115.615 276.615 116.409C276.228 117.199 275.186 117.745 274.29 117.626C273.394 117.508 272.98 116.773 273.367 115.979Z" fill="#303030"/>
<path d="M274.535 118.152C274.429 118.152 274.322 118.144 274.219 118.132C273.619 118.053 273.134 117.741 272.885 117.278C272.644 116.828 272.652 116.271 272.905 115.753C273.39 114.766 274.638 114.106 275.755 114.256C276.355 114.335 276.84 114.647 277.089 115.109C277.33 115.56 277.322 116.117 277.069 116.634C276.631 117.531 275.561 118.156 274.535 118.156V118.152ZM273.825 116.204C273.714 116.429 273.702 116.638 273.785 116.796C273.876 116.966 274.077 117.081 274.354 117.116C275.036 117.203 275.861 116.777 276.154 116.18C276.264 115.955 276.276 115.746 276.193 115.588C276.102 115.418 275.901 115.303 275.625 115.264C274.942 115.177 274.117 115.603 273.825 116.2V116.204Z" fill="#333333"/>
<path d="M287.746 147.711C288.302 140.442 280.365 128.542 276.757 123.244C273.149 117.946 270.639 119.847 270.639 119.847C270.639 119.847 269.285 117.709 266.636 116.291C263.988 114.877 262.279 118.535 262.279 118.535C262.279 118.535 258.059 117.65 255.908 120.198C253.785 122.719 258.691 130.466 258.801 130.644C258.667 130.581 255.111 129.008 253.169 132.41C251.191 135.887 257.669 146.692 257.669 146.692C243.325 153.408 247.288 167.255 247.402 167.651L247.414 167.718C247.366 167.714 247.319 167.71 247.272 167.706C247.718 182.817 245.286 211.322 244.726 221.606C234.222 222.85 224.974 223.238 224.974 223.238L224.07 240.115C224.212 240.486 225.389 244.208 225.535 244.572C232.028 260.56 253.09 269.943 268.677 259.169C275.099 254.729 280.85 251.181 280.349 196.313C280.282 189.099 279.35 180.17 280.262 165.126C283.665 159.117 287.45 151.654 287.75 147.711H287.746Z" fill="#FDC3CB"/>
<path d="M253.876 264.31C251.124 264.31 248.314 263.895 245.508 263.057C236.366 260.327 228.535 253.319 225.061 244.765C224.978 244.564 224.67 243.616 224.213 242.193C223.936 241.34 223.652 240.455 223.593 240.297C223.569 240.23 223.557 240.159 223.561 240.088L224.465 223.21C224.481 222.945 224.69 222.74 224.955 222.728C225.045 222.724 234.053 222.337 244.244 221.148C244.383 218.694 244.615 215.305 244.884 211.413C245.768 198.573 247.102 179.171 246.763 167.722C246.763 167.631 246.782 167.54 246.826 167.461C246.273 165.225 243.913 152.91 256.946 146.471C255.593 144.136 250.836 135.472 252.727 132.157C254.14 129.68 256.311 129.558 257.696 129.795C256.264 127.31 253.647 122.087 255.518 119.866C257.471 117.555 260.858 117.804 262.003 117.966C262.366 117.334 263.242 116.03 264.545 115.596C265.314 115.339 266.1 115.422 266.877 115.837C268.966 116.951 270.272 118.48 270.801 119.187C271.156 119.049 271.697 118.93 272.4 119.045C273.982 119.305 275.593 120.617 277.18 122.952C282.185 130.304 288.78 140.873 288.255 147.747C288.003 151.022 285.484 156.917 280.76 165.272C280.112 176.062 280.416 183.679 280.657 189.806C280.748 192.118 280.835 194.298 280.854 196.305C281.352 251.031 275.68 254.95 269.108 259.486L268.962 259.588C264.446 262.709 259.263 264.306 253.872 264.306L253.876 264.31ZM224.584 240.044C224.674 240.313 224.88 240.945 225.184 241.877C225.519 242.912 225.934 244.196 226.009 244.378C229.368 252.647 236.95 259.43 245.8 262.073C253.801 264.464 261.821 263.282 268.385 258.747L268.531 258.644C271.634 256.503 274.563 254.48 276.662 246.33C279.054 237.049 280.065 221.156 279.836 196.313C279.816 194.322 279.729 192.149 279.639 189.846C279.394 183.675 279.086 175.995 279.749 165.091C279.753 165.012 279.777 164.937 279.816 164.869C284.434 156.711 287.004 150.761 287.241 147.668C287.801 140.355 279.173 127.689 276.339 123.529C274.582 120.953 273.161 120.222 272.277 120.06C271.44 119.91 270.963 120.238 270.943 120.254C270.829 120.337 270.683 120.368 270.544 120.341C270.406 120.313 270.284 120.234 270.209 120.115C270.197 120.096 268.887 118.069 266.396 116.737C265.867 116.457 265.37 116.398 264.868 116.564C263.578 116.99 262.749 118.729 262.741 118.748C262.638 118.962 262.405 119.08 262.172 119.033C262.133 119.025 258.225 118.243 256.295 120.526C254.918 122.162 257.298 127.306 259.232 130.368C259.354 130.557 259.334 130.806 259.184 130.976C259.038 131.146 258.794 131.201 258.588 131.106C258.454 131.047 255.32 129.664 253.607 132.663C252.107 135.298 256.342 143.492 258.099 146.427C258.174 146.55 258.19 146.7 258.15 146.838C258.107 146.976 258.008 147.091 257.878 147.15C244.004 153.645 247.722 166.94 247.888 167.501C247.896 167.52 247.9 167.54 247.903 167.56L247.915 167.627C247.939 167.781 247.896 167.939 247.789 168.054C248.093 179.594 246.771 198.751 245.898 211.476C245.614 215.597 245.369 219.153 245.235 221.626C245.223 221.875 245.034 222.076 244.785 222.104C235.703 223.178 227.465 223.621 225.456 223.72L224.584 240.032V240.044Z" fill="#303030"/>
<path d="M264.675 141.425C264.478 141.425 264.292 141.311 264.209 141.121C264.186 141.066 261.671 135.428 258.395 130.948C258.229 130.719 258.277 130.403 258.506 130.233C258.734 130.067 259.054 130.114 259.22 130.344C262.563 134.915 265.117 140.647 265.145 140.706C265.259 140.963 265.145 141.267 264.884 141.382C264.817 141.414 264.746 141.425 264.679 141.425H264.675Z" fill="#303030"/>
<path d="M272.589 134.749C272.411 134.749 272.238 134.658 272.147 134.492C272.072 134.357 264.438 120.96 261.959 118.934C261.742 118.756 261.707 118.432 261.888 118.215C262.066 117.997 262.389 117.962 262.607 118.144C265.231 120.289 272.715 133.429 273.035 133.986C273.173 134.231 273.09 134.543 272.845 134.681C272.767 134.725 272.68 134.749 272.593 134.749H272.589Z" fill="#303030"/>
<path d="M279.173 134.33C278.964 134.33 278.766 134.199 278.691 133.99C276.753 128.562 270.3 120.245 270.232 120.162C270.059 119.941 270.098 119.617 270.319 119.443C270.54 119.27 270.864 119.309 271.038 119.53C271.306 119.878 277.661 128.064 279.654 133.642C279.749 133.907 279.611 134.199 279.346 134.294C279.291 134.314 279.232 134.326 279.177 134.326L279.173 134.33Z" fill="#303030"/>
<path d="M177.222 90.2004C164.678 89.8685 145.502 95.6484 143.446 115.963C141.389 136.282 135.859 158.41 135.859 158.41C135.859 158.41 142.439 161.44 149.655 161.819L152.066 156.932L152.126 161.883C152.126 161.883 178.714 163.534 197.163 163.641C215.612 163.747 218.162 160.769 218.162 160.769C218.162 160.769 212.241 147.285 211.886 139.087C211.53 130.889 217.238 116.382 209.955 104.004C202.673 91.6266 177.222 90.1925 177.222 90.1925V90.2004Z" fill="#303030"/>
<path d="M198.13 164.162C197.81 164.162 197.491 164.162 197.159 164.162C178.907 164.055 152.363 162.42 152.094 162.404C151.826 162.388 151.621 162.167 151.617 161.902L151.581 159.081L150.113 162.06C150.022 162.242 149.833 162.353 149.627 162.345C142.396 161.961 135.915 159.014 135.646 158.888C135.425 158.785 135.307 158.536 135.366 158.299C135.422 158.078 140.908 135.969 142.937 115.923C145.1 94.5657 165.511 89.3863 177.234 89.7024C177.238 89.7024 177.246 89.7024 177.25 89.7024C177.313 89.7024 183.747 90.0856 190.986 91.9819C200.775 94.546 207.303 98.5086 210.394 103.763C215.655 112.708 214.262 122.663 213.145 130.664C212.687 133.931 212.292 136.752 212.395 139.083C212.742 147.087 218.572 160.444 218.632 160.579C218.711 160.76 218.679 160.966 218.553 161.116C218.28 161.432 215.43 164.17 198.13 164.17V164.162ZM152.635 161.408C156.294 161.63 180.289 163.04 197.171 163.139C212.17 163.226 216.548 161.234 217.542 160.614C216.571 158.35 211.708 146.656 211.381 139.118C211.274 136.696 211.677 133.832 212.142 130.514C213.24 122.671 214.606 112.909 209.522 104.273C202.504 92.3454 177.751 90.7453 177.206 90.7137C165.838 90.4253 146.043 95.4112 143.959 116.018C142.076 134.61 137.233 154.957 136.464 158.117C137.936 158.742 143.426 160.911 149.355 161.294L151.617 156.711C151.723 156.498 151.956 156.387 152.189 156.438C152.418 156.49 152.584 156.695 152.588 156.928L152.643 161.404L152.635 161.408Z" fill="#333333"/>
<path d="M187.962 190.13C168.088 191.161 163.008 179.143 158.655 169.424C159.195 169.369 167.275 168.397 167.275 168.397C167.883 166.908 168.037 160.433 167.165 151.662C166.841 148.351 165.957 145.127 164.717 142.038C164.567 141.655 164.417 141.264 164.271 140.872C163.391 141.299 161.193 142.271 158.607 142.686C157.08 142.931 155.41 142.982 153.792 142.607C153.121 142.453 152.458 142.228 151.818 141.915C146.241 139.162 147.689 127.539 153.184 126.033C155.063 125.496 156.906 126.01 158.619 126.887C160.952 130.79 163.454 131.766 163.454 131.766C162.495 122.268 187.39 119.499 190.074 104.292C190.074 104.292 208.523 113.348 209.265 125.133C209.289 125.492 209.293 125.867 209.301 126.247C209.309 126.587 209.32 126.922 209.328 127.254C209.395 129.889 209.458 132.434 209.435 134.867C209.415 137.419 209.301 139.845 209.012 142.113C207.99 150.153 204.746 156.233 195.446 158.951L195.055 159.026L191.949 159.634C191.704 161.582 191.475 163.526 191.55 165.687C191.566 166.066 191.649 169.191 191.799 169.488L198.383 169.701C199.61 172.447 200.976 189.447 187.962 190.122V190.13Z" fill="#FDC3CB"/>
<path d="M185.625 190.703C167.618 190.703 162.515 179.297 158.378 170.06L158.188 169.634C158.121 169.484 158.129 169.31 158.212 169.167C158.295 169.025 158.441 168.93 158.603 168.915C159.073 168.867 165.38 168.109 166.888 167.927C167.326 166.244 167.523 160.488 166.655 151.713C166.355 148.671 165.546 145.483 164.243 142.227C164.157 142.01 164.074 141.789 163.987 141.568C162.814 142.097 160.892 142.836 158.686 143.191C156.862 143.484 155.173 143.452 153.673 143.104C152.939 142.935 152.236 142.69 151.589 142.374C148.917 141.054 147.44 137.585 147.827 133.54C148.151 130.182 149.888 126.405 153.045 125.543C154.798 125.042 156.696 125.334 158.848 126.436C158.934 126.48 159.005 126.547 159.053 126.63C160.517 129.079 162.053 130.332 162.921 130.897C163.166 126.701 168.064 123.852 173.673 120.585C180.466 116.634 188.163 112.154 189.564 104.205C189.592 104.047 189.695 103.913 189.837 103.838C189.979 103.767 190.149 103.763 190.295 103.838C191.06 104.213 209.02 113.162 209.77 125.105C209.794 125.46 209.798 125.832 209.805 126.195V126.243C209.809 126.42 209.817 126.602 209.821 126.78C209.825 126.938 209.829 127.092 209.833 127.25C209.908 130.126 209.963 132.513 209.94 134.879C209.92 137.712 209.778 140.102 209.513 142.184C208.309 151.662 204.011 156.987 195.588 159.449C195.572 159.453 195.556 159.457 195.54 159.461L195.15 159.536L192.406 160.073C192.197 161.752 191.988 163.632 192.059 165.679L192.067 165.924C192.126 167.741 192.181 168.599 192.225 168.998L198.398 169.199C198.592 169.207 198.769 169.322 198.848 169.499C199.638 171.269 200.664 179.673 197.182 185.366C195.173 188.653 192.079 190.426 187.986 190.64C187.172 190.683 186.387 190.703 185.621 190.703H185.625ZM159.404 169.851C163.782 179.629 168.846 190.604 187.934 189.617C191.668 189.423 194.49 187.811 196.314 184.828C199.306 179.937 198.793 172.466 198.031 170.203L191.783 169.997C191.597 169.989 191.427 169.883 191.345 169.717C191.246 169.519 191.155 169.096 191.052 165.952L191.045 165.711C190.966 163.431 191.222 161.381 191.447 159.571C191.475 159.354 191.641 159.176 191.854 159.133L195.331 158.453C203.407 156.087 207.346 151.18 208.511 142.05C208.771 140.007 208.909 137.656 208.929 134.863C208.953 132.513 208.898 130.134 208.823 127.266C208.823 127.112 208.815 126.958 208.811 126.8C208.807 126.618 208.799 126.436 208.795 126.255V126.207C208.787 125.84 208.779 125.496 208.759 125.16C208.12 114.987 193.587 106.722 190.445 105.055C188.664 113.043 180.991 117.512 174.198 121.462C168.487 124.785 163.557 127.653 163.967 131.711C163.983 131.888 163.908 132.062 163.77 132.169C163.628 132.275 163.438 132.303 163.276 132.24C163.17 132.196 160.64 131.177 158.263 127.274C156.408 126.349 154.79 126.104 153.329 126.519C150.637 127.258 149.142 130.62 148.853 133.631C148.589 136.38 149.268 140.078 152.047 141.449C152.619 141.73 153.247 141.951 153.91 142.101C155.283 142.421 156.838 142.445 158.532 142.176C160.963 141.785 163.036 140.9 164.054 140.406C164.184 140.343 164.334 140.339 164.468 140.39C164.603 140.446 164.705 140.552 164.756 140.687C164.903 141.078 165.045 141.465 165.199 141.844C166.537 145.186 167.37 148.47 167.677 151.606C168.569 160.567 168.38 167.042 167.752 168.583C167.681 168.753 167.523 168.875 167.342 168.899C167.062 168.934 161.449 169.61 159.412 169.847L159.404 169.851Z" fill="#303030"/>
<path d="M179.95 139.106C180.367 137.844 178.604 136.125 176.011 135.265C173.418 134.405 170.978 134.731 170.56 135.992C170.143 137.253 171.906 138.973 174.499 139.833C177.092 140.692 179.532 140.367 179.95 139.106Z" fill="#FD7E84"/>
<path d="M197.411 138.822C197.06 137.542 198.911 135.914 201.544 135.195C204.177 134.472 206.596 134.927 206.948 136.211C207.299 137.491 205.448 139.118 202.815 139.837C200.182 140.56 197.763 140.106 197.411 138.822Z" fill="#FD7E84"/>
<path d="M200.502 122.355C200.494 121.451 199.279 120.728 197.787 120.739C196.295 120.751 195.091 121.494 195.095 122.399C195.103 123.303 196.318 124.026 197.81 124.015C199.302 124.003 200.506 123.26 200.502 122.355Z" fill="#333333"/>
<path d="M183.304 122.355C183.296 121.451 182.08 120.728 180.588 120.739C179.096 120.751 177.893 121.494 177.896 122.399C177.904 123.303 179.12 124.026 180.612 124.015C182.104 124.003 183.308 123.26 183.304 122.355Z" fill="#333333"/>
<path d="M173.176 132.232C174.85 132.825 176.583 133.235 178.343 133.465C179.724 133.642 181.982 134.144 183.056 132.935C184.903 130.853 181.749 128.783 180.103 128.206C177.85 127.416 174.337 126.559 172.024 127.515C171.096 127.898 170.314 128.819 170.409 129.822C170.532 131.066 171.783 131.714 172.825 132.106C172.939 132.149 173.058 132.192 173.172 132.232H173.176Z" fill="white"/>
<path d="M180.798 134.231C180.095 134.231 179.385 134.128 178.765 134.037C178.591 134.014 178.43 133.99 178.276 133.97C176.468 133.737 174.696 133.314 173.002 132.714C172.884 132.67 172.765 132.627 172.647 132.584C172.012 132.346 170.07 131.623 169.9 129.873C169.77 128.53 170.808 127.467 171.826 127.045C174.419 125.974 178.228 127.013 180.269 127.724C181.56 128.178 183.632 129.431 184.05 131.035C184.192 131.58 184.2 132.41 183.435 133.275C182.771 134.026 181.793 134.231 180.798 134.231ZM174.478 127.606C173.665 127.606 172.884 127.712 172.217 127.989C171.514 128.281 170.839 128.984 170.914 129.775C170.989 130.537 171.652 131.126 173.002 131.627C173.117 131.671 173.231 131.71 173.342 131.75C174.964 132.327 176.669 132.734 178.402 132.955C178.56 132.975 178.73 132.998 178.907 133.026C180.17 133.212 181.899 133.461 182.669 132.595C183.048 132.169 183.178 131.742 183.06 131.292C182.768 130.162 181.019 129.071 179.93 128.688C178.828 128.301 176.547 127.606 174.475 127.606H174.478Z" fill="#303030"/>
<path d="M177.084 130.198C177.076 129.02 178.019 128.056 179.199 128.045C180.379 128.033 181.339 128.981 181.35 130.162C181.362 131.343 180.415 132.303 179.235 132.315C178.055 132.327 177.095 131.379 177.084 130.198Z" fill="#333333"/>
<path d="M204.146 131.979C202.484 132.6 200.755 133.038 198.999 133.295C197.617 133.496 195.371 134.034 194.278 132.845C192.399 130.794 195.513 128.673 197.151 128.068C199.389 127.242 202.89 126.326 205.219 127.246C206.155 127.614 206.952 128.522 206.869 129.526C206.771 130.774 205.523 131.442 204.489 131.849C204.375 131.892 204.26 131.94 204.142 131.983L204.146 131.979Z" fill="white"/>
<path d="M196.445 134.105C195.489 134.105 194.554 133.899 193.903 133.188C193.121 132.339 193.117 131.505 193.251 130.96C193.642 129.352 195.695 128.064 196.977 127.59C199.006 126.843 202.796 125.741 205.409 126.772C206.435 127.175 207.489 128.222 207.382 129.569C207.24 131.323 205.314 132.078 204.682 132.327C204.564 132.374 204.446 132.418 204.331 132.461C202.65 133.089 200.881 133.54 199.081 133.804C198.927 133.828 198.766 133.852 198.592 133.879C197.945 133.986 197.191 134.109 196.453 134.109L196.445 134.105ZM202.914 127.373C200.802 127.373 198.45 128.135 197.329 128.546C196.247 128.945 194.518 130.063 194.242 131.201C194.132 131.651 194.27 132.078 194.657 132.501C195.438 133.354 197.163 133.074 198.422 132.872C198.6 132.844 198.769 132.817 198.927 132.793C200.656 132.54 202.354 132.106 203.968 131.505C204.082 131.462 204.197 131.418 204.307 131.375C205.649 130.849 206.301 130.249 206.364 129.486C206.427 128.696 205.744 128.001 205.034 127.724C204.402 127.475 203.676 127.377 202.914 127.377V127.373Z" fill="#303030"/>
<path d="M204.201 129.004C204.193 127.827 203.23 126.879 202.049 126.887C200.873 126.895 199.926 127.859 199.934 129.04C199.942 130.217 200.905 131.165 202.085 131.158C203.261 131.15 204.208 130.186 204.201 129.004Z" fill="#333333"/>
<path d="M190.409 139.32C190.287 139.32 190.169 139.276 190.07 139.189C189.861 139 189.841 138.68 190.03 138.466C191.487 136.835 190.196 135.005 190.141 134.926C189.975 134.697 190.027 134.377 190.255 134.215C190.484 134.049 190.8 134.101 190.966 134.326C191.609 135.207 192.403 137.344 190.792 139.15C190.69 139.264 190.552 139.32 190.413 139.32H190.409Z" fill="#303030"/>
<path d="M169.769 136.171C169.663 136.171 169.552 136.135 169.457 136.064C169.232 135.894 169.193 135.57 169.363 135.349L170.985 133.228C171.155 133.002 171.478 132.963 171.699 133.133C171.924 133.303 171.964 133.627 171.794 133.848L170.172 135.969C170.073 136.1 169.919 136.171 169.765 136.171H169.769Z" fill="#303030"/>
<path d="M173.152 137.016C173.085 137.016 173.018 137.004 172.951 136.977C172.69 136.866 172.572 136.566 172.682 136.305L173.547 134.27C173.657 134.01 173.957 133.891 174.218 134.002C174.478 134.112 174.597 134.413 174.486 134.673L173.622 136.708C173.539 136.902 173.35 137.02 173.152 137.02V137.016Z" fill="#303030"/>
<path d="M207.066 136.128C206.881 136.128 206.703 136.025 206.612 135.851L205.377 133.437C205.247 133.184 205.349 132.88 205.598 132.75C205.851 132.619 206.159 132.722 206.285 132.971L207.52 135.385C207.651 135.638 207.548 135.942 207.299 136.072C207.224 136.112 207.145 136.128 207.066 136.128Z" fill="#303030"/>
<path d="M203.471 137.222C203.261 137.222 203.068 137.091 202.993 136.886L202.136 134.535C202.038 134.271 202.176 133.978 202.44 133.879C202.705 133.785 202.997 133.919 203.096 134.184L203.952 136.534C204.047 136.799 203.913 137.091 203.648 137.19C203.589 137.21 203.53 137.222 203.475 137.222H203.471Z" fill="#303030"/>
<path d="M190.508 146.648C188.053 146.648 185.1 146.079 183.016 143.827C182.823 143.622 182.838 143.298 183.044 143.104C183.249 142.915 183.573 142.927 183.766 143.132C187.464 147.122 194.644 145.092 194.715 145.072C194.988 144.993 195.268 145.147 195.347 145.42C195.426 145.692 195.272 145.973 195 146.052C194.842 146.099 192.915 146.644 190.508 146.644V146.648Z" fill="#2D2D2D"/>
<path d="M181.891 145.38C181.781 145.38 181.67 145.345 181.576 145.27C181.355 145.096 181.315 144.776 181.489 144.55L184.086 141.244C184.26 141.022 184.583 140.983 184.804 141.157C185.025 141.331 185.065 141.651 184.891 141.876L182.294 145.183C182.191 145.309 182.045 145.376 181.891 145.376V145.38Z" fill="#2D2D2D"/>
<path d="M191.948 159.638C191.948 159.638 181.844 160.405 175.406 155.608C175.406 155.608 180.04 164.415 191.483 166.987L191.573 160.416L191.948 159.634V159.638Z" fill="#303030"/>
<path d="M191.483 167.5C191.447 167.5 191.408 167.496 191.372 167.488C179.831 164.893 175.149 156.217 174.956 155.85C174.846 155.64 174.893 155.379 175.074 155.225C175.256 155.071 175.52 155.059 175.71 155.206C181.919 159.828 191.81 159.141 191.913 159.133C192.091 159.117 192.268 159.204 192.371 159.354C192.474 159.504 192.489 159.698 192.41 159.863L192.083 160.543L191.992 167.002C191.992 167.157 191.917 167.303 191.799 167.398C191.708 167.469 191.597 167.508 191.483 167.508V167.5ZM177.178 157.331C179.195 159.958 183.596 164.494 190.982 166.343L191.064 160.409C191.064 160.334 191.084 160.263 191.116 160.195V160.184C188.815 160.247 182.42 160.132 177.178 157.327V157.331Z" fill="#333333"/>
<path d="M190.074 104.806C189.884 104.806 189.703 104.7 189.616 104.522C185.696 96.5175 173.314 91.6976 170.338 91.1208C170.062 91.0655 169.88 90.8008 169.935 90.5203C169.99 90.2438 170.255 90.062 170.535 90.1173C173.744 90.7416 186.391 95.6089 190.535 104.071C190.658 104.324 190.555 104.632 190.303 104.755C190.231 104.79 190.153 104.806 190.078 104.806H190.074Z" fill="#303030"/>
<path d="M156.377 105.904C155.954 105.458 155.706 104.873 155.583 104.269C155.015 101.468 157.202 98.7338 159.791 97.5367C161.477 96.7584 163.793 96.5885 164.903 98.078C165.503 98.8879 165.586 99.998 166.209 100.788C167.153 101.989 168.945 102.037 170.452 101.804C171.96 101.566 173.579 101.171 174.956 101.831C176.661 102.649 177.309 104.889 176.831 106.718C176.349 108.547 175.003 110.021 173.575 111.262C172.379 112.297 171.005 113.261 169.434 113.403C167.859 113.541 166.095 112.557 165.882 110.989C165.787 110.27 166.016 109.527 165.862 108.816C165.613 107.655 164.397 106.932 163.221 106.77C162.045 106.608 160.857 106.86 159.673 106.912C158.489 106.963 157.19 106.766 156.377 105.9V105.904Z" fill="white"/>
<path d="M152.418 131.845C152.418 131.845 157.202 126.124 161.789 138.297L152.418 131.845Z" fill="#FDC0D0"/>
<path d="M161.792 138.806C161.587 138.806 161.393 138.68 161.314 138.474C159.167 132.773 157.067 131.288 155.682 131.047C154.028 130.758 152.824 132.153 152.812 132.169C152.631 132.382 152.307 132.41 152.094 132.228C151.881 132.046 151.849 131.726 152.031 131.509C152.094 131.434 153.61 129.656 155.844 130.035C158.244 130.442 160.407 133.16 162.27 138.111C162.368 138.375 162.234 138.668 161.974 138.771C161.914 138.794 161.855 138.802 161.792 138.802V138.806Z" fill="#303030"/>
<path d="M156.938 135.835C156.938 135.835 157.999 134.504 159.795 134.504L156.938 135.835Z" fill="#FDC0D0"/>
<path d="M156.937 136.345C156.827 136.345 156.712 136.309 156.617 136.234C156.396 136.056 156.361 135.736 156.538 135.515C156.59 135.452 157.778 133.994 159.795 133.994C160.075 133.994 160.304 134.223 160.304 134.504C160.304 134.784 160.075 135.013 159.795 135.013C158.263 135.013 157.344 136.139 157.336 136.151C157.237 136.278 157.087 136.341 156.937 136.341V136.345Z" fill="#303030"/>
<path d="M206.956 22.5239H140.332C137.67 22.5239 135.512 24.6836 135.512 27.3478V72.6114C135.512 75.2756 137.67 77.4353 140.332 77.4353H206.956C209.618 77.4353 211.775 75.2756 211.775 72.6114V27.3478C211.775 24.6836 209.618 22.5239 206.956 22.5239Z" fill="white"/>
<path d="M206.956 77.9448H140.332C137.391 77.9448 135.003 75.5507 135.003 72.6113V27.3477C135.003 24.4044 137.395 22.0142 140.332 22.0142H206.956C209.896 22.0142 212.284 24.4083 212.284 27.3477V72.6113C212.284 75.5546 209.892 77.9448 206.956 77.9448ZM140.332 23.0335C137.955 23.0335 136.021 24.9693 136.021 27.3477V72.6113C136.021 74.9896 137.955 76.9255 140.332 76.9255H206.956C209.332 76.9255 211.266 74.9896 211.266 72.6113V27.3477C211.266 24.9693 209.332 23.0335 206.956 23.0335H140.332Z" fill="#333333"/>
<path d="M167.015 36.0986H159.629V43.4905H167.015V36.0986Z" fill="#AFDFFB"/>
<path d="M167.015 36.0986H159.629V43.4905H167.015V36.0986Z" fill="#C1E0FA"/>
<path d="M177.261 36.0986H169.876V43.4905H177.261V36.0986Z" fill="#AFDFFB"/>
<path d="M177.261 36.0986H169.876V43.4905H177.261V36.0986Z" fill="#C1E0FA"/>
<path d="M187.512 36.0986H180.127V43.4905H187.512V36.0986Z" fill="#0BB4CA"/>
<path d="M187.512 44.0044H180.127C179.847 44.0044 179.618 43.7752 179.618 43.4947V36.1029C179.618 35.8224 179.847 35.5933 180.127 35.5933H187.512C187.792 35.5933 188.021 35.8224 188.021 36.1029V43.4947C188.021 43.7752 187.792 44.0044 187.512 44.0044ZM180.636 42.9811H187.003V36.6126H180.636V42.9811Z" fill="#303030"/>
<path d="M197.759 36.0986H190.374V43.4905H197.759V36.0986Z" fill="#AFDFFB"/>
<path d="M197.759 36.0986H190.374V43.4905H197.759V36.0986Z" fill="#C1E0FA"/>
<path d="M207.86 36.0986H200.625V43.4905H207.86V36.0986Z" fill="#AFDFFB"/>
<path d="M207.86 36.0986H200.625V43.4905H207.86V36.0986Z" fill="#C1E0FA"/>
<path d="M146.517 46.0547H139.282V53.2964H146.517V46.0547Z" fill="#C1E0FA"/>
<path d="M156.763 46.0547H149.528V53.2964H156.763V46.0547Z" fill="#C1E0FA"/>
<path d="M167.015 46.0547H159.629V53.2964H167.015V46.0547Z" fill="#FDC057"/>
<path d="M167.014 53.8098H159.629C159.349 53.8098 159.12 53.5807 159.12 53.3002V46.0585C159.12 45.778 159.349 45.5488 159.629 45.5488H167.014C167.295 45.5488 167.524 45.778 167.524 46.0585V53.3002C167.524 53.5807 167.295 53.8098 167.014 53.8098ZM160.138 52.7866H166.505V46.5681H160.138V52.7866Z" fill="#303030"/>
<path d="M177.261 46.0547H169.876V53.2964H177.261V46.0547Z" fill="#FD7E84"/>
<path d="M177.261 53.8098H169.876C169.596 53.8098 169.367 53.5807 169.367 53.3002V46.0585C169.367 45.778 169.596 45.5488 169.876 45.5488H177.261C177.541 45.5488 177.77 45.778 177.77 46.0585V53.3002C177.77 53.5807 177.541 53.8098 177.261 53.8098ZM170.389 52.7866H176.752V46.5681H170.389V52.7866Z" fill="#333333"/>
<path d="M187.512 46.0547H180.127V53.2964H187.512V46.0547Z" fill="#C1E0FA"/>
<path d="M197.759 46.0547H190.374V53.2964H197.759V46.0547Z" fill="#C1E0FA"/>
<path d="M207.86 46.0547H200.625V53.2964H207.86V46.0547Z" fill="#C1E0FA"/>
<path d="M146.517 55.8604H139.282V63.2522H146.517V55.8604Z" fill="#C1E0FA"/>
<path d="M156.763 55.8604H149.528V63.2522H156.763V55.8604Z" fill="#0BB4CA"/>
<path d="M156.764 63.7656H149.529C149.248 63.7656 149.02 63.5365 149.02 63.256V55.8641C149.02 55.5836 149.248 55.3545 149.529 55.3545H156.764C157.044 55.3545 157.273 55.5836 157.273 55.8641V63.256C157.273 63.5365 157.044 63.7656 156.764 63.7656ZM150.042 62.7424H156.255V56.3738H150.042V62.7424Z" fill="#303030"/>
<path d="M167.015 55.8604H159.629V63.2522H167.015V55.8604Z" fill="#C1E0FA"/>
<path d="M177.261 55.8604H169.876V63.2522H177.261V55.8604Z" fill="#C1E0FA"/>
<path d="M187.512 55.8604H180.127V63.2522H187.512V55.8604Z" fill="#FD7E84"/>
<path d="M187.512 63.7656H180.127C179.847 63.7656 179.618 63.5365 179.618 63.256V55.8641C179.618 55.5836 179.847 55.3545 180.127 55.3545H187.512C187.792 55.3545 188.021 55.5836 188.021 55.8641V63.256C188.021 63.5365 187.792 63.7656 187.512 63.7656ZM180.636 62.7424H187.003V56.3738H180.636V62.7424Z" fill="#333333"/>
<path d="M197.759 55.8604H190.374V63.2522H197.759V55.8604Z" fill="#C1E0FA"/>
<path d="M207.86 55.8604H200.625V63.2522H207.86V55.8604Z" fill="#FDC057"/>
<path d="M207.86 63.7656H200.624C200.344 63.7656 200.115 63.5365 200.115 63.256V55.8641C200.115 55.5836 200.344 55.3545 200.624 55.3545H207.86C208.14 55.3545 208.369 55.5836 208.369 55.8641V63.256C208.369 63.5365 208.14 63.7656 207.86 63.7656ZM201.134 62.7424H207.346V56.3738H201.134V62.7424Z" fill="#303030"/>
<path d="M146.517 65.666H139.282V72.9077H146.517V65.666Z" fill="#FD7E84"/>
<path d="M146.517 73.4212H139.282C139.001 73.4212 138.772 73.192 138.772 72.9115V65.6698C138.772 65.3893 139.001 65.1602 139.282 65.1602H146.517C146.797 65.1602 147.026 65.3893 147.026 65.6698V72.9115C147.026 73.192 146.797 73.4212 146.517 73.4212ZM139.791 72.3979H146.004V66.1794H139.791V72.3979Z" fill="#333333"/>
<path d="M156.763 65.666H149.528V72.9077H156.763V65.666Z" fill="#C1E0FA"/>
<path d="M167.015 65.666H159.629V72.9077H167.015V65.666Z" fill="#C1E0FA"/>
<path d="M177.261 65.666H169.876V72.9077H177.261V65.666Z" fill="#C1E0FA"/>
<path d="M211.811 27.2965V32.3614H135.532V27.2965C135.532 24.6337 137.691 22.4727 140.351 22.4727H206.987C209.648 22.4727 211.807 24.6337 211.807 27.2965H211.811Z" fill="#FD7E84"/>
<path d="M211.811 32.8709H135.536C135.255 32.8709 135.026 32.6417 135.026 32.3612V27.2964C135.026 24.3531 137.418 21.9629 140.355 21.9629H206.991C209.932 21.9629 212.32 24.357 212.32 27.2964V32.3612C212.32 32.6417 212.091 32.8709 211.811 32.8709ZM136.045 31.8476H211.301V27.2964C211.301 24.918 209.367 22.9822 206.991 22.9822H140.355C137.979 22.9822 136.045 24.918 136.045 27.2964V31.8476Z" fill="#333333"/>
<path d="M146.651 29.983C148.423 29.983 149.86 28.5449 149.86 26.771C149.86 24.9971 148.423 23.5591 146.651 23.5591C144.879 23.5591 143.442 24.9971 143.442 26.771C143.442 28.5449 144.879 29.983 146.651 29.983Z" fill="#303030"/>
<path d="M146.813 16.4873H146.517C145.433 16.4873 144.555 17.3664 144.555 18.4508V26.139C144.555 27.2234 145.433 28.1025 146.517 28.1025H146.813C147.896 28.1025 148.775 27.2234 148.775 26.139V18.4508C148.775 17.3664 147.896 16.4873 146.813 16.4873Z" fill="#C1E0FA"/>
<path d="M146.912 28.616H146.422C145.112 28.616 144.046 27.5493 144.046 26.2377V18.352C144.046 17.0403 145.112 15.9736 146.422 15.9736H146.912C148.222 15.9736 149.288 17.0403 149.288 18.352V26.2377C149.288 27.5493 148.222 28.616 146.912 28.616ZM146.422 17.0008C145.676 17.0008 145.068 17.6092 145.068 18.3559V26.2416C145.068 26.9883 145.676 27.5967 146.422 27.5967H146.912C147.658 27.5967 148.265 26.9883 148.265 26.2416V18.3559C148.265 17.6092 147.658 17.0008 146.912 17.0008H146.422Z" fill="#333333"/>
<path d="M157.265 29.983C159.037 29.983 160.474 28.5449 160.474 26.771C160.474 24.9971 159.037 23.5591 157.265 23.5591C155.492 23.5591 154.056 24.9971 154.056 26.771C154.056 28.5449 155.492 29.983 157.265 29.983Z" fill="#303030"/>
<path d="M157.364 16.4873H157.068C155.984 16.4873 155.106 17.3664 155.106 18.4508V26.139C155.106 27.2234 155.984 28.1025 157.068 28.1025H157.364C158.447 28.1025 159.325 27.2234 159.325 26.139V18.4508C159.325 17.3664 158.447 16.4873 157.364 16.4873Z" fill="#C1E0FA"/>
<path d="M157.462 28.616H156.969C155.659 28.616 154.593 27.5493 154.593 26.2377V18.352C154.593 17.0403 155.659 15.9736 156.969 15.9736H157.462C158.773 15.9736 159.839 17.0403 159.839 18.352V26.2377C159.839 27.5493 158.773 28.616 157.462 28.616ZM156.969 17.0008C156.223 17.0008 155.615 17.6092 155.615 18.3559V26.2416C155.615 26.9883 156.223 27.5967 156.969 27.5967H157.462C158.208 27.5967 158.816 26.9883 158.816 26.2416V18.3559C158.816 17.6092 158.208 17.0008 157.462 17.0008H156.969Z" fill="#333333"/>
<path d="M167.638 29.983C169.41 29.983 170.847 28.5449 170.847 26.771C170.847 24.9971 169.41 23.5591 167.638 23.5591C165.865 23.5591 164.429 24.9971 164.429 26.771C164.429 28.5449 165.865 29.983 167.638 29.983Z" fill="#303030"/>
<path d="M167.764 16.4873H167.468C166.385 16.4873 165.506 17.3664 165.506 18.4508V26.139C165.506 27.2234 166.385 28.1025 167.468 28.1025H167.764C168.848 28.1025 169.726 27.2234 169.726 26.139V18.4508C169.726 17.3664 168.848 16.4873 167.764 16.4873Z" fill="#C1E0FA"/>
<path d="M167.863 28.616H167.374C166.063 28.616 164.998 27.5493 164.998 26.2377V18.352C164.998 17.0403 166.063 15.9736 167.374 15.9736H167.863C169.174 15.9736 170.239 17.0403 170.239 18.352V26.2377C170.239 27.5493 169.174 28.616 167.863 28.616ZM167.37 17.0008C166.624 17.0008 166.016 17.6092 166.016 18.3559V26.2416C166.016 26.9883 166.624 27.5967 167.37 27.5967H167.859C168.605 27.5967 169.213 26.9883 169.213 26.2416V18.3559C169.213 17.6092 168.605 17.0008 167.859 17.0008H167.37Z" fill="#333333"/>
<path d="M178.252 29.983C180.024 29.983 181.461 28.5449 181.461 26.771C181.461 24.9971 180.024 23.5591 178.252 23.5591C176.48 23.5591 175.043 24.9971 175.043 26.771C175.043 28.5449 176.48 29.983 178.252 29.983Z" fill="#303030"/>
<path d="M178.465 16.4873H178.169C177.086 16.4873 176.208 17.3664 176.208 18.4508V26.139C176.208 27.2234 177.086 28.1025 178.169 28.1025H178.465C179.549 28.1025 180.427 27.2234 180.427 26.139V18.4508C180.427 17.3664 179.549 16.4873 178.465 16.4873Z" fill="#C1E0FA"/>
<path d="M178.564 28.616H178.074C176.764 28.616 175.698 27.5493 175.698 26.2377V18.352C175.698 17.0403 176.764 15.9736 178.074 15.9736H178.564C179.874 15.9736 180.94 17.0403 180.94 18.352V26.2377C180.94 27.5493 179.874 28.616 178.564 28.616ZM178.07 17.0008C177.324 17.0008 176.717 17.6092 176.717 18.3559V26.2416C176.717 26.9883 177.324 27.5967 178.07 27.5967H178.56C179.306 27.5967 179.914 26.9883 179.914 26.2416V18.3559C179.914 17.6092 179.306 17.0008 178.56 17.0008H178.07Z" fill="#333333"/>
<path d="M188.984 29.983C190.757 29.983 192.193 28.5449 192.193 26.771C192.193 24.9971 190.757 23.5591 188.984 23.5591C187.212 23.5591 185.775 24.9971 185.775 26.771C185.775 28.5449 187.212 29.983 188.984 29.983Z" fill="#303030"/>
<path d="M189.166 16.4873H188.87C187.787 16.4873 186.908 17.3664 186.908 18.4508V26.139C186.908 27.2234 187.787 28.1025 188.87 28.1025H189.166C190.249 28.1025 191.128 27.2234 191.128 26.139V18.4508C191.128 17.3664 190.249 16.4873 189.166 16.4873Z" fill="#C1E0FA"/>
<path d="M189.265 28.616H188.775C187.465 28.616 186.399 27.5493 186.399 26.2377V18.352C186.399 17.0403 187.465 15.9736 188.775 15.9736H189.265C190.575 15.9736 191.641 17.0403 191.641 18.352V26.2377C191.641 27.5493 190.575 28.616 189.265 28.616ZM188.771 17.0008C188.025 17.0008 187.417 17.6092 187.417 18.3559V26.2416C187.417 26.9883 188.025 27.5967 188.771 27.5967H189.261C190.007 27.5967 190.614 26.9883 190.614 26.2416V18.3559C190.614 17.6092 190.007 17.0008 189.261 17.0008H188.771Z" fill="#333333"/>
<path d="M199.594 29.983C201.367 29.983 202.803 28.5449 202.803 26.771C202.803 24.9971 201.367 23.5591 199.594 23.5591C197.822 23.5591 196.385 24.9971 196.385 26.771C196.385 28.5449 197.822 29.983 199.594 29.983Z" fill="#303030"/>
<path d="M199.717 16.4873H199.421C198.337 16.4873 197.459 17.3664 197.459 18.4508V26.139C197.459 27.2234 198.337 28.1025 199.421 28.1025H199.717C200.8 28.1025 201.679 27.2234 201.679 26.139V18.4508C201.679 17.3664 200.8 16.4873 199.717 16.4873Z" fill="#C1E0FA"/>
<path d="M199.815 28.616H199.326C198.015 28.616 196.95 27.5493 196.95 26.2377V18.352C196.95 17.0403 198.015 15.9736 199.326 15.9736H199.815C201.126 15.9736 202.192 17.0403 202.192 18.352V26.2377C202.192 27.5493 201.126 28.616 199.815 28.616ZM199.322 17.0008C198.576 17.0008 197.968 17.6092 197.968 18.3559V26.2416C197.968 26.9883 198.576 27.5967 199.322 27.5967H199.811C200.557 27.5967 201.165 26.9883 201.165 26.2416V18.3559C201.165 17.6092 200.557 17.0008 199.811 17.0008H199.322Z" fill="#333333"/>
<path d="M67.5383 36.0435L115.196 36.0435V5.50818L67.5383 5.50818V36.0435Z" fill="#FDC057"/>
<path d="M115.196 36.5571H67.5424C67.2621 36.5571 67.0332 36.3279 67.0332 36.0474V5.50818C67.0332 5.22768 67.2621 4.99854 67.5424 4.99854H115.2C115.481 4.99854 115.71 5.22768 115.71 5.50818V36.0435C115.71 36.324 115.481 36.5531 115.2 36.5531L115.196 36.5571ZM68.0516 35.5338H114.687V6.01783H68.0516V35.5338Z" fill="#303030"/>
<path d="M91.6986 23.8079C90.5026 23.8079 89.3066 23.4167 88.3001 22.6345L67.3012 6.29819C67.0801 6.12435 67.0367 5.80434 67.2104 5.5831C67.3841 5.36186 67.7038 5.32235 67.9248 5.49224L88.9237 21.8286C90.5973 23.1323 92.9143 23.1046 94.5563 21.7574L114.932 5.04185C115.149 4.86407 115.472 4.89567 115.65 5.11296C115.828 5.33026 115.796 5.65422 115.579 5.832L95.2037 22.5476C94.1774 23.3891 92.938 23.8118 91.6946 23.8118L91.6986 23.8079Z" fill="#303030"/>
<path d="M114.919 36.0987C114.801 36.0987 114.678 36.0553 114.584 35.9723L96.9321 20.5131C96.7189 20.3274 96.6992 20.0034 96.8847 19.794C97.0702 19.5807 97.3939 19.5609 97.6031 19.7466L115.255 35.2059C115.468 35.3916 115.488 35.7155 115.302 35.9249C115.2 36.0395 115.061 36.0987 114.919 36.0987Z" fill="#303030"/>
<path d="M67.9602 36.2132C67.822 36.2132 67.6878 36.1579 67.5852 36.0512C67.3918 35.8458 67.4036 35.5218 67.6089 35.3283L84.6764 19.3949C84.8817 19.2013 85.2054 19.2132 85.3988 19.4186C85.5922 19.6241 85.5803 19.948 85.3751 20.1416L68.3076 36.0749C68.2089 36.1658 68.0826 36.2132 67.9602 36.2132Z" fill="#303030"/>
<path d="M73.9905 7.97227C74.7241 4.86122 72.7991 1.74396 69.6908 1.00968C66.5826 0.275409 63.4682 2.20217 62.7346 5.31323C62.001 8.42428 63.926 11.5415 67.0342 12.2758C70.1424 13.0101 73.2569 11.0833 73.9905 7.97227Z" fill="#FD7E84"/>
<path d="M68.3592 12.9397C64.8896 12.9397 62.0635 10.115 62.0635 6.6383C62.0635 3.16165 64.8896 0.34082 68.3592 0.34082C71.8288 0.34082 74.6549 3.1656 74.6549 6.64225C74.6549 10.1189 71.8327 12.9437 68.3592 12.9437V12.9397ZM68.3592 1.36406C65.4501 1.36406 63.0858 3.73056 63.0858 6.64225C63.0858 9.55395 65.4501 11.9204 68.3592 11.9204C71.2683 11.9204 73.6326 9.55395 73.6326 6.64225C73.6326 3.73056 71.2683 1.36406 68.3592 1.36406Z" fill="#333333"/>
<path d="M217.191 245.405C217.191 245.405 228.855 240.317 229.952 229.638C231.049 218.959 222.374 204.491 222.374 204.491L217.191 245.405Z" fill="#0BB4CA"/>
<path d="M217.191 245.915C216.993 245.915 216.808 245.8 216.721 245.606C216.606 245.35 216.725 245.045 216.985 244.935C217.1 244.883 228.389 239.834 229.443 229.582C230.508 219.2 222.022 204.894 221.935 204.748C221.789 204.507 221.868 204.191 222.109 204.049C222.35 203.902 222.665 203.981 222.807 204.222C223.167 204.819 231.554 218.963 230.453 229.685C229.34 240.534 217.873 245.654 217.388 245.867C217.321 245.895 217.254 245.911 217.183 245.911L217.191 245.915Z" fill="#303030"/>
<path d="M168.362 307.089C187.035 288.398 187.035 258.096 168.362 239.405C149.688 220.715 119.413 220.715 100.74 239.405C82.0664 258.096 82.0664 288.398 100.74 307.089C119.413 325.779 149.688 325.779 168.362 307.089Z" fill="#FD7E84"/>
<path d="M96.5459 99.3936H118.516C122.534 99.3936 125.81 102.637 125.81 106.659V128.649C125.81 132.671 122.534 135.946 118.516 135.946H114.644L107.977 143.077L101.33 135.946H96.5459C92.5277 135.946 89.291 132.671 89.291 128.649V106.659C89.291 102.637 92.5277 99.3936 96.5459 99.3936Z" fill="white"/>
<path d="M107.976 143.586C107.834 143.586 107.7 143.527 107.605 143.424L101.108 136.455H96.5453C92.2626 136.455 88.7812 132.955 88.7812 128.649V106.659C88.7812 102.372 92.2626 98.8838 96.5453 98.8838H118.515C122.818 98.8838 126.319 102.372 126.319 106.659V128.649C126.319 132.955 122.818 136.455 118.515 136.455H114.864L108.347 143.424C108.253 143.527 108.114 143.586 107.976 143.586ZM96.5453 99.9031C92.8271 99.9031 89.8036 102.933 89.8036 106.655V128.645C89.8036 132.386 92.8271 135.432 96.5453 135.432H101.329C101.471 135.432 101.606 135.491 101.704 135.594L107.98 142.326L114.276 135.594C114.371 135.491 114.509 135.432 114.647 135.432H118.519C122.261 135.432 125.3 132.39 125.3 128.645V106.655C125.3 102.929 122.257 99.9031 118.519 99.9031H96.5493H96.5453Z" fill="#303030"/>
<path d="M108.771 105.683L111.506 111.234C111.699 111.629 112.074 111.902 112.508 111.965L118.627 112.854C119.72 113.012 120.158 114.359 119.365 115.129L114.936 119.448C114.62 119.756 114.478 120.194 114.553 120.629L115.599 126.729C115.785 127.819 114.644 128.649 113.665 128.135L108.19 125.255C107.803 125.05 107.338 125.05 106.951 125.255L101.476 128.135C100.497 128.649 99.3565 127.819 99.5421 126.729L100.588 120.629C100.663 120.194 100.517 119.756 100.205 119.448L95.7765 115.129C94.987 114.359 95.4212 113.012 96.5146 112.854L102.633 111.965C103.067 111.902 103.442 111.629 103.635 111.234L106.371 105.683C106.86 104.692 108.273 104.692 108.763 105.683H108.771Z" fill="#FDC057"/>
<path d="M114.288 128.799C113.996 128.799 113.7 128.728 113.428 128.586L107.953 125.705C107.713 125.579 107.428 125.579 107.188 125.705L101.713 128.586C101.085 128.913 100.343 128.862 99.7708 128.443C99.1985 128.028 98.9182 127.337 99.0367 126.638L100.083 120.538C100.13 120.269 100.039 119.997 99.8458 119.811L95.4171 115.493C94.9119 114.999 94.7343 114.276 94.9513 113.6C95.1684 112.929 95.7408 112.447 96.4394 112.344L102.558 111.455C102.826 111.416 103.059 111.25 103.177 111.005L105.913 105.454C106.224 104.818 106.86 104.427 107.566 104.427C108.273 104.427 108.909 104.822 109.22 105.454L111.956 111.005C112.074 111.246 112.307 111.416 112.575 111.455L118.694 112.344C119.392 112.447 119.965 112.929 120.182 113.6C120.399 114.272 120.221 114.999 119.716 115.493L115.287 119.811C115.094 120.001 115.003 120.273 115.05 120.538L116.096 126.638C116.215 127.333 115.934 128.025 115.362 128.443C115.038 128.68 114.66 128.799 114.281 128.799H114.288ZM107.574 124.587C107.87 124.587 108.163 124.659 108.431 124.801L113.906 127.681C114.19 127.831 114.513 127.807 114.77 127.618C115.031 127.428 115.153 127.128 115.098 126.812L114.052 120.712C113.949 120.111 114.146 119.503 114.581 119.08L119.009 114.762C119.238 114.537 119.317 114.225 119.219 113.916C119.12 113.612 118.871 113.403 118.555 113.355L112.437 112.467C111.837 112.38 111.316 112 111.048 111.459L108.312 105.908C108.17 105.62 107.894 105.45 107.574 105.45C107.255 105.45 106.978 105.62 106.836 105.908L104.101 111.459C103.832 112.004 103.315 112.38 102.711 112.467L96.5934 113.355C96.2776 113.403 96.0289 113.612 95.9302 113.916C95.8316 114.221 95.9105 114.537 96.1394 114.762L100.568 119.08C101.002 119.503 101.2 120.115 101.097 120.712L100.051 126.812C99.9958 127.128 100.118 127.428 100.379 127.618C100.639 127.807 100.963 127.831 101.243 127.681L106.718 124.801C106.986 124.659 107.282 124.587 107.574 124.587Z" fill="#303030"/>
<path d="M216.425 33.689H271.085V58.3218H216.425L207.575 45.557L216.425 33.689Z" fill="#C1E0FA"/>
<path d="M271.085 58.8314H216.421C216.255 58.8314 216.097 58.7484 216.002 58.6102L207.157 45.8453C207.03 45.6636 207.034 45.4265 207.169 45.2488L216.014 33.3807C216.109 33.2504 216.263 33.1753 216.425 33.1753H271.089C271.369 33.1753 271.598 33.4044 271.598 33.6849V58.3178C271.598 58.5983 271.369 58.8275 271.089 58.8275L271.085 58.8314ZM216.689 57.8082H270.576V34.1985H216.677L208.203 45.5648L216.689 57.8082Z" fill="#333333"/>
<path d="M263.412 40.8196H235.628C235.348 40.8196 235.119 40.5904 235.119 40.3099C235.119 40.0294 235.348 39.8003 235.628 39.8003H263.412C263.692 39.8003 263.921 40.0294 263.921 40.3099C263.921 40.5904 263.692 40.8196 263.412 40.8196Z" fill="#303030"/>
<path d="M263.412 51.9451H235.628C235.348 51.9451 235.119 51.7159 235.119 51.4354C235.119 51.1549 235.348 50.9258 235.628 50.9258H263.412C263.692 50.9258 263.921 51.1549 263.921 51.4354C263.921 51.7159 263.692 51.9451 263.412 51.9451Z" fill="#303030"/>
<path d="M263.412 46.3826H252.032C251.752 46.3826 251.523 46.1534 251.523 45.8729C251.523 45.5924 251.752 45.3633 252.032 45.3633H263.412C263.692 45.3633 263.921 45.5924 263.921 45.8729C263.921 46.1534 263.692 46.3826 263.412 46.3826Z" fill="#303030"/>
<path d="M248.859 46.3826H220.017C219.737 46.3826 219.508 46.1534 219.508 45.8729C219.508 45.5924 219.737 45.3633 220.017 45.3633H248.859C249.139 45.3633 249.368 45.5924 249.368 45.8729C249.368 46.1534 249.139 46.3826 248.859 46.3826Z" fill="#303030"/>
</g>
<defs>
<clipPath id="clip0_239_184572">
<rect width="358" height="212" fill="white" transform="translate(0 0.67041)"/>
</clipPath>
</defs>
</svg>
