            <svg
              xmlns="http://www.w3.org/2000/svg"
              width="28"
              height="27"
              viewBox="0 0 28 27"
              fill="none"
            >
              <path
                d="M6.12363 13.5002C6.12233 13.2767 6.1876 13.058 6.31113 12.8718C6.43465 12.6855 6.61083 12.5403 6.81721 12.4547C7.02358 12.369 7.2508 12.3467 7.46989 12.3906C7.68898 12.4346 7.89002 12.5428 8.04737 12.7014L13.9986 18.6639L19.9499 12.7014C20.1651 12.5171 20.4419 12.4208 20.7251 12.4318C21.0082 12.4427 21.2768 12.5601 21.4771 12.7604C21.6775 12.9608 21.7949 13.2294 21.8058 13.5125C21.8167 13.7956 21.7204 14.0725 21.5361 14.2877L14.7861 21.0377C14.5753 21.2472 14.2902 21.3648 13.993 21.3648C13.6958 21.3648 13.4107 21.2472 13.1999 21.0377L6.44988 14.2877C6.24204 14.0782 6.12487 13.7953 6.12363 13.5002Z"
                fill="#003D45"
              />
              <path
                d="M6.1243 6.75019C6.123 6.52674 6.18828 6.30796 6.3118 6.12175C6.43533 5.93554 6.61151 5.79034 6.81789 5.70465C7.02426 5.61896 7.25148 5.59668 7.47057 5.64063C7.68966 5.68458 7.8907 5.79279 8.04805 5.95144L13.9993 11.9139L19.9506 5.95145C20.1624 5.7396 20.4497 5.62059 20.7493 5.62059C21.0489 5.62059 21.3362 5.7396 21.5481 5.95145C21.7599 6.16329 21.8789 6.45061 21.8789 6.7502C21.8789 7.04978 21.7599 7.3371 21.5481 7.54895L14.7981 14.2989C14.5873 14.5085 14.3021 14.6261 14.0049 14.6261C13.7077 14.6261 13.4226 14.5085 13.2118 14.2989L6.4618 7.54894C6.3555 7.44475 6.27094 7.3205 6.213 7.18339C6.15507 7.04628 6.12492 6.89904 6.1243 6.75019Z"
                fill="#003D45"
              />
            </svg>
