<svg width="44" height="45" viewBox="0 0 44 45" fill="none" xmlns="http://www.w3.org/2000/svg">
<path d="M22.0023 41.5963C11.4863 41.5963 2.90625 33.0163 2.90625 22.5003C2.90625 11.9843 11.4863 3.4043 22.0023 3.4043C32.5183 3.4043 41.0983 11.9843 41.0983 22.5003C41.0983 33.0163 32.5183 41.5963 22.0023 41.5963ZM22.0023 5.1643C12.4543 5.1643 4.66625 12.9523 4.66625 22.5003C4.66625 32.0483 12.4543 39.8363 22.0023 39.8363C31.5503 39.8363 39.3383 32.0483 39.3383 22.5003C39.3383 12.9523 31.5503 5.1643 22.0023 5.1643ZM22.0023 38.6043C21.5183 38.6043 21.1223 38.2083 21.1223 37.7243V35.1283C21.1223 34.6443 21.5183 34.2483 22.0023 34.2483C22.4863 34.2483 22.8823 34.6443 22.8823 35.1283V37.7243C22.8823 38.2083 22.4863 38.6043 22.0023 38.6043ZM32.7823 34.1603C32.5623 34.1603 32.3423 34.0723 32.1663 33.8963L30.3183 32.0483C29.9663 31.6963 29.9663 31.1683 30.3183 30.8163C30.6703 30.4643 31.1983 30.4643 31.5503 30.8163L33.3983 32.6643C33.7503 33.0163 33.7503 33.5443 33.3983 33.8963C33.2223 34.0723 33.0023 34.1603 32.7823 34.1603ZM11.2223 34.1603C11.0023 34.1603 10.7823 34.0723 10.6063 33.8963C10.2543 33.5443 10.2543 33.0163 10.6063 32.6643L12.4543 30.8163C12.8063 30.4643 13.3343 30.4643 13.6863 30.8163C14.0383 31.1683 14.0383 31.6963 13.6863 32.0483L11.8383 33.8963C11.6623 34.0723 11.4423 34.1603 11.2223 34.1603ZM26.2703 28.7043C26.0503 28.7043 25.8303 28.6163 25.6543 28.4403L21.3863 24.1723C21.2103 23.9963 21.1223 23.7763 21.1223 23.5563V13.3043C21.1223 12.8203 21.5183 12.4243 22.0023 12.4243C22.4863 12.4243 22.8823 12.8203 22.8823 13.3043V23.1603L26.8863 27.1643C27.2383 27.5163 27.2383 28.0443 26.8863 28.3963C26.7103 28.6163 26.4903 28.7043 26.2703 28.7043ZM37.2263 23.3803H34.6303C34.1463 23.3803 33.7503 22.9843 33.7503 22.5003C33.7503 22.0163 34.1463 21.6203 34.6303 21.6203H37.2263C37.7103 21.6203 38.1063 22.0163 38.1063 22.5003C38.1063 22.9843 37.7103 23.3803 37.2263 23.3803ZM9.37425 23.3803H6.77825C6.29425 23.3803 5.89825 22.9843 5.89825 22.5003C5.89825 22.0163 6.29425 21.6203 6.77825 21.6203H9.37425C9.85825 21.6203 10.2543 22.0163 10.2543 22.5003C10.2543 22.9843 9.85825 23.3803 9.37425 23.3803ZM30.9343 14.4483C30.7143 14.4483 30.4943 14.3603 30.3183 14.1843C29.9663 13.8323 29.9663 13.3043 30.3183 12.9523L32.1663 11.1043C32.5183 10.7523 33.0463 10.7523 33.3983 11.1043C33.7503 11.4563 33.7503 11.9843 33.3983 12.3363L31.5503 14.1843C31.4183 14.3603 31.1543 14.4483 30.9343 14.4483ZM13.0703 14.4483C12.8503 14.4483 12.6303 14.3603 12.4543 14.1843L10.6063 12.3363C10.2543 11.9843 10.2543 11.4563 10.6063 11.1043C10.9583 10.7523 11.4863 10.7523 11.8383 11.1043L13.6863 12.9523C14.0383 13.3043 14.0383 13.8323 13.6863 14.1843C13.5103 14.3603 13.2903 14.4483 13.0703 14.4483ZM22.0023 10.7523C21.5183 10.7523 21.1223 10.3563 21.1223 9.8723V7.2763C21.1223 6.7923 21.5183 6.3963 22.0023 6.3963C22.4863 6.3963 22.8823 6.7923 22.8823 7.2763V9.8723C22.8823 10.3563 22.4863 10.7523 22.0023 10.7523Z" fill="#057988"/>
</svg>
