<svg width="50" height="50" viewBox="0 0 50 50" fill="none" xmlns="http://www.w3.org/2000/svg">
<path d="M19.228 4.11294C18.942 3.82694 18.4782 3.82694 18.1923 4.11294L18.0673 4.23793C17.7389 4.0817 17.371 4.007 16.9866 4.02457C16.3656 4.0524 15.7742 4.31722 15.3211 4.77021C14.1269 5.96444 14.3695 7.15222 14.6907 8.17186C14.9836 9.10156 14.9871 9.53228 14.4216 10.0976C14.0396 10.4797 13.4644 10.5262 13.1397 10.2014C12.8148 9.87649 12.8614 9.30135 13.2435 8.91935C13.5295 8.63334 13.5295 8.16961 13.2435 7.8836C12.9573 7.59769 12.4937 7.59759 12.2077 7.8836C11.4473 8.64398 11.2659 9.75433 11.6777 10.6277L11.5504 10.7549C11.2644 11.0409 11.2644 11.5047 11.5504 11.7906C11.6934 11.9335 11.8809 12.0051 12.0683 12.0051C12.2557 12.0051 12.4431 11.9336 12.5861 11.7906L12.7136 11.663C13.0172 11.8062 13.3487 11.8797 13.6852 11.8797C14.3162 11.8797 14.9615 11.6292 15.4573 11.1332C16.6516 9.93898 16.409 8.7512 16.0877 7.73166C15.7948 6.80196 15.7915 6.37114 16.3568 5.80586C16.5505 5.61213 16.7974 5.49905 17.0521 5.48772C17.2819 5.47728 17.4902 5.55354 17.6389 5.70216C17.7874 5.85068 17.8635 6.05906 17.8532 6.28882C17.8418 6.54339 17.7288 6.79034 17.5351 6.98417C17.2491 7.27018 17.2492 7.73391 17.5351 8.01992C17.8212 8.30593 18.2847 8.30583 18.5708 8.01992C19.0238 7.56683 19.2886 6.97538 19.3164 6.35444C19.3337 5.96991 19.2591 5.60217 19.103 5.27368L19.2281 5.14859C19.5141 4.86268 19.5141 4.39886 19.228 4.11294Z" fill="#057988"/>
<path d="M16.197 17.9258C18.213 17.4778 20.2724 16.2819 21.9959 14.5584C23.7194 12.835 24.9153 10.7755 25.3633 8.75954C25.8376 6.62468 25.428 4.77816 24.2098 3.55991L21.9958 1.34595C20.7776 0.127701 18.9309 -0.282028 16.7963 0.192441C14.7802 0.640448 12.7208 1.83634 10.9974 3.55981C9.27389 5.28329 8.07791 7.34278 7.6299 9.35881C7.15553 11.4937 7.56516 13.3402 8.78341 14.5584L10.9974 16.7724C11.8849 17.6599 13.1058 18.1183 14.5289 18.1183C15.0591 18.1183 15.6175 18.0546 16.197 17.9258ZM12.2148 15.9023C12.2483 15.9027 12.2812 15.9043 12.3149 15.9043C12.8451 15.9043 13.4035 15.8406 13.9829 15.7118C15.999 15.2639 18.0584 14.068 19.7819 12.3445C20.5967 11.5296 21.2957 10.6385 21.8594 9.69598C22.067 9.34884 21.9539 8.89918 21.6068 8.69158C21.2598 8.48408 20.81 8.59706 20.6024 8.94419C20.1004 9.78338 19.4759 10.579 18.7462 11.3087C17.2171 12.8378 15.4127 13.8937 13.6652 14.282C12.0366 14.644 10.6706 14.3743 9.81896 13.5227C8.96738 12.6711 8.69777 11.3052 9.05965 9.67645C9.448 7.92895 10.504 6.12453 12.0329 4.59546C13.562 3.0664 15.3664 2.01054 17.1139 1.6222C18.7426 1.26041 20.1085 1.53002 20.9601 2.3815C21.7811 3.20242 22.0624 4.51276 21.7525 6.07121C21.6736 6.46785 21.9313 6.85346 22.3279 6.93236C22.7245 7.01126 23.1101 6.75357 23.1891 6.35693C23.2983 5.80756 23.3461 5.2787 23.3378 4.77484C24.0587 5.63267 24.2711 6.9227 23.9335 8.4417C23.5452 10.1892 22.4892 11.9936 20.9602 13.5227C19.4313 15.0518 17.6268 16.1076 15.8793 16.496C14.3616 16.8331 13.0726 16.6215 12.2148 15.9023Z" fill="#057988"/>
<path d="M30.9004 18.8412C30.4887 19.7143 30.6701 20.8248 31.4305 21.5852C32.6248 22.7795 33.8126 22.5368 34.8321 22.2156C35.7618 21.9226 36.1924 21.9192 36.7578 22.4846C37.1399 22.8667 37.1864 23.4418 36.8616 23.7666C36.5367 24.0915 35.9616 24.0449 35.5796 23.6628C35.2936 23.3769 34.8299 23.3768 34.5439 23.6628C34.2578 23.9488 34.2578 24.4125 34.5439 24.6985C35.0398 25.1945 35.685 25.4451 36.316 25.4451C36.6524 25.4451 36.9839 25.3715 37.2875 25.2284L37.415 25.3559C37.558 25.4989 37.7454 25.5704 37.9329 25.5704C38.1203 25.5704 38.3078 25.499 38.4507 25.356C38.7367 25.07 38.7367 24.6063 38.4507 24.3203L38.3235 24.193C38.7353 23.3198 38.5538 22.2094 37.7935 21.449C36.599 20.2546 35.4114 20.4974 34.3919 20.8186C33.4623 21.1115 33.0315 21.1149 32.4662 20.5496C32.0841 20.1675 32.0375 19.5924 32.3624 19.2676C32.6873 18.9428 33.2624 18.9893 33.6444 19.3714C33.9304 19.6574 34.3942 19.6574 34.6801 19.3714C34.9661 19.0854 34.9661 18.6216 34.6801 18.3357C33.9196 17.5753 32.8092 17.3938 31.936 17.8056L31.8087 17.6784C31.5227 17.3924 31.059 17.3924 30.7731 17.6784C30.4871 17.9644 30.4871 18.4281 30.7731 18.714L30.9004 18.8412Z" fill="#057988"/>
<path d="M42.3711 22.9241C41.9231 20.9081 40.7272 18.8487 39.0037 17.1252C37.2802 15.4017 35.2207 14.2059 33.2048 13.7578C31.07 13.2835 29.2234 13.693 28.0052 14.9113L25.7912 17.1252C24.573 18.3435 24.1633 20.19 24.6377 22.3248C25.0857 24.3409 26.2816 26.4003 28.0051 28.1237C29.7286 29.8472 31.788 31.0431 33.804 31.4911C34.3836 31.6199 34.9418 31.6836 35.4721 31.6836C36.895 31.6836 38.1162 31.2252 39.0037 30.3377L41.2177 28.1237C42.4358 26.9055 42.8455 25.0589 42.3711 22.9241ZM32.8871 15.1876C34.6346 15.5759 36.439 16.6319 37.9681 18.1609C39.4971 19.6898 40.553 21.4944 40.9413 23.2419C41.3032 24.8705 41.0335 26.2364 40.182 27.0881C39.3304 27.9397 37.9646 28.2094 36.3358 27.8474C34.5883 27.4591 32.7839 26.4031 31.2548 24.8741C29.7258 23.3451 28.6699 21.5406 28.2815 19.7931C27.9196 18.1645 28.1892 16.7986 29.0408 15.9469C29.8925 15.0953 31.2584 14.8257 32.8871 15.1876ZM34.1218 30.0613C32.3743 29.6729 30.5699 28.617 29.0408 27.088C27.5118 25.559 26.4559 23.7545 26.0676 22.007C25.7301 20.4886 25.9422 19.1991 26.6624 18.3412C26.6536 18.9018 26.7146 19.4938 26.8517 20.1107C27.2997 22.1267 28.4956 24.1861 30.219 25.9096C31.9425 27.6331 34.002 28.829 36.0179 29.277C36.5976 29.4058 37.1557 29.4694 37.6861 29.4694C37.7197 29.4694 37.7527 29.4679 37.7861 29.4674C36.9283 30.1868 35.6395 30.3985 34.1218 30.0613Z" fill="#057988"/>
<path d="M27.4937 38.2086C27.2076 37.9227 26.7439 37.9226 26.4579 38.2086L26.3328 38.3337C26.0044 38.1776 25.6366 38.1031 25.2522 38.1202C24.6312 38.1481 24.0397 38.4129 23.5867 38.866C22.3924 40.0603 22.635 41.2481 22.9563 42.2675C23.2492 43.1972 23.2525 43.628 22.6873 44.1932C22.3053 44.5752 21.7303 44.6218 21.4054 44.2972C21.4053 44.2971 21.4053 44.297 21.4052 44.297C21.4051 44.2969 21.4051 44.2969 21.4051 44.2968C21.0805 43.972 21.1271 43.397 21.509 43.015C21.7951 42.729 21.7951 42.2653 21.509 41.9794C21.223 41.6934 20.7593 41.6934 20.4734 41.9794C20.0203 42.4325 19.7555 43.0239 19.7277 43.6448C19.7105 44.0293 19.785 44.3971 19.9411 44.7255L19.816 44.8506C19.53 45.1366 19.5301 45.6003 19.816 45.8863C19.9591 46.0293 20.1465 46.1008 20.3339 46.1008C20.5212 46.1008 20.7087 46.0293 20.8518 45.8862L20.9793 45.7587C21.2829 45.9019 21.6144 45.9754 21.9508 45.9754C22.5818 45.9754 23.2271 45.7248 23.7229 45.229C24.9172 44.0347 24.6745 42.8469 24.3533 41.8273C24.0604 40.8976 24.0571 40.467 24.6223 39.9016C25.0044 39.5196 25.5794 39.4731 25.9042 39.7976L25.9044 39.7978C25.9045 39.7979 25.9045 39.798 25.9045 39.798C26.053 39.9465 26.129 40.1548 26.1187 40.3846C26.1073 40.6392 25.9943 40.8861 25.8006 41.0798C25.5145 41.3658 25.5145 41.8296 25.8006 42.1156C26.0866 42.4015 26.5503 42.4016 26.8363 42.1156C27.2894 41.6625 27.5542 41.0711 27.582 40.4501C27.5993 40.0656 27.5247 39.6978 27.3686 39.3694L27.4937 39.2445C27.7796 38.9583 27.7797 38.4946 27.4937 38.2086Z" fill="#057988"/>
<path d="M28.0467 33.2277C26.8284 32.0095 24.9821 31.5998 22.847 32.0743C20.831 32.5223 18.7716 33.7182 17.0482 35.4417C15.3247 37.1651 14.1287 39.2246 13.6807 41.2405C13.2063 43.3753 13.6159 45.2219 14.8342 46.4402L17.0482 48.6541C17.9357 49.5417 19.1566 50.0001 20.5798 50C21.1099 50 21.6683 49.9363 22.2478 49.8076C24.2638 49.3595 26.3232 48.1637 28.0467 46.4402C29.7702 44.7167 30.966 42.6572 31.4141 40.6413C31.8884 38.5065 31.4789 36.6599 30.2606 35.4417L28.0467 33.2277ZM29.9842 40.3236C29.5959 42.0711 28.5399 43.8756 27.0109 45.4046C25.4819 46.9336 23.6774 47.9896 21.9299 48.3779C20.3014 48.74 18.9354 48.4703 18.0838 47.6186C17.2322 46.767 16.9625 45.4011 17.3245 43.7724C17.7128 42.0249 18.7688 40.2204 20.2978 38.6914C21.144 37.8451 22.0712 37.1455 23.0541 36.6117C23.4095 36.4186 23.541 35.974 23.348 35.6186C23.1549 35.2632 22.7103 35.1315 22.3549 35.3247C21.2485 35.9257 20.2078 36.71 19.2621 37.6557C17.5386 39.3792 16.3427 41.4387 15.8947 43.4546C15.7576 44.0716 15.6967 44.6636 15.7055 45.2242C14.9853 44.3663 14.7732 43.0768 15.1106 41.5584C15.499 39.8109 16.5549 38.0065 18.0839 36.4774C19.6129 34.9483 21.4174 33.8925 23.1649 33.5041C24.6852 33.1664 25.9761 33.3792 26.8338 34.1015C26.4339 34.0942 26.0189 34.1215 25.5905 34.1882C25.1908 34.2505 24.9173 34.6248 24.9796 35.0245C25.0419 35.4242 25.4165 35.698 25.8159 35.6354C27.2481 35.4122 28.4589 35.7114 29.2251 36.4775C30.0765 37.329 30.3462 38.695 29.9842 40.3236Z" fill="#057988"/>
</svg>
