<svg width="172" height="171" viewBox="0 0 172 171" fill="none" xmlns="http://www.w3.org/2000/svg">
<path d="M48.735 71.5476C48.0741 70.7669 47.4488 69.9632 46.8617 69.14C43.1477 63.9466 40.9218 57.9524 40.6556 51.5696H33.7276C33.0186 51.5696 32.4446 50.9895 32.4446 50.2736C32.4446 49.5574 33.0186 48.9776 33.7276 48.9776H40.6556C41.4733 29.3464 60.83 13.4249 84.8975 12.9521V5.29601C84.8975 4.57979 85.4718 4 86.1805 4C86.8891 4 87.4634 4.57979 87.4634 5.29601V12.9615C111.342 13.587 130.497 29.4209 131.34 48.9287H139.4C140.109 48.9287 140.683 49.5087 140.683 50.2246C140.683 50.9409 140.109 51.5206 139.4 51.5206H131.346C131.086 57.9229 128.857 63.9333 125.137 69.1397C124.55 69.9628 123.925 70.7665 123.264 71.5472C123.03 70.8378 122.773 70.1378 122.501 69.4446C122.414 69.2242 122.324 69.0039 122.231 68.7835C122.847 67.9898 123.427 67.1764 123.966 66.3405C126.833 61.8857 128.546 56.8602 128.777 51.5206H118.459L126.263 59.4068C126.766 59.9124 126.766 60.7353 126.263 61.2408C125.762 61.7461 124.951 61.7461 124.45 61.2408L114.476 51.1642C114.219 50.9049 114.094 50.5646 114.1 50.2246C114.1 49.7939 114.312 49.4116 114.633 49.175L124.45 39.2571C124.951 38.7515 125.762 38.7515 126.263 39.2571C126.766 39.763 126.766 40.5858 126.263 41.0911L118.504 48.9287H128.774C127.921 30.7004 109.806 16.1657 87.4631 15.5535V26.4497L95.2698 18.5636C95.7703 18.058 96.5848 18.058 97.0853 18.5636C97.5854 19.072 97.5854 19.8919 97.0853 20.3972L87.1102 30.4738C86.8535 30.7331 86.5167 30.8592 86.1801 30.8527C85.7535 30.8527 85.3717 30.6391 85.141 30.3151L75.3231 20.3972C74.8227 19.8916 74.8227 19.072 75.3231 18.5636C75.8239 18.058 76.6385 18.058 77.1386 18.5636L84.8972 26.404V15.547C62.3722 16.0072 44.0485 30.6258 43.2211 48.9772H54.6713L46.8646 41.0911C46.3638 40.5855 46.3638 39.7627 46.8646 39.2571C47.3648 38.7515 48.1761 38.7515 48.6766 39.2571L58.6513 49.3338C58.908 49.593 59.0328 49.9333 59.0267 50.2733C59.0267 50.704 58.8182 51.0864 58.4941 51.323L48.6766 61.2408C48.1758 61.7461 47.3644 61.7461 46.8646 61.2408C46.3638 60.7349 46.3638 59.9121 46.8646 59.4068L54.6232 51.5693H43.2211C43.4617 56.8926 45.1742 61.8984 48.0321 66.3402C48.571 67.176 49.1482 67.9895 49.767 68.7831C49.6743 69.0035 49.5845 69.2239 49.4975 69.4443C49.2255 70.1385 48.9689 70.8382 48.735 71.5476ZM123.264 71.5472C124.582 75.5127 125.294 79.7575 125.294 84.1673C125.294 100.814 115.275 125.558 100.986 136.879C96.3734 140.53 91.3154 142.772 85.9976 142.772C80.6801 142.772 75.625 140.53 71.013 136.879C56.7246 125.558 46.7045 100.814 46.7045 84.1673C46.7045 79.7575 47.4168 75.513 48.735 71.5476C56.7342 81.0114 69.9222 87.3102 84.9453 87.5954V94.0365C84.9453 94.7524 85.5196 95.3325 86.2286 95.3325C86.9341 95.3325 87.5112 94.7524 87.5112 94.0365V87.5825C102.342 87.1838 115.345 80.9142 123.264 71.5472ZM122.231 68.7838C114.89 78.2253 102.105 84.5789 87.5115 84.9904V72.9278L95.2704 80.7654C95.7709 81.271 96.5855 81.271 97.0859 80.7654C97.5861 80.2598 97.5861 79.4403 97.0859 78.935L87.2677 69.0172C87.0338 68.6898 86.6553 68.4795 86.2289 68.4795C85.8917 68.473 85.5523 68.5994 85.2953 68.8587L75.3238 78.935C74.8233 79.4406 74.8233 80.2602 75.3238 80.7654C75.8246 81.271 76.6391 81.271 77.1393 80.7654L84.9456 72.8792V85.0002C70.1599 84.7117 57.1833 78.3257 49.7677 68.7838C54.4057 57.6639 63.9156 49.117 75.59 45.8804C75.0286 47.2315 74.721 48.7187 74.721 50.2739C74.721 56.5627 79.7725 61.6689 85.9976 61.6689C92.2233 61.6689 97.2781 56.5627 97.2781 50.2739C97.2781 48.7187 96.9701 47.2315 96.4087 45.8804C108.084 49.117 117.594 57.6643 122.231 68.7838ZM55.6982 101.618C64.6211 106.737 73.1557 106.494 81.3538 101.605C81.963 101.242 82.1651 100.445 81.8058 99.8295C81.4468 99.2141 80.6576 99.0099 80.0481 99.3728C72.6745 103.769 64.9929 103.971 56.9648 99.3631C56.3492 99.0099 55.5667 99.227 55.217 99.8492C54.8673 100.471 55.0823 101.262 55.6982 101.618ZM74.5798 126.43H98.9492C99.6579 126.43 100.232 125.847 100.232 125.134C100.232 124.418 99.6579 123.838 98.9492 123.838H74.5798C73.8708 123.838 73.2965 124.418 73.2965 125.134C73.2965 125.847 73.8708 126.43 74.5798 126.43ZM92.1944 101.618C101.117 106.737 109.652 106.494 117.85 101.605C118.46 101.242 118.662 100.445 118.302 99.8295C117.943 99.2141 117.157 99.0099 116.545 99.3728C109.171 103.769 101.489 103.971 93.4613 99.3631C92.8457 99.0099 92.0632 99.227 91.7135 99.8492C91.3638 100.471 91.5788 101.262 92.1944 101.618ZM85.9976 41.4709C90.8089 41.4709 94.7122 45.414 94.7122 50.2739C94.7122 55.1306 90.8089 59.0769 85.9976 59.0769C81.1899 59.0769 77.2868 55.1306 77.2868 50.2739C77.2868 45.414 81.1899 41.4709 85.9976 41.4709ZM70.6476 139.847C75.4107 143.317 80.5935 145.364 85.9979 145.364C91.4056 145.364 96.5886 143.317 101.349 139.847C105.348 146.913 112.911 152.541 124.185 152.178C141.158 151.634 146.906 161.96 148.5 166C148.5 166 38.8568 166 23.5 166C25.0941 161.959 30.8418 151.634 47.8149 152.178C59.088 152.541 66.6512 146.913 70.6476 139.847Z" fill="white"/>
</svg>
