<?xml version="1.0" standalone="no"?>
<!DOCTYPE svg PUBLIC "-//W3C//DTD SVG 20010904//EN"
 "http://www.w3.org/TR/2001/REC-SVG-20010904/DTD/svg10.dtd">
<svg version="1.0" xmlns="http://www.w3.org/2000/svg"
 width="736.000000pt" height="817.000000pt" viewBox="0 0 736.000000 817.000000"
 preserveAspectRatio="xMidYMid meet">

<g transform="translate(0.000000,817.000000) scale(0.100000,-0.100000)"
fill="#d4af37" stroke="none">
<path d="M3403 7390 c-38 -11 -85 -36 -121 -64 -36 -27 -63 -41 -68 -36 -5 5
-44 28 -87 50 -68 35 -86 40 -145 40 -145 0 -243 -100 -229 -234 6 -59 53
-177 98 -244 16 -24 29 -45 29 -48 0 -3 13 -20 30 -37 16 -18 42 -46 57 -62
43 -48 102 -89 186 -134 64 -34 88 -41 133 -41 53 0 56 2 113 58 66 66 221
261 270 342 37 60 61 135 61 191 0 96 -69 186 -164 213 -87 25 -99 25 -163 6z
m-347 -142 c38 -30 61 -59 90 -116 31 -58 58 -82 93 -82 28 0 30 2 87 137 27
65 123 75 172 18 37 -43 25 -122 -38 -240 -61 -114 -144 -228 -178 -244 -29
-14 -46 -6 -135 67 -171 139 -272 321 -236 429 15 47 23 53 75 53 28 0 51 -7
70 -22z"/>
<path d="M5700 6659 c-47 -14 -86 -53 -115 -116 -39 -82 -33 -156 26 -328 6
-16 15 -50 20 -74 5 -24 13 -49 18 -55 5 -6 12 -26 16 -45 4 -18 18 -57 30
-86 20 -43 30 -55 64 -69 36 -14 47 -14 93 -2 29 8 67 21 83 30 17 9 71 35
120 59 81 39 108 53 155 78 8 5 29 16 45 24 103 53 159 109 180 180 23 82 18
113 -33 181 -49 67 -205 97 -301 58 -54 -21 -83 -15 -101 21 -50 99 -109 144
-201 150 -35 2 -80 0 -99 -6z m155 -159 c19 -28 29 -57 32 -93 5 -66 40 -147
64 -147 10 0 57 23 106 52 98 58 154 68 179 33 25 -34 17 -68 -28 -112 -62
-62 -80 -77 -108 -90 -14 -7 -32 -17 -40 -22 -8 -5 -53 -28 -99 -51 -101 -50
-132 -50 -144 0 -5 19 -15 51 -22 70 -13 34 -37 114 -70 236 -16 57 -16 63 0
95 42 83 86 93 130 29z"/>
<path d="M3285 6291 c-32 -14 -42 -31 -66 -116 -12 -44 -26 -89 -31 -100 -5
-11 -15 -45 -22 -75 -8 -30 -24 -86 -35 -125 -12 -38 -28 -92 -36 -120 -7 -27
-23 -80 -34 -117 -12 -38 -30 -98 -42 -135 -11 -38 -25 -88 -31 -113 -6 -25
-14 -49 -18 -55 -5 -5 -11 -28 -15 -50 -4 -22 -13 -56 -20 -75 -7 -19 -23 -69
-35 -110 -56 -194 -99 -337 -115 -380 -7 -19 -17 -53 -23 -75 -5 -22 -20 -71
-32 -110 -11 -38 -25 -90 -31 -114 -5 -24 -13 -49 -19 -56 -6 -7 -14 -32 -19
-56 -21 -97 -50 -183 -69 -201 -19 -20 -20 -19 -73 29 -29 26 -95 89 -147 138
-113 108 -140 133 -218 204 -32 30 -100 93 -150 140 -250 237 -331 300 -555
428 -88 51 -133 55 -200 19 -42 -22 -44 -25 -42 -65 1 -23 11 -56 21 -74 31
-51 92 -170 92 -181 0 -5 9 -27 19 -50 53 -116 93 -245 126 -411 7 -38 16 -77
19 -85 3 -8 13 -50 21 -92 8 -43 22 -113 30 -155 8 -43 19 -91 24 -108 5 -16
12 -50 16 -75 6 -43 11 -69 51 -250 9 -41 20 -100 24 -130 5 -30 15 -91 24
-135 32 -156 49 -248 81 -445 24 -145 36 -213 50 -280 8 -36 17 -85 20 -110 9
-57 39 -106 69 -114 48 -12 94 6 226 84 8 5 40 23 70 39 30 16 75 40 100 54
114 64 371 187 389 187 6 0 28 9 48 20 21 11 45 20 53 20 9 0 20 4 26 10 5 5
30 16 54 24 56 18 226 79 263 94 16 7 33 12 39 12 7 0 41 9 77 20 36 10 98 28
136 38 39 11 95 27 126 36 31 9 68 16 83 16 15 0 36 5 47 10 21 12 195 47 304
61 39 5 86 14 105 19 19 5 69 12 110 15 41 3 118 14 170 22 122 21 711 25 775
5 22 -7 71 -17 108 -22 62 -9 163 -37 212 -60 11 -5 29 -11 40 -14 26 -8 75
-53 75 -71 0 -31 -21 -65 -77 -121 -65 -67 -146 -134 -162 -134 -5 0 -14 -6
-18 -12 -10 -16 -69 -58 -81 -58 -5 0 -16 -7 -23 -16 -7 -9 -22 -20 -34 -26
-11 -5 -51 -27 -90 -49 -38 -21 -101 -55 -140 -75 -38 -19 -77 -39 -85 -43 -8
-5 -37 -19 -65 -31 -27 -12 -66 -29 -85 -37 -19 -9 -53 -23 -75 -33 -22 -10
-56 -24 -75 -33 -19 -8 -51 -21 -70 -27 -19 -7 -84 -30 -145 -52 -60 -22 -128
-44 -150 -49 -21 -6 -44 -14 -50 -18 -5 -5 -26 -12 -45 -16 -19 -4 -66 -16
-105 -26 -38 -11 -92 -26 -120 -34 -78 -22 -235 -56 -411 -89 -93 -17 -148
-44 -152 -74 -6 -42 17 -89 50 -103 32 -13 151 -5 293 21 33 6 114 20 180 31
66 11 138 25 160 31 22 6 72 17 110 24 124 24 319 72 368 90 20 8 46 14 57 14
11 0 34 6 52 14 40 18 119 44 173 57 21 6 44 13 50 18 5 4 44 20 85 35 41 15
82 32 90 37 8 5 26 14 40 19 14 6 50 23 80 39 272 138 410 231 505 341 17 18
37 41 45 50 19 22 37 49 52 80 7 14 17 32 23 40 7 8 23 47 36 85 23 67 24 80
22 291 -1 122 -9 309 -17 415 -9 107 -18 352 -21 544 -6 448 6 710 47 1030 7
50 13 165 15 257 3 141 1 172 -13 200 -61 117 -143 89 -374 -127 -121 -114
-321 -317 -400 -406 -82 -92 -220 -265 -220 -275 0 -4 -7 -14 -15 -23 -9 -9
-37 -45 -63 -81 -26 -36 -50 -66 -54 -68 -5 -2 -8 -9 -8 -17 0 -7 -7 -19 -16
-26 -9 -7 -20 -23 -25 -36 -11 -28 -57 -32 -65 -5 -3 9 -9 24 -14 32 -5 8 -33
55 -62 103 -86 143 -91 151 -148 247 -30 51 -63 104 -72 119 -10 14 -25 40
-35 58 -16 28 -90 152 -150 252 -12 20 -25 43 -29 51 -4 8 -22 35 -38 60 -17
25 -42 65 -55 90 -13 25 -33 56 -43 69 -10 13 -18 28 -18 33 0 4 -12 27 -27
51 -33 50 -32 48 -108 178 -33 56 -67 112 -75 125 -8 12 -48 79 -88 147 -96
166 -131 203 -197 211 -27 3 -59 1 -70 -3z m121 -381 c13 -25 27 -49 32 -55 4
-5 15 -23 23 -40 23 -45 81 -150 106 -193 12 -20 29 -51 37 -68 7 -17 19 -35
25 -38 6 -4 11 -14 11 -23 0 -9 6 -24 14 -32 7 -9 34 -54 59 -101 25 -47 58
-108 74 -135 16 -28 33 -57 37 -65 4 -8 18 -33 31 -55 13 -22 38 -67 55 -100
17 -33 49 -91 71 -130 22 -38 47 -83 55 -100 8 -16 26 -48 39 -70 14 -22 30
-49 35 -60 6 -11 28 -51 51 -90 22 -38 47 -83 55 -100 20 -41 105 -182 144
-239 8 -13 29 -45 47 -72 73 -112 98 -130 150 -108 41 18 138 141 244 314 19
30 39 63 44 72 11 18 104 155 170 248 21 30 90 120 154 200 129 162 121 152
162 200 17 19 53 65 82 103 30 39 58 67 69 67 21 0 21 2 3 -125 -39 -283 -55
-418 -65 -550 -34 -461 -37 -609 -15 -960 8 -132 15 -247 15 -256 0 -26 -24
-29 -83 -14 -30 8 -101 19 -158 25 -57 5 -142 15 -189 20 -130 15 -484 12
-644 -5 -237 -26 -398 -50 -471 -70 -27 -8 -72 -17 -100 -21 -27 -4 -64 -13
-82 -20 -18 -8 -44 -14 -58 -14 -24 0 -145 -30 -210 -52 -16 -5 -50 -14 -75
-19 -25 -5 -54 -13 -65 -18 -11 -5 -60 -21 -110 -36 -49 -14 -99 -30 -110 -35
-45 -20 -152 -60 -162 -60 -6 0 -16 -6 -22 -14 -7 -8 -25 -18 -41 -21 -27 -6
-116 -50 -300 -147 -163 -87 -205 -110 -261 -144 -31 -19 -60 -34 -64 -34 -3
0 -37 -18 -74 -40 -37 -22 -79 -40 -93 -40 -25 0 -27 3 -32 63 -15 188 -54
526 -61 537 -3 4 -12 52 -20 106 -20 132 -40 233 -52 264 -6 14 -13 48 -17 75
-4 28 -14 70 -22 95 -7 25 -23 90 -34 145 -12 55 -27 125 -35 155 -8 30 -24
100 -35 155 -12 55 -26 118 -32 140 -30 124 -53 255 -44 255 8 0 26 -14 70
-55 18 -16 84 -77 146 -135 135 -124 132 -121 341 -321 155 -148 260 -239 275
-239 4 0 15 -6 23 -14 26 -23 123 -56 167 -56 49 0 70 20 103 100 13 30 29 70
37 88 8 18 14 40 14 49 0 9 8 44 19 77 19 61 34 117 51 191 6 22 16 63 25 90
8 28 24 88 35 135 12 47 28 108 36 135 8 28 18 68 24 90 12 53 43 172 69 268
12 42 30 112 42 155 12 42 24 93 28 112 4 19 13 51 19 70 19 60 43 153 51 195
4 22 13 56 19 75 7 19 18 60 26 90 21 84 66 253 71 268 8 22 26 9 51 -38z"/>
<path d="M827 6228 c-77 -40 -116 -95 -124 -175 -6 -59 -34 -90 -71 -79 -30
10 -159 -12 -200 -34 -48 -25 -74 -54 -101 -113 -47 -103 16 -219 149 -271 61
-24 153 -44 288 -61 63 -8 130 -19 150 -25 84 -23 163 -8 205 38 24 26 35 210
26 424 -5 129 -9 149 -28 173 -11 15 -21 33 -21 39 -1 18 -42 59 -83 84 -49
28 -135 28 -190 0z m103 -110 c15 -10 35 -33 46 -51 17 -29 19 -52 19 -247 l0
-215 -75 3 c-151 5 -331 57 -389 112 -66 63 -64 160 3 160 24 0 131 -32 161
-47 71 -38 94 -45 118 -39 35 8 43 39 21 84 -14 27 -19 60 -19 122 0 73 3 90
23 118 26 36 44 36 92 0z"/>
</g>
</svg>
