<svg width="50" height="50" viewBox="0 0 50 50" fill="none" xmlns="http://www.w3.org/2000/svg">
<path d="M25.0015 0C14.8168 0 6.53125 8.28553 6.53125 18.4702C6.53125 21.8231 8.03494 25.4292 8.09796 25.5813C8.58362 26.734 9.5419 28.5246 10.2329 29.5741L22.897 48.7625C23.4152 49.5491 24.1823 50 25.0015 50C25.8207 50 26.5877 49.5491 27.106 48.7636L39.7711 29.5741C40.4632 28.5246 41.4204 26.734 41.9061 25.5813C41.9691 25.4302 43.4717 21.8242 43.4717 18.4702C43.4717 8.28553 35.1862 0 25.0015 0ZM39.9026 24.7382C39.4691 25.7714 38.5771 27.437 37.9567 28.3779L25.2916 47.5674C25.0417 47.9465 24.9624 47.9465 24.7125 47.5674L12.0473 28.3779C11.4269 27.437 10.5349 25.7703 10.1014 24.7371C10.083 24.6925 8.70422 21.3733 8.70422 18.4702C8.70422 9.48392 16.0152 2.17297 25.0015 2.17297C33.9878 2.17297 41.2987 9.48392 41.2987 18.4702C41.2987 21.3777 39.9167 24.7056 39.9026 24.7382Z" fill="#057988"/>
<path d="M25.001 8.69336C19.6088 8.69336 15.2227 13.0806 15.2227 18.4717C15.2227 23.8629 19.6088 28.2501 25.001 28.2501C30.3932 28.2501 34.7794 23.8629 34.7794 18.4717C34.7794 13.0806 30.3932 8.69336 25.001 8.69336ZM25.001 26.0771C20.8083 26.0771 17.3956 22.6655 17.3956 18.4717C17.3956 14.2779 20.8083 10.8663 25.001 10.8663C29.1938 10.8663 32.6064 14.2779 32.6064 18.4717C32.6064 22.6655 29.1938 26.0771 25.001 26.0771Z" fill="#057988"/>
</svg>
