<svg width="62" height="41" viewBox="0 0 62 41" fill="none" xmlns="http://www.w3.org/2000/svg">
<path d="M61.0146 1.196C61.0186 1.172 61.0256 1.148 61.0276 1.124C61.0346 1.05 61.0266 0.975002 61.0176 0.900002C61.0156 0.881002 61.0186 0.863003 61.0156 0.844003C60.9976 0.745003 60.9646 0.648003 60.9156 0.555003C60.9076 0.539003 60.8966 0.524003 60.8876 0.508003C60.8856 0.506003 60.8856 0.503003 60.8846 0.500003C60.8836 0.498003 60.8806 0.497003 60.8796 0.494003C60.8726 0.483003 60.8666 0.471003 60.8596 0.461003C60.7976 0.370003 60.7226 0.295003 60.6386 0.231003C60.6196 0.217003 60.5976 0.209003 60.5776 0.196003C60.5036 0.147003 60.4256 0.107003 60.3416 0.0800027C60.3046 0.0680027 60.2676 0.0620031 60.2296 0.0550031C60.1566 0.0400031 60.0836 0.0330027 60.0076 0.0350027C59.9676 0.0360027 59.9296 0.0380025 59.8896 0.0440025C59.8636 0.0480025 59.8386 0.044003 59.8126 0.050003L1.76663 12.046C1.35363 12.132 1.03763 12.467 0.978635 12.885C0.919635 13.303 1.12863 13.713 1.50163 13.91L18.1336 22.683L21.0506 38.87C21.0486 38.882 21.0516 38.895 21.0506 38.907C21.0406 38.987 21.0396 39.065 21.0496 39.144C21.0546 39.184 21.0596 39.222 21.0696 39.261C21.0926 39.356 21.1296 39.445 21.1796 39.529C21.1896 39.545 21.1896 39.564 21.2006 39.58C21.2036 39.585 21.2086 39.589 21.2126 39.593C21.2256 39.612 21.2436 39.627 21.2586 39.646C21.3056 39.704 21.3546 39.757 21.4106 39.802C21.4196 39.809 21.4256 39.82 21.4356 39.827C21.4506 39.838 21.4676 39.841 21.4826 39.851C21.5436 39.891 21.6066 39.924 21.6736 39.95C21.7006 39.96 21.7256 39.972 21.7536 39.98C21.8436 40.006 21.9366 40.024 22.0306 40.024H22.0336C22.0376 40.024 22.0416 40.022 22.0456 40.022C22.0626 40.023 22.0796 40.024 22.0966 40.024C22.3736 40.024 22.6236 39.9 22.8086 39.709L33.8876 32.323L45.4876 39.863C45.6516 39.969 45.8416 40.024 46.0326 40.024C46.1376 40.024 46.2446 40.007 46.3476 39.973C46.6356 39.877 46.8656 39.655 46.9706 39.369L60.9666 1.38C60.9796 1.346 60.9906 1.311 60.9996 1.275C61.0036 1.26 61.0046 1.245 61.0076 1.231C61.0106 1.22 61.0126 1.208 61.0146 1.196ZM49.4326 7.579L25.4396 25.22C25.4006 25.249 25.3696 25.285 25.3356 25.319C25.3226 25.331 25.3096 25.341 25.2986 25.354C25.2776 25.377 25.2586 25.4 25.2396 25.425C25.2216 25.449 25.2076 25.474 25.1916 25.499C25.1546 25.559 25.1236 25.621 25.0996 25.687C25.0946 25.7 25.0866 25.71 25.0826 25.723C25.0816 25.727 25.0776 25.729 25.0766 25.733L22.3266 34.67L20.1476 22.579L49.4326 7.579ZM23.8766 36.594L26.6026 27.59L30.8466 30.349L32.0606 31.138L27.9366 33.887L23.8766 36.594ZM53.0126 3.498L19.0396 20.899L4.89963 13.441L53.0126 3.498ZM45.5276 37.504L30.1226 27.492L27.7896 25.975L57.9436 3.803L45.5276 37.504Z" fill="#057988"/>
</svg>
