<svg width="163" height="145" viewBox="0 0 163 145" fill="none" xmlns="http://www.w3.org/2000/svg">
<path d="M121.954 107.448C121.763 107.461 121.572 107.468 121.378 107.468C115.993 107.468 111.622 103.113 111.622 97.7469C111.622 92.3818 115.992 88.0267 121.378 88.0267C126.763 88.0267 131.134 92.3814 131.134 97.7469C131.134 102.008 128.373 105.63 124.543 106.941L128.959 125.614C129.3 125.579 129.643 125.562 129.99 125.562C135.375 125.562 139.746 129.917 139.746 135.279C139.746 140.645 135.375 145 129.99 145C124.605 145 120.234 140.645 120.234 135.279C120.234 131.179 122.79 127.667 126.403 126.24L121.954 107.448ZM110.112 92.6075L93.3323 85.641C93.6204 84.5951 93.776 83.4943 93.776 82.3577C93.776 79.2429 92.6128 76.3983 90.7014 74.2226L99.6989 65.2931C101.876 67.1883 104.727 68.3379 107.844 68.3379C108.476 68.3379 109.095 68.2923 109.698 68.2019L115.617 86.8164C113.2 88.0848 111.256 90.1249 110.112 92.6075ZM140.805 88.017L132.251 91.8296C130.145 88.0012 126.062 85.4021 121.377 85.4021C120.234 85.4021 119.126 85.557 118.072 85.8476L112.25 67.5335C114.237 66.7815 115.98 65.5321 117.327 63.9372L141.634 79.2683C140.818 80.9149 140.358 82.7681 140.358 84.7242C140.358 85.8635 140.513 86.9678 140.805 88.017ZM146.951 46.2714L150.055 72.6726C147.239 73.2958 144.78 74.8742 143.043 77.0503L118.801 61.7611C119.715 60.0371 120.233 58.0777 120.233 55.9955C120.233 54.1843 119.841 52.4668 119.138 50.9172L137.117 41.0093C139.304 44.1154 142.888 46.1716 146.951 46.2714ZM113.887 16.494L135.851 29.1297C135.222 30.6048 134.875 32.229 134.875 33.9301C134.875 35.6283 135.222 37.2423 135.844 38.7144L117.803 48.6542C115.545 45.6195 111.923 43.6504 107.844 43.6504C103.878 43.6504 100.346 45.5097 98.0781 48.4023L86.8192 40.9741C88.2157 38.9789 89.0353 36.5479 89.0353 33.9301C89.0353 31.1343 88.1022 28.555 86.5243 26.4825L94.5599 18.228C96.8149 20.591 99.9996 22.0632 103.528 22.0632C107.857 22.0628 111.671 19.848 113.887 16.494ZM57.4715 10.2601H91.1515C91.2452 12.4004 91.8872 14.3986 92.9398 16.1226L84.7201 24.5677C82.5494 22.7116 79.7305 21.5879 76.6495 21.5879C72.7874 21.5879 69.3398 23.3471 67.0654 26.1077L55.5504 16.3386C56.684 14.57 57.374 12.4908 57.4715 10.2601ZM96.6852 50.633C95.898 52.2537 95.4573 54.0742 95.4573 55.9952C95.4573 58.7551 96.368 61.3055 97.907 63.3653L88.7634 72.4433C86.6999 70.9163 84.1497 70.0153 81.3859 70.0153C78.1457 70.0153 75.1973 71.2551 72.9877 73.2855L61.9653 63.2843C63.4716 61.2409 64.3596 58.7193 64.3596 55.9949C64.3596 53.3926 63.5497 50.9782 62.1694 48.9893L68.6981 43.3949C70.8497 45.1929 73.6229 46.2746 76.6491 46.2746C79.902 46.2746 82.8667 45.0221 85.0762 42.9719L96.6852 50.633ZM40.053 83.4326C39.5867 80.9368 38.3685 78.7062 36.6379 76.9793L45.25 66.3645C47.1877 67.6139 49.4946 68.3372 51.9696 68.3372C55.1255 68.3372 58.0024 67.1618 60.1929 65.2282L71.2509 75.2585C70.0456 76.9631 69.2617 78.9838 69.0542 81.1729L40.053 83.4326ZM53.9073 18.3923L65.6102 28.3225C64.7485 30.0045 64.2591 31.9122 64.2591 33.9301C64.2591 36.784 65.2343 39.4148 66.8673 41.5037L60.4521 47.0012C58.236 44.9223 55.2519 43.6504 51.9696 43.6504C51.7881 43.6504 51.6069 43.6536 51.4251 43.663L48.0783 21.7012C50.3239 21.149 52.3293 19.9804 53.9073 18.3923ZM37.286 19.2991C39.4179 21.0267 42.1366 22.0628 45.0945 22.0628C45.2212 22.0628 45.344 22.0596 45.4704 22.0561L48.8208 44.054C44.5925 45.1577 41.2453 48.4346 40.053 52.6121L22.6183 49.6129C22.6346 49.3514 22.6443 49.0834 22.6443 48.8189C22.6443 45.3131 21.1736 42.1459 18.8146 39.8959L37.286 19.2991ZM22.1711 52.1988L39.6058 55.198C39.5896 55.4624 39.5831 55.7275 39.5831 55.9955C39.5831 59.398 40.967 62.4777 43.2025 64.7119L34.5903 75.3298C32.6562 74.0805 30.3461 73.3539 27.8708 73.3539C26.3674 73.3539 24.9287 73.622 23.5942 74.1096L16.3742 59.5534C19.1613 57.9679 21.274 55.3401 22.1711 52.1988ZM144.505 79.5296V79.5264C146.051 77.102 148.643 75.4038 151.649 75.0651C151.653 75.0651 151.659 75.0651 151.662 75.0651C152.019 75.0263 152.382 75.0069 152.748 75.0069C158.129 75.0069 162.5 79.3617 162.5 84.7242C162.5 90.0894 158.129 94.4448 152.748 94.4448C147.363 94.4448 142.992 90.0897 142.992 84.7242C142.992 82.8158 143.546 81.0308 144.505 79.5296ZM138.725 38.6272C137.95 37.2358 137.51 35.6344 137.51 33.9301C137.51 32.2384 137.947 30.6468 138.712 29.2622C138.718 29.2457 138.728 29.2328 138.734 29.2166C140.4 26.2336 143.598 24.2128 147.265 24.2128C152.65 24.2128 157.021 28.5675 157.021 33.9301C157.021 39.2956 152.65 43.6507 147.265 43.6507C143.591 43.6504 140.387 41.6228 138.725 38.6272ZM116.245 51.0496C116.245 51.0528 116.249 51.056 116.249 51.0589C117.107 52.5053 117.6 54.1937 117.6 55.9952C117.6 58.0095 116.984 59.8786 115.931 61.4318C115.924 61.4412 115.918 61.4511 115.911 61.4573C114.156 64.027 111.197 65.7123 107.844 65.7123C105.012 65.7123 102.459 64.5081 100.674 62.581C100.664 62.5681 100.651 62.5584 100.641 62.5458C99.0566 60.8154 98.0911 58.5165 98.0911 55.9955C98.0911 54.1294 98.6194 52.3829 99.5362 50.9013C99.5394 50.8946 99.5427 50.8916 99.5459 50.8852C101.266 48.1185 104.341 46.2754 107.844 46.2754C111.418 46.275 114.544 48.1928 116.245 51.0496ZM95.7004 15.5155C95.6907 15.5026 95.6809 15.4864 95.6676 15.4735C94.4789 13.8593 93.7756 11.8708 93.7756 9.71766C93.7756 4.35574 98.1462 0.000315342 103.528 0.000315342C108.913 0.000315342 113.284 4.35541 113.284 9.71766C113.284 15.0831 108.914 19.4382 103.528 19.4382C100.324 19.4382 97.4793 17.8951 95.7004 15.5155ZM83.7705 27.2924C83.7835 27.3056 83.7929 27.3183 83.8062 27.3315C85.4165 29.0649 86.4015 31.383 86.4015 33.9301C86.4015 36.4062 85.4717 38.6692 83.9388 40.3832C83.9258 40.3993 83.9128 40.4158 83.8998 40.4287C82.1112 42.4075 79.526 43.6507 76.6488 43.6507C73.9239 43.6507 71.4615 42.5369 69.6891 40.7419C69.6761 40.729 69.6664 40.7161 69.6535 40.7032C67.9459 38.9533 66.8929 36.5644 66.8929 33.9301C66.8929 32.0256 67.4436 30.2467 68.3964 28.7487C68.4029 28.7355 68.4126 28.7229 68.419 28.7132C70.1526 26.0078 73.1918 24.2128 76.6488 24.2128C79.4583 24.2128 81.9916 25.3976 83.7705 27.2924ZM71.6301 82.4158C71.6301 82.3964 71.6301 82.3771 71.6301 82.3574C71.6301 79.9236 72.5307 77.699 74.0147 75.9944C74.0276 75.9782 74.0406 75.9653 74.0536 75.9491C75.8422 73.9219 78.463 72.6403 81.3856 72.6403C83.9063 72.6403 86.2102 73.5958 87.9402 75.1648C87.9531 75.1742 87.9661 75.1871 87.9791 75.1971C89.92 76.976 91.1415 79.5261 91.1415 82.3574C91.1415 87.7228 86.7706 92.0783 81.3856 92.0783C76.0204 92.0783 71.6628 87.7554 71.6301 82.4158ZM42.3566 54.3394C43.0661 50.2361 46.3581 47.0077 50.5054 46.3848C50.9847 46.3137 51.474 46.275 51.9699 46.275C54.9281 46.275 57.5785 47.5886 59.3668 49.6584V49.6617C60.8378 51.3631 61.7254 53.5776 61.7254 55.9955C61.7254 58.5136 60.7632 60.8089 59.182 62.5361C57.3967 64.4891 54.8273 65.7126 51.9696 65.7126C49.6498 65.7126 47.5147 64.9056 45.8395 63.553C43.6299 61.7705 42.2173 59.0461 42.2173 55.9955C42.2173 55.4305 42.2626 54.8786 42.3566 54.3394ZM23.5485 76.9825H23.5517C24.8539 76.3402 26.3216 75.9785 27.8704 75.9785C30.1934 75.9785 32.3253 76.789 34.0008 78.1382L34.004 78.1414C36.0257 79.775 37.3836 82.1966 37.5971 84.9371V84.9402C37.6166 85.1892 37.6263 85.4443 37.6263 85.6991C37.6263 91.0614 33.2557 95.4165 27.8704 95.4165C22.489 95.4165 18.1181 91.0617 18.1181 85.6991C18.1181 81.8801 20.331 78.5709 23.5485 76.9825ZM16.1215 41.0549C16.1338 41.0646 16.1461 41.0742 16.1584 41.0803C18.497 42.8592 20.0101 45.6647 20.0101 48.8189C20.0101 49.3804 19.9615 49.9358 19.8679 50.4715V50.4751C19.0771 55.0494 15.0721 58.5359 10.2549 58.5359C4.87155 58.5359 0.5 54.1812 0.5 48.8189C0.5 43.4534 4.87122 39.0983 10.2549 39.0983C12.4561 39.0987 14.4887 39.8249 16.1215 41.0549ZM52.7603 15.7286C52.7509 15.7416 52.7409 15.7513 52.7312 15.7639C50.9426 18.0013 48.1856 19.4379 45.0945 19.4379C42.3796 19.4379 39.9169 18.3274 38.1481 16.5388C38.1348 16.5259 38.1254 16.513 38.1124 16.5C36.3983 14.7502 35.3422 12.3549 35.3422 9.71735C35.3422 4.35542 39.7128 0 45.0945 0C50.4795 0 54.8507 4.3551 54.8507 9.71735C54.8504 11.9874 54.0693 14.0757 52.7603 15.7286Z" fill="white"/>
</svg>
