<svg xmlns="http://www.w3.org/2000/svg" style="display: none;">
 <symbol id="tiktok" viewBox="0 0 32 32">
<path d="M16.707 0.027c1.747-0.027 3.48-0.013 5.213-0.027 0.107 2.040 0.84 4.12 2.333 5.56 1.493 1.48 3.6 2.16 5.653 2.387v5.373c-1.92-0.067-3.853-0.467-5.6-1.293-0.76-0.347-1.467-0.787-2.16-1.24-0.013 3.893 0.013 7.787-0.027 11.667-0.107 1.867-0.72 3.72-1.8 5.253-1.747 2.56-4.773 4.227-7.88 4.28-1.907 0.107-3.813-0.413-5.44-1.373-2.693-1.587-4.587-4.493-4.867-7.613-0.027-0.667-0.040-1.333-0.013-1.987 0.24-2.533 1.493-4.96 3.44-6.613 2.213-1.92 5.307-2.84 8.2-2.293 0.027 1.973-0.053 3.947-0.053 5.92-1.32-0.427-2.867-0.307-4.027 0.493-0.84 0.547-1.48 1.387-1.813 2.333-0.28 0.68-0.2 1.427-0.187 2.147 0.32 2.187 2.427 4.027 4.667 3.827 1.493-0.013 2.92-0.88 3.693-2.147 0.253-0.44 0.533-0.893 0.547-1.413 0.133-2.387 0.080-4.76 0.093-7.147 0.013-5.373-0.013-10.733 0.027-16.093z"></path>
</symbol>

<symbol id="instagram" viewBox="0 0 32 32">
<path d="M16 2.881c4.275 0 4.781 0.019 6.462 0.094 1.563 0.069 2.406 0.331 2.969 0.55 0.744 0.288 1.281 0.638 1.837 1.194 0.563 0.563 0.906 1.094 1.2 1.838 0.219 0.563 0.481 1.412 0.55 2.969 0.075 1.688 0.094 2.194 0.094 6.463s-0.019 4.781-0.094 6.463c-0.069 1.563-0.331 2.406-0.55 2.969-0.288 0.744-0.637 1.281-1.194 1.837-0.563 0.563-1.094 0.906-1.837 1.2-0.563 0.219-1.413 0.481-2.969 0.55-1.688 0.075-2.194 0.094-6.463 0.094s-4.781-0.019-6.463-0.094c-1.563-0.069-2.406-0.331-2.969-0.55-0.744-0.288-1.281-0.637-1.838-1.194-0.563-0.563-0.906-1.094-1.2-1.837-0.219-0.563-0.481-1.413-0.55-2.969-0.075-1.688-0.094-2.194-0.094-6.463s0.019-4.781 0.094-6.463c0.069-1.563 0.331-2.406 0.55-2.969 0.288-0.744 0.638-1.281 1.194-1.838 0.563-0.563 1.094-0.906 1.838-1.2 0.563-0.219 1.412-0.481 2.969-0.55 1.681-0.075 2.188-0.094 6.463-0.094zM16 0c-4.344 0-4.887 0.019-6.594 0.094-1.7 0.075-2.869 0.35-3.881 0.744-1.056 0.412-1.95 0.956-2.837 1.85-0.894 0.888-1.438 1.781-1.85 2.831-0.394 1.019-0.669 2.181-0.744 3.881-0.075 1.713-0.094 2.256-0.094 6.6s0.019 4.887 0.094 6.594c0.075 1.7 0.35 2.869 0.744 3.881 0.413 1.056 0.956 1.95 1.85 2.837 0.887 0.887 1.781 1.438 2.831 1.844 1.019 0.394 2.181 0.669 3.881 0.744 1.706 0.075 2.25 0.094 6.594 0.094s4.888-0.019 6.594-0.094c1.7-0.075 2.869-0.35 3.881-0.744 1.050-0.406 1.944-0.956 2.831-1.844s1.438-1.781 1.844-2.831c0.394-1.019 0.669-2.181 0.744-3.881 0.075-1.706 0.094-2.25 0.094-6.594s-0.019-4.887-0.094-6.594c-0.075-1.7-0.35-2.869-0.744-3.881-0.394-1.063-0.938-1.956-1.831-2.844-0.887-0.887-1.781-1.438-2.831-1.844-1.019-0.394-2.181-0.669-3.881-0.744-1.712-0.081-2.256-0.1-6.6-0.1v0z"></path>
<path d="M16 7.781c-4.537 0-8.219 3.681-8.219 8.219s3.681 8.219 8.219 8.219 8.219-3.681 8.219-8.219c0-4.537-3.681-8.219-8.219-8.219zM16 21.331c-2.944 0-5.331-2.387-5.331-5.331s2.387-5.331 5.331-5.331c2.944 0 5.331 2.387 5.331 5.331s-2.387 5.331-5.331 5.331z"></path>
<path d="M26.462 7.456c0 1.060-0.859 1.919-1.919 1.919s-1.919-0.859-1.919-1.919c0-1.060 0.859-1.919 1.919-1.919s1.919 0.859 1.919 1.919z"></path>
</symbol>

 <symbol id="telegram" viewBox="0 0 32 32">
  <g clip-path="url(#clip0_3)">
    <path d="M7.32168 15.6531L22.7484 9.70512C23.4644 9.44645 24.0897 9.87979 23.8577 10.9625L23.859 10.9611L21.2323 23.3358C21.0377 24.2131 20.5164 24.4265 19.787 24.0131L15.787 21.0651L13.8577 22.9238C13.6443 23.1371 13.4644 23.3171 13.051 23.3171L13.335 19.2465L20.7484 12.5491C21.071 12.2651 20.6763 12.1051 20.251 12.3878L11.0897 18.1558L7.14035 16.9238C6.28302 16.6518 6.26435 16.0665 7.32168 15.6531Z" />
  </g>
  <defs>
    <clipPath id="clip0_3">
      <rect width="32" height="32" fill="white"/>
    </clipPath>
  </defs>
</symbol>




  <symbol id="brain" viewBox="0 0 130 130">
<path d="M60.7928 97.1061C62.2845 96.2524 63.7326 95.1861 65.0198 93.8848C66.3403 95.2178 67.8266 96.3047 69.3567 97.1687L68.019 107.547C67.9176 108.33 67.252 108.916 66.4626 108.916H63.9211C63.1438 108.916 62.4835 108.348 62.3682 107.58L60.7928 97.1061ZM66.7595 65.5198C66.7874 65.5037 66.8138 65.4859 66.8381 65.4661C67.322 65.1479 67.9367 64.9512 68.6301 64.8604C70.6267 64.5987 73.2537 65.2211 75.7723 66.6757C77.3986 67.6145 78.747 68.7661 79.706 69.965C79.727 69.9963 79.7497 70.0258 79.7759 70.0534C80.2682 70.6833 80.6528 71.3249 80.9147 71.9549C81.3654 73.043 81.4456 74.0841 80.9673 74.9118C80.4903 75.7393 79.5489 76.1915 78.3803 76.3444C77.4912 76.4608 76.4765 76.4019 75.4021 76.1721C75.3812 76.1654 75.3584 76.1598 75.3357 76.1549C75.3183 76.1513 75.3027 76.1486 75.2851 76.1465C73.9821 75.8538 72.5952 75.312 71.2398 74.5291C68.7211 73.0746 66.8695 71.1101 66.0975 69.2498C65.8651 68.6925 65.7323 68.1472 65.7203 67.6371C65.722 67.5904 65.722 67.5443 65.7203 67.498C65.7307 67.0642 65.8337 66.6577 66.0435 66.2928C66.2215 65.9845 66.4644 65.7279 66.7595 65.5198ZM64.3192 67.4981C64.3192 67.5278 64.3175 67.5579 64.3192 67.5876C64.3175 67.6039 64.3175 67.6199 64.3175 67.6362C64.3175 67.6495 64.3175 67.6628 64.3175 67.6761C64.3018 68.1748 64.169 68.7065 63.9436 69.25C63.1716 71.1104 61.3184 73.0748 58.8013 74.5292C57.4441 75.312 56.0574 75.854 54.7542 76.1467C54.7385 76.1488 54.7212 76.1514 54.7055 76.1551C54.6826 76.1598 54.6601 76.1656 54.6372 76.1722C53.5631 76.402 52.5482 76.4609 51.6591 76.3446C50.4906 76.1916 49.5509 75.7395 49.0722 74.912C48.5954 74.0843 48.6741 73.0432 49.1247 71.9551C49.3815 71.3381 49.7552 70.7097 50.2339 70.0924C50.26 70.0648 50.2827 70.0352 50.3036 70.0041C51.2644 68.7914 52.6231 67.625 54.267 66.6758C56.7856 65.2214 59.4128 64.5989 61.4092 64.8605C62.0869 64.9493 62.6895 65.1389 63.1681 65.4443C63.1943 65.464 63.2205 65.4818 63.2484 65.4977C63.5577 65.7099 63.8108 65.9736 63.9958 66.2933C64.2058 66.658 64.3089 67.0644 64.3192 67.4981ZM70.5236 96.2134C70.4747 96.1793 70.4223 96.151 70.3664 96.1295C68.6443 95.195 66.9674 93.9614 65.5403 92.3916C65.4058 92.2453 65.2171 92.1619 65.0198 92.1619C64.8224 92.1619 64.6337 92.2453 64.5009 92.3916C63.0984 93.9322 61.4583 95.1489 59.771 96.0769C59.715 96.0984 59.6628 96.1267 59.6155 96.1606C56.1221 98.0413 52.447 98.6934 50.2708 98.4211C49.8062 98.3629 49.4201 98.2648 49.1371 98.1138C49.0043 98.042 48.8891 97.9788 48.8647 97.8667C48.8331 97.7353 48.9204 97.5976 49.0429 97.4237C49.0586 97.4008 49.0759 97.3776 49.0936 97.3543C49.1005 97.3452 49.1074 97.3363 49.1145 97.3274C49.352 97.0226 49.7259 96.6918 50.2411 96.3276C52.3389 94.8471 53.8339 92.386 54.7666 89.5423C56.0487 85.6324 56.2741 81.0035 55.6575 77.3652C56.9151 77.0248 58.2235 76.4863 59.5038 75.7463C62.1116 74.2398 64.0556 72.2178 65.0198 70.2735C65.9856 72.2178 67.9281 74.2398 70.5376 75.7463C71.8179 76.4861 73.1261 77.0246 74.382 77.3652C73.7654 81.0035 73.9908 85.6324 75.2746 89.5423C76.2072 92.386 77.7024 94.8473 79.7986 96.3276C80.3104 96.6884 80.6806 97.0168 80.9199 97.3195C80.9269 97.3291 80.9339 97.3382 80.9426 97.3477C80.9618 97.3732 80.9812 97.3985 80.9985 97.4237C81.1207 97.5976 81.2063 97.7353 81.1767 97.8667C81.1505 97.9788 81.0352 98.042 80.9026 98.1138C80.6213 98.2648 80.2336 98.3629 79.7691 98.4211C77.6135 98.6906 73.9873 98.0534 70.5236 96.2134ZM67.1071 30.2472C67.1071 25.4494 71.0003 21.5544 75.7968 21.5544C80.5932 21.5544 84.4882 25.4494 84.4882 30.2472C84.4882 30.852 84.4255 31.4428 84.3085 32.013C82.8882 31.2514 81.2674 30.8192 79.5451 30.8192C75.0405 30.8192 71.2221 33.7768 69.9244 37.8548C69.8056 38.2243 70.01 38.62 70.3802 38.7378C70.7486 38.8554 71.1453 38.6507 71.2623 38.2813C72.3801 34.7707 75.6675 32.2248 79.5451 32.2248C81.3251 32.2248 82.9808 32.7614 84.3592 33.6815C85.0945 34.1714 85.7495 34.7702 86.3032 35.4544V35.4553C87.5118 36.9483 88.2351 38.8493 88.2351 40.918C88.2351 44.8447 85.6272 48.1668 82.05 49.2439C81.6798 49.3556 81.4685 49.748 81.5803 50.1194C81.6922 50.4907 82.0853 50.7015 82.4555 50.5897C86.6109 49.3387 89.6414 45.4794 89.6414 40.918C89.6414 38.9045 89.0509 37.028 88.0344 35.4521C88.5286 35.3644 89.0369 35.3188 89.5575 35.3188C94.3539 35.3188 98.2472 39.214 98.2472 44.0117C98.2472 45.6497 97.7931 47.1829 97.0055 48.4912C96.9706 48.5478 96.9442 48.6088 96.9286 48.6726C96.8465 48.9748 96.976 49.2948 97.2431 49.4559C97.3008 49.49 97.362 49.5161 97.4247 49.533C102.218 50.8144 105.751 55.1908 105.751 60.3861C105.751 63.7275 104.289 66.73 101.971 68.7885C101.722 69.0095 101.662 69.3769 101.828 69.6654C102.782 71.3151 103.325 73.2293 103.325 75.2694C103.325 81.4691 98.2945 86.5021 92.0971 86.5021C91.7025 86.5021 91.3113 86.4818 90.9269 86.442C90.9566 86.0943 90.9706 85.7425 90.9706 85.3874C90.9706 82.8716 90.2353 80.5268 88.9655 78.5566C89.2483 77.5083 89.3986 76.4062 89.3986 75.2692C89.3986 73.2758 88.9357 71.3893 88.113 69.7116C87.942 69.3634 87.5207 69.2194 87.1715 69.3902C86.824 69.5613 86.6805 69.9826 86.8518 70.3308C87.5821 71.8216 87.9942 73.4979 87.9942 75.2692C87.9942 76.3826 87.8316 77.4583 87.5297 78.4743L87.5277 78.4751C86.8937 80.6092 85.6413 82.478 83.9786 83.8746C83.6816 84.124 83.6431 84.5677 83.893 84.8645C84.1411 85.1616 84.5847 85.2002 84.8817 84.9508C86.3699 83.7005 87.5662 82.1136 88.3522 80.3074C89.1278 81.8335 89.5661 83.5597 89.5661 85.3874C89.5661 85.9175 89.5296 86.4393 89.4579 86.9502C88.8554 91.2773 85.7829 94.8182 81.7149 96.1021C81.432 95.8113 81.0651 95.5019 80.6093 95.1793C78.7384 93.8589 77.4407 91.6403 76.6092 89.1039C75.4058 85.432 75.1859 81.0888 75.7568 77.6627C76.7647 77.8247 77.715 77.849 78.5637 77.738C80.2212 77.5207 81.507 76.7895 82.1847 75.6145C82.8624 74.4396 82.8536 72.9609 82.2126 71.4164C81.9385 70.7537 81.5436 70.076 81.0441 69.4073C81.2468 68.5443 81.5733 67.7044 82.0326 66.9086C82.4448 66.1961 82.9392 65.5575 83.5016 64.9963L83.5034 64.9951C83.6414 64.8563 83.7845 64.7225 83.933 64.5931C85.5068 63.2109 87.526 62.3734 89.6989 62.1291C90.085 62.0857 90.3628 61.7378 90.3191 61.3522C90.2754 60.9669 89.9279 60.6892 89.5418 60.7323C87.2483 60.9905 85.1086 61.8395 83.383 63.2205C83.2887 62.9383 83.1838 62.6597 83.0668 62.3856C82.6179 61.3372 82.0012 60.3543 81.2119 59.473C79.9576 58.072 78.4015 57.0771 76.6863 56.4886C76.3194 56.3626 75.9193 56.5585 75.7937 56.9252C75.6679 57.292 75.8636 57.6922 76.2305 57.8179C77.7202 58.3298 79.0756 59.193 80.1655 60.4108C80.8504 61.1755 81.3864 62.0282 81.7743 62.9379C81.961 63.3754 82.115 63.8261 82.2338 64.2864C81.6991 64.8623 81.2223 65.5028 80.8154 66.2059C80.4573 66.8267 80.1692 67.4707 79.9473 68.1304C78.9972 67.1566 77.825 66.2386 76.4749 65.4586C73.6487 63.8261 70.6898 63.1735 68.4489 63.4669C67.9685 63.5297 67.5198 63.6356 67.1075 63.7831V30.2472H67.1071ZM32.5733 49.5328C32.6379 49.5157 32.699 49.4898 32.7549 49.4558C33.0238 49.2945 33.1516 48.9745 33.071 48.6725C33.0535 48.6087 33.0293 48.5477 32.9943 48.491C32.2048 47.1827 31.7525 45.6495 31.7525 44.0116C31.7525 39.2138 35.6457 35.3186 40.4421 35.3186C40.961 35.3186 41.471 35.3642 41.9654 35.4519C40.949 37.0278 40.3584 38.9043 40.3584 40.9178C40.3584 45.4793 43.389 49.3385 47.5444 50.5895C47.9146 50.7013 48.3077 50.4906 48.4195 50.1192C48.5296 49.7478 48.3201 49.3554 47.948 49.2438C44.3725 48.1667 41.7645 44.8445 41.7645 40.9178C41.7645 38.8491 42.4877 36.9481 43.6965 35.4551V35.4542C44.2502 34.77 44.9052 34.1714 45.6406 33.6814C47.0189 32.7612 48.6746 32.2247 50.4546 32.2247C54.3322 32.2247 57.6195 34.7705 58.7373 38.2811C58.8544 38.6505 59.2508 38.8552 59.6195 38.7376C59.9897 38.6198 60.1941 38.2241 60.0753 37.8547C58.7774 33.7766 54.9592 30.819 50.4546 30.819C48.7324 30.819 47.1113 31.2512 45.6912 32.0128C45.5742 31.4426 45.5114 30.8519 45.5114 30.247C45.5114 25.4493 49.4065 21.5542 54.2028 21.5542C58.9975 21.5542 62.8925 25.4493 62.8925 30.247V63.7686C62.4909 63.6286 62.056 63.5276 61.593 63.4668C59.352 63.1731 56.3915 63.8259 53.5652 65.4584C52.201 66.2468 51.0186 67.1762 50.0613 68.1617C49.8394 67.491 49.5478 66.8363 49.1828 66.2059C48.7777 65.5028 48.3007 64.8621 47.7663 64.2864C47.8851 63.8261 48.0388 63.3754 48.2258 62.9379C48.6134 62.0282 49.1479 61.1755 49.8343 60.4108C50.9244 59.193 52.278 58.3298 53.7696 57.8179C54.1365 57.6921 54.3321 57.2918 54.2063 56.9252C54.0804 56.5583 53.6805 56.3626 53.3137 56.4886C51.5986 57.0771 50.0422 58.0722 48.7882 59.473C47.9986 60.3543 47.3803 61.3372 46.9332 62.3856C46.8162 62.6597 46.7113 62.9383 46.617 63.2205C44.8912 61.8395 42.7515 60.9903 40.4582 60.7323C40.0721 60.6892 39.7246 60.9669 39.6809 61.3522C39.6372 61.7378 39.915 62.0857 40.301 62.1291C42.4741 62.3732 44.493 63.2107 46.0668 64.5931C46.2136 64.7223 46.3569 64.8563 46.4966 64.9951L46.4984 64.9963C47.0608 65.5577 47.5552 66.1961 47.9674 66.9086C48.4337 67.7173 48.7639 68.5716 48.9646 69.4491C48.4807 70.1041 48.0965 70.7675 47.8274 71.4164C47.1866 72.961 47.1777 74.4398 47.8554 75.6145C48.535 76.7897 49.8186 77.5207 51.4765 77.738C52.3252 77.8491 53.2755 77.8247 54.2832 77.6627C54.8546 81.0888 54.6361 85.432 53.4308 89.1039C52.5993 91.6403 51.3016 93.8589 49.4307 95.1793C48.9697 95.5054 48.6012 95.8183 48.3164 96.1122C44.231 94.8364 41.1462 91.2883 40.5419 86.9502C40.4703 86.4392 40.4336 85.9175 40.4336 85.3874C40.4336 83.5597 40.8704 81.8333 41.6458 80.3074C42.4337 82.1136 43.6284 83.7005 45.1164 84.9508C45.415 85.2002 45.8568 85.1616 46.1069 84.8645C46.3567 84.5677 46.3183 84.124 46.0212 83.8746C44.3583 82.4782 43.106 80.6092 42.4702 78.4751V78.4743C42.1681 77.4583 42.0056 76.3826 42.0056 75.2692C42.0056 73.4979 42.4162 71.8216 43.1479 70.3308C43.3191 69.9826 43.1759 69.5615 42.8266 69.3902C42.4791 69.2193 42.0581 69.3634 41.8868 69.7116C41.0641 71.3893 40.6013 73.2756 40.6013 75.2692C40.6013 76.4062 40.7514 77.5083 41.0344 78.5566C39.7644 80.5268 39.0291 82.8716 39.0291 85.3874C39.0291 85.7425 39.043 86.0943 39.0727 86.442C38.6868 86.4816 38.2974 86.5021 37.9025 86.5021C31.7053 86.5021 26.6732 81.4689 26.6732 75.2694C26.6732 73.2291 27.2181 71.3151 28.17 69.6654C28.3377 69.3771 28.2783 69.0095 28.0284 68.7885C25.7105 66.73 24.2485 63.7275 24.2485 60.3861C24.2485 55.1906 27.7823 50.8142 32.5733 49.5328Z" fill="#057988"/>

</symbol>
  <symbol id="person-with-aim" viewBox="0 0 130 130">
<path d="M44.7185 57.8985C44.3588 57.4784 44.0185 57.046 43.699 56.6031C41.6776 53.8087 40.4662 50.5835 40.3213 47.1492H36.5507C36.1648 47.1492 35.8525 46.8371 35.8525 46.4519C35.8525 46.0665 36.1648 45.7546 36.5507 45.7546H40.3213C40.7663 35.1919 51.3012 26.6253 64.3999 26.3709V22.2515C64.3999 21.8662 64.7124 21.5542 65.0981 21.5542C65.4838 21.5542 65.7964 21.8662 65.7964 22.2515V26.376C78.7924 26.7125 89.2171 35.232 89.6761 45.7283H94.0629C94.4486 45.7283 94.7611 46.0404 94.7611 46.4256C94.7611 46.8109 94.4486 47.1229 94.0629 47.1229H89.6796C89.538 50.5676 88.3251 53.8016 86.3002 56.6029C85.9807 57.0458 85.6403 57.4782 85.2807 57.8983C85.1534 57.5166 85.0137 57.1399 84.8653 56.767C84.818 56.6484 84.7692 56.5298 84.7186 56.4113C85.0537 55.9842 85.3697 55.5465 85.6629 55.0968C87.2235 52.6999 88.1555 49.9959 88.2814 47.1229H82.6658L86.9129 51.3661C87.1866 51.6381 87.1866 52.0809 86.9129 52.3529C86.6403 52.6247 86.1987 52.6247 85.9265 52.3529L80.4978 46.9311C80.3581 46.7916 80.29 46.6085 80.2935 46.4256C80.2935 46.1938 80.4087 45.9881 80.5831 45.8608L85.9265 40.5244C86.1989 40.2524 86.6405 40.2524 86.9129 40.5244C87.1866 40.7966 87.1866 41.2394 86.9129 41.5112L82.6901 45.7283H88.2795C87.8152 35.9205 77.9561 28.1 65.7962 27.7706V33.6334L70.045 29.3902C70.3174 29.1182 70.7607 29.1182 71.0331 29.3902C71.3053 29.6638 71.3053 30.1049 71.0331 30.3768L65.6041 35.7986C65.4644 35.9381 65.2811 36.0059 65.098 36.0024C64.8657 36.0024 64.658 35.8875 64.5324 35.7131L59.189 30.3768C58.9167 30.1048 58.9167 29.6638 59.189 29.3902C59.4616 29.1182 59.9049 29.1182 60.1771 29.3902L64.3997 33.6088V27.7671C52.1405 28.0147 42.1679 35.8803 41.7176 45.7544H47.9493L43.7005 41.5112C43.428 41.2392 43.428 40.7965 43.7005 40.5244C43.9727 40.2524 44.4143 40.2524 44.6867 40.5244L50.1154 45.9462C50.2551 46.0857 50.3231 46.2688 50.3197 46.4517C50.3197 46.6835 50.2062 46.8892 50.0299 47.0165L44.6867 52.3529C44.4141 52.6247 43.9726 52.6247 43.7005 52.3529C43.428 52.0807 43.428 51.6379 43.7005 51.3661L47.9231 47.1491H41.7176C41.8485 50.0133 42.7806 52.7067 44.3359 55.0966C44.6293 55.5464 44.9434 55.984 45.2802 56.4111C45.2297 56.5296 45.1808 56.6482 45.1335 56.7668C44.9854 57.1403 44.8458 57.5168 44.7185 57.8985ZM85.2807 57.8983C85.9981 60.0319 86.3857 62.3159 86.3857 64.6886C86.3857 73.6456 80.9325 86.9592 73.1559 93.0502C70.6456 95.0149 67.8928 96.2212 64.9986 96.2212C62.1046 96.2212 59.3534 95.0149 56.8433 93.0502C49.0668 86.959 43.6134 73.6456 43.6134 64.6886C43.6134 62.3159 44.001 60.0321 44.7185 57.8985C49.072 62.9905 56.2496 66.3797 64.4259 66.5331V69.9988C64.4259 70.384 64.7385 70.6961 65.1243 70.6961C65.5083 70.6961 65.8224 70.384 65.8224 69.9988V66.5261C73.8943 66.3116 80.9709 62.9382 85.2807 57.8983ZM84.7188 56.4114C80.7232 61.4914 73.7653 64.91 65.8226 65.1315V58.6411L70.0453 62.8582C70.3177 63.1302 70.761 63.1302 71.0334 62.8582C71.3056 62.5862 71.3056 62.1452 71.0334 61.8733L65.6899 56.537C65.5626 56.3609 65.3565 56.2477 65.1245 56.2477C64.941 56.2442 64.7563 56.3122 64.6164 56.4517L59.1894 61.8733C58.917 62.1453 58.917 62.5863 59.1894 62.8582C59.462 63.1302 59.9053 63.1302 60.1775 62.8582L64.4261 58.615V65.1367C56.379 64.9815 49.3165 61.5455 45.2805 56.4114C47.8048 50.4283 52.9805 45.8296 59.3343 44.0881C59.0288 44.8151 58.8613 45.6153 58.8613 46.4521C58.8613 49.8358 61.6106 52.5832 64.9986 52.5832C68.387 52.5832 71.138 49.8358 71.138 46.4521C71.138 45.6153 70.9704 44.8151 70.6648 44.0881C77.019 45.8296 82.1947 50.4285 84.7188 56.4114ZM48.5082 74.0779C53.3645 76.8325 58.0094 76.7017 62.4712 74.0711C62.8028 73.8758 62.9128 73.4468 62.7173 73.1157C62.5219 72.7846 62.0923 72.6747 61.7606 72.87C57.7475 75.2355 53.5668 75.3438 49.1976 72.8648C48.8625 72.6747 48.4366 72.7915 48.2463 73.1263C48.056 73.4608 48.173 73.8862 48.5082 74.0779ZM58.7845 87.4282H72.0475C72.4332 87.4282 72.7456 87.1144 72.7456 86.7309C72.7456 86.3456 72.4332 86.0336 72.0475 86.0336H58.7845C58.3986 86.0336 58.0861 86.3456 58.0861 86.7309C58.0861 87.1144 58.3986 87.4282 58.7845 87.4282ZM68.3712 74.0779C73.2275 76.8325 77.8726 76.7017 82.3344 74.0711C82.666 73.8758 82.776 73.4468 82.5804 73.1157C82.3849 72.7846 81.9573 72.6747 81.6238 72.87C77.6107 75.2355 73.43 75.3438 69.0607 72.8648C68.7257 72.6747 68.2998 72.7915 68.1095 73.1263C67.9192 73.4608 68.0362 73.8862 68.3712 74.0779ZM64.9986 41.7156C67.6171 41.7156 69.7415 43.8372 69.7415 46.4521C69.7415 49.0653 67.6171 51.1886 64.9986 51.1886C62.382 51.1886 60.2578 49.0653 60.2578 46.4521C60.2578 43.8372 62.382 41.7156 64.9986 41.7156ZM56.6444 94.6471C59.2367 96.5141 62.0574 97.6158 64.9988 97.6158C67.9419 97.6158 70.7628 96.5141 73.3533 94.6471C75.5301 98.4493 79.6462 101.477 85.7821 101.282C95.0197 100.989 98.1479 106.545 99.0155 108.719C99.0155 108.719 39.3423 108.719 30.9844 108.719C31.852 106.545 34.9802 100.989 44.2177 101.282C50.3531 101.477 54.4694 98.4493 56.6444 94.6471Z" fill="#057988"/>

</symbol>
  <symbol id="head-with-brain-paint" viewBox="0 0 130 130">
<path d="M81.9259 48.575C82.2513 48.1446 82.5523 47.6992 82.8286 47.2444C85.8031 52.117 87.1328 57.8513 86.9229 63.5475C86.4663 75.9549 80.8273 81.7215 76.3378 86.1499C74.9048 87.5638 73.5909 88.8331 72.6301 90.1517C71.7396 91.3744 71.1586 92.6352 71.1238 94.1192C71.122 94.1384 71.122 94.1576 71.1201 94.1768C71.1201 94.1768 70.884 96.8796 73.6432 101.766C73.825 102.088 73.7357 102.494 73.4367 102.71C69.8639 105.292 63.6877 107.714 57.6968 108.499C53.6429 109.031 49.6746 108.807 46.6304 107.429C46.2735 107.267 46.1091 106.853 46.2596 106.491C46.2596 106.491 46.9277 104.876 46.9715 103.073C47.0117 101.422 46.5079 99.581 44.2193 98.8919C40.1567 97.6682 38.6082 99.1096 36.1849 99.6979C34.6521 100.07 32.4198 99.9453 31.1636 98.5967C30.3254 97.6961 29.8531 96.2343 30.4024 93.9338C30.7383 92.5276 30.7645 91.7488 30.5145 91.2512C30.2869 90.7997 29.8356 90.646 29.3772 90.3984C28.8244 90.0994 27.9161 89.0833 28.1035 87.8022C28.1788 87.2921 28.4254 86.7176 28.9905 86.1401C28.5512 85.9229 28.0718 85.6342 27.6975 85.2748C27.316 84.9065 27.0377 84.4682 26.9382 83.9769C26.8367 83.4712 26.9119 82.8968 27.316 82.2642C27.3247 82.2494 27.3352 82.2351 27.3457 82.2211C27.3457 82.2211 27.5608 81.9263 27.7113 81.5215C27.8218 81.2244 27.9179 80.8547 27.7674 80.5189C27.6835 80.3334 27.5207 80.1715 27.267 80.0309C26.9819 80.0269 26.4499 79.9953 25.9285 79.8364C25.3162 79.6487 24.7407 79.2842 24.4485 78.6923C24.1632 78.1113 24.1074 77.2459 24.7948 75.9966C26.5461 72.8137 28.2153 71.004 29.2143 69.5461C29.6378 68.9277 29.9352 68.394 30.0069 67.8158C29.6026 67.7118 29.0498 67.5342 28.4829 67.2441C27.3177 66.6471 26.1191 65.587 25.897 63.7983C25.857 63.4661 26.0475 63.1487 26.3624 63.0304C26.6756 62.912 27.0307 63.0228 27.2197 63.2989C27.2197 63.2989 28.1454 64.6568 29.7129 64.6936C29.3454 63.748 28.7628 62.1977 28.3674 60.8894C28.0734 59.921 27.8949 59.0684 27.9194 58.6203C28.53 47.4407 35.2311 41.0092 43.0047 37.6178C50.7032 34.2578 59.4548 33.9117 64.2612 34.855C68.7507 35.7364 72.542 37.3884 75.6619 39.587C75.9137 40.0354 76.2287 40.4509 76.5996 40.821C77.0301 41.251 77.5252 41.6047 78.0588 41.8735C78.0501 42.3536 78.0273 42.876 77.9801 43.4231C77.8962 44.4162 77.7352 45.4905 77.45 46.5406C77.3206 47.0139 77.1666 47.482 76.9811 47.9358C76.9566 47.9965 76.9321 48.0572 76.9058 48.1174C76.2618 47.341 75.5726 46.6046 74.8394 45.9124C73.6882 44.8234 72.43 43.8436 71.0847 42.9899C70.2116 42.4356 69.3 41.9342 68.3569 41.4911C69.9894 44.5311 70.3514 48.9444 68.7697 55.357C68.6754 55.7418 68.2834 55.9775 67.8984 55.883C67.5118 55.7882 67.2755 55.399 67.3699 55.0141C69.1669 47.7268 68.4057 43.2394 65.9038 40.4963C63.3772 39.6268 60.6653 39.1547 57.8449 39.1547C56.0306 39.1547 54.2529 39.3436 52.5329 39.7021C52.72 40.8627 52.5346 42.5379 51.2767 44.8659C50.0152 47.203 49.6879 48.8074 50.0045 50.0208C50.3056 51.1803 51.1978 51.927 52.2319 52.614C52.5609 52.8339 52.6517 53.2802 52.4314 53.6101C52.211 53.9398 51.7632 54.0291 51.4324 53.8093C50.0887 52.9169 49.0005 51.8872 48.6083 50.3814C48.2322 48.9299 48.4982 46.9811 50.008 44.1852C51.0247 42.3057 51.2487 40.9677 51.1277 40.0368C43.8721 41.9768 37.8322 46.9609 34.8964 53.4379C35.3375 55.1298 36.4483 56.8989 38.9749 57.8946C39.3459 58.0402 39.5259 58.4579 39.3807 58.8265C39.2337 59.1952 38.8156 59.3759 38.4446 59.2304C36.1823 58.3387 34.8613 56.9312 34.1091 55.429C33.4493 57.3722 33.0627 59.4255 32.9929 61.5518C32.9929 61.5532 32.9929 61.5545 32.9929 61.5557C32.9194 63.4908 34.0269 65.2777 35.7958 66.0771C35.7976 66.0774 35.7976 66.0778 35.7993 66.0783C38.5708 67.3442 41.6152 68.1141 44.8222 68.2738C46.3829 64.6704 49.4939 61.9807 52.9966 60.2708C52.9966 60.2212 52.9949 60.1715 52.9949 60.1214C52.9949 56.7305 55.7574 53.9778 59.1588 53.9778C62.5603 53.9778 65.3211 56.7305 65.3211 60.1214C65.3211 63.5125 62.5603 66.2652 59.1588 66.2652C56.3296 66.2652 53.9413 64.36 53.2189 61.7675C50.052 63.4027 47.2685 65.9084 45.9701 69.2698C45.9073 69.4334 45.8353 69.5925 45.755 69.7511C45.3387 70.6109 45.3737 71.6205 45.8495 72.4492C46.3289 73.2806 47.188 73.8216 48.1468 73.8943C48.1486 73.8945 48.1503 73.8945 48.1519 73.8947C48.8309 73.9508 49.5185 73.9791 50.213 73.9791C52.106 73.9791 53.9503 73.7668 55.721 73.3641L55.7228 73.3638C57.6456 72.9264 59.4826 72.2652 61.2078 71.4092V71.4085C63.0433 70.497 64.7491 69.3647 66.2906 68.0468C66.5161 67.853 66.8401 67.8184 67.1024 67.9604C70.1224 69.5941 73.5236 70.6179 77.1349 70.8665H77.1367C77.7053 70.9057 78.2792 70.9256 78.8584 70.9256C79.1873 70.9256 79.5143 70.9192 79.8399 70.9075C80.8738 70.8696 81.7504 70.1384 81.9727 69.13V69.1281C82.0182 68.9259 82.0602 68.723 82.1004 68.5189C82.3995 66.9881 82.5555 65.4066 82.5555 63.7892C82.5555 59.2482 81.3201 54.9923 79.1662 51.3378C79.56 51.0479 79.9328 50.7352 80.2861 50.4041C80.8885 49.8406 81.4343 49.2251 81.9259 48.575ZM76.4461 72.2512C73.0133 71.9375 69.7729 70.9614 66.8511 69.4523C65.4252 70.6268 63.8716 71.6537 62.2164 72.5091C62.2094 72.6312 62.2059 72.7542 62.2059 72.8779C62.2059 76.8028 65.4026 79.9894 69.3392 79.9894C73.2776 79.9894 76.4725 76.8028 76.4725 72.8779C76.4724 72.6668 76.4636 72.458 76.4461 72.2512ZM60.7712 73.1998C59.6688 73.6853 58.5281 74.0974 57.3541 74.4296C60.9376 77.7939 63.8506 81.6672 65.6091 86.4147L68.3576 85.8191L66.412 80.9141C63.2153 79.7551 60.904 76.7531 60.7712 73.1998ZM79.4503 43.0815C79.4904 42.4831 79.5045 41.9196 79.5045 41.4122C79.5065 41.1177 79.326 40.8531 79.0514 40.7444C78.5196 40.534 78.0313 40.2163 77.6185 39.8052C76.8243 39.0127 76.3763 37.9373 76.3763 36.8161V25.7813C76.3763 24.6602 76.8243 23.585 77.6185 22.7924C78.4146 21.9996 79.4924 21.5542 80.6174 21.5542H100.838C101.963 21.5542 103.041 21.9996 103.837 22.7924C104.631 23.585 105.078 24.6604 105.078 25.7813V36.8161C105.078 37.9373 104.631 39.0127 103.837 39.8052C103.041 40.598 101.963 41.0434 100.838 41.0434H84.22C83.8752 41.0434 83.5796 41.2868 83.5131 41.6242C83.1948 43.2568 82.5105 45.0842 81.459 46.7498C81.4084 46.8318 81.354 46.9133 81.3017 46.9942C80.6563 47.974 79.8792 48.8905 78.9729 49.6691C78.9239 49.711 78.8749 49.7527 78.8259 49.7937C78.1855 50.3249 77.4821 50.7876 76.7158 51.1562C77.3946 50.3722 77.9195 49.455 78.3183 48.4758C78.343 48.4109 78.3691 48.3458 78.3954 48.2805C78.4024 48.2615 78.4093 48.2423 78.4163 48.223C79.0304 46.6102 79.3173 44.8514 79.4346 43.3025C79.4396 43.2281 79.445 43.1546 79.4503 43.0815ZM97.7656 32.2719H103.508C103.905 32.2719 104.229 31.95 104.229 31.5538C104.229 31.1574 103.905 30.8355 103.508 30.8355H97.7656C97.3665 30.8355 97.0447 31.1574 97.0447 31.5538C97.0447 31.95 97.3665 32.2719 97.7656 32.2719ZM78.5649 32.2719H84.3088C84.7061 32.2719 85.0297 31.95 85.0297 31.5538C85.0297 31.1574 84.7059 30.8355 84.3088 30.8355H78.5649C78.1677 30.8355 77.8458 31.1574 77.8458 31.5538C77.8458 31.95 78.1679 32.2719 78.5649 32.2719ZM88.1653 32.2719H93.9077C94.3065 32.2719 94.6285 31.95 94.6285 31.5538C94.6285 31.1574 94.3065 30.8355 93.9077 30.8355H88.1653C87.7681 30.8355 87.4445 31.1574 87.4445 31.5538C87.4445 31.95 87.7681 32.2719 88.1653 32.2719ZM71.6644 61.8615C71.6276 61.7326 71.5858 61.6108 71.5384 61.4955C70.9768 60.1301 69.6995 59.8355 69.6995 59.8355C69.311 59.7514 69.0643 59.3683 69.1484 58.9811C69.234 58.5936 69.6175 58.3476 70.0056 58.4319C70.0056 58.4319 71.9424 58.8344 72.8278 60.8486C74.4025 60.5963 76.8486 61.0806 79.151 65.3241C79.34 65.6729 79.2105 66.1089 78.8607 66.2976C78.5107 66.486 78.0733 66.3562 77.8845 66.0075C76.133 62.7797 74.3973 62.1529 73.2058 62.2553C73.3493 63.4507 73.1586 65.0296 72.3014 67.1061C72.1492 67.4726 71.7275 67.6476 71.36 67.4967C70.9925 67.3458 70.8175 66.9257 70.9682 66.559C71.8465 64.4331 71.9531 62.9474 71.6785 61.9092C71.6731 61.8933 71.6679 61.8774 71.6644 61.8615ZM55.8635 46.8225C55.4662 46.8119 55.1529 46.4816 55.1636 46.0853C55.1743 45.689 55.5047 45.3761 55.902 45.3863C55.902 45.3863 63.9817 45.6227 64.6291 53.1498C64.6641 53.545 64.3702 53.893 63.9731 53.9269C63.5776 53.9607 63.2276 53.6675 63.1945 53.2726C62.6536 46.9809 55.8635 46.8225 55.8635 46.8225ZM44.1635 47.41C44.4137 47.1015 44.8668 47.0528 45.1764 47.3016C45.4862 47.5506 45.5352 48.0031 45.2851 48.3116C45.2851 48.3116 41.0055 53.5673 45.4599 58.0566C45.7399 58.3384 45.7382 58.7936 45.4547 59.0724C45.1731 59.3512 44.7163 59.3487 44.4365 59.067C39.1069 53.6963 44.1635 47.41 44.1635 47.41Z" fill="#057988"/>

</symbol>
  <symbol id="head-with-brain-paint" viewBox="0 0 130 130">
<path d="M81.9259 48.575C82.2513 48.1446 82.5523 47.6992 82.8286 47.2444C85.8031 52.117 87.1328 57.8513 86.9229 63.5475C86.4663 75.9549 80.8273 81.7215 76.3378 86.1499C74.9048 87.5638 73.5909 88.8331 72.6301 90.1517C71.7396 91.3744 71.1586 92.6352 71.1238 94.1192C71.122 94.1384 71.122 94.1576 71.1201 94.1768C71.1201 94.1768 70.884 96.8796 73.6432 101.766C73.825 102.088 73.7357 102.494 73.4367 102.71C69.8639 105.292 63.6877 107.714 57.6968 108.499C53.6429 109.031 49.6746 108.807 46.6304 107.429C46.2735 107.267 46.1091 106.853 46.2596 106.491C46.2596 106.491 46.9277 104.876 46.9715 103.073C47.0117 101.422 46.5079 99.581 44.2193 98.8919C40.1567 97.6682 38.6082 99.1096 36.1849 99.6979C34.6521 100.07 32.4198 99.9453 31.1636 98.5967C30.3254 97.6961 29.8531 96.2343 30.4024 93.9338C30.7383 92.5276 30.7645 91.7488 30.5145 91.2512C30.2869 90.7997 29.8356 90.646 29.3772 90.3984C28.8244 90.0994 27.9161 89.0833 28.1035 87.8022C28.1788 87.2921 28.4254 86.7176 28.9905 86.1401C28.5512 85.9229 28.0718 85.6342 27.6975 85.2748C27.316 84.9065 27.0377 84.4682 26.9382 83.9769C26.8367 83.4712 26.9119 82.8968 27.316 82.2642C27.3247 82.2494 27.3352 82.2351 27.3457 82.2211C27.3457 82.2211 27.5608 81.9263 27.7113 81.5215C27.8218 81.2244 27.9179 80.8547 27.7674 80.5189C27.6835 80.3334 27.5207 80.1715 27.267 80.0309C26.9819 80.0269 26.4499 79.9953 25.9285 79.8364C25.3162 79.6487 24.7407 79.2842 24.4485 78.6923C24.1632 78.1113 24.1074 77.2459 24.7948 75.9966C26.5461 72.8137 28.2153 71.004 29.2143 69.5461C29.6378 68.9277 29.9352 68.394 30.0069 67.8158C29.6026 67.7118 29.0498 67.5342 28.4829 67.2441C27.3177 66.6471 26.1191 65.587 25.897 63.7983C25.857 63.4661 26.0475 63.1487 26.3624 63.0304C26.6756 62.912 27.0307 63.0228 27.2197 63.2989C27.2197 63.2989 28.1454 64.6568 29.7129 64.6936C29.3454 63.748 28.7628 62.1977 28.3674 60.8894C28.0734 59.921 27.8949 59.0684 27.9194 58.6203C28.53 47.4407 35.2311 41.0092 43.0047 37.6178C50.7032 34.2578 59.4548 33.9117 64.2612 34.855C68.7507 35.7364 72.542 37.3884 75.6619 39.587C75.9137 40.0354 76.2287 40.4509 76.5996 40.821C77.0301 41.251 77.5252 41.6047 78.0588 41.8735C78.0501 42.3536 78.0273 42.876 77.9801 43.4231C77.8962 44.4162 77.7352 45.4905 77.45 46.5406C77.3206 47.0139 77.1666 47.482 76.9811 47.9358C76.9566 47.9965 76.9321 48.0572 76.9058 48.1174C76.2618 47.341 75.5726 46.6046 74.8394 45.9124C73.6882 44.8234 72.43 43.8436 71.0847 42.9899C70.2116 42.4356 69.3 41.9342 68.3569 41.4911C69.9894 44.5311 70.3514 48.9444 68.7697 55.357C68.6754 55.7418 68.2834 55.9775 67.8984 55.883C67.5118 55.7882 67.2755 55.399 67.3699 55.0141C69.1669 47.7268 68.4057 43.2394 65.9038 40.4963C63.3772 39.6268 60.6653 39.1547 57.8449 39.1547C56.0306 39.1547 54.2529 39.3436 52.5329 39.7021C52.72 40.8627 52.5346 42.5379 51.2767 44.8659C50.0152 47.203 49.6879 48.8074 50.0045 50.0208C50.3056 51.1803 51.1978 51.927 52.2319 52.614C52.5609 52.8339 52.6517 53.2802 52.4314 53.6101C52.211 53.9398 51.7632 54.0291 51.4324 53.8093C50.0887 52.9169 49.0005 51.8872 48.6083 50.3814C48.2322 48.9299 48.4982 46.9811 50.008 44.1852C51.0247 42.3057 51.2487 40.9677 51.1277 40.0368C43.8721 41.9768 37.8322 46.9609 34.8964 53.4379C35.3375 55.1298 36.4483 56.8989 38.9749 57.8946C39.3459 58.0402 39.5259 58.4579 39.3807 58.8265C39.2337 59.1952 38.8156 59.3759 38.4446 59.2304C36.1823 58.3387 34.8613 56.9312 34.1091 55.429C33.4493 57.3722 33.0627 59.4255 32.9929 61.5518C32.9929 61.5532 32.9929 61.5545 32.9929 61.5557C32.9194 63.4908 34.0269 65.2777 35.7958 66.0771C35.7976 66.0774 35.7976 66.0778 35.7993 66.0783C38.5708 67.3442 41.6152 68.1141 44.8222 68.2738C46.3829 64.6704 49.4939 61.9807 52.9966 60.2708C52.9966 60.2212 52.9949 60.1715 52.9949 60.1214C52.9949 56.7305 55.7574 53.9778 59.1588 53.9778C62.5603 53.9778 65.3211 56.7305 65.3211 60.1214C65.3211 63.5125 62.5603 66.2652 59.1588 66.2652C56.3296 66.2652 53.9413 64.36 53.2189 61.7675C50.052 63.4027 47.2685 65.9084 45.9701 69.2698C45.9073 69.4334 45.8353 69.5925 45.755 69.7511C45.3387 70.6109 45.3737 71.6205 45.8495 72.4492C46.3289 73.2806 47.188 73.8216 48.1468 73.8943C48.1486 73.8945 48.1503 73.8945 48.1519 73.8947C48.8309 73.9508 49.5185 73.9791 50.213 73.9791C52.106 73.9791 53.9503 73.7668 55.721 73.3641L55.7228 73.3638C57.6456 72.9264 59.4826 72.2652 61.2078 71.4092V71.4085C63.0433 70.497 64.7491 69.3647 66.2906 68.0468C66.5161 67.853 66.8401 67.8184 67.1024 67.9604C70.1224 69.5941 73.5236 70.6179 77.1349 70.8665H77.1367C77.7053 70.9057 78.2792 70.9256 78.8584 70.9256C79.1873 70.9256 79.5143 70.9192 79.8399 70.9075C80.8738 70.8696 81.7504 70.1384 81.9727 69.13V69.1281C82.0182 68.9259 82.0602 68.723 82.1004 68.5189C82.3995 66.9881 82.5555 65.4066 82.5555 63.7892C82.5555 59.2482 81.3201 54.9923 79.1662 51.3378C79.56 51.0479 79.9328 50.7352 80.2861 50.4041C80.8885 49.8406 81.4343 49.2251 81.9259 48.575ZM76.4461 72.2512C73.0133 71.9375 69.7729 70.9614 66.8511 69.4523C65.4252 70.6268 63.8716 71.6537 62.2164 72.5091C62.2094 72.6312 62.2059 72.7542 62.2059 72.8779C62.2059 76.8028 65.4026 79.9894 69.3392 79.9894C73.2776 79.9894 76.4725 76.8028 76.4725 72.8779C76.4724 72.6668 76.4636 72.458 76.4461 72.2512ZM60.7712 73.1998C59.6688 73.6853 58.5281 74.0974 57.3541 74.4296C60.9376 77.7939 63.8506 81.6672 65.6091 86.4147L68.3576 85.8191L66.412 80.9141C63.2153 79.7551 60.904 76.7531 60.7712 73.1998ZM79.4503 43.0815C79.4904 42.4831 79.5045 41.9196 79.5045 41.4122C79.5065 41.1177 79.326 40.8531 79.0514 40.7444C78.5196 40.534 78.0313 40.2163 77.6185 39.8052C76.8243 39.0127 76.3763 37.9373 76.3763 36.8161V25.7813C76.3763 24.6602 76.8243 23.585 77.6185 22.7924C78.4146 21.9996 79.4924 21.5542 80.6174 21.5542H100.838C101.963 21.5542 103.041 21.9996 103.837 22.7924C104.631 23.585 105.078 24.6604 105.078 25.7813V36.8161C105.078 37.9373 104.631 39.0127 103.837 39.8052C103.041 40.598 101.963 41.0434 100.838 41.0434H84.22C83.8752 41.0434 83.5796 41.2868 83.5131 41.6242C83.1948 43.2568 82.5105 45.0842 81.459 46.7498C81.4084 46.8318 81.354 46.9133 81.3017 46.9942C80.6563 47.974 79.8792 48.8905 78.9729 49.6691C78.9239 49.711 78.8749 49.7527 78.8259 49.7937C78.1855 50.3249 77.4821 50.7876 76.7158 51.1562C77.3946 50.3722 77.9195 49.455 78.3183 48.4758C78.343 48.4109 78.3691 48.3458 78.3954 48.2805C78.4024 48.2615 78.4093 48.2423 78.4163 48.223C79.0304 46.6102 79.3173 44.8514 79.4346 43.3025C79.4396 43.2281 79.445 43.1546 79.4503 43.0815ZM97.7656 32.2719H103.508C103.905 32.2719 104.229 31.95 104.229 31.5538C104.229 31.1574 103.905 30.8355 103.508 30.8355H97.7656C97.3665 30.8355 97.0447 31.1574 97.0447 31.5538C97.0447 31.95 97.3665 32.2719 97.7656 32.2719ZM78.5649 32.2719H84.3088C84.7061 32.2719 85.0297 31.95 85.0297 31.5538C85.0297 31.1574 84.7059 30.8355 84.3088 30.8355H78.5649C78.1677 30.8355 77.8458 31.1574 77.8458 31.5538C77.8458 31.95 78.1679 32.2719 78.5649 32.2719ZM88.1653 32.2719H93.9077C94.3065 32.2719 94.6285 31.95 94.6285 31.5538C94.6285 31.1574 94.3065 30.8355 93.9077 30.8355H88.1653C87.7681 30.8355 87.4445 31.1574 87.4445 31.5538C87.4445 31.95 87.7681 32.2719 88.1653 32.2719ZM71.6644 61.8615C71.6276 61.7326 71.5858 61.6108 71.5384 61.4955C70.9768 60.1301 69.6995 59.8355 69.6995 59.8355C69.311 59.7514 69.0643 59.3683 69.1484 58.9811C69.234 58.5936 69.6175 58.3476 70.0056 58.4319C70.0056 58.4319 71.9424 58.8344 72.8278 60.8486C74.4025 60.5963 76.8486 61.0806 79.151 65.3241C79.34 65.6729 79.2105 66.1089 78.8607 66.2976C78.5107 66.486 78.0733 66.3562 77.8845 66.0075C76.133 62.7797 74.3973 62.1529 73.2058 62.2553C73.3493 63.4507 73.1586 65.0296 72.3014 67.1061C72.1492 67.4726 71.7275 67.6476 71.36 67.4967C70.9925 67.3458 70.8175 66.9257 70.9682 66.559C71.8465 64.4331 71.9531 62.9474 71.6785 61.9092C71.6731 61.8933 71.6679 61.8774 71.6644 61.8615ZM55.8635 46.8225C55.4662 46.8119 55.1529 46.4816 55.1636 46.0853C55.1743 45.689 55.5047 45.3761 55.902 45.3863C55.902 45.3863 63.9817 45.6227 64.6291 53.1498C64.6641 53.545 64.3702 53.893 63.9731 53.9269C63.5776 53.9607 63.2276 53.6675 63.1945 53.2726C62.6536 46.9809 55.8635 46.8225 55.8635 46.8225ZM44.1635 47.41C44.4137 47.1015 44.8668 47.0528 45.1764 47.3016C45.4862 47.5506 45.5352 48.0031 45.2851 48.3116C45.2851 48.3116 41.0055 53.5673 45.4599 58.0566C45.7399 58.3384 45.7382 58.7936 45.4547 59.0724C45.1731 59.3512 44.7163 59.3487 44.4365 59.067C39.1069 53.6963 44.1635 47.41 44.1635 47.41Z" fill="#057988"/>

</symbol>


  <symbol id="two-faces-paint" viewBox="0 0 32 32">
  <path d="M64.9999 98.6123C62.2085 99.7095 59.056 100.571 55.9545 100.979C52.0341 101.495 48.1977 101.279 45.2541 99.9432C44.9414 99.8007 44.7974 99.436 44.9285 99.1193C44.9285 99.1193 45.582 97.5347 45.6249 95.7659C45.6647 94.1316 45.1648 92.3098 42.9059 91.6268C38.9446 90.4301 37.4355 91.8357 35.0724 92.4109C33.6071 92.7672 31.469 92.6528 30.2674 91.3582C29.4654 90.4946 29.0189 89.0889 29.5451 86.8811C29.8773 85.487 29.8955 84.7145 29.6479 84.2221C29.4206 83.7696 28.9746 83.6106 28.5162 83.3619C27.994 83.0782 27.1391 82.1169 27.3157 80.9054C27.3895 80.398 27.6419 79.8279 28.2255 79.256C27.7813 79.0439 27.2841 78.7521 26.9022 78.384C26.5407 78.0359 26.2779 77.6215 26.1849 77.1558C26.0894 76.6784 26.1609 76.1364 26.5406 75.5397C26.5489 75.5264 26.5576 75.5132 26.5668 75.5016C26.5668 75.5016 26.7827 75.2066 26.9319 74.802C27.0446 74.497 27.1387 74.1193 26.9838 73.7744C26.8958 73.5788 26.7242 73.4063 26.4531 73.2589C26.1871 73.2556 25.6658 73.2276 25.1573 73.0716C24.5804 72.8943 24.0376 72.5528 23.7629 71.9925C23.4916 71.4406 23.4454 70.62 24.0967 69.433C25.7954 66.3348 27.413 64.5745 28.3815 63.1572C28.8145 62.5224 29.113 61.9771 29.1691 61.3802C28.7776 61.2824 28.2199 61.1084 27.6477 60.8151C26.5344 60.2414 25.387 59.2271 25.1752 57.513C25.1391 57.2195 25.307 56.9413 25.5821 56.8385C25.8569 56.7341 26.1673 56.8319 26.3336 57.074C26.3336 57.074 27.2919 58.4846 28.9103 58.4629C28.5575 57.5544 27.9669 55.985 27.5698 54.6687C27.2882 53.7356 27.1139 52.9133 27.1374 52.4823C27.7283 41.6282 34.2142 35.3841 41.7343 32.0904C49.1908 28.8266 57.6653 28.4883 62.3194 29.405C63.2434 29.5874 64.1369 29.8028 65.0003 30.05C65.8636 29.803 66.7571 29.5874 67.6811 29.405C72.3353 28.4885 80.8097 28.8267 88.2662 32.0904C95.7863 35.3841 102.272 41.6282 102.863 52.4823C102.887 52.9133 102.712 53.7356 102.431 54.6687C102.034 55.9848 101.443 57.5544 101.09 58.4629C102.709 58.4846 103.667 57.074 103.667 57.074C103.833 56.8319 104.143 56.7341 104.418 56.8385C104.693 56.9413 104.861 57.2197 104.825 57.513C104.613 59.2271 103.466 60.2414 102.353 60.8151C101.781 61.1086 101.223 61.2824 100.831 61.3802C100.887 61.9771 101.186 62.5224 101.619 63.1572C102.587 64.5745 104.205 66.3348 105.903 69.433C106.555 70.6198 106.508 71.4404 106.237 71.9925C105.963 72.5528 105.42 72.8942 104.843 73.0716C104.335 73.2274 103.813 73.2556 103.547 73.2589C103.276 73.4065 103.104 73.5789 103.017 73.7744C102.862 74.1193 102.956 74.497 103.068 74.802C103.218 75.2064 103.434 75.5016 103.434 75.5016C103.443 75.5132 103.451 75.5264 103.46 75.5397C103.84 76.1364 103.911 76.6784 103.815 77.1558C103.723 77.6217 103.46 78.036 103.098 78.384C102.716 78.7521 102.219 79.0438 101.775 79.2578C102.359 79.8279 102.611 80.3982 102.685 80.9056C102.861 82.1172 102.006 83.0784 101.484 83.3621C101.026 83.6106 100.58 83.7698 100.353 84.2223C100.105 84.7147 100.123 85.4872 100.455 86.8812C100.982 89.0891 100.535 90.4947 99.7331 91.3584C98.5315 92.653 96.3936 92.7674 94.9283 92.4111C92.565 91.8358 91.0561 90.4303 87.0946 91.627C84.8359 92.31 84.3358 94.1316 84.3756 95.7661C84.4187 97.5349 85.0722 99.1195 85.0722 99.1195C85.2032 99.4361 85.0593 99.8007 84.7464 99.9433C81.8028 101.28 77.9665 101.495 74.046 100.979C70.9442 100.572 67.7913 99.7095 64.9999 98.6123ZM64.9999 31.3814C64.2697 31.1609 63.5161 30.9652 62.7389 30.7944C50.7269 35.2917 45.3465 46.356 45.7469 57.2748C46.1889 69.3306 51.6499 74.9333 55.9974 79.2364C57.3915 80.6156 58.668 81.8556 59.6026 83.1419C60.4761 84.3453 61.0437 85.5852 61.078 87.0439C61.0784 87.0605 61.0795 87.0787 61.0813 87.0953C61.0813 87.0953 61.3159 89.7425 58.6234 94.5262C58.4645 94.8081 58.5424 95.1646 58.8046 95.3551C60.0264 96.2419 61.5625 97.1071 63.2941 97.8912C63.8769 97.6858 64.4467 97.4685 65.0003 97.2432C63.0928 96.4624 61.3802 95.5706 60.0128 94.6457C62.5176 89.9912 62.3761 87.2843 62.3516 86.9908C62.2634 83.6657 59.8665 81.2721 56.8941 78.3298C52.7149 74.1942 47.4456 68.8169 47.0208 57.2285C46.6198 46.2932 52.2973 35.2021 64.9999 31.3814ZM64.9999 97.243C65.5535 97.4684 66.1233 97.6856 66.7062 97.891C68.4377 97.1069 69.974 96.2418 71.1956 95.3549C71.458 95.1644 71.5359 94.8079 71.377 94.526C68.6843 89.7422 68.919 87.0951 68.919 87.0951C68.9207 87.0786 68.9218 87.0603 68.922 87.0437C68.9563 85.585 69.5241 84.3451 70.3974 83.1418C71.332 81.8555 72.6087 80.6156 74.0026 79.2362C78.35 74.9332 83.8113 69.3304 84.2531 57.2746C84.6534 46.3558 79.273 35.2915 67.2611 30.7943C66.484 30.9651 65.7305 31.1609 64.9999 31.3814C77.7028 35.2021 83.3804 46.2932 82.9794 57.2283C82.5545 68.8168 77.2851 74.1939 73.1061 78.3296C70.1334 81.272 67.7365 83.6657 67.6483 86.9923C67.6241 87.2825 67.4819 89.991 69.9872 94.6456C68.62 95.5706 66.9076 96.4623 64.9999 97.243ZM60.9302 65.4253C60.932 65.4319 60.9338 65.4385 60.9356 65.4468C61.0041 65.7104 61.0402 65.9872 61.0402 66.2672V70.8274C61.0402 71.4772 61.2986 72.1021 61.7585 72.5612C62.2183 73.022 62.8422 73.2806 63.4927 73.2806H67.1506C67.8011 73.2806 68.4248 73.022 68.8849 72.5612C69.3446 72.1019 69.6032 71.4772 69.6032 70.8274C69.6032 70.3698 69.6032 69.8543 69.6034 69.3156C69.6035 68.3029 69.6045 67.2106 69.6068 66.269V66.2672C69.6068 65.9872 69.6426 65.7104 69.7114 65.4468C69.7133 65.4385 69.7152 65.4319 69.7169 65.4253C69.9324 64.6163 70.4539 63.9102 71.1895 63.4676H71.19C74.4988 61.4719 76.7135 57.8416 76.7135 53.6992C76.7135 47.4103 71.6088 42.3033 65.3216 42.3033C59.0343 42.3033 53.93 47.4105 53.93 53.6992C53.93 57.8416 56.1446 61.4719 59.4559 63.4643C60.1923 63.9068 60.7146 64.6147 60.9302 65.4253ZM62.3148 69.9522H68.3283C68.3283 70.2606 68.3283 70.554 68.3283 70.8274C68.3283 71.139 68.2042 71.4389 67.9834 71.6596C67.7625 71.8818 67.4628 72.0043 67.1506 72.0043H63.4927C63.1804 72.0043 62.8808 71.8818 62.6598 71.6596C62.4389 71.4391 62.3149 71.139 62.3149 70.8274L62.3148 69.9522ZM62.3009 65.9111H68.3462C68.3368 66.0286 68.3323 66.1482 68.3323 66.2672C68.3303 67.0133 68.3293 67.8553 68.3288 68.6775H62.3148V66.2672C62.3148 66.148 62.3101 66.0286 62.3009 65.9111ZM68.6349 64.6362H62.0123C61.6543 63.7047 60.9938 62.9006 60.1126 62.3719C57.1719 60.6032 55.2045 57.3794 55.2045 53.6992C55.2045 48.1132 59.7377 43.5778 65.3216 43.5778C70.9054 43.5778 75.4387 48.1132 75.4387 53.6992C75.4387 57.3792 73.4711 60.6032 70.532 62.3752C69.6524 62.9041 68.9926 63.7064 68.6349 64.6362ZM98.6744 54.3459C95.7966 57.225 91.1305 57.225 88.253 54.3459C85.7223 51.8146 85.7223 47.7103 88.253 45.1793C90.3864 43.0443 93.8452 43.0443 95.9784 45.1793C97.7149 46.9166 97.7149 49.7327 95.9784 51.4698C94.6393 52.8092 92.4677 52.8092 91.1284 51.4698C90.1861 50.5267 90.1861 48.9984 91.1284 48.0551C91.6737 47.5098 92.5576 47.5098 93.1027 48.0551C93.2509 48.2042 93.2509 48.4448 93.1027 48.5922C92.8539 48.8407 92.8539 49.2451 93.1027 49.4938C93.3515 49.7425 93.7555 49.7425 94.0041 49.4938C94.6502 48.8473 94.6502 47.7996 94.0041 47.1532C92.9611 46.1106 91.2701 46.1106 90.2273 47.1532C88.7871 48.5937 88.7871 50.931 90.2273 52.3715C92.0645 54.2081 95.0428 54.2081 96.8797 52.3715C99.1139 50.1355 99.1139 46.5119 96.8797 44.2775C94.2486 41.6452 89.9828 41.6452 87.3517 44.2775C84.3236 47.3075 84.3236 52.219 87.3517 55.2475C90.7273 58.6241 96.2002 58.6241 99.5758 55.2475C99.8246 54.9988 99.8246 54.5944 99.5758 54.3459C99.327 54.0972 98.9231 54.0972 98.6744 54.3459Z" fill="#057988"/>
</symbol>

  <symbol id="faces-together" viewBox="0 0 32 32">
  <path d="M119.5 203.39C112.464 206.153 104.518 208.324 96.7003 209.351C86.8186 210.649 77.1487 210.107 69.7293 206.742C68.941 206.383 68.5779 205.465 68.9084 204.667C68.9084 204.667 70.5556 200.677 70.6638 196.222C70.7641 192.107 69.5041 187.519 63.8104 185.799C53.8256 182.786 50.0219 186.325 44.0654 187.774C40.372 188.671 34.9829 188.383 31.9542 185.123C29.9326 182.948 28.8072 179.408 30.1336 173.848C30.9707 170.338 31.0167 168.393 30.3926 167.153C29.8198 166.013 28.6956 165.613 27.5401 164.986C26.2237 164.272 24.0689 161.851 24.5143 158.8C24.7002 157.523 25.3364 156.087 26.8073 154.647C25.6877 154.113 24.4345 153.378 23.4719 152.451C22.5608 151.574 21.8982 150.531 21.6639 149.358C21.4233 148.156 21.6033 146.791 22.5604 145.288C22.5813 145.255 22.6034 145.222 22.6264 145.192C22.6264 145.192 23.1707 144.45 23.5467 143.431C23.8308 142.663 24.0681 141.711 23.6775 140.843C23.4557 140.35 23.0233 139.916 22.3398 139.545C21.6693 139.536 20.3555 139.466 19.0738 139.073C17.6195 138.627 16.2514 137.767 15.5592 136.356C14.8753 134.966 14.7587 132.899 16.4005 129.91C20.6821 122.108 24.7595 117.676 27.2005 114.107C28.2921 112.508 29.0445 111.135 29.1857 109.632C28.1989 109.385 26.7931 108.947 25.351 108.209C22.5449 106.764 19.6528 104.209 19.1189 99.8931C19.0278 99.154 19.451 98.4535 20.1445 98.1946C20.8371 97.9316 21.6196 98.1779 22.0386 98.7875C22.0386 98.7875 24.4541 102.34 28.5335 102.285C27.6441 99.9975 26.1556 96.0452 25.1547 92.7305C24.4449 90.3806 24.0054 88.3101 24.0648 87.2245C25.5541 59.8915 41.9023 44.1675 60.8573 35.8733C79.6519 27.6543 101.012 26.8025 112.744 29.111C115.073 29.5703 117.325 30.1126 119.501 30.7351C121.677 30.113 123.929 29.5703 126.258 29.111C137.989 26.8029 159.35 27.6547 178.144 35.8733C197.099 44.1675 213.447 59.8915 214.937 87.2245C214.996 88.3101 214.556 90.3806 213.847 92.7305C212.846 96.0448 211.357 99.9975 210.468 102.285C214.548 102.34 216.963 98.7875 216.963 98.7875C217.382 98.1779 218.164 97.9316 218.857 98.1946C219.55 98.4535 219.973 99.1545 219.882 99.8931C219.348 104.209 216.456 106.764 213.65 108.209C212.208 108.948 210.802 109.385 209.815 109.632C209.957 111.135 210.709 112.508 211.8 114.107C214.241 117.676 218.318 122.108 222.6 129.91C224.242 132.899 224.125 134.965 223.442 136.356C222.75 137.767 221.381 138.626 219.927 139.073C218.646 139.466 217.331 139.536 216.661 139.545C215.978 139.916 215.545 140.351 215.324 140.843C214.933 141.711 215.17 142.663 215.454 143.431C215.831 144.449 216.375 145.192 216.375 145.192C216.398 145.222 216.42 145.255 216.441 145.288C217.398 146.791 217.578 148.156 217.337 149.358C217.103 150.531 216.44 151.575 215.53 152.451C214.567 153.378 213.313 154.112 212.194 154.651C213.665 156.087 214.301 157.523 214.487 158.801C214.932 161.852 212.777 164.272 211.461 164.987C210.306 165.613 209.182 166.014 208.609 167.153C207.985 168.393 208.03 170.338 208.868 173.849C210.194 179.409 209.069 182.948 207.047 185.123C204.019 188.383 198.63 188.672 194.937 187.774C188.98 186.325 185.176 182.786 175.191 185.8C169.498 187.52 168.238 192.107 168.338 196.223C168.446 200.677 170.094 204.667 170.094 204.667C170.424 205.465 170.061 206.383 169.272 206.742C161.853 210.107 152.183 210.649 142.301 209.351C134.483 208.324 126.536 206.153 119.5 203.39ZM119.5 34.0879C117.659 33.5326 115.76 33.0399 113.801 32.6098C83.5237 43.9348 69.962 71.7973 70.9713 99.2932C72.0854 129.652 85.8502 143.761 96.8085 154.597C100.322 158.07 103.54 161.193 105.896 164.432C108.097 167.463 109.528 170.585 109.614 174.258C109.615 174.3 109.618 174.346 109.623 174.388C109.623 174.388 110.214 181.054 103.427 193.101C103.027 193.81 103.223 194.708 103.884 195.188C106.964 197.421 110.836 199.6 115.2 201.574C116.669 201.057 118.105 200.51 119.501 199.943C114.693 197.976 110.376 195.731 106.93 193.402C113.243 181.68 112.886 174.864 112.825 174.125C112.602 165.751 106.561 159.724 99.0686 152.314C88.5347 141.9 75.2529 128.359 74.1822 99.1767C73.1716 71.6391 87.482 43.7094 119.5 34.0879ZM119.5 199.942C120.895 200.51 122.332 201.057 123.801 201.574C128.165 199.599 132.037 197.421 135.117 195.187C135.778 194.708 135.974 193.81 135.574 193.1C128.787 181.053 129.378 174.388 129.378 174.388C129.382 174.346 129.385 174.3 129.386 174.258C129.472 170.585 130.904 167.462 133.105 164.432C135.46 161.193 138.678 158.07 142.192 154.597C153.15 143.761 166.915 129.652 168.029 99.2927C169.038 71.7968 155.476 43.9344 125.199 32.6094C123.241 33.0395 121.341 33.5326 119.5 34.0879C151.518 43.7094 165.829 71.6391 164.819 99.1763C163.747 128.358 150.466 141.899 139.932 152.314C132.439 159.723 126.398 165.751 126.175 174.129C126.114 174.859 125.756 181.68 132.071 193.401C128.625 195.731 124.308 197.976 119.5 199.942ZM109.242 119.818C109.246 119.835 109.251 119.851 109.256 119.872C109.428 120.536 109.519 121.233 109.519 121.938V133.422C109.519 135.058 110.171 136.632 111.33 137.788C112.489 138.948 114.061 139.6 115.701 139.6H124.921C126.561 139.6 128.133 138.948 129.292 137.788C130.451 136.631 131.103 135.058 131.103 133.422C131.103 132.269 131.103 130.971 131.103 129.615C131.104 127.065 131.106 124.314 131.112 121.943V121.938C131.112 121.233 131.202 120.536 131.376 119.872C131.38 119.851 131.385 119.835 131.389 119.818C131.932 117.781 133.247 116.003 135.101 114.888H135.102C143.443 109.862 149.025 100.721 149.025 90.2891C149.025 74.4523 136.158 61.5917 120.311 61.5917C104.463 61.5917 91.5973 74.4527 91.5973 90.2891C91.5973 100.721 97.1794 109.862 105.526 114.88C107.382 115.994 108.698 117.777 109.242 119.818ZM112.732 131.218H127.889C127.889 131.994 127.889 132.733 127.889 133.422C127.889 134.206 127.577 134.962 127.02 135.517C126.463 136.077 125.708 136.385 124.921 136.385H115.701C114.914 136.385 114.158 136.077 113.602 135.517C113.045 134.962 112.732 134.206 112.732 133.422L112.732 131.218ZM112.697 121.041H127.935C127.911 121.337 127.899 121.638 127.899 121.938C127.894 123.817 127.892 125.937 127.891 128.008H112.732V121.938C112.732 121.638 112.72 121.337 112.697 121.041ZM128.662 117.831H111.969C111.067 115.485 109.402 113.46 107.181 112.129C99.7687 107.675 94.8099 99.5566 94.8099 90.2891C94.8099 76.2222 106.236 64.8012 120.311 64.8012C134.385 64.8012 145.812 76.2222 145.812 90.2891C145.812 99.5561 140.852 107.675 133.444 112.137C131.227 113.469 129.564 115.489 128.662 117.831ZM204.379 91.9175C197.125 99.1679 185.364 99.1679 178.111 91.9175C171.732 85.5432 171.732 75.2076 178.111 68.8341C183.488 63.4576 192.206 63.4576 197.583 68.8341C201.96 73.2089 201.96 80.3006 197.583 84.675C194.208 88.0478 188.734 88.0478 185.359 84.675C182.984 82.3001 182.984 78.4514 185.359 76.0761C186.733 74.7028 188.961 74.7028 190.335 76.0761C190.708 76.4514 190.708 77.0573 190.335 77.4284C189.708 78.0543 189.708 79.0727 190.335 79.699C190.962 80.3252 191.98 80.3252 192.607 79.699C194.236 78.071 194.236 75.4327 192.607 73.8047C189.978 71.1793 185.716 71.1793 183.087 73.8047C179.457 77.4322 179.457 83.3182 183.087 86.9456C187.718 91.5706 195.225 91.5706 199.855 86.9456C205.487 81.3149 205.487 72.1898 199.855 66.5632C193.223 59.9345 182.471 59.9345 175.839 66.5632C168.207 74.1935 168.207 86.5615 175.839 94.1881C184.348 102.691 198.142 102.691 206.651 94.1881C207.278 93.5618 207.278 92.5434 206.651 91.9175C206.024 91.2913 205.006 91.2913 204.379 91.9175Z" fill="white"/>
</symbol>


  <symbol id="faces-with-brain" viewBox="0 0 32 32">
  <path d="M165.559 74.1212C166.436 72.9565 167.248 71.7511 167.993 70.5203C176.016 83.7061 179.602 99.2237 179.036 114.638C177.805 148.214 162.596 163.819 150.487 175.803C146.623 179.629 143.079 183.064 140.487 186.632C138.086 189.941 136.519 193.353 136.425 197.369C136.42 197.42 136.42 197.472 136.415 197.524C136.415 197.524 135.778 204.838 143.22 218.062C143.71 218.933 143.47 220.031 142.663 220.617C133.027 227.603 116.369 234.158 100.212 236.283C89.2782 237.721 78.5755 237.114 70.365 233.386C69.4026 232.948 68.9589 231.826 69.3649 230.848C69.3649 230.848 71.1669 226.477 71.2849 221.597C71.3935 217.131 70.0345 212.149 63.8621 210.284C52.905 206.972 48.7287 210.873 42.1929 212.465C38.0591 213.471 32.0382 213.134 28.6502 209.485C26.3897 207.048 25.1157 203.092 26.5974 196.867C27.5031 193.061 27.574 190.954 26.8995 189.607C26.2859 188.386 25.0686 187.97 23.8324 187.3C22.3413 186.49 19.8916 183.741 20.3971 180.274C20.6001 178.894 21.2652 177.339 22.7893 175.776C21.6046 175.188 20.3116 174.407 19.302 173.435C18.2731 172.438 17.5226 171.252 17.2541 169.922C16.9803 168.554 17.1832 167 18.2731 165.288C18.2967 165.248 18.325 165.209 18.3533 165.171C18.3533 165.171 18.9334 164.373 19.3394 163.278C19.6372 162.474 19.8964 161.473 19.4904 160.565C19.2643 160.063 18.8253 159.625 18.1409 159.244C17.372 159.233 15.9371 159.148 14.531 158.718C12.8795 158.21 11.3275 157.223 10.5393 155.622C9.76991 154.049 9.61934 151.708 11.4734 148.327C16.1967 139.713 20.6987 134.816 23.3929 130.871C24.5351 129.198 25.3371 127.753 25.5306 126.189C24.4403 125.907 22.9492 125.427 21.4204 124.642C18.2778 123.026 15.0451 120.157 14.4461 115.317C14.338 114.418 14.852 113.559 15.7011 113.239C16.546 112.918 17.5037 113.218 18.0135 113.966C18.0135 113.966 20.5099 117.64 24.7377 117.74C23.7465 115.181 22.1752 110.986 21.1089 107.445C20.316 104.824 19.8345 102.517 19.9006 101.305C21.5474 71.0515 39.6205 53.6473 60.5864 44.4698C81.3495 35.3773 104.953 34.4406 117.916 36.9933C130.024 39.3785 140.25 43.849 148.664 49.7986C149.344 51.0119 150.193 52.1365 151.193 53.1379C152.355 54.3017 153.69 55.2586 155.129 55.9862C155.105 57.2854 155.044 58.699 154.917 60.1795C154.691 62.8668 154.256 65.7741 153.487 68.6158C153.138 69.8967 152.723 71.1634 152.222 72.3913C152.156 72.5556 152.09 72.7199 152.019 72.8828C150.282 70.7819 148.424 68.7891 146.446 66.9157C143.341 63.9687 139.948 61.3173 136.32 59.0073C133.965 57.5073 131.506 56.1505 128.963 54.9513C133.365 63.1779 134.342 75.1206 130.076 92.4738C129.822 93.5153 128.764 94.1531 127.726 93.8973C126.683 93.6409 126.046 92.5876 126.3 91.5461C131.147 71.8257 129.094 59.6824 122.346 52.2593C115.532 49.9062 108.218 48.6287 100.611 48.6287C95.7178 48.6287 90.9232 49.14 86.2843 50.1102C86.7889 53.2507 86.2891 57.784 82.8963 64.0839C79.4941 70.4084 78.6114 74.75 79.4653 78.0336C80.2771 81.1713 82.6834 83.192 85.4725 85.0512C86.3599 85.646 86.6048 86.8537 86.0105 87.7465C85.4163 88.6388 84.2084 88.8805 83.3163 88.2857C79.6923 85.8708 76.7573 83.0843 75.6996 79.0095C74.6852 75.0815 75.4027 69.8079 79.4747 62.2417C82.2166 57.1556 82.8207 53.5349 82.4946 51.0157C62.9257 56.2657 46.6358 69.7531 38.718 87.2805C39.9074 91.8591 42.9033 96.6464 49.7177 99.3408C50.7183 99.735 51.2039 100.865 50.8122 101.863C50.4157 102.86 49.2881 103.35 48.2875 102.956C42.1859 100.543 38.6231 96.7337 36.5944 92.6688C34.8149 97.9272 33.7723 103.484 33.584 109.238C33.584 109.242 33.584 109.245 33.584 109.248C33.3857 114.485 36.3726 119.32 41.1437 121.484C41.1484 121.485 41.1484 121.485 41.1531 121.487C48.6278 124.913 56.8387 126.996 65.4882 127.428C69.6976 117.677 78.0879 110.398 87.5351 105.771C87.5351 105.637 87.5304 105.502 87.5304 105.367C87.5304 96.1908 94.9809 88.7417 104.155 88.7417C113.329 88.7417 120.775 96.1908 120.775 105.367C120.775 114.543 113.329 121.993 104.155 121.993C96.5244 121.993 90.083 116.837 88.1345 109.821C79.5931 114.246 72.0859 121.027 68.5841 130.123C68.4147 130.566 68.2207 130.997 68.004 131.426C66.8811 133.753 66.9756 136.485 68.2589 138.727C69.5518 140.977 71.8688 142.441 74.4549 142.638C74.4596 142.638 74.4644 142.638 74.4686 142.639C76.3 142.791 78.1545 142.867 80.0274 142.867C85.133 142.867 90.1071 142.293 94.8829 141.203L94.8876 141.202C100.074 140.018 105.028 138.229 109.681 135.913V135.911C114.631 133.444 119.232 130.38 123.389 126.814C123.998 126.289 124.872 126.196 125.579 126.58C133.724 131.001 142.897 133.771 152.637 134.444H152.642C154.176 134.55 155.723 134.604 157.286 134.604C158.173 134.604 159.055 134.587 159.933 134.555C162.721 134.453 165.086 132.474 165.685 129.745V129.74C165.808 129.193 165.921 128.644 166.03 128.091C166.836 123.949 167.257 119.669 167.257 115.292C167.257 103.004 163.925 91.4871 158.116 81.5976C159.178 80.813 160.183 79.9669 161.136 79.0709C162.761 77.5459 164.233 75.8803 165.559 74.1212ZM150.779 138.191C141.521 137.342 132.782 134.701 124.901 130.617C121.055 133.795 116.866 136.574 112.401 138.889C112.382 139.22 112.373 139.552 112.373 139.887C112.373 150.508 120.995 159.132 131.612 159.132C142.234 159.132 150.851 150.508 150.851 139.887C150.85 139.316 150.827 138.751 150.779 138.191ZM108.503 140.758C105.53 142.072 102.454 143.187 99.2875 144.086C108.952 153.191 116.809 163.672 121.552 176.519L128.964 174.908L123.717 161.634C115.095 158.498 108.862 150.374 108.503 140.758ZM158.882 59.2551C158.99 57.6357 159.028 56.1108 159.028 54.7379C159.033 53.941 158.547 53.2248 157.806 52.9306C156.372 52.3612 155.055 51.5015 153.941 50.3892C151.799 48.2444 150.591 45.3342 150.591 42.3004V12.439C150.591 9.40512 151.799 6.49545 153.941 4.35061C156.089 2.20531 158.996 1 162.03 1H216.566C219.6 1 222.507 2.20531 224.654 4.35061C226.796 6.49545 228 9.40559 228 12.439V42.3004C228 45.3342 226.796 48.2444 224.654 50.3892C222.507 52.5345 219.6 53.7398 216.566 53.7398H171.746C170.816 53.7398 170.019 54.3984 169.84 55.3115C168.981 59.7296 167.135 64.6746 164.3 69.1819C164.163 69.4038 164.016 69.6242 163.875 69.8433C162.135 72.4947 160.039 74.9748 157.594 77.0818C157.462 77.1951 157.33 77.308 157.198 77.4189C155.471 78.8565 153.574 80.1086 151.507 81.1061C153.338 78.9845 154.753 76.5025 155.829 73.8525C155.896 73.6769 155.966 73.5008 156.037 73.3242C156.056 73.2728 156.074 73.2208 156.093 73.1684C157.75 68.8042 158.523 64.0448 158.84 59.8533C158.853 59.6517 158.868 59.4529 158.882 59.2551ZM208.279 30.0032H223.767C224.838 30.0032 225.71 29.1321 225.71 28.0599C225.71 26.9873 224.838 26.1162 223.767 26.1162H208.279C207.203 26.1162 206.335 26.9873 206.335 28.0599C206.335 29.1321 207.203 30.0032 208.279 30.0032ZM156.494 30.0032H171.986C173.057 30.0032 173.93 29.1321 173.93 28.0599C173.93 26.9873 173.057 26.1162 171.986 26.1162H156.494C155.423 26.1162 154.555 26.9873 154.555 28.0599C154.555 29.1321 155.423 30.0032 156.494 30.0032ZM182.387 30.0032H197.874C198.95 30.0032 199.818 29.1321 199.818 28.0599C199.818 26.9873 198.95 26.1162 197.874 26.1162H182.387C181.315 26.1162 180.443 26.9873 180.443 28.0599C180.443 29.1321 181.315 30.0032 182.387 30.0032ZM137.883 110.076C137.784 109.727 137.671 109.397 137.543 109.085C136.028 105.39 132.584 104.593 132.584 104.593C131.536 104.366 130.87 103.329 131.097 102.281C131.328 101.233 132.362 100.567 133.409 100.795C133.409 100.795 138.633 101.884 141.021 107.335C145.268 106.652 151.865 107.963 158.075 119.446C158.585 120.39 158.235 121.57 157.292 122.08C156.348 122.59 155.168 122.239 154.659 121.295C149.935 112.561 145.254 110.864 142.04 111.141C142.427 114.376 141.913 118.649 139.601 124.268C139.19 125.26 138.053 125.734 137.062 125.325C136.071 124.917 135.599 123.78 136.005 122.788C138.374 117.035 138.662 113.014 137.921 110.205C137.907 110.162 137.892 110.119 137.883 110.076ZM95.2671 69.3787C94.1956 69.3499 93.3507 68.4562 93.3795 67.3836C93.4083 66.3114 94.2994 65.4644 95.3709 65.4923C95.3709 65.4923 117.162 66.132 118.908 86.501C119.003 87.5704 118.21 88.5123 117.139 88.6039C116.072 88.6954 115.128 87.9018 115.039 86.8334C113.58 69.8074 95.2671 69.3787 95.2671 69.3787ZM63.7116 70.9684C64.3866 70.1337 65.6085 70.0019 66.4435 70.6752C67.279 71.3489 67.4112 72.5736 66.7367 73.4083C66.7367 73.4083 55.1943 87.6308 67.2082 99.7794C67.9634 100.542 67.9587 101.774 67.194 102.528C66.4346 103.282 65.2026 103.276 64.4479 102.513C50.0739 87.9797 63.7116 70.9684 63.7116 70.9684Z" fill="white"/>

</symbol>



  <symbol id="white-like" viewBox="0 0 32 32">
  <g clip-path="url(#clip0_391_42150)">
  <path d="M22.7812 1.75781C21.1533 1.75781 19.6608 2.27367 18.3453 3.29109C17.0841 4.2665 16.2444 5.50887 15.75 6.41227C15.2556 5.50881 14.4159 4.2665 13.1547 3.29109C11.8392 2.27367 10.3467 1.75781 8.71875 1.75781C4.17586 1.75781 0.75 5.47365 0.75 10.4012C0.75 15.7247 5.024 19.3669 11.4943 24.8808C12.593 25.8172 13.8384 26.8785 15.1329 28.0105C15.3035 28.1599 15.5227 28.2422 15.75 28.2422C15.9773 28.2422 16.1965 28.1599 16.3671 28.0106C17.6617 26.8784 18.907 25.8171 20.0064 24.8802C26.476 19.3669 30.75 15.7247 30.75 10.4012C30.75 5.47365 27.3241 1.75781 22.7812 1.75781Z" fill="white"/>
  </g>
  <defs>
  <clipPath id="clip0_391_42150"> 
  <rect width="30" height="30" fill="white" transform="translate(0.75)"/>
  </clipPath>
  </defs>
  </symbol>
</svg>
