<svg xmlns="http://www.w3.org/2000/svg" width="172" height="171" viewBox="0 0 172 171" fill="none">
  <path d="M48.735 71.0476C48.0741 70.2669 47.4488 69.4632 46.8617 68.64C43.1477 63.4466 40.9218 57.4524 40.6556 51.0696H33.7276C33.0186 51.0696 32.4446 50.4895 32.4446 49.7736C32.4446 49.0574 33.0186 48.4776 33.7276 48.4776H40.6556C41.4733 28.8464 60.83 12.9249 84.8975 12.4521V4.79601C84.8975 4.07979 85.4718 3.5 86.1805 3.5C86.8891 3.5 87.4634 4.07979 87.4634 4.79601V12.4615C111.342 13.087 130.497 28.9209 131.34 48.4287H139.4C140.109 48.4287 140.683 49.0087 140.683 49.7246C140.683 50.4409 140.109 51.0206 139.4 51.0206H131.346C131.086 57.4229 128.857 63.4333 125.137 68.6397C124.55 69.4628 123.925 70.2665 123.264 71.0472C123.03 70.3378 122.773 69.6378 122.501 68.9446C122.414 68.7242 122.324 68.5039 122.231 68.2835C122.847 67.4898 123.427 66.6764 123.966 65.8405C126.833 61.3857 128.546 56.3602 128.777 51.0206H118.459L126.263 58.9068C126.766 59.4124 126.766 60.2353 126.263 60.7408C125.762 61.2461 124.951 61.2461 124.45 60.7408L114.476 50.6642C114.219 50.4049 114.094 50.0646 114.1 49.7246C114.1 49.2939 114.312 48.9116 114.633 48.675L124.45 38.7571C124.951 38.2515 125.762 38.2515 126.263 38.7571C126.766 39.263 126.766 40.0858 126.263 40.5911L118.504 48.4287H128.774C127.921 30.2004 109.806 15.6657 87.4631 15.0535V25.9497L95.2698 18.0636C95.7703 17.558 96.5848 17.558 97.0853 18.0636C97.5854 18.572 97.5854 19.3919 97.0853 19.8972L87.1102 29.9738C86.8535 30.2331 86.5167 30.3592 86.1801 30.3527C85.7535 30.3527 85.3717 30.1391 85.141 29.8151L75.3231 19.8972C74.8227 19.3916 74.8227 18.572 75.3231 18.0636C75.8239 17.558 76.6385 17.558 77.1386 18.0636L84.8972 25.904V15.047C62.3722 15.5072 44.0485 30.1258 43.2211 48.4772H54.6713L46.8646 40.5911C46.3638 40.0855 46.3638 39.2627 46.8646 38.7571C47.3648 38.2515 48.1761 38.2515 48.6766 38.7571L58.6513 48.8338C58.908 49.093 59.0328 49.4333 59.0267 49.7733C59.0267 50.204 58.8182 50.5864 58.4941 50.823L48.6766 60.7408C48.1758 61.2461 47.3644 61.2461 46.8646 60.7408C46.3638 60.2349 46.3638 59.4121 46.8646 58.9068L54.6232 51.0693H43.2211C43.4617 56.3926 45.1742 61.3984 48.0321 65.8402C48.571 66.676 49.1482 67.4895 49.767 68.2831C49.6743 68.5035 49.5845 68.7239 49.4975 68.9443C49.2255 69.6385 48.9689 70.3382 48.735 71.0476ZM123.264 71.0472C124.582 75.0127 125.294 79.2575 125.294 83.6673C125.294 100.314 115.275 125.058 100.986 136.379C96.3734 140.03 91.3154 142.272 85.9976 142.272C80.6801 142.272 75.625 140.03 71.013 136.379C56.7246 125.058 46.7045 100.314 46.7045 83.6673C46.7045 79.2575 47.4168 75.013 48.735 71.0476C56.7342 80.5114 69.9222 86.8102 84.9453 87.0954V93.5365C84.9453 94.2524 85.5196 94.8325 86.2286 94.8325C86.9341 94.8325 87.5112 94.2524 87.5112 93.5365V87.0825C102.342 86.6838 115.345 80.4142 123.264 71.0472ZM122.231 68.2838C114.89 77.7253 102.105 84.0789 87.5115 84.4904V72.4278L95.2704 80.2654C95.7709 80.771 96.5855 80.771 97.0859 80.2654C97.5861 79.7598 97.5861 78.9403 97.0859 78.435L87.2677 68.5172C87.0338 68.1898 86.6553 67.9795 86.2289 67.9795C85.8917 67.973 85.5523 68.0994 85.2953 68.3587L75.3238 78.435C74.8233 78.9406 74.8233 79.7602 75.3238 80.2654C75.8246 80.771 76.6391 80.771 77.1393 80.2654L84.9456 72.3792V84.5002C70.1599 84.2117 57.1833 77.8257 49.7677 68.2838C54.4057 57.1639 63.9156 48.617 75.59 45.3804C75.0286 46.7315 74.721 48.2187 74.721 49.7739C74.721 56.0627 79.7725 61.1689 85.9976 61.1689C92.2233 61.1689 97.2781 56.0627 97.2781 49.7739C97.2781 48.2187 96.9701 46.7315 96.4087 45.3804C108.084 48.617 117.594 57.1643 122.231 68.2838ZM55.6982 101.118C64.6211 106.237 73.1557 105.994 81.3538 101.105C81.963 100.742 82.1651 99.9449 81.8058 99.3295C81.4468 98.7141 80.6576 98.5099 80.0481 98.8728C72.6745 103.269 64.9929 103.471 56.9648 98.8631C56.3492 98.5099 55.5667 98.727 55.217 99.3492C54.8673 99.9708 55.0823 100.762 55.6982 101.118ZM74.5798 125.93H98.9492C99.6579 125.93 100.232 125.347 100.232 124.634C100.232 123.918 99.6579 123.338 98.9492 123.338H74.5798C73.8708 123.338 73.2965 123.918 73.2965 124.634C73.2965 125.347 73.8708 125.93 74.5798 125.93ZM92.1944 101.118C101.117 106.237 109.652 105.994 117.85 101.105C118.46 100.742 118.662 99.9449 118.302 99.3295C117.943 98.7141 117.157 98.5099 116.545 98.8728C109.171 103.269 101.489 103.471 93.4613 98.8631C92.8457 98.5099 92.0632 98.727 91.7135 99.3492C91.3638 99.9708 91.5788 100.762 92.1944 101.118ZM85.9976 40.9709C90.8089 40.9709 94.7122 44.914 94.7122 49.7739C94.7122 54.6306 90.8089 58.5769 85.9976 58.5769C81.1899 58.5769 77.2868 54.6306 77.2868 49.7739C77.2868 44.914 81.1899 40.9709 85.9976 40.9709ZM70.6476 139.347C75.4107 142.817 80.5935 144.864 85.9979 144.864C91.4056 144.864 96.5886 142.817 101.349 139.347C105.348 146.413 112.911 152.041 124.185 151.678C141.158 151.134 146.906 161.46 148.5 165.5C148.5 165.5 38.8568 165.5 23.5 165.5C25.0941 161.459 30.8418 151.134 47.8149 151.678C59.088 152.041 66.6512 146.413 70.6476 139.347Z" fill="white"/>
</svg>