<svg xmlns="http://www.w3.org/2000/svg" width="172" height="171" viewBox="0 0 172 171" fill="none">
  <path d="M118.25 53.813C118.857 53.0036 119.42 52.166 119.936 51.3107C125.493 60.4737 127.977 71.2571 127.585 81.969C126.732 105.301 116.197 116.145 107.81 124.473C105.133 127.132 102.678 129.519 100.884 131.999C99.22 134.298 98.1346 136.669 98.0696 139.46C98.0663 139.496 98.0663 139.532 98.0627 139.568C98.0627 139.568 97.6217 144.65 102.776 153.84C103.116 154.445 102.949 155.208 102.39 155.615C95.7159 160.47 84.1779 165.025 72.9861 166.502C65.4129 167.501 57.9996 167.079 52.3124 164.489C51.6458 164.184 51.3385 163.405 51.6197 162.725C51.6197 162.725 52.8679 159.687 52.9496 156.296C53.0248 153.193 52.0836 149.73 47.8082 148.435C40.2186 146.133 37.3259 148.844 32.7987 149.95C29.9354 150.649 25.765 150.415 23.4182 147.879C21.8525 146.186 20.9701 143.437 21.9963 139.111C22.6237 136.466 22.6728 135.002 22.2056 134.066C21.7806 133.217 20.9374 132.928 20.0812 132.462C19.0484 131.9 17.3515 129.989 17.7017 127.58C17.8423 126.621 18.3029 125.541 19.3586 124.455C18.538 124.046 17.6425 123.503 16.9431 122.827C16.2304 122.135 15.7106 121.311 15.5246 120.387C15.335 119.436 15.4755 118.356 16.2304 117.166C16.2468 117.138 16.2664 117.111 16.286 117.085C16.286 117.085 16.6878 116.53 16.969 115.769C17.1753 115.211 17.3548 114.515 17.0736 113.884C16.917 113.535 16.6129 113.231 16.1389 112.966C15.6063 112.959 14.6124 112.899 13.6385 112.6C12.4945 112.247 11.4195 111.562 10.8735 110.449C10.3406 109.356 10.2363 107.729 11.5206 105.38C14.7922 99.3941 17.9106 95.9909 19.7767 93.2495C20.5679 92.0864 21.1234 91.0828 21.2575 89.9955C20.5022 89.8 19.4694 89.466 18.4105 88.9204C16.2337 87.7977 13.9945 85.8043 13.5796 82.4405C13.5048 81.8158 13.8608 81.219 14.449 80.9966C15.0342 80.7738 15.6975 80.9822 16.0506 81.5015C16.0506 81.5015 17.7798 84.055 20.7082 84.1242C20.0216 82.346 18.9333 79.4306 18.1947 76.9704C17.6455 75.1492 17.312 73.5458 17.3577 72.7033C18.4984 51.6798 31.0169 39.5854 45.5392 33.2078C59.921 26.8893 76.2702 26.2384 85.2493 28.0123C93.6362 29.6698 100.719 32.7764 106.547 36.9109C107.018 37.7541 107.606 38.5355 108.299 39.2314C109.103 40.0401 110.028 40.7052 111.025 41.2107C111.009 42.1136 110.966 43.0959 110.878 44.1248C110.721 45.9922 110.421 48.0125 109.888 49.9873C109.646 50.8773 109.358 51.7576 109.012 52.6109C108.966 52.7251 108.92 52.8393 108.871 52.9525C107.668 51.4925 106.381 50.1077 105.011 48.8058C102.86 46.7579 100.51 44.9154 97.9966 43.3101C96.3655 42.2678 94.6625 41.3249 92.9006 40.4916C95.9503 46.2084 96.6267 54.5076 93.6719 66.5665C93.4956 67.2903 92.7633 67.7335 92.044 67.5557C91.3218 67.3776 90.8805 66.6456 91.0567 65.9219C94.4137 52.2179 92.9918 43.7793 88.3179 38.6209C83.5979 36.9857 78.5317 36.0979 73.2627 36.0979C69.8734 36.0979 66.5523 36.4532 63.3391 37.1274C63.6886 39.3098 63.3424 42.4601 60.9924 46.838C58.6358 51.233 58.0244 54.25 58.6158 56.5318C59.1782 58.7123 60.8449 60.1165 62.7768 61.4084C63.3915 61.8218 63.5611 62.6611 63.1495 63.2815C62.7379 63.9015 61.9012 64.0695 61.2833 63.6561C58.7731 61.978 56.7402 60.0417 56.0075 57.21C55.3049 54.4803 55.8019 50.8157 58.6224 45.5578C60.5216 42.0234 60.94 39.5073 60.7141 37.7567C47.1596 41.405 35.8762 50.7776 30.3918 62.9576C31.2157 66.1394 33.2908 69.4661 38.0109 71.3385C38.704 71.6124 39.0403 72.3979 38.769 73.0911C38.4943 73.7844 37.7133 74.1243 37.0202 73.8506C32.7939 72.1738 30.3261 69.5268 28.9209 66.702C27.6883 70.3562 26.9661 74.2174 26.8357 78.2161C26.8357 78.2187 26.8357 78.221 26.8357 78.2233C26.6984 81.8624 28.7673 85.2226 32.072 86.7259C32.0753 86.7265 32.0753 86.7272 32.0785 86.7282C37.2559 89.1087 42.9433 90.5566 48.9345 90.8568C51.8501 84.0806 57.6618 79.0225 64.2055 75.807C64.2055 75.7138 64.2022 75.6203 64.2022 75.5261C64.2022 69.1495 69.3629 63.9731 75.7173 63.9731C82.0717 63.9731 87.2293 69.1495 87.2293 75.5261C87.2293 81.9031 82.0717 87.0795 75.7173 87.0795C70.432 87.0795 65.9703 83.4969 64.6207 78.6216C58.7044 81.6967 53.5045 86.4086 51.0789 92.7298C50.9616 93.0375 50.8272 93.3367 50.6771 93.635C49.8993 95.2517 49.9647 97.1504 50.8537 98.7088C51.7492 100.272 53.3541 101.289 55.1454 101.426C55.1487 101.427 55.1519 101.427 55.1549 101.427C56.4234 101.533 57.7079 101.586 59.0052 101.586C62.5417 101.586 65.987 101.186 69.295 100.429L69.2983 100.429C72.8904 99.6061 76.3222 98.3626 79.5451 96.7531V96.7517C82.9741 95.0375 86.1608 92.9083 89.0404 90.4299C89.4619 90.0654 90.0671 90.0005 90.5572 90.2675C96.1988 93.3397 102.553 95.2649 109.299 95.7324H109.303C110.365 95.8062 111.437 95.8436 112.519 95.8436C113.133 95.8436 113.744 95.8315 114.352 95.8095C116.284 95.7383 117.922 94.3633 118.337 92.467V92.4634C118.422 92.0831 118.5 91.7016 118.576 91.3177C119.134 88.4391 119.426 85.4651 119.426 82.4234C119.426 73.8841 117.118 65.8809 113.094 59.0085C113.83 58.4633 114.526 57.8753 115.186 57.2526C116.311 56.1929 117.331 55.0355 118.25 53.813ZM108.012 98.3364C101.599 97.7465 95.5459 95.9109 90.0877 93.073C87.4238 95.2816 84.5215 97.2127 81.4294 98.8213C81.4163 99.0509 81.4097 99.2822 81.4097 99.5148C81.4097 106.896 87.3816 112.888 94.7358 112.888C102.093 112.888 108.062 106.896 108.062 99.5148C108.061 99.1179 108.045 98.7252 108.012 98.3364ZM78.7295 100.12C76.6701 101.033 74.539 101.808 72.3459 102.433C79.0403 108.76 84.4823 116.043 87.7674 124.971L92.9019 123.851L89.2674 114.627C83.2955 112.448 78.9776 106.802 78.7295 100.12ZM113.625 43.4824C113.7 42.357 113.726 41.2973 113.726 40.3433C113.73 39.7895 113.392 39.2918 112.88 39.0874C111.886 38.6917 110.974 38.0943 110.203 37.3213C108.719 35.8308 107.882 33.8085 107.882 31.7003V10.9491C107.882 8.84085 108.719 6.81887 110.203 5.32839C111.69 3.83759 113.703 3 115.805 3H153.58C155.682 3 157.695 3.83759 159.182 5.32839C160.666 6.81887 161.5 8.84117 161.5 10.9491V31.7003C161.5 33.8085 160.666 35.8308 159.182 37.3213C157.695 38.8121 155.682 39.6497 153.58 39.6497H122.535C121.891 39.6497 121.339 40.1074 121.215 40.7419C120.62 43.8121 119.342 47.2484 117.377 50.3806C117.283 50.5348 117.181 50.688 117.083 50.8403C115.878 52.6828 114.426 54.4062 112.733 55.8704C112.641 55.9492 112.55 56.0276 112.458 56.1047C111.262 57.1037 109.948 57.9738 108.516 58.667C109.784 57.1926 110.765 55.4679 111.51 53.6263C111.556 53.5043 111.605 53.3819 111.654 53.2592C111.667 53.2234 111.68 53.1874 111.693 53.1509C112.84 50.1182 113.376 46.8108 113.595 43.898C113.605 43.758 113.615 43.6198 113.625 43.4824ZM147.84 23.1547H158.568C159.31 23.1547 159.914 22.5494 159.914 21.8043C159.914 21.0589 159.31 20.4536 158.568 20.4536H147.84C147.095 20.4536 146.494 21.0589 146.494 21.8043C146.494 22.5494 147.095 23.1547 147.84 23.1547ZM111.971 23.1547H122.701C123.443 23.1547 124.048 22.5494 124.048 21.8043C124.048 21.0589 123.443 20.4536 122.701 20.4536H111.971C111.229 20.4536 110.627 21.0589 110.627 21.8043C110.627 22.5494 111.229 23.1547 111.971 23.1547ZM129.906 23.1547H140.633C141.378 23.1547 141.98 22.5494 141.98 21.8043C141.98 21.0589 141.378 20.4536 140.633 20.4536H129.906C129.163 20.4536 128.559 21.0589 128.559 21.8043C128.559 22.5494 129.163 23.1547 129.906 23.1547ZM99.0794 78.7984C99.0108 78.556 98.9327 78.327 98.844 78.1101C97.7949 75.5425 95.4089 74.9884 95.4089 74.9884C94.6831 74.8303 94.2221 74.1098 94.3794 73.3818C94.5392 72.6531 95.2555 72.1905 95.9807 72.349C95.9807 72.349 99.5989 73.1059 101.253 76.8936C104.195 76.4192 108.764 77.3299 113.066 85.3099C113.419 85.9657 113.177 86.7856 112.523 87.1406C111.869 87.4949 111.052 87.2508 110.7 86.595C107.427 80.5251 104.185 79.3463 101.959 79.5389C102.227 81.7869 101.871 84.7561 100.27 88.6609C99.9851 89.3502 99.1975 89.6793 98.5109 89.3955C97.8243 89.1117 97.4974 88.3217 97.7789 87.632C99.4198 83.6344 99.6189 80.8404 99.1059 78.888C99.0958 78.8582 99.086 78.8283 99.0794 78.7984ZM69.5611 50.5174C68.819 50.4974 68.2337 49.8764 68.2537 49.131C68.2736 48.3859 68.8909 47.7973 69.633 47.8167C69.633 47.8167 84.7271 48.2612 85.9365 62.416C86.0019 63.1591 85.4529 63.8136 84.7111 63.8773C83.9722 63.9409 83.3184 63.3894 83.2566 62.647C82.246 50.8153 69.5611 50.5174 69.5611 50.5174ZM47.7039 51.6221C48.1715 51.042 49.0178 50.9505 49.5962 51.4183C50.1749 51.8865 50.2665 52.7376 49.7993 53.3176C49.7993 53.3176 41.8043 63.2011 50.1259 71.6433C50.649 72.1731 50.6457 73.0291 50.1161 73.5534C49.59 74.0777 48.7367 74.0731 48.2139 73.5432C38.2576 63.4435 47.7039 51.6221 47.7039 51.6221Z" fill="white"/>
</svg>