<svg xmlns="http://www.w3.org/2000/svg" width="172" height="171" viewBox="0 0 172 171" fill="none">
  <path d="M125.887 120.448C125.696 120.461 125.505 120.468 125.312 120.468C119.936 120.468 115.572 116.113 115.572 110.747C115.572 105.382 119.935 101.027 125.312 101.027C130.688 101.027 135.051 105.381 135.051 110.747C135.051 115.008 132.295 118.63 128.472 119.941L132.881 138.614C133.221 138.579 133.563 138.562 133.91 138.562C139.285 138.562 143.649 142.917 143.649 148.279C143.649 153.645 139.286 158 133.91 158C128.533 158 124.17 153.645 124.17 148.279C124.17 144.179 126.722 140.667 130.329 139.24L125.887 120.448ZM114.065 105.607L97.3128 98.641C97.6004 97.5951 97.7557 96.4943 97.7557 95.3577C97.7557 92.2429 96.5945 89.3983 94.6862 87.2226L103.669 78.2931C105.843 80.1883 108.689 81.3379 111.801 81.3379C112.431 81.3379 113.049 81.2923 113.651 81.2019L119.561 99.8164C117.147 101.085 115.206 103.125 114.065 105.607ZM144.706 101.017L136.167 104.83C134.064 101.001 129.988 98.4021 125.311 98.4021C124.17 98.4021 123.063 98.557 122.012 98.8476L116.199 80.5335C118.182 79.7815 119.922 78.5321 121.268 76.9372L145.534 92.2683C144.719 93.9149 144.26 95.7681 144.26 97.7242C144.26 98.8635 144.415 99.9678 144.706 101.017ZM150.842 59.2714L153.941 85.6726C151.13 86.2958 148.675 87.8742 146.941 90.0503L122.739 74.7611C123.652 73.0371 124.169 71.0777 124.169 68.9955C124.169 67.1843 123.778 65.4668 123.076 63.9172L141.025 54.0093C143.209 57.1154 146.786 59.1716 150.842 59.2714ZM117.833 29.494L139.76 42.1297C139.133 43.6048 138.787 45.229 138.787 46.9301C138.787 48.6283 139.132 50.2423 139.754 51.7144L121.743 61.6542C119.489 58.6195 115.872 56.6504 111.8 56.6504C107.841 56.6504 104.315 58.5097 102.051 61.4023L90.8105 53.9741C92.2046 51.9789 93.0229 49.5479 93.0229 46.9301C93.0229 44.1343 92.0914 41.555 90.5161 39.4825L98.5383 31.228C100.79 33.591 103.969 35.0632 107.492 35.0632C111.813 35.0628 115.621 32.848 117.833 29.494ZM61.5116 23.2601H95.1356C95.2291 25.4004 95.8701 27.3986 96.9209 29.1226L88.7149 37.5677C86.5478 35.7116 83.7336 34.5879 80.6577 34.5879C76.802 34.5879 73.3601 36.3471 71.0895 39.1077L59.5936 29.3386C60.7254 27.57 61.4142 25.4908 61.5116 23.2601ZM100.66 63.633C99.8743 65.2537 99.4343 67.0742 99.4343 68.9952C99.4343 71.7551 100.343 74.3055 101.88 76.3653L92.7514 85.4433C90.6914 83.9163 88.1454 83.0153 85.3863 83.0153C82.1515 83.0153 79.2079 84.2551 77.002 86.2855L65.9979 76.2843C67.5017 74.2409 68.3882 71.7193 68.3882 68.9949C68.3882 66.3926 67.5797 63.9782 66.2017 61.9893L72.7195 56.3949C74.8675 58.1929 77.6361 59.2746 80.6573 59.2746C83.9048 59.2746 86.8645 58.0221 89.0704 55.9719L100.66 63.633ZM44.1221 96.4326C43.6565 93.9368 42.4403 91.7062 40.7126 89.9793L49.3104 79.3645C51.2449 80.6139 53.5479 81.3372 56.0188 81.3372C59.1695 81.3372 62.0416 80.1618 64.2284 78.2282L75.2681 88.2585C74.0648 89.9631 73.2821 91.9838 73.0751 94.1729L44.1221 96.4326ZM57.9533 31.3923L69.6368 41.3225C68.7765 43.0045 68.2879 44.9122 68.2879 46.9301C68.2879 49.784 69.2615 52.4148 70.8918 54.5037L64.4872 60.0012C62.2748 57.9223 59.2957 56.6504 56.0188 56.6504C55.8376 56.6504 55.6567 56.6536 55.4752 56.663L52.134 34.7012C54.3758 34.149 56.3779 32.9804 57.9533 31.3923ZM41.3597 32.2991C43.4879 34.0267 46.2021 35.0628 49.1551 35.0628C49.2816 35.0628 49.4042 35.0596 49.5304 35.0561L52.8752 57.054C48.6539 58.1577 45.3124 61.4346 44.1221 65.6121L26.7164 62.6129C26.7325 62.3514 26.7422 62.0834 26.7422 61.8189C26.7422 58.3131 25.274 55.1459 22.9189 52.8959L41.3597 32.2991ZM26.2699 65.1988L43.6756 68.198C43.6594 68.4624 43.6529 68.7275 43.6529 68.9955C43.6529 72.398 45.0345 75.4777 47.2663 77.7119L38.6684 88.3298C36.7375 87.0805 34.4313 86.3539 31.96 86.3539C30.4591 86.3539 29.0229 86.622 27.6905 87.1096L20.4826 72.5534C23.2651 70.9679 25.3743 68.3401 26.2699 65.1988ZM148.4 92.5296V92.5264C149.943 90.102 152.531 88.4038 155.533 88.0651C155.536 88.0651 155.542 88.0651 155.546 88.0651C155.901 88.0263 156.264 88.0069 156.629 88.0069C162.002 88.0069 166.366 92.3617 166.366 97.7242C166.366 103.089 162.002 107.445 156.629 107.445C151.253 107.445 146.889 103.09 146.889 97.7242C146.889 95.8158 147.443 94.0308 148.4 92.5296ZM142.63 51.6272C141.856 50.2358 141.417 48.6344 141.417 46.9301C141.417 45.2384 141.853 43.6468 142.617 42.2622C142.624 42.2457 142.633 42.2328 142.639 42.2166C144.302 39.2336 147.495 37.2128 151.156 37.2128C156.532 37.2128 160.896 41.5675 160.896 46.9301C160.896 52.2956 156.532 56.6507 151.156 56.6507C147.488 56.6504 144.289 54.6228 142.63 51.6272ZM120.187 64.0496C120.187 64.0528 120.191 64.056 120.191 64.0589C121.048 65.5053 121.54 67.1937 121.54 68.9952C121.54 71.0095 120.925 72.8786 119.874 74.4318C119.867 74.4412 119.861 74.4511 119.854 74.4573C118.101 77.027 115.148 78.7123 111.8 78.7123C108.973 78.7123 106.424 77.5081 104.642 75.581C104.632 75.5681 104.619 75.5584 104.609 75.5458C103.028 73.8154 102.064 71.5165 102.064 68.9955C102.064 67.1294 102.591 65.3829 103.506 63.9013C103.51 63.8946 103.513 63.8916 103.516 63.8852C105.234 61.1185 108.303 59.2754 111.8 59.2754C115.368 59.275 118.489 61.1928 120.187 64.0496ZM99.6769 28.5155C99.6672 28.5026 99.6575 28.4864 99.6442 28.4735C98.4575 26.8593 97.7554 24.8708 97.7554 22.7177C97.7554 17.3557 102.119 13.0003 107.492 13.0003C112.868 13.0003 117.231 17.3554 117.231 22.7177C117.231 28.0831 112.868 32.4382 107.492 32.4382C104.293 32.4382 101.453 30.8951 99.6769 28.5155ZM87.7669 40.2924C87.7799 40.3056 87.7892 40.3183 87.8025 40.3315C89.4102 42.0649 90.3935 44.383 90.3935 46.9301C90.3935 49.4062 89.4652 51.6692 87.9348 53.3832C87.9219 53.3993 87.9089 53.4158 87.896 53.4287C86.1103 55.4075 83.5295 56.6507 80.657 56.6507C77.9367 56.6507 75.4783 55.5369 73.7089 53.7419C73.6959 53.729 73.6862 53.7161 73.6733 53.7032C71.9685 51.9533 70.9174 49.5644 70.9174 46.9301C70.9174 45.0256 71.4671 43.2467 72.4183 41.7487C72.4248 41.7355 72.4345 41.7229 72.4409 41.7132C74.1716 39.0078 77.2058 37.2128 80.657 37.2128C83.4618 37.2128 85.991 38.3976 87.7669 40.2924ZM75.6466 95.4158C75.6466 95.3964 75.6466 95.3771 75.6466 95.3574C75.6466 92.9236 76.5457 90.699 78.0272 88.9944C78.0402 88.9782 78.0531 88.9653 78.0661 88.9491C79.8517 86.9219 82.4682 85.6403 85.3859 85.6403C87.9025 85.6403 90.2025 86.5958 91.9296 88.1648C91.9426 88.1742 91.9555 88.1871 91.9684 88.1971C93.9062 89.976 95.1256 92.5261 95.1256 95.3574C95.1256 100.723 90.762 105.078 85.3859 105.078C80.0297 105.078 75.6793 100.755 75.6466 95.4158ZM46.4218 67.3394C47.1301 63.2361 50.4166 60.0077 54.557 59.3848C55.0355 59.3137 55.5241 59.275 56.0191 59.275C58.9724 59.275 61.6184 60.5886 63.4037 62.6584V62.6617C64.8723 64.3631 65.7584 66.5776 65.7584 68.9955C65.7584 71.5136 64.7979 73.8089 63.2193 75.5361C61.4369 77.4891 58.8718 78.7126 56.0188 78.7126C53.7029 78.7126 51.5714 77.9056 49.8989 76.553C47.693 74.7705 46.2827 72.0461 46.2827 68.9955C46.2827 68.4305 46.328 67.8786 46.4218 67.3394ZM27.6449 89.9825H27.6482C28.9482 89.3402 30.4135 88.9785 31.9597 88.9785C34.2789 88.9785 36.4071 89.789 38.0799 91.1382L38.0831 91.1414C40.1014 92.775 41.457 95.1966 41.6702 97.9371V97.9402C41.6897 98.1892 41.6994 98.4443 41.6994 98.6991C41.6994 104.061 37.336 108.416 31.9597 108.416C26.5872 108.416 22.2236 104.062 22.2236 98.6991C22.2236 94.8801 24.4328 91.5709 27.6449 89.9825ZM20.2303 54.0549C20.2426 54.0646 20.2548 54.0742 20.2671 54.0803C22.6018 55.8592 24.1125 58.6647 24.1125 61.8189C24.1125 62.3804 24.0639 62.9358 23.9704 63.4715V63.4751C23.181 68.0494 19.1826 71.5359 14.3734 71.5359C8.99905 71.5359 4.63477 67.1812 4.63477 61.8189C4.63477 56.4534 8.99872 52.0983 14.3734 52.0983C16.571 52.0987 18.6002 52.8249 20.2303 54.0549ZM56.8082 28.7286C56.7989 28.7416 56.7888 28.7513 56.7791 28.7639C54.9935 31.0013 52.2411 32.4379 49.1551 32.4379C46.4448 32.4379 43.9862 31.3274 42.2203 29.5388C42.207 29.5259 42.1976 29.513 42.1847 29.5C40.4734 27.7502 39.419 25.3549 39.419 22.7173C39.419 17.3554 43.7824 13 49.1551 13C54.5312 13 58.8951 17.3551 58.8951 22.7173C58.8948 24.9874 58.115 27.0757 56.8082 28.7286Z" fill="white"/>
</svg>