<svg width="238" height="238" viewBox="0 0 238 238" fill="none" xmlns="http://www.w3.org/2000/svg">
<path d="M165.559 74.1212C166.436 72.9565 167.248 71.7511 167.993 70.5203C176.016 83.7061 179.602 99.2237 179.036 114.638C177.805 148.214 162.596 163.819 150.487 175.803C146.623 179.629 143.079 183.064 140.487 186.632C138.086 189.941 136.519 193.353 136.425 197.369C136.42 197.42 136.42 197.472 136.415 197.524C136.415 197.524 135.778 204.838 143.22 218.062C143.71 218.933 143.47 220.031 142.663 220.617C133.027 227.603 116.369 234.158 100.212 236.283C89.2782 237.721 78.5755 237.114 70.365 233.386C69.4026 232.948 68.9589 231.826 69.3649 230.848C69.3649 230.848 71.1669 226.477 71.2849 221.597C71.3935 217.131 70.0345 212.149 63.8621 210.284C52.905 206.972 48.7287 210.873 42.1929 212.465C38.0591 213.471 32.0382 213.134 28.6502 209.485C26.3897 207.048 25.1157 203.092 26.5974 196.867C27.5031 193.061 27.574 190.954 26.8995 189.607C26.2859 188.386 25.0686 187.97 23.8324 187.3C22.3413 186.49 19.8916 183.741 20.3971 180.274C20.6001 178.894 21.2652 177.339 22.7893 175.776C21.6046 175.188 20.3116 174.407 19.302 173.435C18.2731 172.438 17.5226 171.252 17.2541 169.922C16.9803 168.554 17.1832 167 18.2731 165.288C18.2967 165.248 18.325 165.209 18.3533 165.171C18.3533 165.171 18.9334 164.373 19.3394 163.278C19.6372 162.474 19.8964 161.473 19.4904 160.565C19.2643 160.063 18.8253 159.625 18.1409 159.244C17.372 159.233 15.9371 159.148 14.531 158.718C12.8795 158.21 11.3275 157.223 10.5393 155.622C9.76991 154.049 9.61934 151.708 11.4734 148.327C16.1967 139.713 20.6987 134.816 23.3929 130.871C24.5351 129.198 25.3371 127.753 25.5306 126.189C24.4403 125.907 22.9492 125.427 21.4204 124.642C18.2778 123.026 15.0451 120.157 14.4461 115.317C14.338 114.418 14.852 113.559 15.7011 113.239C16.546 112.918 17.5037 113.218 18.0135 113.966C18.0135 113.966 20.5099 117.64 24.7377 117.74C23.7465 115.181 22.1752 110.986 21.1089 107.445C20.316 104.824 19.8345 102.517 19.9006 101.305C21.5474 71.0515 39.6205 53.6473 60.5864 44.4698C81.3495 35.3773 104.953 34.4406 117.916 36.9933C130.024 39.3785 140.25 43.849 148.664 49.7986C149.344 51.0119 150.193 52.1365 151.193 53.1379C152.355 54.3017 153.69 55.2586 155.129 55.9862C155.105 57.2854 155.044 58.699 154.917 60.1795C154.691 62.8668 154.256 65.7741 153.487 68.6158C153.138 69.8967 152.723 71.1634 152.222 72.3913C152.156 72.5556 152.09 72.7199 152.019 72.8828C150.282 70.7819 148.424 68.7891 146.446 66.9157C143.341 63.9687 139.948 61.3173 136.32 59.0073C133.965 57.5073 131.506 56.1505 128.963 54.9513C133.365 63.1779 134.342 75.1206 130.076 92.4738C129.822 93.5153 128.764 94.1531 127.726 93.8973C126.683 93.6409 126.046 92.5876 126.3 91.5461C131.147 71.8257 129.094 59.6824 122.346 52.2593C115.532 49.9062 108.218 48.6287 100.611 48.6287C95.7178 48.6287 90.9232 49.14 86.2843 50.1102C86.7889 53.2507 86.2891 57.784 82.8963 64.0839C79.4941 70.4084 78.6114 74.75 79.4653 78.0336C80.2771 81.1713 82.6834 83.192 85.4725 85.0512C86.3599 85.646 86.6048 86.8537 86.0105 87.7465C85.4163 88.6388 84.2084 88.8805 83.3163 88.2857C79.6923 85.8708 76.7573 83.0843 75.6996 79.0095C74.6852 75.0815 75.4027 69.8079 79.4747 62.2417C82.2166 57.1556 82.8207 53.5349 82.4946 51.0157C62.9257 56.2657 46.6358 69.7531 38.718 87.2805C39.9074 91.8591 42.9033 96.6464 49.7177 99.3408C50.7183 99.735 51.2039 100.865 50.8122 101.863C50.4157 102.86 49.2881 103.35 48.2875 102.956C42.1859 100.543 38.6231 96.7337 36.5944 92.6688C34.8149 97.9272 33.7723 103.484 33.584 109.238C33.584 109.242 33.584 109.245 33.584 109.248C33.3857 114.485 36.3726 119.32 41.1437 121.484C41.1484 121.485 41.1484 121.485 41.1531 121.487C48.6278 124.913 56.8387 126.996 65.4882 127.428C69.6976 117.677 78.0879 110.398 87.5351 105.771C87.5351 105.637 87.5304 105.502 87.5304 105.367C87.5304 96.1908 94.9809 88.7417 104.155 88.7417C113.329 88.7417 120.775 96.1908 120.775 105.367C120.775 114.543 113.329 121.993 104.155 121.993C96.5244 121.993 90.083 116.837 88.1345 109.821C79.5931 114.246 72.0859 121.027 68.5841 130.123C68.4147 130.566 68.2207 130.997 68.004 131.426C66.8811 133.753 66.9756 136.485 68.2589 138.727C69.5518 140.977 71.8688 142.441 74.4549 142.638C74.4596 142.638 74.4644 142.638 74.4686 142.639C76.3 142.791 78.1545 142.867 80.0274 142.867C85.133 142.867 90.1071 142.293 94.8829 141.203L94.8876 141.202C100.074 140.018 105.028 138.229 109.681 135.913V135.911C114.631 133.444 119.232 130.38 123.389 126.814C123.998 126.289 124.872 126.196 125.579 126.58C133.724 131.001 142.897 133.771 152.637 134.444H152.642C154.176 134.55 155.723 134.604 157.286 134.604C158.173 134.604 159.055 134.587 159.933 134.555C162.721 134.453 165.086 132.474 165.685 129.745V129.74C165.808 129.193 165.921 128.644 166.03 128.091C166.836 123.949 167.257 119.669 167.257 115.292C167.257 103.004 163.925 91.4871 158.116 81.5976C159.178 80.813 160.183 79.9669 161.136 79.0709C162.761 77.5459 164.233 75.8803 165.559 74.1212ZM150.779 138.191C141.521 137.342 132.782 134.701 124.901 130.617C121.055 133.795 116.866 136.574 112.401 138.889C112.382 139.22 112.373 139.552 112.373 139.887C112.373 150.508 120.995 159.132 131.612 159.132C142.234 159.132 150.851 150.508 150.851 139.887C150.85 139.316 150.827 138.751 150.779 138.191ZM108.503 140.758C105.53 142.072 102.454 143.187 99.2875 144.086C108.952 153.191 116.809 163.672 121.552 176.519L128.964 174.908L123.717 161.634C115.095 158.498 108.862 150.374 108.503 140.758ZM158.882 59.2551C158.99 57.6357 159.028 56.1108 159.028 54.7379C159.033 53.941 158.547 53.2248 157.806 52.9306C156.372 52.3612 155.055 51.5015 153.941 50.3892C151.799 48.2444 150.591 45.3342 150.591 42.3004V12.439C150.591 9.40512 151.799 6.49545 153.941 4.35061C156.089 2.20531 158.996 1 162.03 1H216.566C219.6 1 222.507 2.20531 224.654 4.35061C226.796 6.49545 228 9.40559 228 12.439V42.3004C228 45.3342 226.796 48.2444 224.654 50.3892C222.507 52.5345 219.6 53.7398 216.566 53.7398H171.746C170.816 53.7398 170.019 54.3984 169.84 55.3115C168.981 59.7296 167.135 64.6746 164.3 69.1819C164.163 69.4038 164.016 69.6242 163.875 69.8433C162.135 72.4947 160.039 74.9748 157.594 77.0818C157.462 77.1951 157.33 77.308 157.198 77.4189C155.471 78.8565 153.574 80.1086 151.507 81.1061C153.338 78.9845 154.753 76.5025 155.829 73.8525C155.896 73.6769 155.966 73.5008 156.037 73.3242C156.056 73.2728 156.074 73.2208 156.093 73.1684C157.75 68.8042 158.523 64.0448 158.84 59.8533C158.853 59.6517 158.868 59.4529 158.882 59.2551ZM208.279 30.0032H223.767C224.838 30.0032 225.71 29.1321 225.71 28.0599C225.71 26.9873 224.838 26.1162 223.767 26.1162H208.279C207.203 26.1162 206.335 26.9873 206.335 28.0599C206.335 29.1321 207.203 30.0032 208.279 30.0032ZM156.494 30.0032H171.986C173.057 30.0032 173.93 29.1321 173.93 28.0599C173.93 26.9873 173.057 26.1162 171.986 26.1162H156.494C155.423 26.1162 154.555 26.9873 154.555 28.0599C154.555 29.1321 155.423 30.0032 156.494 30.0032ZM182.387 30.0032H197.874C198.95 30.0032 199.818 29.1321 199.818 28.0599C199.818 26.9873 198.95 26.1162 197.874 26.1162H182.387C181.315 26.1162 180.443 26.9873 180.443 28.0599C180.443 29.1321 181.315 30.0032 182.387 30.0032ZM137.883 110.076C137.784 109.727 137.671 109.397 137.543 109.085C136.028 105.39 132.584 104.593 132.584 104.593C131.536 104.366 130.87 103.329 131.097 102.281C131.328 101.233 132.362 100.567 133.409 100.795C133.409 100.795 138.633 101.884 141.021 107.335C145.268 106.652 151.865 107.963 158.075 119.446C158.585 120.39 158.235 121.57 157.292 122.08C156.348 122.59 155.168 122.239 154.659 121.295C149.935 112.561 145.254 110.864 142.04 111.141C142.427 114.376 141.913 118.649 139.601 124.268C139.19 125.26 138.053 125.734 137.062 125.325C136.071 124.917 135.599 123.78 136.005 122.788C138.374 117.035 138.662 113.014 137.921 110.205C137.907 110.162 137.892 110.119 137.883 110.076ZM95.2671 69.3787C94.1956 69.3499 93.3507 68.4562 93.3795 67.3836C93.4083 66.3114 94.2994 65.4644 95.3709 65.4923C95.3709 65.4923 117.162 66.132 118.908 86.501C119.003 87.5704 118.21 88.5123 117.139 88.6039C116.072 88.6954 115.128 87.9018 115.039 86.8334C113.58 69.8074 95.2671 69.3787 95.2671 69.3787ZM63.7116 70.9684C64.3866 70.1337 65.6085 70.0019 66.4435 70.6752C67.279 71.3489 67.4112 72.5736 66.7367 73.4083C66.7367 73.4083 55.1943 87.6308 67.2082 99.7794C67.9634 100.542 67.9587 101.774 67.194 102.528C66.4346 103.282 65.2026 103.276 64.4479 102.513C50.0739 87.9797 63.7116 70.9684 63.7116 70.9684Z" fill="white"/>
</svg>
