<svg width="582" height="582" viewBox="0 0 582 582" fill="none" xmlns="http://www.w3.org/2000/svg">
<g clip-path="url(#clip0_189_147505)">
<path d="M137.716 374.407L134.355 388.458C134.195 389.115 133.67 389.626 133.007 389.75L120.322 392.195C118.529 392.538 118.434 395.071 120.191 395.553L132.883 399.02C133.466 399.18 133.925 399.633 134.086 400.217L138.219 414.924C138.693 416.61 141.077 416.603 141.543 414.917L145.699 399.764C145.874 399.136 146.384 398.655 147.026 398.531L157.531 396.458C159.339 396.1 159.404 393.531 157.611 393.086L145.91 390.195C145.291 390.042 144.802 389.553 144.649 388.932L141.062 374.393C140.632 372.634 138.132 372.648 137.709 374.407H137.716Z" fill="#FFC727"/>
<path d="M476.358 250.25L473.245 263.271C473.1 263.884 472.611 264.352 471.992 264.468L460.24 266.731C458.578 267.052 458.49 269.395 460.123 269.848L471.882 273.059C472.422 273.205 472.844 273.629 472.998 274.169L476.825 287.804C477.262 289.366 479.471 289.358 479.901 287.796L483.751 273.753C483.911 273.169 484.385 272.724 484.983 272.607L494.715 270.687C496.392 270.359 496.45 267.972 494.788 267.563L483.947 264.884C483.371 264.746 482.919 264.293 482.781 263.717L479.457 250.242C479.056 248.615 476.745 248.622 476.351 250.257L476.358 250.25Z" fill="#FFC727"/>
<path d="M390.516 100.195L386.966 115.064C386.798 115.764 386.237 116.297 385.537 116.429L372.116 119.013C370.22 119.377 370.118 122.056 371.977 122.567L385.406 126.231C386.025 126.399 386.506 126.881 386.681 127.501L391.055 143.07C391.558 144.851 394.081 144.844 394.569 143.056L398.965 127.02C399.147 126.355 399.694 125.844 400.372 125.713L411.49 123.516C413.407 123.136 413.465 120.421 411.577 119.954L399.198 116.896C398.542 116.735 398.025 116.217 397.864 115.56L394.066 100.174C393.607 98.3123 390.968 98.3269 390.523 100.188L390.516 100.195Z" fill="#FFC727"/>
<path d="M199.093 103.122L196.643 113.377C196.527 113.859 196.14 114.224 195.659 114.319L186.408 116.1C185.103 116.356 185.03 118.202 186.313 118.553L195.572 121.078C195.995 121.195 196.33 121.523 196.454 121.954L199.472 132.691C199.815 133.917 201.557 133.917 201.892 132.684L204.925 121.625C205.049 121.166 205.428 120.815 205.895 120.72L213.557 119.209C214.876 118.947 214.92 117.071 213.615 116.75L205.078 114.64C204.626 114.531 204.269 114.173 204.16 113.721L201.542 103.115C201.229 101.83 199.406 101.838 199.1 103.122H199.093Z" fill="#FFC727"/>
<path d="M483.363 480.865L481.205 489.886C481.103 490.31 480.767 490.631 480.337 490.718L472.194 492.288C471.042 492.507 470.984 494.134 472.114 494.441L480.257 496.667C480.629 496.769 480.928 497.061 481.03 497.434L483.684 506.879C483.99 507.959 485.521 507.952 485.82 506.879L488.488 497.149C488.597 496.74 488.932 496.434 489.341 496.353L496.084 495.025C497.243 494.799 497.287 493.149 496.135 492.864L488.626 491.01C488.225 490.908 487.919 490.602 487.817 490.2L485.513 480.865C485.236 479.741 483.633 479.741 483.363 480.872V480.865Z" fill="#FFC727"/>
<path d="M199.198 163.179C199.38 163.179 199.934 163.223 199.934 163.23V162.77H459.223V237.936L200.036 239.703C200.036 239.703 199.431 239.754 199.256 239.754C187.527 239.754 177.991 222.615 177.991 201.47C177.991 180.325 187.475 163.186 199.205 163.186L199.198 163.179Z" fill="#9B3F27"/>
<path d="M199.259 240.33C199.558 240.33 199.85 240.33 200.083 240.279L459.809 238.513V162.186H199.354V162.595C199.303 162.595 199.252 162.595 199.208 162.595C193.31 162.595 187.799 166.682 183.687 174.105C179.634 181.419 177.403 191.134 177.403 201.462C177.403 211.791 179.641 221.498 183.709 228.819C187.835 236.243 193.354 240.33 199.252 240.33H199.259ZM199.456 239.148C199.376 239.148 199.303 239.148 199.259 239.148C187.857 239.148 178.577 222.236 178.577 201.448C178.577 180.66 187.835 163.748 199.208 163.748C199.339 163.748 199.777 163.777 199.85 163.785L199.923 163.208H199.944V163.332H458.649V237.33L199.463 239.096V239.133L199.456 239.148Z" fill="#333333"/>
<path d="M458.155 239.746C446.423 239.746 436.912 222.606 436.912 201.463C436.912 180.319 446.423 163.179 458.155 163.179C469.887 163.179 479.398 180.319 479.398 201.463C479.398 222.606 469.887 239.746 458.155 239.746Z" fill="#FE7344"/>
<path d="M458.15 240.33C464.048 240.33 469.559 236.242 473.678 228.819C477.738 221.505 479.977 211.79 479.977 201.462C479.977 191.134 477.738 181.426 473.678 174.105C469.559 166.682 464.04 162.595 458.15 162.595C452.259 162.595 446.741 166.682 442.622 174.105C438.561 181.419 436.323 191.134 436.323 201.462C436.323 211.79 438.561 221.498 442.622 228.819C446.741 236.242 452.259 240.33 458.15 240.33ZM458.15 163.762C469.537 163.762 478.81 180.674 478.81 201.462C478.81 222.25 469.544 239.162 458.15 239.162C446.755 239.162 437.49 222.25 437.49 201.462C437.49 180.674 446.755 163.762 458.15 163.762Z" fill="#333333"/>
<path d="M398.541 162.712C398.541 162.712 379.558 203.449 400.531 238.28H383.8C383.8 238.28 368.338 190.464 384.005 162.552L398.541 162.712Z" fill="#333333"/>
<path d="M230.736 162.712C230.736 162.712 211.753 203.448 232.727 238.279H215.996C215.996 238.279 200.344 190.835 216.01 162.924L230.736 162.712Z" fill="#333333"/>
<path d="M459.004 223.908C459.048 223.908 459.092 223.908 459.128 223.908C460.885 223.864 462.671 222.981 464.027 221.477C467.578 217.528 469.298 212.433 469.298 205.908C469.298 205.492 469.298 205.018 469.313 204.499C469.371 200.076 469.458 192.675 466.243 189.894C465.391 189.157 464.399 188.865 463.386 189.062C462.117 189.303 460.9 190.295 460.193 191.646C458.392 195.105 457.809 199.091 458.545 202.857C458.611 203.171 458.91 203.383 459.23 203.317C459.544 203.259 459.755 202.945 459.69 202.631C459.004 199.12 459.551 195.412 461.228 192.186C461.76 191.164 462.693 190.383 463.604 190.215C464.268 190.091 464.902 190.281 465.478 190.784C468.285 193.208 468.197 200.273 468.139 204.492C468.139 205.018 468.124 205.492 468.124 205.915C468.124 212.142 466.499 216.974 463.152 220.703C462.015 221.973 460.535 222.718 459.099 222.747C457.758 222.776 456.365 222.2 455.272 221.156C449.549 215.674 448.754 203.441 448.368 197.558C447.916 190.587 449.097 185.69 452.101 182.15C454.608 179.193 458.56 177.245 462.671 176.931C466.798 176.617 470.975 177.967 474.43 180.734C474.685 180.938 475.05 180.894 475.254 180.639C475.458 180.383 475.414 180.018 475.159 179.814C471.47 176.865 467.002 175.42 462.577 175.756C458.159 176.091 453.901 178.193 451.197 181.383C447.989 185.171 446.713 190.332 447.187 197.624C447.785 206.806 449.119 216.886 454.448 221.995C455.724 223.222 457.371 223.915 458.982 223.915L459.004 223.908Z" fill="#333333"/>
<path d="M220.452 139.654L239.421 139.354L239.953 116.121L225.978 122.72L220.452 139.654Z" fill="#333333"/>
<path d="M380.489 239.147C380.489 239.147 414.767 232.812 431.112 259.212C447.456 285.613 425.841 343.166 425.841 343.166C425.841 343.166 446.406 410.223 430.062 435.04C413.717 459.857 344.104 447.711 333.555 438.733C323.006 429.755 380.489 239.147 380.489 239.147Z" fill="#4F6329"/>
<path d="M386.925 450.332C396.971 450.332 405.683 449.23 412.827 447.062C421.138 444.536 427.101 440.602 430.557 435.361C434.347 429.61 436.476 421.157 436.892 410.238C437.22 401.552 436.476 391.282 434.668 379.706C431.774 361.152 427.043 345.101 426.467 343.181C427.108 341.429 432.066 327.649 435.193 311.197C437.154 300.883 438.022 291.548 437.781 283.446C437.475 273.271 435.405 265.008 431.621 258.899C420.299 240.622 400.39 237.892 389.535 237.892C384.118 237.892 380.546 238.542 380.393 238.571C380.174 238.607 380 238.768 379.941 238.98C379.795 239.454 365.419 287.197 352.516 335.422C344.934 363.75 339.335 386.706 335.88 403.647C329.982 432.529 331.52 437.763 333.19 439.179C339.248 444.339 364.049 450.332 386.932 450.332H386.925ZM389.528 239.067C400.142 239.067 419.6 241.724 430.622 259.519C438.969 272.993 437.089 294.942 434.041 310.978C430.724 328.415 425.351 342.816 425.3 342.955C425.257 343.079 425.249 343.21 425.286 343.334C425.337 343.502 430.455 360.298 433.509 379.896C437.541 405.734 436.177 424.69 429.572 434.712C426.277 439.719 420.525 443.492 412.484 445.938C405.457 448.076 396.854 449.157 386.925 449.157C364.282 449.157 339.845 443.31 333.94 438.281C331.586 436.274 331.01 420.281 353.638 335.722C365.959 289.686 379.62 244.096 380.955 239.658C381.975 239.498 385.176 239.06 389.535 239.06L389.528 239.067Z" fill="#333333"/>
<path d="M271.678 466.631C250.551 464.156 228.907 461.682 209.894 452.193C215.304 441.339 219.204 434.033 219.204 434.033L368.156 438.566C369.891 440.427 374.017 444.799 379.164 451.127C362.142 455.886 345.148 460.609 327.521 465.463C309.106 470.441 290.399 468.974 271.686 466.631H271.678Z" fill="#333333"/>
<path d="M300.244 469.376C310.341 469.376 319.3 468.281 327.647 466.026C343.985 461.529 360.883 456.843 379.291 451.69C379.48 451.639 379.633 451.493 379.692 451.303C379.75 451.113 379.713 450.909 379.59 450.756C374.727 444.771 370.776 440.537 368.88 438.508L368.56 438.165C368.45 438.048 368.304 437.982 368.151 437.982L219.199 433.45C218.981 433.45 218.769 433.566 218.667 433.756C218.631 433.829 214.701 441.201 209.35 451.931C209.285 452.07 209.27 452.23 209.321 452.376C209.372 452.522 209.474 452.646 209.613 452.712C228.567 462.172 250.182 464.704 271.083 467.15L271.593 467.208C280.137 468.281 290.227 469.368 300.244 469.368V469.376ZM378.117 450.807C360.037 455.865 343.416 460.471 327.341 464.894C319.103 467.12 310.238 468.201 300.244 468.201C290.3 468.201 280.254 467.113 271.732 466.047L271.214 465.989C250.605 463.58 229.303 461.084 210.655 451.924C215.241 442.734 218.725 436.121 219.52 434.618L367.86 439.136L368.013 439.304C369.828 441.245 373.531 445.208 378.11 450.8L378.117 450.807Z" fill="#363636"/>
<path d="M179.52 525.103H415.246C410.42 493.79 391.728 466.652 379.138 451.164C362.116 455.923 345.13 460.631 327.495 465.477C309.08 470.455 290.373 468.981 271.66 466.638C250.533 464.163 228.888 461.718 209.876 452.229C199.844 472.367 184.623 504.615 179.512 525.103H179.52Z" fill="#9B3F27"/>
<path d="M178.778 525.688H415.934L415.832 525.016C411.18 494.798 393.56 467.974 379.6 450.792L379.359 450.493L378.987 450.595C362.774 455.128 345.883 459.814 327.351 464.908C319.121 467.135 310.263 468.215 300.283 468.215C290.303 468.215 280.279 467.12 271.749 466.054L270.998 465.967C250.28 463.543 228.847 461.033 210.148 451.697L209.623 451.434L209.36 451.96C198.214 474.324 183.896 505.148 178.953 524.951L178.771 525.681L178.778 525.688ZM414.57 524.513H180.28C185.317 504.944 199.205 475.01 210.155 453.011C228.912 462.222 250.236 464.719 270.867 467.135L271.611 467.222C280.169 468.295 290.281 469.39 300.29 469.39C310.3 469.39 319.332 468.295 327.665 466.04C346.058 460.981 362.84 456.332 378.943 451.821C392.671 468.77 409.839 495.002 414.578 524.513H414.57Z" fill="#333333"/>
<path d="M161.577 365.911C157.625 373.195 140.916 364.291 134.72 351.612C128.523 338.934 147.922 286.599 147.922 286.599L175.676 339.474L161.577 365.911Z" fill="#2B2B2B"/>
<path d="M71.2174 187.727C70.4811 180.807 69.4897 168.53 70.7436 160.975C70.7436 160.975 141.217 149.377 145.183 162.092C149.142 174.814 136.96 197.748 131.23 204.193C130.574 204.93 128.219 209.536 127.978 209.529C119.595 239.397 109.104 284.257 109.104 284.257L163.365 263.038C180.854 280.345 176.341 315.344 175.576 341.81C139.293 352.598 83.9825 379.933 51.9933 351.883C19.4137 323.307 62.7682 244.513 71.2174 187.727Z" fill="#FFC2D1"/>
<path d="M88.4232 364.743C110.075 364.743 134.11 356.444 155.317 349.123C162.578 346.612 169.438 344.247 175.744 342.371C175.985 342.298 176.153 342.079 176.16 341.824C176.262 338.204 176.437 334.488 176.619 330.554C177.757 305.796 179.054 277.738 163.774 262.622C163.606 262.461 163.366 262.41 163.147 262.49L109.922 283.3C111.577 276.278 120.937 236.798 128.49 209.857C128.745 209.55 129.131 208.879 129.962 207.411C130.597 206.295 131.377 204.901 131.661 204.579C137.544 197.966 149.762 174.836 145.738 161.916C144.404 157.632 136.647 155.544 122.031 155.544C100.343 155.544 70.9414 160.34 70.6498 160.391C70.4019 160.435 70.2124 160.624 70.1687 160.873C68.9002 168.507 69.9062 180.93 70.628 187.704C67.9452 205.674 61.6684 226.163 55.603 245.98C49.0856 267.249 42.3495 289.249 40.1843 307.876C39.0106 317.934 39.222 326.27 40.8332 333.342C42.6484 341.328 46.1695 347.532 51.6153 352.306C61.1435 360.663 73.1868 364.721 88.4232 364.721V364.743ZM175.008 341.371C168.79 343.233 162.061 345.561 154.938 348.014C133.819 355.305 109.885 363.568 88.4232 363.568C73.4784 363.568 61.6902 359.597 52.3807 351.437C42.5536 342.817 38.945 328.62 41.3435 308.015C43.5014 289.49 50.2228 267.549 56.7184 246.33C62.8056 226.447 69.1043 205.886 71.7944 187.806C71.8017 187.755 71.8017 187.704 71.7944 187.66C71.0945 181.084 70.1031 169.04 71.2476 161.486C74.9072 160.902 101.844 156.719 122.023 156.719C139.265 156.719 143.828 159.734 144.616 162.267C146.752 169.128 143.989 178.565 141.291 185.273C137.909 193.689 133.469 200.777 130.786 203.798C130.444 204.185 129.831 205.251 128.942 206.835C128.475 207.66 127.848 208.776 127.637 209.046C127.528 209.119 127.447 209.236 127.411 209.368C119.122 238.907 108.631 283.672 108.529 284.117C108.478 284.329 108.551 284.548 108.719 284.694C108.879 284.84 109.113 284.877 109.317 284.796L163.22 263.717C177.844 278.534 176.576 306.132 175.453 330.496C175.278 334.284 175.11 337.868 175.008 341.364V341.371Z" fill="#333333"/>
<path d="M135.624 137.034L206.571 145.311C211.463 150.34 212.119 165.026 204.574 170.274L132.744 169.887L135.624 137.034Z" fill="#333333"/>
<path d="M204.568 170.858C204.685 170.858 204.802 170.821 204.904 170.756C208.162 168.493 210.225 164.383 210.728 159.194C211.275 153.501 209.773 147.756 206.996 144.902C206.901 144.807 206.777 144.742 206.646 144.727L135.698 136.45C135.545 136.428 135.385 136.479 135.261 136.574C135.137 136.676 135.064 136.822 135.05 136.975L132.17 169.829C132.155 169.989 132.214 170.15 132.323 170.274C132.432 170.398 132.586 170.464 132.753 170.464L204.583 170.85L204.568 170.858ZM206.289 145.866C208.716 148.508 210.058 153.895 209.555 159.077C209.103 163.836 207.266 167.595 204.379 169.683L133.373 169.303L136.143 137.683L206.289 145.866Z" fill="#363636"/>
<path d="M47.1135 122.48L158.704 135.501C166.402 143.406 167.423 166.508 155.554 174.756L42.579 174.15L47.1062 122.48H47.1135Z" fill="#333333"/>
<path d="M155.548 175.339C155.665 175.339 155.781 175.303 155.883 175.237C160.928 171.734 164.129 165.362 164.894 157.303C165.74 148.442 163.421 139.516 159.113 135.092C159.018 134.997 158.894 134.932 158.763 134.917L47.1729 121.896C47.0125 121.874 46.8593 121.925 46.7354 122.02C46.6115 122.122 46.5386 122.268 46.524 122.421L41.9968 174.091C41.9822 174.252 42.0406 174.412 42.1499 174.536C42.2593 174.661 42.4124 174.726 42.5801 174.726L155.555 175.332L155.548 175.339ZM158.42 136.056C162.35 140.238 164.529 148.88 163.735 157.187C163.006 164.814 160.039 170.836 155.366 174.164L43.2143 173.566L47.6321 123.122L158.42 136.048V136.056Z" fill="#363636"/>
<path d="M122.158 113.954C128.259 109.552 136.352 112.509 141.659 121.559C146.966 130.61 146.609 138.647 142.475 140.041C138.342 141.435 129.477 137.318 128.311 133.895C127.151 130.472 122.15 113.954 122.15 113.954H122.158Z" fill="#FFC2D1"/>
<path d="M140.552 140.91C141.354 140.91 142.068 140.808 142.673 140.603C144.022 140.151 145.043 139.078 145.633 137.501C147.084 133.611 145.757 127.392 142.17 121.275C138.481 114.976 133.393 111.37 128.21 111.37C125.921 111.37 123.77 112.086 121.816 113.495C121.612 113.64 121.525 113.903 121.598 114.137C121.649 114.305 126.613 130.698 127.765 134.093C128.822 137.217 135.755 140.917 140.545 140.917L140.552 140.91ZM128.217 112.531C132.904 112.531 137.745 116.02 141.164 121.859C144.525 127.596 145.852 133.567 144.54 137.085C144.073 138.341 143.322 139.143 142.301 139.487C141.813 139.654 141.223 139.735 140.552 139.735C136.324 139.735 129.777 136.355 128.88 133.706C127.838 130.625 123.624 116.757 122.851 114.195C124.506 113.093 126.307 112.531 128.217 112.531Z" fill="#333333"/>
<path d="M140.449 136.932C141.754 136.932 143.19 136.574 144.553 135.494C144.808 135.289 144.845 134.924 144.648 134.669C144.451 134.414 144.079 134.37 143.824 134.574C140.828 136.954 137.423 135.151 136.658 134.684L134.478 128.662C136.702 126.793 141.746 127.166 141.797 127.166C142.125 127.195 142.402 126.954 142.424 126.625C142.446 126.304 142.213 126.02 141.885 125.998C141.637 125.976 135.812 125.545 133.37 128.085C133.217 128.246 133.166 128.479 133.239 128.691L135.615 135.26C135.659 135.377 135.732 135.479 135.834 135.545C135.863 135.567 137.904 136.917 140.441 136.917L140.449 136.932Z" fill="#333333"/>
<path d="M72.7407 126.588C72.7407 126.588 73.98 112.377 81.2118 109.939C88.4436 107.501 93.4957 113.443 93.4957 113.443C93.4957 113.443 98.8831 105.822 110.329 113.538C110.329 113.538 113.041 107.968 121.891 110.443C130.741 112.917 139.868 137.055 133.861 139.843C127.854 142.632 119.645 135.289 119.645 135.289C119.645 135.289 121.162 141.427 115.264 142.924C109.366 144.42 100.917 133.785 100.917 133.785C100.917 133.785 100.727 141.603 95.0339 141.296C85.2724 140.77 80.5775 127.26 80.5775 127.26L72.7407 126.596V126.588Z" fill="#FFC2D1"/>
<path d="M114.074 143.639C114.533 143.639 114.985 143.588 115.408 143.479C119.898 142.34 120.46 138.72 120.387 136.64C122.377 138.172 126.678 141.048 130.855 141.048C132.029 141.048 133.123 140.815 134.1 140.362C135.827 139.559 136.593 137.333 136.316 133.924C135.66 125.815 129.004 111.815 122.042 109.874C120.489 109.436 119.009 109.217 117.646 109.217C113.111 109.217 110.917 111.596 110.137 112.713C106.827 110.575 103.692 109.494 100.805 109.494C96.8032 109.494 94.3974 111.553 93.457 112.56C92.3052 111.421 89.1266 108.757 84.6869 108.757C83.4622 108.757 82.2229 108.961 81.0127 109.378C73.5039 111.91 72.1917 125.939 72.1406 126.538C72.1261 126.691 72.1771 126.844 72.2792 126.968C72.3812 127.085 72.5197 127.158 72.6801 127.173L80.1452 127.8C80.9909 130.027 85.744 141.377 94.9952 141.873C99.2526 142.099 100.915 138.172 101.36 135.224C103.547 137.727 109.233 143.647 114.059 143.647L114.074 143.639ZM119.643 134.691C119.541 134.691 119.432 134.72 119.344 134.778C119.126 134.91 119.016 135.172 119.082 135.421C119.14 135.647 120.379 141.012 115.123 142.347C114.795 142.428 114.438 142.472 114.074 142.472C108.635 142.472 101.447 133.501 101.374 133.413C101.221 133.224 100.966 133.143 100.733 133.224C100.499 133.304 100.339 133.516 100.332 133.764C100.324 134.056 100.084 140.975 95.0681 140.705C85.8097 140.209 81.1731 127.187 81.1294 127.056C81.0565 126.837 80.8597 126.684 80.6264 126.662L73.3872 126.049C73.7153 123.392 75.4212 112.502 81.3991 110.487C82.4926 110.115 83.608 109.932 84.7015 109.932C89.6734 109.932 93.0196 113.779 93.056 113.815C93.1727 113.954 93.3549 114.027 93.5299 114.02C93.7121 114.012 93.8798 113.918 93.9819 113.772C94.0693 113.647 96.2637 110.662 100.827 110.662C103.619 110.662 106.71 111.793 110.013 114.012C110.151 114.107 110.326 114.136 110.494 114.093C110.654 114.049 110.793 113.939 110.866 113.786C110.931 113.647 112.615 110.385 117.66 110.385C118.914 110.385 120.285 110.589 121.735 110.998C127.713 112.669 134.471 125.589 135.157 134.019C135.39 136.859 134.843 138.734 133.618 139.304C132.795 139.691 131.869 139.88 130.863 139.88C125.73 139.88 120.095 134.895 120.037 134.844C119.927 134.749 119.789 134.698 119.65 134.698L119.643 134.691Z" fill="#333333"/>
<path d="M100.926 134.362C100.926 134.362 100.992 134.362 101.028 134.355C101.349 134.296 101.56 133.997 101.502 133.676C99.3369 121.501 94.0515 113.209 94.0005 113.122C93.8255 112.852 93.461 112.771 93.1913 112.947C92.9215 113.122 92.8414 113.487 93.0163 113.757C93.0673 113.837 98.2288 121.954 100.35 133.88C100.401 134.165 100.649 134.362 100.926 134.362Z" fill="#333333"/>
<path d="M119.654 135.865C119.713 135.865 119.771 135.858 119.837 135.836C120.143 135.734 120.311 135.405 120.216 135.099C115.769 121.26 110.892 113.304 110.841 113.223C110.673 112.946 110.308 112.866 110.039 113.034C109.762 113.201 109.681 113.566 109.849 113.836C109.9 113.917 114.712 121.763 119.108 135.456C119.188 135.704 119.414 135.865 119.662 135.865H119.654Z" fill="#333333"/>
<path d="M94.9417 136.99C96.2466 136.99 97.6828 136.632 99.046 135.552C99.3012 135.348 99.3449 134.983 99.1408 134.727C98.944 134.472 98.5722 134.428 98.317 134.632C95.3208 137.012 91.9163 135.209 91.1508 134.742L88.9711 128.72C91.1946 126.852 96.2393 127.224 96.2904 127.224C96.6111 127.246 96.8954 127.012 96.9173 126.684C96.9392 126.363 96.7059 126.078 96.3778 126.056C96.13 126.034 90.3052 125.603 87.863 128.144C87.7099 128.304 87.6588 128.538 87.7317 128.749L90.1083 135.319C90.1521 135.435 90.225 135.538 90.327 135.603C90.3562 135.625 92.3974 136.975 94.9344 136.975L94.9417 136.99Z" fill="#333333"/>
<path d="M113.328 139.399C114.632 139.399 116.069 139.041 117.432 137.961C117.687 137.756 117.724 137.391 117.527 137.136C117.33 136.881 116.958 136.837 116.703 137.041C113.707 139.421 110.302 137.618 109.537 137.151L107.357 131.129C109.58 129.26 114.625 129.633 114.676 129.633C114.997 129.662 115.281 129.421 115.303 129.092C115.325 128.771 115.092 128.487 114.764 128.465C114.516 128.443 108.691 128.012 106.249 130.552C106.096 130.713 106.045 130.946 106.118 131.158L108.494 137.727C108.538 137.844 108.611 137.946 108.713 138.012C108.742 138.034 110.783 139.384 113.32 139.384L113.328 139.399Z" fill="#333333"/>
<path d="M129.293 136.961C130.598 136.961 132.034 136.603 133.398 135.523C133.653 135.319 133.696 134.954 133.492 134.698C133.288 134.443 132.924 134.399 132.669 134.603C129.672 136.983 126.268 135.18 125.502 134.713L123.323 128.691C125.546 126.823 130.591 127.195 130.642 127.195C130.97 127.224 131.247 126.983 131.269 126.655C131.291 126.334 131.057 126.049 130.729 126.027C130.482 126.005 124.657 125.574 122.215 128.114C122.061 128.275 122.01 128.509 122.083 128.72L124.46 135.289C124.504 135.406 124.577 135.508 124.679 135.574C124.708 135.596 126.749 136.946 129.286 136.946L129.293 136.961Z" fill="#333333"/>
<path d="M152.2 163.39C152.587 163.39 152.915 163.084 152.929 162.69C152.944 162.288 152.63 161.945 152.229 161.93L113.818 160.332C113.417 160.317 113.074 160.631 113.059 161.033C113.045 161.434 113.358 161.777 113.759 161.792L152.171 163.39C152.171 163.39 152.193 163.39 152.2 163.39Z" fill="white"/>
<path d="M102.895 161.384C103.281 161.384 103.602 161.077 103.624 160.69C103.646 160.289 103.332 159.946 102.931 159.924L66.8598 158.077C66.4588 158.055 66.1162 158.369 66.0943 158.771C66.0724 159.172 66.3859 159.515 66.7868 159.537L102.858 161.384C102.858 161.384 102.88 161.384 102.895 161.384Z" fill="white"/>
<path d="M72.8551 347.81C73.5769 347.81 74.3132 347.737 75.0495 347.576C77.5573 347.138 80.3421 345.219 80.8305 342.372C81.5887 337.956 76.9887 334.971 74.9766 333.89C72.374 332.496 70.0485 332.007 68.051 332.431C66.6877 332.722 65.3682 333.679 64.61 334.927C63.9757 335.978 63.7789 337.138 64.0705 338.197C64.1288 338.416 64.3111 338.584 64.5371 338.62C65.0328 338.708 65.5358 338.795 65.842 338.956C66.1263 339.109 66.4836 339 66.6367 338.715C66.7898 338.43 66.6804 338.073 66.3961 337.919C66.0316 337.722 65.5869 337.62 65.1349 337.533C65.0547 336.883 65.2224 336.182 65.616 335.533C66.2138 334.555 67.2417 333.803 68.3061 333.576C70.4421 333.117 72.8187 334.058 74.4298 334.927C76.2159 335.883 80.3129 338.518 79.686 342.182C79.2923 344.496 76.9522 346.073 74.8454 346.437C74.8381 346.437 74.8235 346.437 74.8162 346.437C72.826 346.883 70.6244 346.627 67.6719 345.598C64.661 344.613 60.892 343.102 58.3186 340.175C56.2336 337.518 55.388 333.175 57.575 330.489C59.2445 328.38 62.2043 327.46 66.6294 327.686C70.8285 327.89 75.1953 329.066 79.6131 331.168C79.9047 331.306 80.2546 331.182 80.3932 330.89C80.5317 330.598 80.4077 330.248 80.1161 330.109C75.5598 327.942 71.0472 326.73 66.6877 326.511C61.8616 326.27 58.5811 327.328 56.6638 329.752C54.1049 332.89 55.038 337.89 57.4146 340.905C57.4146 340.912 57.4292 340.919 57.4365 340.927C60.1995 344.08 64.158 345.664 67.3 346.7C68.8674 347.248 70.8139 347.81 72.8697 347.81H72.8551Z" fill="#363636"/>
<path d="M104.285 304.715C104.548 304.715 104.788 304.54 104.854 304.27L110.271 282.591C110.351 282.277 110.161 281.956 109.848 281.883C109.534 281.803 109.214 281.993 109.141 282.307L103.724 303.985C103.644 304.299 103.833 304.613 104.147 304.693C104.198 304.708 104.242 304.708 104.293 304.708L104.285 304.715Z" fill="#2B2B2B"/>
<path d="M452.035 339.028C452.91 337.568 453.792 336.101 454.667 334.933C459.347 327.912 463.146 321.175 468.701 315.321C471.588 312.43 475.16 310.438 478.965 308.92C481.859 311.496 484.528 313.971 486.875 316.27C484.061 317.62 481.444 319.386 478.965 321.474C462.38 335.408 452.014 363.356 430.61 371.962C426.513 373.604 422.029 374.538 417.006 374.538L409.563 369.144C409.789 369.057 410.015 368.969 410.234 368.874C426.017 362.144 441.508 353.948 452.035 339.021V339.028Z" fill="#FE7344"/>
<path d="M416.802 375.13H416.992C421.884 375.13 426.404 374.276 430.807 372.51C443.907 367.24 452.903 354.839 461.6 342.854C467.374 334.898 472.82 327.387 479.323 321.927C481.911 319.752 484.455 318.081 487.108 316.803L487.859 316.446L487.262 315.862C485.016 313.657 482.348 311.176 479.337 308.49L479.067 308.249L478.732 308.38C474.329 310.132 470.91 312.263 468.263 314.913C463.933 319.475 460.689 324.511 457.263 329.847C456.264 331.394 455.236 333 454.172 334.598C453.282 335.788 452.393 337.277 451.525 338.715C440.955 353.7 425.317 361.809 409.986 368.349C409.855 368.4 409.724 368.452 409.592 368.51L408.339 369.014L416.788 375.138L416.802 375.13ZM485.869 316.117C483.398 317.38 481.007 318.993 478.579 321.029C471.967 326.584 466.477 334.153 460.66 342.168C452.058 354.021 443.164 366.284 430.377 371.43C426.17 373.116 421.854 373.948 417.181 373.97L410.744 369.306C426.148 362.722 441.829 354.51 452.502 339.379L452.524 339.343C453.377 337.92 454.259 336.445 455.119 335.299L455.141 335.27C456.213 333.657 457.248 332.044 458.254 330.489C461.651 325.205 464.866 320.212 469.109 315.738C471.559 313.285 474.744 311.278 478.834 309.614C481.466 311.964 483.828 314.154 485.862 316.132L485.869 316.117Z" fill="#333333"/>
<path d="M139.11 270.702C161.542 294.219 169.255 326.934 169.969 359.356C172.367 357.48 174.642 355.656 176.348 354.086C177.135 353.597 177.893 353.108 178.615 352.627C181.334 350.816 183.572 349.065 185.074 347.452C185.074 347.452 186.802 358.641 198.007 383.816C198.685 385.341 204.663 432.325 214.14 440.281C214.14 440.281 271.273 462.434 331.81 448.084C341.462 445.792 351.216 442.58 360.832 438.201L362.793 431.603L386.821 352.67L409.559 369.152C409.778 369.064 410.011 368.977 410.23 368.882C426.013 362.152 441.505 353.955 452.032 339.028C452.907 337.569 453.789 336.101 454.663 334.934C459.344 327.912 463.142 321.175 468.697 315.321C471.584 312.431 475.156 310.438 478.969 308.92C458.848 291.008 427.814 267.957 418.461 260.009C409.815 251.286 401.628 244.279 395.431 241.447C381.303 235.017 357.07 230.71 340.66 228.36C330.549 226.915 323.404 226.207 323.404 226.207L263.436 225.148C258.777 224.747 254.768 224.119 251.064 223.52C250.328 223.404 249.606 223.287 248.892 223.17C239.561 221.681 231.818 220.754 219.68 225.009C215.707 226.404 211.26 228.352 206.135 231.017C202.213 233.053 181.655 246.199 175.422 252.6L139.139 270.694L139.11 270.702Z" fill="white"/>
<path d="M288.777 453.5C303.838 453.5 318.36 451.865 331.941 448.647C342.111 446.238 351.909 442.895 361.073 438.727C361.226 438.654 361.343 438.523 361.394 438.362L363.355 431.764L387.15 353.62L409.224 369.619C409.385 369.736 409.603 369.765 409.786 369.685C409.88 369.649 409.968 369.612 410.063 369.576C410.194 369.525 410.332 369.473 410.464 369.415C425.962 362.809 441.775 354.591 452.513 339.357C452.52 339.343 452.528 339.336 452.535 339.321C453.388 337.898 454.27 336.423 455.13 335.27C455.13 335.263 455.145 335.255 455.152 335.241C456.224 333.628 457.259 332.015 458.265 330.46C461.662 325.175 464.877 320.183 469.12 315.708C471.635 313.19 474.93 311.139 479.18 309.446C479.37 309.373 479.508 309.205 479.538 309.001C479.574 308.803 479.501 308.599 479.348 308.46C466.248 296.796 448.285 282.768 435.17 272.527C428.164 267.06 422.113 262.33 418.847 259.564C409.137 249.768 401.336 243.491 395.657 240.9C381.689 234.543 358.077 230.251 340.726 227.762C330.717 226.331 323.514 225.616 323.441 225.609C323.427 225.609 323.412 225.609 323.397 225.609L263.451 224.55C258.967 224.163 255.074 223.565 251.145 222.93C250.409 222.813 249.68 222.696 248.972 222.579C244.832 221.915 240.756 221.324 236.463 221.324C230.951 221.324 225.549 222.317 219.477 224.448C215.336 225.9 210.874 227.879 205.859 230.492C201.885 232.557 181.415 245.652 175.065 252.112L138.869 270.162C138.702 270.242 138.585 270.403 138.556 270.585C138.527 270.768 138.578 270.958 138.709 271.089C158.239 291.563 168.57 321.263 169.408 359.35C169.408 359.569 169.539 359.773 169.743 359.868C169.94 359.963 170.181 359.934 170.356 359.802C172.484 358.138 174.905 356.211 176.727 354.539C177.566 354.014 178.295 353.547 178.958 353.102C181.371 351.496 183.303 349.999 184.732 348.635C185.461 352.051 188.319 363.444 197.49 384.042C197.599 384.327 197.949 386.451 198.364 388.911C200.617 402.429 205.902 434.099 213.783 440.72C213.834 440.764 213.885 440.793 213.951 440.815C214.279 440.939 247.135 453.493 288.798 453.493L288.777 453.5ZM360.344 437.771C351.326 441.858 341.681 445.136 331.672 447.508C318.178 450.705 303.743 452.325 288.777 452.325C248.418 452.325 216.386 440.493 214.439 439.756C206.93 433.267 201.536 400.918 199.502 388.714C198.904 385.145 198.692 383.896 198.547 383.561C187.517 358.78 185.679 347.459 185.658 347.35C185.621 347.131 185.468 346.948 185.249 346.883C185.038 346.817 184.805 346.883 184.652 347.043C183.252 348.547 181.109 350.255 178.295 352.131C177.624 352.576 176.888 353.05 176.042 353.583C176.013 353.605 175.984 353.627 175.954 353.649C174.409 355.072 172.411 356.693 170.531 358.174C169.51 320.694 159.267 291.337 140.08 270.87L175.656 253.126C175.714 253.097 175.765 253.06 175.816 253.009C182.013 246.644 202.425 233.594 206.383 231.535C211.355 228.952 215.759 226.995 219.848 225.557C225.797 223.47 231.075 222.499 236.448 222.499C240.654 222.499 244.679 223.083 248.768 223.74C249.483 223.857 250.204 223.974 250.941 224.09C254.899 224.725 258.829 225.331 263.356 225.725C263.37 225.725 263.385 225.725 263.392 225.725L323.339 226.784C323.798 226.827 330.855 227.543 340.551 228.93C357.829 231.404 381.325 235.674 395.169 241.973C400.717 244.499 408.408 250.703 418.031 260.411C418.045 260.425 418.053 260.432 418.067 260.447C421.348 263.228 427.129 267.746 434.441 273.461C447.308 283.512 464.855 297.213 477.861 308.73C473.873 310.417 470.731 312.438 468.267 314.905C463.937 319.467 460.693 324.504 457.266 329.839C456.268 331.387 455.24 332.993 454.175 334.591C453.286 335.781 452.396 337.263 451.529 338.708C440.958 353.693 425.314 361.802 409.99 368.342C409.873 368.393 409.749 368.437 409.632 368.488L387.157 352.196C387.004 352.087 386.807 352.058 386.625 352.116C386.443 352.175 386.304 352.321 386.253 352.503L362.225 431.435L360.337 437.778L360.344 437.771Z" fill="#363636"/>
<path d="M130.672 274.913L139.113 270.701C161.545 294.219 169.258 326.926 169.973 359.349C167.093 361.597 164.031 363.903 161.574 365.903C162.413 336.444 150.136 294.168 130.679 274.906L130.672 274.913Z" fill="#FE7344"/>
<path d="M160.959 367.167L161.95 366.364C163.598 365.028 165.471 363.576 167.461 362.043C168.424 361.298 169.393 360.554 170.341 359.809L170.574 359.627V359.335C169.721 320.949 159.282 290.986 139.547 270.293L139.248 269.979L129.691 274.746L130.274 275.322C150.286 295.125 161.804 337.751 161.002 365.889L160.966 367.167H160.959ZM169.393 359.072C168.518 359.751 167.629 360.437 166.747 361.116C165.136 362.357 163.598 363.546 162.198 364.663C162.635 336.554 151.255 295.03 131.674 275.067L139.001 271.41C158.283 291.826 168.511 321.307 169.393 359.065V359.072Z" fill="#333333"/>
<path d="M331.124 448.639C331.35 448.442 331.576 448.259 331.802 448.077C347.097 435.464 355.729 432.464 362.785 431.603C363.412 431.515 364.025 431.45 364.63 431.406C372.175 430.8 400.096 438.106 406.694 439.347C407.16 439.442 407.78 439.544 408.538 439.625L463.338 401.326L430.598 371.955C452.002 363.342 462.369 335.394 478.954 321.467C508.194 350.138 545.119 387.312 547.802 403.246C553.576 437.559 476.584 474.711 441.227 489.01C423.964 495.535 409.26 501.513 409.26 501.513C409.26 501.513 385.356 514.353 375.084 505.477C375.084 505.477 374.719 512.827 367.313 513.863C359.971 514.944 341.433 502.63 342.06 492.28C342.06 492.28 336.227 485.762 340.354 477.594C340.354 477.594 334.718 473.711 337.583 466.142C337.583 466.142 319.577 476.113 316.581 464.069C316.581 464.069 314.08 462.901 331.117 448.624L331.124 448.639Z" fill="#FFC2D1"/>
<path d="M366.354 514.52C366.726 514.52 367.076 514.498 367.404 514.447C373.44 513.601 375.088 508.747 375.518 506.572C377.945 508.316 381.153 509.199 385.068 509.199C395.938 509.199 408.652 502.513 409.512 502.053C410.248 501.754 424.734 495.878 441.435 489.565C460.441 481.879 554.855 441.624 548.382 403.158C545.823 387.969 513.702 354.721 479.366 321.058C479.154 320.846 478.812 320.832 478.579 321.029C471.966 326.583 466.477 334.153 460.659 342.167C452.057 354.021 443.163 366.283 430.376 371.422C430.187 371.495 430.055 371.663 430.019 371.867C429.982 372.064 430.055 372.268 430.201 372.407L462.394 401.29L408.382 439.033C407.762 438.96 407.223 438.873 406.814 438.785C405.101 438.464 402.018 437.748 398.103 436.836C387.729 434.427 372.055 430.792 365.618 430.792C365.239 430.792 364.889 430.807 364.583 430.829C363.978 430.873 363.343 430.938 362.709 431.026C356.243 431.814 347.465 434.413 331.434 447.631C331.201 447.821 330.975 448.004 330.749 448.201C323.794 454.025 315.571 461.485 315.885 463.93C315.914 464.127 315.979 464.273 316.059 464.383C317.131 468.463 320.084 470.624 324.596 470.624C329.204 470.624 334.285 468.448 336.603 467.324C335.043 473.178 338.433 476.733 339.636 477.777C336.151 485.222 340.562 491.353 341.473 492.499C341.32 496.915 344.345 501.104 346.941 503.864C352.474 509.747 361.178 514.535 366.354 514.535V514.52ZM375.088 504.9C375.008 504.9 374.935 504.915 374.854 504.944C374.65 505.031 374.512 505.228 374.497 505.455C374.483 505.732 374.053 512.331 367.229 513.287C366.952 513.33 366.66 513.345 366.347 513.345C361.455 513.345 353.123 508.725 347.786 503.046C345.308 500.404 342.399 496.404 342.647 492.324C342.654 492.17 342.603 492.017 342.501 491.9C342.275 491.645 336.989 485.572 340.882 477.872C341.014 477.609 340.933 477.288 340.693 477.127C340.481 476.981 335.473 473.39 338.141 466.368C338.229 466.142 338.163 465.879 337.981 465.719C337.799 465.558 337.529 465.529 337.318 465.646C337.252 465.682 330.377 469.448 324.604 469.448C320.521 469.448 318.086 467.645 317.168 463.945C317.146 463.865 317.109 463.784 317.058 463.719C317.087 463.251 317.955 460.456 331.515 449.091C331.741 448.901 331.952 448.726 332.171 448.551C347.99 435.508 356.563 432.96 362.877 432.187C363.496 432.099 364.101 432.041 364.692 431.997C364.976 431.975 365.29 431.96 365.64 431.96C371.946 431.96 387.539 435.581 397.862 437.975C401.784 438.887 404.883 439.602 406.61 439.931C407.099 440.033 407.755 440.135 408.498 440.216C408.637 440.23 408.783 440.194 408.899 440.113L463.699 401.815C463.845 401.713 463.94 401.552 463.947 401.37C463.955 401.195 463.889 401.019 463.75 400.895L431.696 372.144C444.329 366.685 453.121 354.575 461.622 342.846C467.272 335.058 472.615 327.693 478.943 322.262C493.421 336.466 509.912 352.904 522.917 367.524C537.891 384.363 546.078 396.421 547.244 403.348C548.564 411.165 545.495 419.712 538.124 428.749C531.775 436.537 522.188 444.748 509.635 453.157C483.849 470.426 453.063 483.609 441.027 488.477C423.968 494.929 409.206 500.922 409.06 500.98C409.038 500.988 409.023 500.995 409.001 501.01C408.87 501.083 395.799 508.031 385.083 508.031C381.007 508.031 377.778 507.024 375.481 505.046C375.372 504.951 375.234 504.907 375.102 504.907L375.088 504.9Z" fill="#333333"/>
<path d="M342.018 492.951C342.266 492.951 342.499 492.791 342.572 492.543C344.264 487.229 347.522 483.339 352.261 480.988C355.818 479.222 358.917 479.032 358.953 479.032C359.274 479.018 359.522 478.74 359.507 478.419C359.493 478.098 359.216 477.85 358.895 477.864C358.764 477.864 345.743 478.718 341.464 492.185C341.369 492.492 341.537 492.82 341.843 492.922C341.902 492.944 341.96 492.951 342.018 492.951Z" fill="#2B2B2B"/>
<path d="M340.322 478.259C340.512 478.259 340.701 478.164 340.818 477.989C346.636 468.902 354.779 466.595 354.859 466.566C355.172 466.479 355.355 466.157 355.267 465.851C355.18 465.544 354.859 465.354 354.553 465.442C354.203 465.537 345.892 467.902 339.834 477.361C339.659 477.632 339.739 477.996 340.009 478.172C340.104 478.237 340.213 478.267 340.322 478.267V478.259Z" fill="#2B2B2B"/>
<path d="M321.019 467.361C321.121 467.361 321.23 467.332 321.325 467.273L327.762 463.31C327.959 463.186 328.069 462.952 328.032 462.726C327.303 457.945 323.396 455.544 323.228 455.449C322.951 455.281 322.594 455.376 322.426 455.653C322.258 455.93 322.353 456.288 322.623 456.456C322.667 456.485 326.02 458.558 326.807 462.529L321.128 466.032L318.883 463.492C318.672 463.251 318.3 463.23 318.059 463.441C317.819 463.653 317.797 464.025 318.008 464.266L320.582 467.171C320.698 467.302 320.859 467.368 321.019 467.368V467.361Z" fill="#2B2B2B"/>
<path d="M375.038 506.148C375.249 506.148 375.446 506.039 375.555 505.841C375.709 505.557 375.599 505.199 375.322 505.046C367.135 500.623 362.805 493.017 362.761 492.944C362.601 492.659 362.244 492.564 361.967 492.718C361.682 492.878 361.588 493.229 361.741 493.513C361.923 493.834 366.268 501.484 374.761 506.075C374.848 506.126 374.943 506.148 375.038 506.148Z" fill="#2B2B2B"/>
<path d="M364.077 496.564C364.369 496.564 364.624 496.345 364.66 496.046C364.697 495.725 364.463 495.433 364.143 495.396L361.584 495.104C361.263 495.068 360.971 495.301 360.935 495.622C360.899 495.944 361.132 496.235 361.453 496.272L364.011 496.564C364.011 496.564 364.055 496.564 364.077 496.564Z" fill="#2B2B2B"/>
<path d="M373.489 444.332C373.562 444.332 373.635 444.317 373.708 444.288L384.432 439.967C384.731 439.843 384.877 439.507 384.753 439.208C384.629 438.908 384.293 438.762 383.994 438.887L373.271 443.208C372.972 443.332 372.826 443.667 372.95 443.967C373.045 444.193 373.263 444.332 373.489 444.332Z" fill="#2B2B2B"/>
<path d="M382.934 444.815C383.117 444.815 383.292 444.734 383.408 444.574C383.598 444.311 383.539 443.946 383.277 443.756L375.127 437.8C374.864 437.61 374.5 437.669 374.31 437.932C374.121 438.194 374.179 438.559 374.441 438.749L382.592 444.698C382.694 444.771 382.818 444.807 382.934 444.807V444.815Z" fill="#2B2B2B"/>
<path d="M374.134 461.813C374.207 461.813 374.28 461.799 374.353 461.77L385.076 457.449C385.375 457.324 385.521 456.989 385.397 456.689C385.273 456.39 384.938 456.244 384.639 456.368L373.915 460.689C373.616 460.813 373.471 461.149 373.594 461.448C373.689 461.675 373.908 461.813 374.134 461.813Z" fill="#2B2B2B"/>
<path d="M383.579 462.296C383.762 462.296 383.944 462.208 384.053 462.047C384.243 461.785 384.184 461.42 383.915 461.23L375.721 455.354C375.458 455.164 375.094 455.223 374.904 455.486C374.715 455.748 374.773 456.113 375.043 456.303L383.237 462.179C383.339 462.252 383.455 462.288 383.579 462.288V462.296Z" fill="#2B2B2B"/>
<path d="M374.169 476.929C374.242 476.929 374.315 476.915 374.388 476.886L385.112 472.564C385.41 472.44 385.556 472.105 385.432 471.805C385.308 471.506 384.973 471.36 384.674 471.484L373.95 475.805C373.651 475.929 373.506 476.265 373.63 476.564C373.724 476.791 373.943 476.929 374.169 476.929Z" fill="#2B2B2B"/>
<path d="M383.614 477.412C383.796 477.412 383.971 477.332 384.088 477.172C384.277 476.909 384.219 476.544 383.957 476.354L375.806 470.398C375.544 470.208 375.179 470.267 374.99 470.529C374.8 470.792 374.859 471.157 375.121 471.347L383.271 477.303C383.373 477.376 383.497 477.412 383.614 477.412Z" fill="#2B2B2B"/>
<path d="M337.666 466.785C337.877 466.785 338.081 466.675 338.183 466.471C338.234 466.376 343.192 457.223 354.003 453.464C354.309 453.354 354.47 453.026 354.36 452.719C354.251 452.413 353.923 452.252 353.617 452.362C342.353 456.274 337.352 465.536 337.148 465.931C336.995 466.215 337.104 466.573 337.389 466.719C337.476 466.763 337.571 466.785 337.658 466.785H337.666Z" fill="#2B2B2B"/>
<path d="M285.74 244.9C287.54 244.9 289.334 244.849 291.105 244.805C294.335 244.717 297.674 244.63 300.932 244.834C301.085 244.842 301.231 244.725 301.246 244.557C301.253 244.396 301.136 244.258 300.969 244.243C297.681 244.039 294.335 244.126 291.091 244.214C286.06 244.353 280.855 244.491 275.862 243.506C271.721 242.696 267.799 241.148 264.219 238.907C264.081 238.82 263.898 238.864 263.818 239.002C263.731 239.141 263.774 239.323 263.913 239.404C267.558 241.681 271.538 243.25 275.752 244.075C279.04 244.717 282.401 244.885 285.747 244.885L285.74 244.9Z" fill="#313131"/>
<path d="M44.6264 174.626C38.392 174.203 34.144 161.931 35.1383 147.215C36.1326 132.498 41.9927 120.91 48.2271 121.333C54.4616 121.755 58.7096 134.027 57.7153 148.744C56.721 163.46 50.8609 175.048 44.6264 174.626Z" fill="#E9F6FF"/>
<path d="M44.9537 175.179C51.4346 175.179 57.2959 163.566 58.3019 148.742C58.7904 141.545 58.0541 134.698 56.2388 129.443C54.3653 124.027 51.5367 120.925 48.2707 120.706C48.1468 120.698 48.0228 120.691 47.8989 120.691C41.418 120.691 35.5567 132.304 34.5507 147.128C33.5155 162.398 37.926 174.712 44.5819 175.164C44.7058 175.171 44.8297 175.179 44.9537 175.179ZM47.8989 121.866C47.9937 121.866 48.0957 121.866 48.1905 121.874C50.917 122.056 53.4467 124.954 55.1307 129.83C56.8949 134.932 57.6094 141.625 57.1355 148.661C56.1878 162.639 50.7275 174.004 44.9537 174.004C44.8589 174.004 44.7569 174.004 44.6621 173.996C41.9356 173.814 39.4059 170.916 37.7219 166.04C35.9576 160.938 35.2432 154.245 35.7171 147.209C36.6648 133.231 42.1251 121.866 47.8916 121.866H47.8989Z" fill="#333333"/>
<path d="M374.834 233.863C374.834 233.863 359.343 266.672 353.977 293C346.169 331.306 355.34 354.78 375.738 391.735L368.937 417.61C368.937 417.61 326.107 366.947 330.853 309.898C335.059 259.351 353.591 229.819 353.591 229.819L374.834 233.87V233.863Z" fill="#4F6329"/>
<path d="M368.946 418.194C368.99 418.194 369.034 418.194 369.078 418.18C369.289 418.128 369.457 417.968 369.515 417.756L376.317 391.881C376.353 391.735 376.339 391.582 376.266 391.45C355.183 353.262 347.047 329.999 354.563 293.117C359.856 267.162 375.223 234.44 375.376 234.111C375.457 233.951 375.449 233.761 375.369 233.593C375.289 233.433 375.136 233.316 374.961 233.287L353.717 229.236C353.484 229.192 353.243 229.294 353.112 229.498C353.068 229.571 348.388 237.089 343.271 250.688C338.554 263.227 332.467 283.665 330.287 309.839C329.201 322.919 330.535 336.744 334.253 350.933C337.227 362.276 341.718 373.874 347.608 385.407C357.639 405.034 368.4 417.851 368.502 417.982C368.611 418.114 368.779 418.187 368.946 418.187V418.194ZM375.121 391.815L368.669 416.347C366.103 413.143 357.107 401.45 348.629 384.852C339.443 366.867 329.004 339.269 331.439 309.941C333.604 283.898 339.655 263.57 344.349 251.104C348.818 239.228 352.93 232.06 353.885 230.462L373.991 234.294C371.746 239.155 358.303 268.877 353.411 292.876C349.591 311.613 349.686 327.08 353.717 343.014C357.596 358.327 365.075 373.604 375.121 391.808V391.815Z" fill="#333333"/>
<path d="M183.096 350.882C185.808 349.071 183.57 349.057 185.079 347.444C192.216 279.759 234.185 236.432 248.875 223.177C239.544 221.688 231.801 220.761 219.663 225.016C174.516 282.679 181.623 337.079 183.096 350.882Z" fill="#4F6329"/>
<path d="M183.095 351.466C183.212 351.466 183.321 351.429 183.416 351.371C184.969 350.334 185.202 349.707 185.1 348.845C185.063 348.546 185.042 348.342 185.501 347.845C185.588 347.75 185.639 347.634 185.654 347.51C192.842 279.336 236.153 235.447 249.26 223.615C249.428 223.462 249.494 223.228 249.428 223.016C249.362 222.798 249.18 222.637 248.961 222.608C244.821 221.944 240.745 221.352 236.452 221.352C230.94 221.352 225.538 222.345 219.466 224.476C219.364 224.513 219.269 224.578 219.196 224.666C200.373 248.709 188.388 274.993 183.569 302.788C179.698 325.138 181.593 342.539 182.403 349.969L182.512 350.955C182.534 351.159 182.658 351.334 182.847 351.422C182.927 351.458 183.008 351.48 183.095 351.48V351.466ZM184.517 347.196C183.875 347.94 183.875 348.466 183.941 348.984C183.97 349.21 183.992 349.407 183.569 349.794C178.648 304.562 190.91 262.753 220.02 225.513C225.903 223.469 231.13 222.513 236.459 222.513C240.25 222.513 243.902 222.987 247.584 223.564C240.046 230.483 226.406 244.388 213.655 264.585C197.42 290.314 187.615 318.102 184.524 347.196H184.517Z" fill="#333333"/>
<path d="M386.825 353.254C387.007 353.254 387.19 353.166 387.299 353.013C387.488 352.75 387.43 352.385 387.168 352.196L370.291 340.05C370.029 339.86 369.664 339.919 369.474 340.181C369.285 340.444 369.343 340.809 369.606 340.999L386.482 353.145C386.584 353.218 386.708 353.254 386.825 353.254Z" fill="#313131"/>
<path d="M301.307 369.757C307.016 369.757 313.263 369.173 319.97 367.706C320.284 367.641 320.488 367.327 320.415 367.013C320.349 366.699 320.036 366.495 319.722 366.568C300.615 370.735 285.262 367.677 275.748 364.378C265.455 360.809 259.622 356.21 259.564 356.166C259.309 355.962 258.944 356.006 258.74 356.261C258.536 356.517 258.58 356.882 258.835 357.086C259.076 357.276 264.886 361.852 275.362 365.487C281.675 367.677 290.525 369.765 301.307 369.765V369.757Z" fill="#313131"/>
<path d="M251.8 261.761C262.028 269.074 283.665 269.666 305.295 262.637C322.624 257.009 336.016 236.353 340.652 228.36C330.541 226.915 323.397 226.207 323.397 226.207L263.428 225.148C258.77 224.747 254.76 224.119 251.057 223.521C245.975 233.601 242.534 255.126 251.8 261.753V261.761Z" fill="#FE7344"/>
<path d="M275.709 268.176C285.142 268.176 295.429 266.453 305.467 263.198C322.854 257.556 336.217 237.162 341.152 228.659L341.59 227.907L340.73 227.783C330.72 226.352 323.518 225.637 323.445 225.63H323.401L263.454 224.571C258.971 224.184 255.078 223.586 251.148 222.951L250.726 222.885L250.536 223.265C247.773 228.746 245.783 236.848 245.469 243.914C245.076 252.68 247.204 259.191 251.469 262.235C256.827 266.067 265.437 268.176 275.723 268.176H275.709ZM339.694 228.819C334.504 237.6 321.615 256.716 305.103 262.081C295.181 265.3 285.018 267.008 275.709 267.008C265.663 267.008 257.287 264.979 252.133 261.286C243.005 254.76 246.803 233.629 251.382 224.177C255.194 224.79 259 225.367 263.367 225.739H263.403L323.35 226.798C323.795 226.841 330.443 227.513 339.694 228.819Z" fill="#333333"/>
<path d="M303.844 81.1809C326.786 81.6188 361.334 93.7718 363.404 131.07C365.475 168.368 373.734 209.265 373.734 209.265C373.734 209.265 361.465 214.25 348.248 214.345L344.246 205.214L343.728 214.258C343.728 214.258 295.023 215.068 261.313 213.725C227.604 212.382 227.822 207.988 227.822 207.988C227.822 207.988 235.127 182.58 236.461 167.631C237.788 152.683 228.566 125.698 242.898 103.684C257.231 81.6772 303.844 81.1736 303.844 81.1736V81.1809Z" fill="#FFD188"/>
<path d="M310.565 215.09C329.009 215.09 343.589 214.849 343.735 214.849C344.041 214.849 344.289 214.601 344.311 214.295L344.69 207.689L347.708 214.587C347.803 214.798 348.014 214.937 348.24 214.937C361.421 214.842 373.814 209.864 373.938 209.813C374.201 209.704 374.346 209.433 374.288 209.156C374.208 208.747 366.014 167.873 363.972 131.041C363.477 122.151 361.115 114.166 356.937 107.297C353.249 101.232 348.138 96.0204 341.759 91.8161C331.342 84.9477 317.52 80.8602 303.843 80.5974C303.712 80.5974 291.96 80.758 278.612 83.6119C266.241 86.2615 249.911 91.838 242.395 103.371C232.108 119.173 233.814 137.413 235.192 152.077C235.754 158.106 236.242 163.311 235.863 167.588C234.551 182.31 227.319 207.58 227.246 207.835C227.231 207.879 227.224 207.923 227.224 207.966C227.224 208.098 227.246 208.448 227.647 208.886C229.098 210.47 235.389 213.287 261.269 214.317C274.209 214.835 290.794 215.09 310.543 215.09H310.565ZM343.174 213.689C340.367 213.733 327.004 213.922 310.565 213.922C290.823 213.922 274.26 213.66 261.335 213.149C232.028 211.981 228.77 208.543 228.434 207.988C229.076 205.733 235.783 181.887 237.044 167.69C237.43 163.303 236.942 158.048 236.373 151.968C235.017 137.486 233.326 119.472 243.394 104.013C250.684 92.8161 266.7 87.3637 278.853 84.7579C292.092 81.9258 303.741 81.7653 303.851 81.7653C324.744 82.1667 360.706 93.0131 362.821 131.107C364.745 165.851 372.13 204.171 373.063 208.901C370.767 209.769 360.028 213.594 348.627 213.762L344.785 204.988C344.675 204.74 344.413 204.601 344.143 204.645C343.874 204.696 343.677 204.915 343.662 205.185L343.174 213.689Z" fill="#333333"/>
<path d="M255.524 154.975C255.524 154.975 245.938 143.727 237.029 146.406C234.179 147.246 231.992 149.786 230.643 152.975C227.822 159.654 228.682 169.187 234.821 172.019C243.897 176.201 255.539 169.493 255.539 169.493L255.517 154.975H255.524Z" fill="#FFC2D1"/>
<path d="M241.541 173.981C248.853 173.981 255.553 170.164 255.837 170.003C256.02 169.901 256.129 169.704 256.129 169.492L256.107 154.974C256.107 154.835 256.056 154.704 255.969 154.595C255.648 154.222 248.044 145.412 239.886 145.412C238.844 145.412 237.823 145.558 236.861 145.85C234.032 146.682 231.634 149.135 230.103 152.748C228.623 156.251 228.149 160.368 228.798 164.04C229.52 168.142 231.576 171.163 234.579 172.55C236.635 173.499 238.975 173.981 241.541 173.981ZM254.962 169.149C253.599 169.872 247.701 172.813 241.541 172.813C239.15 172.813 236.97 172.368 235.068 171.492C229.345 168.85 228.426 159.733 231.182 153.208C232.567 149.923 234.703 147.704 237.196 146.974C238.057 146.719 238.961 146.588 239.894 146.588C246.943 146.588 253.884 154.018 254.948 155.208L254.97 169.156L254.962 169.149Z" fill="#333333"/>
<path d="M234.106 174.186C234.164 171.091 236.723 168.624 239.814 168.69C242.905 168.748 245.369 171.31 245.303 174.405C245.245 177.5 242.686 179.967 239.595 179.901C236.504 179.836 234.04 177.281 234.106 174.186Z" fill="white"/>
<path d="M239.719 180.485C243.065 180.485 245.836 177.763 245.901 174.412C245.931 172.755 245.318 171.193 244.174 169.996C243.029 168.807 241.491 168.128 239.836 168.099H239.712C236.366 168.099 233.596 170.821 233.53 174.171C233.464 177.587 236.184 180.419 239.595 180.485H239.719ZM239.712 169.266H239.807C241.148 169.296 242.395 169.843 243.328 170.807C244.254 171.77 244.757 173.047 244.728 174.383C244.677 177.098 242.424 179.31 239.712 179.31H239.617C236.854 179.259 234.645 176.96 234.696 174.193C234.747 171.478 237 169.266 239.712 169.266Z" fill="#363636"/>
<path d="M268.959 260.264C305.176 263.804 325.917 236.768 331.18 227.491C330.196 227.345 315.521 224.892 315.521 224.892C314.537 222.119 314.792 210.28 317.118 194.324C317.985 188.302 319.873 182.485 322.388 176.937C322.694 176.251 323.001 175.551 323.3 174.843C324.874 175.697 328.804 177.66 333.498 178.631C336.269 179.207 339.316 179.441 342.305 178.886C343.544 178.66 344.769 178.31 345.972 177.784C356.389 173.222 354.713 151.858 344.798 148.654C341.408 147.515 337.996 148.303 334.796 149.763C330.211 156.704 325.552 158.281 325.552 158.281C328.096 141.011 282.847 133.873 279.209 105.859C279.209 105.859 244.756 120.866 242.423 142.34C242.35 142.997 242.306 143.683 242.262 144.369C242.219 144.989 242.168 145.595 242.131 146.208C241.789 151.018 241.46 155.661 241.3 160.113C241.125 164.777 241.132 169.215 241.468 173.39C242.671 188.163 248.087 199.55 264.847 205.287L265.554 205.455L271.182 206.827C271.467 210.411 271.722 213.973 271.408 217.922C271.35 218.615 270.934 224.316 270.636 224.849L258.592 224.695C256.121 229.608 245.251 257.943 268.966 260.264H268.959Z" fill="#FFC2D1"/>
<path d="M275.396 261.169C289.429 261.169 302.377 256.658 313.88 247.768C324.553 239.52 330.21 230.389 331.69 227.783C331.785 227.615 331.792 227.411 331.705 227.236C331.617 227.06 331.457 226.944 331.267 226.914C330.385 226.783 318.233 224.754 315.973 224.382C315.127 221.119 315.521 209.353 317.693 194.419C318.495 188.857 320.252 183.062 322.913 177.193C323.146 176.675 323.372 176.157 323.576 175.675C325.618 176.733 329.19 178.354 333.367 179.222C336.626 179.894 339.68 179.981 342.399 179.478C343.734 179.237 345.009 178.85 346.19 178.339C351.046 176.208 353.947 170.128 353.583 162.843C353.276 156.799 350.499 149.902 344.958 148.114C343.836 147.734 342.64 147.544 341.415 147.544C339.301 147.544 337.049 148.099 334.533 149.252C334.431 149.296 334.351 149.369 334.286 149.464C331.034 154.383 327.732 156.544 326.215 157.347C326.573 149.537 317.752 143.851 307.596 137.304C295.458 129.479 281.694 120.603 279.77 105.801C279.748 105.618 279.639 105.458 279.478 105.37C279.318 105.283 279.128 105.268 278.953 105.341C278.866 105.377 270.176 109.195 261.326 115.589C253.103 121.53 243.049 130.99 241.817 142.296C241.752 142.931 241.708 143.61 241.664 144.26V144.347C241.635 144.676 241.613 145.004 241.584 145.333C241.562 145.617 241.54 145.902 241.519 146.187C241.147 151.427 240.841 155.778 240.687 160.106C240.491 165.274 240.549 169.639 240.862 173.449C241.533 181.74 243.429 187.974 246.811 193.061C250.69 198.886 256.522 203.076 264.636 205.849C264.65 205.849 264.672 205.864 264.687 205.864L265.394 206.032L270.606 207.302C270.854 210.462 271.109 214.017 270.796 217.885L270.759 218.323C270.46 222.126 270.271 223.659 270.161 224.265L258.57 224.112H258.563C258.344 224.112 258.14 224.236 258.038 224.433C255.763 228.965 250.405 243.972 255.479 253.184C257.929 257.636 262.441 260.213 268.886 260.841C271.058 261.052 273.245 261.162 275.381 261.162L275.396 261.169ZM330.247 227.936C328.3 231.192 322.825 239.374 313.166 246.841C301.866 255.571 289.16 259.994 275.396 259.994C273.296 259.994 271.153 259.884 269.017 259.68C262.981 259.089 258.782 256.717 256.522 252.622C251.805 244.06 256.66 230.031 258.942 225.287L270.621 225.44C270.832 225.44 271.036 225.33 271.138 225.141C271.299 224.849 271.503 224.082 271.948 218.418L271.984 217.988C272.319 213.856 272.02 210.105 271.758 206.798C271.736 206.543 271.561 206.338 271.313 206.273L265.007 204.74C250.296 199.696 243.429 190.31 242.051 173.361C241.745 169.595 241.686 165.274 241.883 160.157C242.036 155.843 242.335 151.5 242.714 146.274C242.736 145.989 242.758 145.705 242.78 145.42C242.802 145.092 242.831 144.763 242.853 144.427V144.333C242.904 143.661 242.94 143.026 243.006 142.413C245.091 123.202 273.858 109.005 278.742 106.728C281.097 121.596 294.839 130.457 306.984 138.282C317.241 144.895 326.099 150.603 324.976 158.208C324.947 158.413 325.02 158.61 325.18 158.741C325.333 158.872 325.552 158.909 325.741 158.843C325.938 158.777 330.575 157.15 335.19 150.238C337.486 149.208 339.527 148.705 341.43 148.705C342.531 148.705 343.595 148.88 344.608 149.216C349.624 150.836 352.146 157.252 352.431 162.894C352.686 168.055 351.089 174.908 345.738 177.251C344.638 177.733 343.449 178.091 342.203 178.31C339.622 178.784 336.728 178.704 333.615 178.054C329.161 177.127 325.413 175.317 323.576 174.325C323.431 174.244 323.263 174.23 323.102 174.288C322.949 174.339 322.818 174.463 322.76 174.609C322.497 175.237 322.184 175.967 321.856 176.689C319.151 182.653 317.358 188.558 316.541 194.229C314.179 210.477 313.968 222.25 314.974 225.075C315.047 225.272 315.222 225.418 315.426 225.455C315.958 225.542 326.981 227.382 330.247 227.914V227.936Z" fill="#333333"/>
<path d="M330.584 169.828C330.817 169.828 331.043 169.682 331.13 169.448C332.938 164.631 335.468 161.565 338.661 160.325C342.518 158.821 346.053 160.58 346.09 160.602C346.374 160.748 346.731 160.631 346.877 160.346C347.023 160.062 346.914 159.704 346.622 159.558C346.462 159.478 342.605 157.544 338.253 159.23C334.732 160.595 331.969 163.894 330.037 169.047C329.92 169.346 330.073 169.689 330.38 169.799C330.445 169.821 330.518 169.835 330.584 169.835V169.828Z" fill="#333333"/>
<path d="M340.552 167.624C340.669 167.624 340.786 167.588 340.888 167.522C341.15 167.339 341.216 166.974 341.034 166.704L337.25 161.259C337.068 160.997 336.703 160.931 336.433 161.113C336.171 161.296 336.105 161.661 336.288 161.931L340.071 167.376C340.188 167.537 340.37 167.624 340.552 167.624Z" fill="#333333"/>
<path d="M257.427 139.355C257.515 137.705 259.797 136.486 262.523 136.632C265.25 136.778 267.386 138.238 267.298 139.888C267.211 141.537 264.929 142.756 262.202 142.61C259.476 142.464 257.34 141.004 257.427 139.355Z" fill="#363636"/>
<path d="M289.619 141.085C289.706 139.435 291.988 138.216 294.715 138.362C297.441 138.508 299.577 139.968 299.49 141.617C299.402 143.267 297.12 144.486 294.394 144.34C291.667 144.194 289.531 142.734 289.619 141.085Z" fill="#363636"/>
<path d="M307.745 158.325C304.64 159.274 301.439 159.88 298.202 160.15C295.658 160.362 291.496 161.091 289.637 158.792C286.436 154.836 292.363 151.318 295.418 150.398C299.602 149.143 306.083 147.873 310.231 149.807C311.893 150.588 313.249 152.333 312.987 154.157C312.666 156.427 310.319 157.508 308.38 158.128C308.161 158.194 307.949 158.267 307.731 158.332L307.745 158.325Z" fill="white"/>
<path d="M294.339 161.011C295.388 161.011 296.431 160.909 297.35 160.814C297.67 160.785 297.976 160.756 298.254 160.727C301.549 160.449 304.8 159.829 307.913 158.88C308.132 158.814 308.35 158.741 308.569 158.676C309.699 158.311 313.147 157.201 313.57 154.23C313.891 151.968 312.192 150.07 310.479 149.267C308.985 148.566 307.104 148.216 304.888 148.216C301.359 148.216 297.699 149.092 295.25 149.829C292.924 150.53 289.155 152.566 288.302 155.333C287.894 156.646 288.193 157.931 289.177 159.157C290.183 160.405 291.867 161.011 294.324 161.011H294.339ZM304.902 149.391C306.951 149.391 308.664 149.705 309.998 150.333C311.376 150.975 312.652 152.464 312.426 154.07C312.207 155.603 310.873 156.712 308.219 157.566C308.008 157.632 307.796 157.697 307.578 157.763C304.538 158.69 301.374 159.296 298.159 159.559C297.867 159.581 297.561 159.617 297.233 159.646C296.336 159.734 295.33 159.836 294.339 159.836C292.261 159.836 290.869 159.369 290.103 158.42C289.367 157.508 289.148 156.61 289.432 155.683C290.11 153.5 293.442 151.603 295.6 150.96C297.976 150.245 301.519 149.398 304.902 149.398V149.391Z" fill="#333333"/>
<path d="M299.564 154.369C299.681 152.216 298.034 150.377 295.883 150.26C293.732 150.143 291.895 151.793 291.779 153.946C291.662 156.099 293.31 157.938 295.46 158.055C297.611 158.172 299.448 156.522 299.564 154.369Z" fill="#363636"/>
<path d="M251.191 155.281C254.173 156.551 257.3 157.5 260.479 158.113C262.979 158.595 267.047 159.77 269.139 157.683C272.741 154.092 267.229 149.953 264.284 148.72C260.26 147.026 253.947 145.063 249.616 146.544C247.874 147.143 246.343 148.734 246.409 150.573C246.489 152.865 248.705 154.187 250.564 155.011C250.768 155.106 250.98 155.194 251.184 155.281H251.191Z" fill="white"/>
<path d="M265.587 159.464C267.329 159.464 268.627 159.019 269.552 158.099C270.668 156.99 271.098 155.741 270.836 154.391C270.281 151.552 266.753 149.121 264.515 148.172C262.08 147.143 257.371 145.428 253.15 145.428C251.757 145.428 250.511 145.618 249.432 145.983C247.638 146.596 245.75 148.296 245.83 150.581C245.932 153.581 249.242 155.055 250.328 155.537C250.54 155.632 250.751 155.72 250.955 155.814C253.952 157.092 257.115 158.063 260.367 158.683C260.644 158.734 260.943 158.8 261.264 158.865C262.532 159.128 264.107 159.457 265.587 159.457V159.464ZM253.157 146.603C257.174 146.603 261.716 148.267 264.07 149.26C266.141 150.136 269.261 152.377 269.698 154.617C269.888 155.574 269.567 156.442 268.743 157.267C268.051 157.96 267.023 158.296 265.601 158.296C264.18 158.296 262.794 157.997 261.519 157.727C261.198 157.661 260.892 157.595 260.607 157.544C257.444 156.931 254.36 155.99 251.436 154.749C251.232 154.661 251.028 154.574 250.824 154.479C248.28 153.347 247.07 152.099 247.019 150.552C246.96 148.939 248.389 147.588 249.833 147.099C250.788 146.771 251.91 146.61 253.172 146.61L253.157 146.603Z" fill="#333333"/>
<path d="M249.501 149.442C249.618 147.289 251.455 145.639 253.606 145.756C255.756 145.873 257.404 147.712 257.287 149.865C257.17 152.018 255.333 153.668 253.183 153.551C251.032 153.434 249.385 151.595 249.501 149.442Z" fill="#363636"/>
<path d="M275.714 169.492C275.845 169.492 275.976 169.449 276.086 169.361C276.334 169.157 276.37 168.792 276.166 168.536C273.447 165.193 276.137 161.763 276.254 161.624C276.458 161.368 276.414 161.004 276.166 160.799C275.911 160.595 275.546 160.639 275.342 160.887C275.306 160.931 271.945 165.208 275.262 169.273C275.379 169.412 275.546 169.492 275.714 169.492Z" fill="#333333"/>
<path d="M313.681 165.456C313.798 165.456 313.915 165.42 314.017 165.354C314.279 165.172 314.345 164.807 314.162 164.537L311.37 160.522C311.188 160.259 310.824 160.194 310.554 160.376C310.291 160.559 310.226 160.923 310.408 161.194L313.2 165.208C313.317 165.369 313.499 165.456 313.681 165.456Z" fill="#333333"/>
<path d="M307.435 166.719C307.5 166.719 307.573 166.704 307.639 166.682C307.938 166.573 308.098 166.23 307.981 165.931L306.574 162.142C306.465 161.843 306.122 161.683 305.823 161.799C305.524 161.909 305.364 162.252 305.481 162.551L306.888 166.339C306.975 166.573 307.201 166.719 307.435 166.719Z" fill="#333333"/>
<path d="M245.549 162.266C245.753 162.266 245.95 162.157 246.059 161.974L248.516 157.668C248.676 157.391 248.582 157.033 248.297 156.872C248.02 156.712 247.663 156.807 247.503 157.091L245.046 161.398C244.885 161.675 244.98 162.033 245.265 162.193C245.359 162.244 245.454 162.274 245.556 162.274L245.549 162.266Z" fill="#333333"/>
<path d="M252.038 164.566C252.264 164.566 252.482 164.427 252.577 164.208L254.341 159.99C254.465 159.69 254.327 159.347 254.028 159.223C253.729 159.099 253.386 159.238 253.262 159.537L251.498 163.756C251.374 164.055 251.513 164.398 251.812 164.522C251.885 164.551 251.965 164.566 252.038 164.566Z" fill="#333333"/>
<path d="M277.71 181.785C281.843 181.785 286.567 180.821 290.11 177.325C290.343 177.099 290.343 176.727 290.11 176.5C289.884 176.267 289.512 176.267 289.286 176.5C282.033 183.646 268.896 179.259 268.765 179.216C268.458 179.113 268.123 179.274 268.021 179.58C267.919 179.887 268.079 180.223 268.386 180.325C268.692 180.427 272.789 181.799 277.702 181.799L277.71 181.785Z" fill="#313131"/>
<path d="M292.312 180.157C292.428 180.157 292.545 180.121 292.654 180.048C292.917 179.858 292.975 179.493 292.793 179.23L288.324 172.975C288.134 172.712 287.77 172.654 287.507 172.836C287.245 173.026 287.187 173.391 287.369 173.654L291.838 179.909C291.954 180.07 292.129 180.157 292.312 180.157Z" fill="#313131"/>
<path d="M271.177 206.835C271.177 206.835 289.571 209.075 301.73 200.849C301.73 200.849 292.538 216.557 271.418 220.301L271.797 208.287L271.177 206.827V206.835Z" fill="#333333"/>
<path d="M271.417 220.893C271.417 220.893 271.483 220.893 271.519 220.886C282.564 218.922 290.32 213.674 294.884 209.616C299.834 205.207 302.145 201.317 302.24 201.156C302.378 200.923 302.334 200.623 302.138 200.434C301.941 200.244 301.635 200.222 301.409 200.375C293.477 205.74 282.695 206.536 276.972 206.536C273.546 206.536 271.271 206.265 271.249 206.258C271.045 206.236 270.834 206.324 270.71 206.484C270.586 206.652 270.557 206.871 270.637 207.068L271.206 208.404L270.834 220.287C270.834 220.462 270.899 220.63 271.038 220.747C271.147 220.842 271.278 220.893 271.417 220.893ZM299.652 202.798C296.276 207.163 287.39 216.63 272.029 219.601L272.387 208.309C272.387 208.222 272.372 208.141 272.343 208.061L272.11 207.514C273.108 207.594 274.807 207.703 276.979 207.703C283.417 207.703 292.281 206.813 299.659 202.806L299.652 202.798Z" fill="#363636"/>
<path d="M331.985 180.58C332.043 177.485 334.602 175.018 337.693 175.084C340.784 175.142 343.248 177.704 343.182 180.799C343.124 183.894 340.565 186.361 337.474 186.295C334.383 186.23 331.919 183.675 331.985 180.58Z" fill="white"/>
<path d="M337.579 186.879C340.925 186.879 343.695 184.157 343.761 180.806C343.826 177.39 341.107 174.558 337.695 174.493H337.571C334.225 174.493 331.455 177.215 331.389 180.566C331.324 183.981 334.043 186.814 337.455 186.879H337.579ZM337.571 175.668H337.666C340.429 175.719 342.638 178.018 342.587 180.784C342.536 183.5 340.283 185.711 337.571 185.711H337.476C334.713 185.66 332.505 183.361 332.556 180.595C332.607 177.879 334.859 175.668 337.571 175.668Z" fill="#363636"/>
<path d="M279.203 106.45C279.407 106.45 279.612 106.341 279.714 106.144C287.711 91.5239 310.551 83.9255 316.296 83.0788C316.616 83.0351 316.835 82.7358 316.791 82.4146C316.748 82.0935 316.449 81.8745 316.128 81.9183C310.252 82.7796 286.902 90.5677 278.693 105.575C278.54 105.859 278.642 106.217 278.926 106.37C279.014 106.421 279.109 106.443 279.203 106.443V106.45Z" fill="#333333"/>
<path d="M340.621 111.618C341.43 110.837 341.933 109.786 342.21 108.699C343.486 103.626 339.717 98.4507 335.08 96.042C332.062 94.48 327.848 93.9763 325.698 96.6113C324.531 98.0419 324.291 100.064 323.088 101.458C321.265 103.575 317.992 103.509 315.251 102.954C312.51 102.399 309.594 101.545 307.02 102.633C303.835 103.983 302.464 108.02 303.193 111.407C303.922 114.793 306.255 117.596 308.763 119.976C310.862 121.968 313.29 123.844 316.148 124.231C319.013 124.618 322.322 122.968 322.833 120.122C323.066 118.815 322.709 117.443 323.044 116.158C323.598 114.056 325.873 112.837 328.038 112.64C330.196 112.443 332.346 112.998 334.504 113.195C336.662 113.392 339.053 113.129 340.613 111.626L340.621 111.618Z" fill="white"/>
<path d="M325.375 140.363L364.792 142.494C364.792 142.494 367.65 77.7875 315.518 72.4592C263.387 67.1309 243.506 85.218 238.104 112.954L284.681 114.772L325.375 140.37V140.363Z" fill="#9B3F27"/>
<path d="M365.358 143.114L365.388 142.522C365.388 142.362 366.044 126.041 360.27 109.29C356.873 99.4213 351.945 91.3266 345.631 85.2319C337.722 77.6044 327.617 73.1081 315.589 71.8746C309.523 71.2542 303.742 70.9403 298.406 70.9403C279.371 70.9403 265.134 74.7504 254.884 82.5969C245.829 89.5238 240.158 99.414 237.548 112.837L237.417 113.509L284.518 115.341L325.204 140.938L365.366 143.114H365.358ZM298.399 72.1155C303.699 72.1155 309.436 72.4293 315.465 73.0424C336.832 75.2249 351.529 87.5384 359.147 109.64C364.236 124.399 364.28 138.822 364.229 141.88L325.562 139.785L284.868 114.187H284.715L238.824 112.392C244.379 85.2903 263.872 72.1082 298.406 72.1082L298.399 72.1155Z" fill="#333333"/>
<path d="M331.309 140.362L301.726 139.296C301.726 139.296 289.143 114.056 257.519 115.121C225.894 116.187 220.456 139.654 220.456 139.654C220.456 139.654 216.038 138.946 220.113 128.274C224.195 117.61 242.552 111.209 253.436 109.078C264.32 106.946 310.744 112.99 310.744 112.99C310.744 112.99 334.364 120.099 331.309 140.362Z" fill="#9B3F27"/>
<path d="M331.801 140.968L331.882 140.45C333.165 131.939 329.935 124.392 322.528 118.611C316.981 114.283 311.156 112.495 310.908 112.422L310.813 112.4C310.478 112.356 277.045 108.028 260.453 108.028C257.304 108.028 254.905 108.188 253.323 108.495C242.774 110.56 223.791 117.013 219.57 128.056C217.653 133.063 217.288 136.662 218.484 138.735C219.213 139.998 220.248 140.202 220.364 140.217L220.904 140.304L221.028 139.771C221.042 139.713 222.435 133.939 227.611 128.115C232.386 122.75 241.448 116.232 257.544 115.692C258.186 115.67 258.827 115.662 259.461 115.662C274.88 115.662 285.407 122.166 291.531 127.618C298.165 133.531 301.176 139.487 301.205 139.545L301.358 139.859L331.809 140.954L331.801 140.968ZM310.616 113.568C311.163 113.743 316.711 115.553 321.836 119.567C328.82 125.027 331.831 131.823 330.795 139.771L302.08 138.735C301.365 137.406 298.303 132.122 292.304 126.764C286.034 121.173 275.245 114.509 259.454 114.509C258.805 114.509 258.149 114.524 257.493 114.546C240.952 115.1 231.606 121.845 226.685 127.407C222.333 132.319 220.598 137.1 220.066 138.844C219.876 138.698 219.65 138.472 219.46 138.122C218.79 136.903 218.454 134.246 220.656 128.494C224.702 117.925 243.234 111.684 253.542 109.663C255.051 109.371 257.369 109.217 260.446 109.217C276.666 109.217 309.129 113.385 310.609 113.575L310.616 113.568Z" fill="#333333"/>
<path d="M331.427 141.442C331.748 141.442 332.01 141.187 332.01 140.866C332.163 127.048 330.421 114.815 326.834 104.494C323.962 96.2171 319.901 89.1443 314.762 83.4729C305.992 73.7871 297.251 71.5973 296.886 71.5097C296.573 71.4368 296.259 71.6265 296.179 71.9404C296.106 72.2542 296.296 72.5681 296.609 72.6484C296.697 72.6703 305.423 74.8746 313.953 84.3269C321.84 93.0639 331.172 109.969 330.837 140.851C330.837 141.172 331.092 141.442 331.412 141.442H331.427Z" fill="#333333"/>
<path d="M116.77 527.467C94.7712 505.441 94.7712 469.731 116.77 447.705C138.768 425.68 174.435 425.68 196.434 447.705C218.432 469.731 218.432 505.441 196.434 527.467C174.435 549.492 138.768 549.492 116.77 527.467Z" fill="white"/>
<path d="M156.603 547.213C189.445 547.213 216.156 520.462 216.156 487.587C216.156 454.712 189.438 427.96 156.603 427.96C123.768 427.96 97.05 454.712 97.05 487.587C97.05 520.462 123.768 547.213 156.603 547.213ZM156.603 434.413C185.888 434.413 209.712 458.266 209.712 487.579C209.712 516.892 185.888 540.746 156.603 540.746C127.319 540.746 103.494 516.892 103.494 487.579C103.494 458.266 127.319 434.413 156.603 434.413Z" fill="#333333"/>
<path d="M156.606 547.797C189.769 547.797 216.742 520.783 216.742 487.587C216.742 454.39 189.761 427.377 156.606 427.377C123.45 427.377 96.4695 454.39 96.4695 487.587C96.4695 520.783 123.45 547.797 156.606 547.797ZM156.606 428.544C189.12 428.544 215.576 455.033 215.576 487.587C215.576 520.141 189.12 546.629 156.606 546.629C124.092 546.629 97.6359 520.141 97.6359 487.587C97.6359 455.033 124.092 428.544 156.606 428.544ZM156.606 541.337C186.211 541.337 210.298 517.221 210.298 487.579C210.298 457.938 186.211 433.822 156.606 433.822C127.001 433.822 102.914 457.938 102.914 487.579C102.914 517.221 127.001 541.337 156.606 541.337ZM156.606 434.997C185.57 434.997 209.124 458.587 209.124 487.579C209.124 516.571 185.562 540.162 156.606 540.162C127.649 540.162 104.088 516.571 104.088 487.579C104.088 458.587 127.649 434.997 156.606 434.997Z" fill="#363636"/>
<path d="M165.121 487.587L147.712 487.58L157.372 439.442L165.121 487.587Z" fill="#E9F6FF"/>
<path d="M147.712 487.58L165.121 487.588L155.462 535.725L147.712 487.58Z" fill="#E9F6FF"/>
<path d="M156.594 479.046L156.586 496.469L108.508 486.805L156.594 479.046Z" fill="#E9F6FF"/>
<path d="M156.594 496.469L156.602 479.046L204.688 488.71L156.594 496.469Z" fill="#E9F6FF"/>
<path d="M153.176 483.675L161.523 492.178L133.442 510.564L153.176 483.675Z" fill="#E9F6FF"/>
<path d="M161.532 492.178L153.185 483.674L181.273 465.295L161.532 492.178Z" fill="#E9F6FF"/>
<path d="M161.532 483.675L153.185 492.178L181.273 510.564L161.532 483.675Z" fill="#CBE8F7"/>
<path d="M153.176 492.178L161.523 483.674L133.442 465.295L153.176 492.178Z" fill="#CBE8F7"/>
<path d="M161.762 481.054L150.236 494.112L120.58 455.01L161.762 481.054Z" fill="#9B3F27"/>
<path d="M150.242 494.696C150.41 494.696 150.57 494.623 150.679 494.499L162.205 481.448C162.322 481.317 162.373 481.149 162.344 480.981C162.322 480.813 162.22 480.66 162.074 480.572L120.892 454.522C120.651 454.368 120.338 454.412 120.148 454.624C119.959 454.836 119.944 455.149 120.112 455.376L149.768 494.477C149.877 494.616 150.038 494.703 150.213 494.71C150.213 494.71 150.227 494.71 150.235 494.71L150.242 494.696ZM160.878 481.185L150.278 493.192L123.006 457.237L160.878 481.193V481.185Z" fill="#333333"/>
<path d="M150.236 494.112L161.762 481.054L191.418 520.155L150.236 494.112Z" fill="#80B4FF"/>
<path d="M191.413 520.746C191.573 520.746 191.727 520.681 191.843 520.557C192.033 520.345 192.047 520.031 191.88 519.805L162.223 480.704C162.114 480.565 161.954 480.477 161.779 480.47C161.604 480.47 161.436 480.536 161.319 480.667L149.794 493.718C149.677 493.849 149.626 494.017 149.655 494.185C149.677 494.353 149.779 494.506 149.925 494.594L191.107 520.644C191.202 520.703 191.311 520.732 191.42 520.732L191.413 520.746ZM161.728 481.981L189 517.936L151.128 493.981L161.728 481.974V481.981Z" fill="#333333"/>
<path d="M150.319 492.498C147.228 489.761 146.936 485.039 149.67 481.944C152.404 478.849 157.12 478.557 160.211 481.294C163.302 484.031 163.594 488.754 160.86 491.849C158.126 494.944 153.41 495.235 150.319 492.498Z" fill="#363636"/>
<path d="M152.296 489.886C150.517 488.316 150.349 485.594 151.924 483.82C153.491 482.039 156.211 481.871 157.982 483.448C159.761 485.017 159.928 487.74 158.354 489.513C156.786 491.294 154.067 491.462 152.296 489.886Z" fill="white"/>
<path d="M152.292 447.901L159.306 440.398V447.252H161.062V436.274L153.758 443.785V437.004H152.3V447.894L152.292 447.901Z" fill="#363636"/>
<path d="M156.325 536.812C157.186 536.812 157.966 536.636 158.658 536.228C159.511 535.731 160.102 534.936 160.43 533.819L158.884 533.374C158.68 534.089 158.323 534.585 157.813 534.87C157.375 535.118 156.879 535.242 156.311 535.242C156.216 535.242 156.143 535.242 156.085 535.242C156.026 535.242 155.954 535.228 155.866 535.206C155.618 535.169 155.392 535.104 155.195 535.023C154.663 534.775 154.372 534.345 154.321 533.746C154.299 533.447 154.386 533.191 154.59 532.965C154.926 532.571 155.48 532.352 156.245 532.301C157.732 532.199 158.819 531.841 159.511 531.221C160.051 530.732 160.328 530.104 160.328 529.345C160.328 528.337 159.927 527.527 159.125 526.914C158.425 526.374 157.572 526.104 156.581 526.104C155.4 526.104 154.415 526.52 153.621 527.359C153.373 527.629 153.154 527.921 152.972 528.243C152.914 528.345 152.804 528.578 152.644 528.958L154.146 529.527C154.277 529.25 154.379 529.045 154.452 528.914C154.525 528.783 154.641 528.637 154.794 528.483C155.276 527.972 155.873 527.724 156.581 527.724C156.792 527.724 157.018 527.753 157.244 527.805C157.506 527.863 157.747 527.951 157.951 528.075C158.454 528.359 158.702 528.783 158.702 529.345C158.702 530.126 157.842 530.564 156.128 530.673C154.911 530.753 153.985 531.162 153.351 531.885C152.863 532.461 152.644 533.118 152.702 533.863C152.782 534.834 153.198 535.571 153.956 536.118C154.612 536.593 155.4 536.804 156.303 536.804H156.318L156.325 536.812Z" fill="#363636"/>
<path d="M106.98 489.981V491.441H113.41V481.201H106.98V482.66H111.952V485.587H108.154V487.047H111.952V489.974H106.98V489.981Z" fill="#363636"/>
<path d="M193.749 481.2H191.992L196.461 492.229L198.648 486.806L200.835 492.236L205.297 481.193H203.54L200.828 487.864L199.523 484.652L200.923 481.193H199.166L198.641 482.492L198.123 481.193H196.352L197.766 484.638L196.461 487.886L193.749 481.193V481.2Z" fill="#363636"/>
<path d="M245.386 469.762L272.79 471.828C274.401 471.952 275.8 470.74 275.924 469.127L277.28 451.033C277.404 449.419 276.194 448.018 274.583 447.894L247.179 445.828C245.568 445.704 244.169 446.916 244.045 448.529L242.689 466.623C242.565 468.237 243.775 469.638 245.386 469.762ZM270.311 465.769L248.739 464.149L249.658 451.894L271.23 453.514L270.311 465.769Z" fill="#FFD188"/>
<path d="M273.008 472.419C274.831 472.419 276.369 470.988 276.5 469.171L277.856 451.077C277.929 450.142 277.63 449.237 277.018 448.522C276.406 447.814 275.553 447.383 274.62 447.31L247.216 445.245C245.277 445.099 243.6 446.573 243.454 448.485L242.098 466.58C242.025 467.514 242.324 468.419 242.937 469.135C243.549 469.843 244.402 470.273 245.335 470.346L272.739 472.412C272.826 472.412 272.914 472.419 273.001 472.419H273.008ZM246.961 446.405C247.019 446.405 247.077 446.405 247.136 446.405L274.539 448.471C275.159 448.515 275.728 448.807 276.136 449.281C276.544 449.755 276.741 450.361 276.697 450.982L275.341 469.076C275.247 470.346 274.124 471.331 272.834 471.237L245.43 469.171C244.81 469.127 244.242 468.835 243.833 468.361C243.425 467.886 243.228 467.281 243.272 466.66L244.628 448.566C244.723 447.354 245.743 446.398 246.954 446.398L246.961 446.405ZM270.311 466.354C270.45 466.354 270.588 466.302 270.69 466.215C270.807 466.113 270.88 465.967 270.894 465.813L271.813 453.558C271.835 453.237 271.594 452.952 271.273 452.931L249.702 451.31C249.549 451.296 249.396 451.347 249.279 451.449C249.162 451.551 249.09 451.697 249.075 451.85L248.156 464.105C248.135 464.427 248.375 464.711 248.696 464.733L270.267 466.354C270.267 466.354 270.297 466.354 270.311 466.354ZM270.603 454.055L269.772 465.142L249.367 463.609L250.198 452.522L270.603 454.055Z" fill="#333333"/>
<path d="M200.785 296.737C200.785 296.737 183.245 315.904 180.613 338.59C178.791 354.29 183.099 372.1 200.049 382.056L200.778 296.744L200.785 296.737Z" fill="white"/>
<path d="M200.057 382.633C200.262 382.633 200.451 382.531 200.56 382.341C200.721 382.064 200.633 381.706 200.349 381.538C179.959 369.568 180.163 347.561 181.198 338.649C183.779 316.409 201.042 297.314 201.217 297.124C201.435 296.884 201.421 296.519 201.18 296.3C200.94 296.081 200.575 296.095 200.356 296.336C200.181 296.526 182.656 315.905 180.039 338.518C179.04 347.16 179.973 355.517 182.751 362.685C186.038 371.174 191.761 377.86 199.759 382.553C199.853 382.604 199.955 382.633 200.05 382.633H200.057Z" fill="#363636"/>
</g>
<defs>
<clipPath id="clip0_189_147505">
<rect width="582" height="582" fill="white" transform="matrix(-1 0 0 1 582 0)"/>
</clipPath>
</defs>
</svg>
