<svg xmlns="http://www.w3.org/2000/svg" width="160" height="136" viewBox="0 0 160 136" fill="none">
  <path d="M112.757 35.5747C112.94 35.4502 113.169 35.4243 113.389 35.4054C114.09 35.3459 114.794 35.326 115.497 35.3459C116.049 35.3614 116.605 35.401 117.151 35.3174C117.696 35.2338 118.243 35.0114 118.599 34.589C119.11 33.983 119.119 33.0425 118.709 32.3636C118.299 31.6852 117.533 31.2666 116.747 31.1671C115.961 31.0679 115.159 31.2606 114.44 31.5938C113.331 32.1076 112.383 32.9614 111.755 34.0105C111.067 33.4506 111.187 32.3282 111.672 31.5856C112.157 30.8429 112.908 30.3132 113.447 29.6084C113.942 28.9615 114.249 28.1447 114.168 27.3343C114.087 26.524 113.571 25.74 112.807 25.4585C111.797 25.0861 110.627 25.6749 110.021 26.5654C109.415 27.4559 109.255 28.5723 109.188 29.6477C109.072 31.4951 109.179 33.3567 109.508 35.1787C109.171 33.917 108.169 32.8558 106.932 32.4399C105.695 32.0235 104.26 32.2615 103.218 33.0481C102.888 33.2972 102.59 33.6089 102.443 33.9955C102.173 34.7045 102.49 35.5442 103.066 36.0368C103.643 36.5295 104.425 36.7195 105.183 36.7359C105.941 36.7523 106.692 36.6118 107.444 36.5196C107.779 36.4786 108.125 36.448 108.446 36.5506C109.182 36.786 109.538 37.6355 109.602 38.4066C109.665 39.1777 109.536 53.3982 109.727 54.1477C110.412 54.1425 111.097 54.137 111.783 54.1318C111.714 52.5353 111.665 37.423 112.412 36.0109C112.5 35.8458 112.602 35.6803 112.757 35.5747Z" fill="#448189"/>
  <path d="M109.728 54.2239C109.614 54.2239 109.514 54.2338 109.486 54.123C109.366 53.6554 109.362 49.1826 109.37 43.3266C109.374 40.8211 109.376 38.6789 109.353 38.406C109.301 37.7784 109.013 36.9836 108.37 36.7785C108.249 36.7397 108.112 36.7263 107.95 36.7263C107.794 36.7263 107.63 36.7466 107.475 36.7656C107.3 36.7871 107.125 36.8125 106.95 36.8367C106.374 36.916 105.777 36.9975 105.178 36.9858C104.53 36.972 103.609 36.8289 102.905 36.2272C102.204 35.6285 101.918 34.6742 102.21 33.907C102.354 33.5259 102.643 33.1704 103.069 32.8488C103.803 32.2936 104.73 31.988 105.677 31.988C106.139 31.988 106.588 32.0604 107.012 32.2031C107.821 32.4751 108.526 32.9954 109.036 33.6656C108.887 32.3277 108.855 30.9768 108.939 29.6325C109.005 28.5864 109.16 27.3876 109.815 26.4252C110.365 25.6174 111.286 25.0955 112.162 25.0955C112.416 25.0955 112.662 25.139 112.895 25.2244C113.711 25.5248 114.323 26.3631 114.418 27.3101C114.501 28.1325 114.227 29.0028 113.647 29.7614C113.396 30.0898 113.101 30.3808 112.817 30.6618C112.467 31.0079 112.136 31.3346 111.883 31.7229C111.516 32.2841 111.386 33.0958 111.72 33.6022C112.368 32.6406 113.286 31.854 114.337 31.3674C115.181 30.976 116.015 30.8234 116.78 30.9195C117.695 31.035 118.496 31.5268 118.924 32.2346C119.405 33.0311 119.349 34.0889 118.791 34.7505C118.336 35.2901 117.669 35.4914 117.19 35.5647C116.948 35.6018 116.689 35.619 116.374 35.619C116.168 35.619 115.961 35.6117 115.761 35.6048C115.671 35.6018 115.581 35.5983 115.492 35.5957C114.8 35.5763 114.101 35.5962 113.412 35.6544C113.215 35.6712 113.028 35.6931 112.9 35.7811C112.788 35.8578 112.706 35.9936 112.634 36.1285C111.932 37.4565 111.959 52.3705 112.034 54.1218C112.037 54.1894 112.012 54.2554 111.965 54.3045C111.919 54.3536 111.854 54.2946 111.786 54.295L109.73 54.2239C109.729 54.2239 109.728 54.2239 109.728 54.2239ZM107.95 36.2315C108.164 36.2315 108.351 36.2582 108.522 36.3126C109.398 36.5927 109.783 37.5672 109.851 38.3862C109.875 38.6801 109.873 40.75 109.869 43.3706C109.864 47.1576 109.857 52.7373 109.946 53.8963L111.525 53.8838C111.47 51.4705 111.426 37.341 112.191 35.894C112.288 35.7112 112.414 35.5057 112.616 35.3677C112.845 35.2117 113.113 35.1776 113.368 35.1556C114.076 35.0957 114.794 35.0755 115.504 35.0953C115.594 35.0979 115.685 35.1009 115.776 35.1044C115.972 35.1113 116.175 35.1182 116.372 35.1182C116.661 35.1182 116.896 35.1026 117.112 35.0695C117.507 35.0087 118.052 34.8483 118.407 34.4272C118.831 33.9246 118.868 33.1113 118.494 32.4928C118.145 31.9147 117.48 31.5117 116.716 31.4152C116.044 31.3303 115.304 31.4691 114.545 31.8208C113.484 32.3122 112.569 33.1354 111.969 34.1393C111.932 34.2014 111.87 34.2445 111.798 34.257C111.726 34.2695 111.653 34.2505 111.597 34.2048C110.806 33.5617 110.908 32.2988 111.462 31.4492C111.745 31.016 112.11 30.6549 112.463 30.3057C112.748 30.0243 113.017 29.7583 113.248 29.457C113.743 28.8096 113.987 28.045 113.919 27.3597C113.842 26.5989 113.361 25.9295 112.72 25.6938C112.543 25.6287 112.354 25.5955 112.159 25.5955C111.455 25.5955 110.678 26.042 110.226 26.7067C109.639 27.5691 109.497 28.6855 109.436 29.6639C109.321 31.4919 109.427 33.3324 109.752 35.135C109.776 35.2669 109.692 35.394 109.561 35.4233C109.43 35.4522 109.3 35.3733 109.265 35.244C108.952 34.0729 108.005 33.0656 106.851 32.6772C106.478 32.5518 106.083 32.488 105.675 32.488C104.836 32.488 104.017 32.7579 103.368 33.2484C103.019 33.5117 102.786 33.7932 102.675 34.085C102.461 34.6497 102.693 35.3906 103.228 35.8475C103.82 36.3535 104.62 36.4742 105.188 36.4867C105.751 36.4987 106.323 36.4194 106.88 36.3427C107.058 36.3181 107.235 36.2936 107.413 36.272C107.585 36.2509 107.767 36.2315 107.95 36.2315Z" fill="#333333"/>
  <path d="M112.262 35.0949C112.206 35.0949 112.151 35.0768 112.104 35.0389C111.997 34.9518 111.981 34.7946 112.068 34.6872C114.137 32.1373 117.411 32.6945 117.549 32.72C117.685 32.7445 117.775 32.8747 117.751 33.0105C117.726 33.1463 117.597 33.236 117.461 33.2122C117.427 33.2058 114.335 32.6872 112.456 35.0023C112.406 35.0631 112.334 35.0949 112.262 35.0949Z" fill="#333333"/>
  <path d="M110.41 31.2637C110.402 31.2637 110.394 31.2633 110.385 31.2624C110.247 31.2486 110.147 31.1258 110.161 30.9883C110.347 29.1664 111.53 26.9616 111.58 26.869C111.645 26.7474 111.797 26.7022 111.919 26.7681C112.04 26.8336 112.085 26.9853 112.019 27.1069C112.008 27.1289 110.834 29.3176 110.658 31.0396C110.646 31.1681 110.537 31.2637 110.41 31.2637Z" fill="#333333"/>
  <path d="M108.688 35.3267C108.638 35.3267 108.587 35.3116 108.542 35.2797C106.101 33.525 103.804 34.5288 103.707 34.5724C103.582 34.6288 103.434 34.5732 103.377 34.4478C103.32 34.3219 103.375 34.1741 103.501 34.1172C103.608 34.0685 106.151 32.9448 108.834 34.8736C108.946 34.9542 108.972 35.1103 108.892 35.2223C108.843 35.2904 108.766 35.3267 108.688 35.3267Z" fill="#333333"/>
  <path d="M51.5637 64.1584L47.5654 64.1054C47.5654 64.1054 48.666 44.3988 47.9191 41.1462C47.1721 37.8941 44.3106 37.7359 44.3614 33.8937C44.4122 30.0516 47.7722 29.8559 49.0352 31.4339C50.2982 33.0119 50.4317 37.817 50.4317 37.817C50.4317 37.817 50.9685 34.5817 53.037 34.9696C55.1056 35.3571 56.5564 37.6584 51.5608 42.035C51.5608 42.035 50.4235 60.7809 51.5637 64.1584Z" fill="#448189"/>
  <path d="M51.5675 64.1376C51.5675 64.1376 51.5662 64.1376 51.5649 64.1376C51.564 64.1376 51.5628 64.1376 51.5615 64.1376L47.5632 64.2199C47.4951 64.2191 47.43 64.2579 47.3834 64.2083C47.3369 64.1587 47.3129 64.1256 47.3168 64.0579C47.328 63.8613 48.407 44.3668 47.6764 41.1858C47.362 39.8165 46.6425 39.0143 45.9464 38.2298C45.0302 37.1975 44.083 36.1342 44.1127 33.8864C44.1485 31.2036 45.7095 30.2537 47.0354 30.2537C47.8983 30.2537 48.7188 30.6368 49.231 31.2765C50.1046 32.3683 50.4569 34.8531 50.5956 36.426C50.9588 35.5941 51.6054 34.6868 52.7013 34.6868C52.8258 34.6868 52.9541 34.6993 53.0834 34.7234C54.1418 34.9217 54.8835 35.529 55.1191 36.3898C55.4047 37.4341 55.0576 39.2794 51.8049 42.1539C51.7166 43.656 50.7392 60.804 51.7911 64.0471C51.8074 64.0807 51.817 63.9829 51.817 64.0225C51.8174 64.1613 51.7058 64.1376 51.5675 64.1376ZM47.8302 63.8587L51.2337 63.904C50.2481 59.8097 51.2677 42.7651 51.3129 42.0203C51.3168 41.9535 51.3474 41.8914 51.3978 41.8474C54.694 38.9591 54.8426 37.2712 54.6379 36.5225C54.4553 35.854 53.8552 35.3777 52.9924 35.2161C52.8933 35.1975 52.7956 35.1881 52.7021 35.1881C51.1411 35.1881 50.684 37.832 50.6797 37.8587C50.6586 37.9858 50.5461 38.0755 50.416 38.0673C50.2877 38.0587 50.1868 37.9535 50.1834 37.8246C50.1821 37.7772 50.0374 33.0851 48.8416 31.5907C48.4233 31.0683 47.7483 30.7562 47.0359 30.7562C45.8844 30.7562 44.6434 31.5817 44.6128 33.8976C44.5852 35.9518 45.4283 36.9014 46.3204 37.9066C47.0579 38.7376 47.8207 39.597 48.1636 41.091C48.8717 44.1741 47.9633 61.42 47.8302 63.8587Z" fill="#333333"/>
  <path d="M23.7854 56.1764C22.8019 55.5648 21.6837 55.1721 20.534 55.0333C19.8663 54.9531 19.0935 54.9083 18.6959 54.3656C18.4685 54.0553 18.4245 53.6433 18.4719 53.2614C18.6886 51.511 20.7395 50.3838 22.4548 50.7885C24.1705 51.1933 25.4283 52.773 25.8845 54.4764C26.0766 55.1928 26.1537 55.9466 26.4612 56.6216C26.8713 57.5212 27.623 58.1579 28.4893 58.6604C28.3699 49.1162 28.1529 41.0883 27.7764 40.3762C27.6653 40.1659 27.5347 39.9564 27.3387 39.8223C27.1079 39.6646 26.8167 39.6314 26.538 39.6077C25.6493 39.5323 24.7563 39.5073 23.8647 39.5323C23.1647 39.5521 22.4599 39.6025 21.7676 39.4965C21.0754 39.3904 20.3828 39.1081 19.9313 38.5728C19.283 37.8043 19.2723 36.6116 19.7918 35.7509C20.3113 34.8901 21.2823 34.3595 22.2795 34.2336C23.2763 34.1078 24.2933 34.3522 25.2052 34.7746C26.6112 35.4259 27.8143 36.509 28.6099 37.8392C29.4822 37.1293 29.3302 35.706 28.7155 34.7642C28.1008 33.8224 27.1479 33.1509 26.4647 32.2573C25.8375 31.4371 25.4472 30.4009 25.5502 29.3734C25.6531 28.3458 26.3075 27.3514 27.2763 26.9945C28.5578 26.5225 30.0414 27.2686 30.8103 28.3984C31.5792 29.5276 31.7812 30.9432 31.8665 32.307C32.0134 34.65 31.8769 37.0103 31.4608 39.3206C31.8881 37.7211 33.1584 36.375 34.7268 35.8474C36.2952 35.3194 38.1152 35.6211 39.4359 36.6189C39.8542 36.9349 40.2336 37.3297 40.4197 37.8202C40.7609 38.7193 40.3594 39.7844 39.6289 40.409C38.8979 41.0336 37.9054 41.2749 36.9444 41.2956C35.9833 41.3163 35.0309 41.1383 34.0772 41.021C33.6533 40.9689 33.214 40.9301 32.8069 41.0603C31.8726 41.359 31.422 42.4361 31.341 43.4141C31.3044 43.8589 31.3182 53.8182 31.3216 64.6362C31.8631 64.3857 32.3967 64.2254 32.3967 64.2254C34.7448 62.9888 34.2503 61.0104 36.4748 61.7522C38.6993 62.494 37.3398 67.6874 32.3967 66.6982C31.966 66.612 31.6124 66.5219 31.322 66.4297C31.3246 78.8834 31.3083 100.67 31.1821 101.165C30.3132 101.158 29.4444 101.151 28.5751 101.144C28.6065 100.404 28.6349 84.6703 28.6121 76.1252C28.5604 76.136 28.5087 76.1472 28.4549 76.158C23.5119 77.1472 22.1524 71.9538 24.3768 71.212C26.6013 70.4702 26.1068 72.4485 28.4549 73.6852C28.4549 73.6852 28.5108 73.702 28.6043 73.733C28.5884 69.4473 28.5591 64.8702 28.5113 60.522C27.7617 59.835 26.8317 59.322 25.8233 59.2095C24.7533 59.0897 23.6027 59.4677 22.9298 60.3087C22.6154 60.7018 22.4112 61.1789 22.0675 61.5466C21.579 62.0694 20.8032 62.3198 20.1109 62.1396C19.4187 61.9595 18.8523 61.3367 18.7786 60.6251C18.6731 59.6009 19.5169 58.7134 20.4237 58.2264C21.6811 57.5509 23.1836 57.3458 24.5758 57.6587C24.8549 57.1087 24.31 56.5023 23.7854 56.1764Z" fill="#448189"/>
  <path d="M31.1807 101.206H31.179L28.5721 101.29C28.5044 101.29 28.4394 101.314 28.3929 101.265C28.3463 101.216 28.3214 101.176 28.3244 101.108C28.355 100.387 28.3829 84.9415 28.3618 76.4175C27.981 76.4861 27.6085 76.527 27.2522 76.527C24.774 76.527 23.3783 74.8831 23.1298 73.3525C22.9437 72.2047 23.4016 71.2723 24.2963 70.9736C24.6487 70.856 24.9493 70.8 25.2156 70.8C26.0026 70.8 26.3709 71.2887 26.7974 71.8547C27.1609 72.3374 27.5693 72.8788 28.3519 73.3426C28.3339 68.7634 28.3037 64.4906 28.2619 60.6354C27.711 60.1488 26.8572 59.5777 25.7949 59.4592C25.6756 59.4458 25.5541 59.4394 25.4326 59.4394C24.5017 59.4394 23.6385 59.8234 23.1242 60.4665C22.9954 60.6273 22.886 60.8044 22.7701 60.9919C22.6172 61.2393 22.4591 61.4949 22.2493 61.7191C21.822 62.1764 21.1944 62.4496 20.5707 62.4496C20.3923 62.4496 20.2161 62.4272 20.0477 62.3837C19.237 62.1729 18.6128 61.4609 18.5297 60.6527C18.4078 59.4713 19.3671 58.5118 20.3053 58.0079C21.2073 57.5234 22.2343 57.2674 23.275 57.2674C23.6545 57.2674 24.0318 57.3019 24.4001 57.3696C24.4208 56.9804 23.9457 56.5713 23.6528 56.389C22.7025 55.7985 21.6135 55.4157 20.503 55.2821L20.3393 55.2631C19.6755 55.1868 18.923 55.1006 18.4931 54.5144C18.1898 54.1007 18.1786 53.5886 18.2225 53.2317C18.4379 51.4951 20.1756 50.4571 21.7311 50.4571C21.9977 50.4571 22.2601 50.4869 22.5108 50.5464C24.1826 50.9408 25.6011 52.4584 26.1245 54.4127C26.19 54.6566 26.2425 54.9058 26.2933 55.1467C26.3963 55.6334 26.4932 56.0929 26.6871 56.5187C26.9774 57.1558 27.4848 57.7114 28.2317 58.2083C28.0431 43.5672 27.7265 40.8207 27.5537 40.4939C27.459 40.3151 27.35 40.1349 27.1957 40.0293C27.0196 39.909 26.7732 39.8793 26.5148 39.8578C25.6395 39.7836 24.7486 39.7582 23.8694 39.7832C23.7548 39.7867 23.6407 39.7905 23.5262 39.7944C23.2733 39.8035 23.0113 39.8125 22.7524 39.8125C22.3566 39.8125 22.031 39.7909 21.7277 39.7444C21.1315 39.653 20.3023 39.4035 19.7384 38.7349C19.0488 37.9173 18.9807 36.6087 19.576 35.6225C20.1075 34.7419 21.1061 34.1303 22.2459 33.9863C23.2039 33.8656 24.2485 34.0578 25.3078 34.5488C26.6582 35.1746 27.835 36.1944 28.6522 37.441C29.1726 36.7806 29.0123 35.6811 28.504 34.9018C28.1784 34.4031 27.7566 33.9863 27.3104 33.5449C26.9516 33.1902 26.5803 32.8229 26.2641 32.41C25.5391 31.4617 25.1962 30.3747 25.2992 29.3489C25.4168 28.1735 26.1757 27.133 27.1871 26.7606C27.4744 26.655 27.7794 26.6011 28.0934 26.6011C29.1824 26.6011 30.3283 27.2515 31.0136 28.2579C31.8351 29.4653 32.0307 30.9743 32.1129 32.2919C32.2249 34.0773 32.1737 35.8725 31.9609 37.6487C32.6066 36.7104 33.5495 35.9794 34.6441 35.6108C35.1752 35.432 35.7378 35.3414 36.3155 35.3414C37.5023 35.3414 38.6627 35.7242 39.5837 36.4199C40.1126 36.8195 40.4715 37.2608 40.6503 37.7319C41.01 38.6793 40.6555 39.8586 39.7879 40.5995C38.91 41.35 37.7581 41.5284 36.9465 41.5461C36.1918 41.5616 35.4376 41.4586 34.7096 41.3581C34.4873 41.3275 34.2654 41.297 34.0432 41.2698C33.845 41.2452 33.6339 41.2228 33.4328 41.2228C33.2204 41.2228 33.0395 41.2474 32.8797 41.2991C32.0345 41.5689 31.6576 42.5797 31.5866 43.4353C31.5577 43.7844 31.5611 50.6382 31.565 58.5743L31.5676 64.2561C31.9183 64.1138 32.2124 64.0203 32.2973 63.9936C33.2114 63.507 33.6568 62.9165 34.0497 62.3949C34.4761 61.829 34.8444 61.3406 35.6314 61.3406C35.8972 61.3406 36.1979 61.3979 36.5507 61.5152C37.4454 61.8134 37.9033 62.7479 37.7172 63.8953C37.469 65.4259 36.0729 67.0733 33.5947 67.0733C33.195 67.0733 32.7742 67.0297 32.3443 66.9435C32.0613 66.8871 31.8015 66.8267 31.5685 66.7634C31.5711 82.2933 31.5474 100.626 31.4207 101.121C31.3949 101.234 31.2953 101.206 31.1807 101.206ZM28.8292 100.897L30.9511 100.914C31.0304 99.131 31.0752 86.4506 31.0714 66.4311C31.0714 66.3513 31.1093 66.2763 31.1739 66.2293C31.2381 66.1824 31.3212 66.1686 31.3975 66.1927C31.6887 66.2854 32.0414 66.3733 32.4455 66.4543C32.8431 66.5341 33.2308 66.5742 33.5978 66.5742C35.7839 66.5742 37.0112 65.1444 37.2266 63.816C37.3713 62.9233 37.0452 62.207 36.3956 61.9902C36.095 61.8898 35.8459 61.841 35.6344 61.841C35.1192 61.841 34.887 62.1186 34.4519 62.6962C34.0453 63.2354 33.5396 63.9065 32.5131 64.447C32.4989 64.4548 32.4838 64.4608 32.4687 64.4651C32.4635 64.4669 31.9441 64.6238 31.4263 64.8634C31.3488 64.8992 31.2588 64.8931 31.1868 64.847C31.1149 64.8009 31.0714 64.7216 31.0714 64.6362L31.0687 58.5739C31.0644 49.9757 31.0611 43.7633 31.0917 43.3935C31.1761 42.3767 31.6508 41.1672 32.7307 40.8224C32.9405 40.7552 33.1713 40.7228 33.4358 40.7228C33.6641 40.7228 33.8933 40.747 34.1074 40.7733C34.3318 40.8009 34.5563 40.8319 34.7811 40.8629C35.4902 40.9608 36.2225 41.0616 36.9388 41.0461C37.669 41.0301 38.7002 40.8741 39.4665 40.2194C40.1648 39.6224 40.4676 38.6509 40.1863 37.9095C40.0415 37.528 39.7384 37.1608 39.2856 36.819C38.4508 36.1884 37.3975 35.8414 36.3184 35.8414C35.7951 35.8414 35.2863 35.9233 34.8065 36.0845C33.3229 36.5837 32.1044 37.8798 31.702 39.3854C31.6676 39.5147 31.5371 39.5935 31.4061 39.5646C31.2756 39.5353 31.1907 39.4082 31.2144 39.2763C31.6271 36.9854 31.7623 34.6457 31.6168 32.3225C31.5384 31.073 31.357 29.6463 30.6032 28.539C30.0083 27.6653 29.0239 27.1006 28.0961 27.1006C27.8406 27.1006 27.5938 27.1438 27.362 27.2291C26.5259 27.5368 25.8975 28.4088 25.7984 29.398C25.7097 30.2838 26.0246 31.2708 26.663 32.1053C26.9576 32.4911 27.3164 32.8454 27.6636 33.1885C28.1095 33.629 28.57 34.0841 28.9245 34.6277C29.6115 35.6802 29.7403 37.2418 28.7677 38.0336C28.7112 38.0793 28.638 38.0988 28.5665 38.0858C28.495 38.0733 28.4325 38.0302 28.3955 37.9681C27.6274 36.6841 26.457 35.6307 25.1001 35.0018C24.1266 34.5509 23.1751 34.3729 22.3105 34.482C21.3206 34.607 20.4591 35.1298 20.0055 35.8802C19.5174 36.6884 19.5665 37.7531 20.1218 38.4117C20.5857 38.9617 21.293 39.1707 21.8048 39.2496C22.0826 39.2922 22.3837 39.3121 22.7537 39.3121C23.004 39.3121 23.2612 39.303 23.5098 39.294C23.6256 39.2901 23.741 39.2858 23.8569 39.2828C24.7542 39.2573 25.6648 39.2828 26.5582 39.3591C26.8722 39.3858 27.2022 39.4276 27.4787 39.6164C27.723 39.7836 27.8777 40.0353 27.9966 40.2599C28.1263 40.5052 28.5208 41.2508 28.7383 58.6579C28.7396 58.748 28.6923 58.8316 28.6148 58.8769C28.5372 58.9226 28.4412 58.9225 28.3632 58.8773C27.3117 58.267 26.6151 57.5631 26.2335 56.726C26.0164 56.2502 25.909 55.7415 25.8052 55.2502C25.7557 55.0157 25.7045 54.7735 25.6424 54.542C25.1656 52.7627 23.8918 51.3852 22.3967 51.0326C22.1834 50.9826 21.9599 50.9567 21.7316 50.9567C20.4216 50.9567 18.8975 51.8498 18.7188 53.2924C18.6722 53.6696 18.7351 53.9981 18.8962 54.2179C19.1969 54.6282 19.8069 54.6981 20.3962 54.7657L20.5624 54.7851C21.7445 54.9273 22.9045 55.3347 23.9159 55.9635C24.5961 56.3864 25.1329 57.1096 24.7982 57.7726C24.7465 57.8747 24.6323 57.9286 24.5203 57.9036C24.1158 57.8126 23.6966 57.7665 23.2745 57.7665C22.3156 57.7665 21.3705 58.0019 20.5409 58.4472C19.7819 58.8549 18.9294 59.6635 19.0259 60.6001C19.0871 61.1954 19.5695 61.7415 20.1726 61.8984C20.3001 61.9316 20.4336 61.9484 20.5698 61.9484C21.0578 61.9484 21.5489 61.7346 21.8836 61.3764C22.0593 61.188 22.198 60.9643 22.3445 60.7277C22.463 60.5359 22.5858 60.3372 22.7335 60.1527C23.3422 59.3919 24.3506 58.9381 25.4322 58.9381C25.5718 58.9381 25.7122 58.9458 25.8496 58.9614C27.0984 59.101 28.0771 59.7868 28.6785 60.3381C28.7293 60.3846 28.759 60.4506 28.7595 60.5195C28.8034 64.5143 28.8349 68.9595 28.8525 73.7322C28.853 73.8128 28.8142 73.8883 28.7492 73.9357C28.6841 73.9827 28.6 73.996 28.5238 73.9706C28.4363 73.9413 28.383 73.9253 28.3813 73.9249C28.3658 73.9202 28.3511 73.9141 28.3365 73.9068C27.3095 73.3659 26.8037 72.6948 26.3975 72.1555C25.9625 71.578 25.7303 71.3004 25.2151 71.3004C25.0036 71.3004 24.7546 71.3491 24.4539 71.4495C23.8043 71.6663 23.4779 72.3831 23.6226 73.2754C23.838 74.6038 25.0657 76.0331 27.2518 76.0331C27.6188 76.0331 28.0065 75.9926 28.4041 75.9133C28.4549 75.9029 28.5027 75.893 28.5505 75.8826C28.6237 75.8671 28.7048 75.8844 28.7634 75.9318C28.8219 75.9792 28.8598 76.0494 28.8602 76.1249C28.8831 84.3316 28.8589 98.6939 28.8292 100.897Z" fill="#333333"/>
  <path d="M27.966 39.1473C27.8932 39.1473 27.8213 39.1158 27.7718 39.055C25.3573 36.0792 21.4012 36.7538 21.3615 36.7611C21.2267 36.7857 21.0958 36.6956 21.0713 36.5594C21.0467 36.4236 21.1372 36.2934 21.2729 36.2688C21.4465 36.2374 25.5606 35.537 28.1594 38.7395C28.2464 38.8468 28.2301 39.0042 28.1232 39.0912C28.0772 39.1292 28.0216 39.1473 27.966 39.1473Z" fill="#333333"/>
  <path d="M30.3158 34.29C30.1892 34.29 30.0806 34.1943 30.0677 34.0654C29.8437 31.8681 28.3489 29.0814 28.3338 29.0534C28.2683 28.9319 28.3136 28.7802 28.4351 28.7146C28.5561 28.6487 28.7082 28.694 28.7736 28.8155C28.837 28.9327 30.3308 31.7172 30.5647 34.0146C30.5785 34.1521 30.4791 34.2749 30.3417 34.2887C30.3326 34.2896 30.324 34.29 30.3158 34.29Z" fill="#333333"/>
  <path d="M32.4946 39.4415C32.4171 39.4415 32.3404 39.4053 32.2913 39.3372C32.2108 39.2251 32.2365 39.0687 32.3485 38.9885C35.7205 36.5644 38.9113 37.9747 39.0457 38.0359C39.1714 38.0932 39.2265 38.2415 39.1692 38.367C39.1119 38.4924 38.9638 38.548 38.8385 38.4907C38.8001 38.4734 35.7653 37.148 32.6402 39.3945C32.5958 39.4264 32.545 39.4415 32.4946 39.4415Z" fill="#333333"/>
  <path d="M137.354 60.498C138.337 59.8863 139.456 59.4932 140.606 59.3549C141.273 59.2743 142.046 59.2299 142.444 58.6872C142.671 58.3769 142.715 57.9648 142.668 57.5829C142.45 55.8325 140.4 54.7054 138.684 55.1101C136.969 55.5148 135.711 57.0946 135.255 58.798C135.062 59.5144 134.985 60.2683 134.678 60.9433C134.268 61.8428 133.516 62.4794 132.65 62.982C132.769 53.4378 132.986 45.4098 133.363 44.6982C133.474 44.4879 133.604 44.2784 133.8 44.1444C134.031 43.9866 134.322 43.9534 134.601 43.9297C135.49 43.8543 136.383 43.8292 137.274 43.8542C137.974 43.8741 138.679 43.9245 139.371 43.8185C140.064 43.7124 140.756 43.4301 141.208 42.8948C141.856 42.1263 141.867 40.9336 141.347 40.0729C140.827 39.2121 139.856 38.6815 138.859 38.5556C137.862 38.4298 136.845 38.6742 135.933 39.097C134.527 39.7483 133.324 40.8314 132.529 42.1616C131.656 41.4517 131.808 40.0285 132.423 39.0867C133.038 38.1449 133.991 37.4733 134.674 36.5798C135.301 35.7596 135.691 34.7234 135.588 33.6958C135.485 32.6682 134.831 31.6739 133.862 31.317C132.581 30.845 131.097 31.5915 130.328 32.7208C129.559 33.8501 129.357 35.2656 129.272 36.6294C129.125 38.9724 129.261 41.3327 129.678 43.6435C129.25 42.0435 127.98 40.6978 126.411 40.1703C124.843 39.6427 123.023 39.944 121.702 40.9418C121.284 41.2578 120.905 41.6526 120.718 42.1431C120.377 43.0422 120.779 44.1073 121.509 44.7318C122.24 45.3564 123.233 45.5978 124.194 45.6185C125.155 45.6391 126.107 45.4611 127.061 45.3439C127.485 45.2917 127.924 45.2529 128.331 45.3831C129.266 45.6818 129.716 46.759 129.797 47.737C129.834 48.1818 129.82 58.1411 129.817 68.959C129.275 68.7086 128.741 68.5483 128.741 68.5483C126.393 67.3117 126.888 65.3333 124.663 66.0751C122.439 66.8169 123.798 72.0103 128.741 71.0211C129.172 70.9349 129.526 70.8448 129.816 70.7526C129.814 83.2062 129.83 104.993 129.956 105.487C130.825 105.48 131.694 105.474 132.563 105.467C132.532 104.727 132.503 88.9932 132.526 80.4481C132.578 80.4589 132.629 80.4701 132.683 80.4809C137.626 81.4701 138.986 76.2766 136.761 75.5348C134.537 74.793 135.031 76.7714 132.683 78.008C132.683 78.008 132.627 78.0248 132.533 78.0559C132.549 73.7702 132.579 69.1931 132.626 64.8449C133.376 64.1579 134.306 63.6449 135.314 63.5324C136.384 63.413 137.535 63.7906 138.208 64.632C138.522 65.0251 138.727 65.5022 139.07 65.8699C139.559 66.3927 140.335 66.6431 141.027 66.463C141.719 66.2828 142.286 65.6604 142.359 64.9484C142.465 63.9242 141.621 63.0367 140.714 62.5497C139.457 61.8747 137.954 61.6691 136.562 61.982C136.285 61.4303 136.829 60.8243 137.354 60.498Z" fill="#448189"/>
  <path d="M129.958 105.947C129.844 105.947 129.745 105.765 129.716 105.654C129.589 105.159 129.566 86.6688 129.568 71.1384C129.334 71.2018 129.075 71.2359 128.792 71.2923C128.362 71.3786 127.941 71.4087 127.542 71.4087C125.063 71.4087 123.667 69.7549 123.419 68.2243C123.233 67.0769 123.691 66.1389 124.586 65.8407C124.939 65.723 125.239 65.6644 125.505 65.6644C126.292 65.6644 126.66 66.1523 127.086 66.7178C127.48 67.2394 127.925 67.8295 128.839 68.3161C128.924 68.3424 129.218 68.4359 129.568 68.5782L129.571 62.8761C129.575 54.9508 129.579 48.106 129.549 47.7569C129.478 46.9013 129.101 45.891 128.257 45.6207C128.096 45.5694 127.915 45.5448 127.703 45.5448C127.501 45.5448 127.291 45.5673 127.093 45.5918C126.871 45.619 126.649 45.6496 126.426 45.6802C125.699 45.7807 124.944 45.8836 124.189 45.8681C123.378 45.8504 122.226 45.672 121.348 44.9216C120.481 44.1802 120.126 43.0009 120.486 42.054C120.664 41.5828 121.023 41.1415 121.553 40.7415C122.473 40.0463 123.634 39.663 124.82 39.663C125.399 39.663 125.961 39.7536 126.492 39.9324C127.586 40.301 128.53 41.032 129.175 41.9703C128.962 40.1941 128.911 38.3989 129.023 36.6135C129.106 35.2959 129.301 33.7864 130.122 32.58C130.808 31.5735 131.953 30.9231 133.042 30.9231C133.357 30.9231 133.662 30.9765 133.949 31.0826C134.96 31.4554 135.719 32.4955 135.837 33.6713C135.94 34.6972 135.597 35.7843 134.872 36.7321C134.556 37.1454 134.185 37.5122 133.826 37.8669C133.379 38.3083 132.958 38.7256 132.632 39.2243C132.123 40.0031 131.963 41.1027 132.483 41.763C133.3 40.5165 134.477 39.4967 135.828 38.8708C136.683 38.4743 137.523 38.2734 138.325 38.2734C138.515 38.2734 138.705 38.2851 138.89 38.3083C140.03 38.4523 141.028 39.0635 141.56 39.9445C142.155 40.9303 142.087 42.2393 141.397 43.057C140.834 43.7255 140.004 43.9751 139.408 44.0664C139.105 44.113 138.779 44.1345 138.383 44.1345C138.123 44.1345 137.861 44.1255 137.608 44.1164C137.494 44.1126 137.38 44.1087 137.267 44.1052C136.388 44.0811 135.496 44.1056 134.621 44.1798C134.363 44.2018 134.116 44.2311 133.94 44.3518C133.786 44.457 133.677 44.6371 133.583 44.8164C133.41 45.1432 133.093 47.8893 132.905 62.5304C133.652 62.033 134.159 61.4774 134.449 60.8403C134.644 60.4145 134.741 59.955 134.843 59.4684C134.894 59.2279 134.947 58.9787 135.012 58.7348C135.536 56.7801 136.955 55.2624 138.626 54.8685C138.877 54.8094 139.14 54.7792 139.406 54.7792C140.962 54.7792 142.7 55.8171 142.915 57.5538C142.959 57.9106 142.948 58.4227 142.644 58.8365C142.214 59.4231 141.461 59.5093 140.797 59.5856L140.635 59.6046C139.524 59.7382 138.435 60.121 137.485 60.7119C137.192 60.8938 136.716 61.3028 136.737 61.692C137.105 61.6244 137.483 61.5899 137.862 61.5899C138.903 61.5899 139.93 61.8459 140.832 62.3304C141.77 62.8342 142.729 63.7933 142.608 64.9747C142.525 65.7833 141.901 66.495 141.09 66.7057C140.922 66.7497 140.745 66.7717 140.567 66.7717C139.943 66.7717 139.316 66.4984 138.888 66.0411C138.678 65.8165 138.52 65.5614 138.368 65.3144C138.252 65.1269 138.142 64.9498 138.013 64.789C137.498 64.1459 136.635 63.7618 135.705 63.7618C135.584 63.7618 135.462 63.7687 135.342 63.7821C134.28 63.901 133.426 64.4717 132.875 64.9584C132.833 68.8087 132.803 73.0811 132.785 77.666C133.568 77.2022 133.976 76.6608 134.34 76.178C134.766 75.6125 135.134 75.1237 135.922 75.1237C136.187 75.1237 136.488 75.1806 136.841 75.2983C137.736 75.597 138.194 76.531 138.007 77.6788C137.759 79.2094 136.363 80.8568 133.885 80.8568C133.529 80.8568 133.156 80.8223 132.775 80.7538C132.754 89.2778 132.782 104.736 132.813 105.457C132.816 105.525 132.791 105.591 132.744 105.64C132.698 105.689 132.633 105.822 132.565 105.823L129.958 105.948C129.959 105.947 129.958 105.947 129.958 105.947ZM129.818 70.5027C129.87 70.5027 129.922 70.519 129.966 70.5509C130.03 70.5979 130.068 70.6729 130.068 70.7527C130.065 90.7731 130.109 103.453 130.189 105.235L132.311 105.219C132.281 103.016 132.256 88.6529 132.278 80.4474C132.279 80.3719 132.313 80.3008 132.371 80.2534C132.43 80.206 132.506 80.1883 132.58 80.2034L132.596 80.2068C132.642 80.2163 132.687 80.2262 132.735 80.2357C133.133 80.3154 133.521 80.3556 133.888 80.3556C136.074 80.3556 137.301 78.9258 137.517 77.5978C137.662 76.7056 137.335 75.9888 136.685 75.772C136.385 75.6716 136.136 75.6229 135.924 75.6229C135.409 75.6229 135.177 75.9004 134.742 76.478C134.336 77.0172 133.83 77.6879 132.803 78.2288C132.789 78.2366 132.774 78.2427 132.759 78.2474C132.757 78.2478 132.703 78.2638 132.616 78.2931C132.539 78.3185 132.455 78.3056 132.39 78.2581C132.325 78.2112 132.287 78.1353 132.287 78.0547C132.305 73.2768 132.336 68.8316 132.38 64.842C132.381 64.773 132.41 64.7071 132.461 64.6605C133.062 64.1096 134.041 63.4235 135.29 63.2838C135.427 63.2683 135.568 63.2606 135.707 63.2606C136.788 63.2606 137.797 63.7149 138.405 64.4752C138.553 64.6597 138.676 64.8584 138.794 65.0502C138.941 65.2868 139.079 65.5105 139.255 65.6985C139.59 66.0566 140.081 66.2704 140.569 66.2704C140.705 66.2704 140.838 66.2536 140.966 66.2204C141.569 66.0635 142.051 65.5174 142.113 64.9222C142.209 63.9855 141.357 63.1769 140.598 62.7696C139.768 62.3239 138.823 62.0886 137.864 62.0886C137.442 62.0886 137.023 62.1347 136.619 62.2257C136.507 62.2511 136.392 62.1967 136.341 62.0946C136.006 61.4321 136.543 60.7085 137.223 60.2856C138.234 59.6572 139.394 59.2494 140.576 59.1067L140.742 59.0873C141.332 59.0197 141.942 58.9498 142.243 58.5395C142.404 58.3197 142.467 57.9913 142.421 57.6141C142.242 56.1715 140.717 55.2783 139.408 55.2783C139.18 55.2783 138.956 55.3038 138.743 55.3542C137.248 55.7068 135.973 57.0843 135.497 58.8632C135.435 59.0942 135.384 59.3369 135.335 59.5709C135.231 60.0627 135.123 60.5714 134.906 61.0472C134.525 61.8847 133.828 62.5881 132.777 63.1985C132.699 63.2437 132.603 63.2433 132.525 63.198C132.448 63.1528 132.4 63.0691 132.401 62.9791C132.619 45.572 133.013 44.8263 133.143 44.5811C133.262 44.3565 133.416 44.1048 133.66 43.9375C133.937 43.7488 134.267 43.707 134.581 43.6802C135.475 43.6044 136.385 43.5785 137.283 43.604C137.398 43.607 137.513 43.6113 137.628 43.6152C137.877 43.6238 138.135 43.6333 138.386 43.6333C138.756 43.6333 139.057 43.6134 139.335 43.5708C139.847 43.4923 140.554 43.2833 141.018 42.7329C141.574 42.0742 141.622 41.0096 141.135 40.2018C140.682 39.451 139.82 38.9281 138.83 38.8031C137.966 38.6941 137.014 38.8721 136.04 39.323C134.683 39.9519 133.513 41.0053 132.745 42.2893C132.708 42.3514 132.645 42.3945 132.574 42.407C132.502 42.4199 132.429 42.4005 132.373 42.3548C131.4 41.563 131.529 40.0014 132.216 38.9488C132.571 38.4053 133.032 37.9497 133.477 37.5092C133.824 37.1665 134.183 36.8118 134.478 36.4265C135.116 35.592 135.431 34.6054 135.342 33.7196C135.243 32.73 134.614 31.8584 133.778 31.5507C133.546 31.4654 133.3 31.4223 133.044 31.4223C132.116 31.4223 131.132 31.9869 130.537 32.8606C129.784 33.9674 129.602 35.3942 129.524 36.6442C129.378 38.967 129.513 41.3066 129.926 43.5979C129.95 43.7298 129.865 43.857 129.734 43.8863C129.604 43.9152 129.473 43.8363 129.438 43.707C129.036 42.201 127.818 40.9053 126.334 40.4061C125.854 40.2449 125.346 40.163 124.822 40.163C123.744 40.163 122.69 40.5101 121.855 41.1406C121.402 41.4825 121.1 41.8496 120.955 42.2311C120.674 42.9725 120.976 43.944 121.675 44.541C122.44 45.1957 123.472 45.3517 124.202 45.3677C124.92 45.3828 125.651 45.2824 126.36 45.1845C126.584 45.1535 126.809 45.1225 127.033 45.0949C127.247 45.0686 127.476 45.0444 127.704 45.0444C127.969 45.0444 128.2 45.0772 128.41 45.144C129.49 45.4893 129.965 46.6983 130.049 47.7151C130.08 48.0845 130.077 54.2887 130.072 62.8756L130.069 68.9579C130.069 69.0432 130.026 69.1225 129.954 69.1682C129.882 69.2143 129.792 69.2208 129.714 69.1846C129.197 68.945 128.677 68.788 128.672 68.7867C128.656 68.782 128.642 68.776 128.627 68.7686C127.6 68.2277 127.094 67.5566 126.688 67.0178C126.253 66.4402 126.021 66.1627 125.506 66.1627C125.295 66.1627 125.045 66.2114 124.745 66.3118C124.095 66.5286 123.769 67.2454 123.913 68.1376C124.129 69.466 125.356 70.8958 127.542 70.8958C127.91 70.8958 128.297 70.8553 128.695 70.776C129.099 70.6949 129.452 70.607 129.743 70.5143C129.767 70.5066 129.793 70.5027 129.818 70.5027Z" fill="#333333"/>
  <path d="M133.169 43.4697C133.114 43.4697 133.058 43.4516 133.012 43.4136C132.905 43.3266 132.888 43.1692 132.975 43.0619C135.574 39.8589 139.688 40.5594 139.862 40.5908C139.998 40.6154 140.088 40.7451 140.064 40.8809C140.039 41.0167 139.909 41.1072 139.774 41.0831C139.734 41.0757 135.773 40.4072 133.363 43.377C133.314 43.4378 133.242 43.4697 133.169 43.4697Z" fill="#333333"/>
  <path d="M130.821 38.6117C130.812 38.6117 130.804 38.6112 130.795 38.6104C130.658 38.5966 130.558 38.4738 130.572 38.3363C130.806 36.0389 132.3 33.2544 132.363 33.1372C132.429 33.0161 132.581 32.9704 132.702 33.0363C132.824 33.1018 132.869 33.2536 132.803 33.3751C132.788 33.4031 131.293 36.1898 131.069 38.3871C131.056 38.5156 130.947 38.6117 130.821 38.6117Z" fill="#333333"/>
  <path d="M128.64 43.7634C128.59 43.7634 128.539 43.7483 128.494 43.7164C125.364 41.4668 122.326 42.7992 122.296 42.813C122.171 42.8698 122.023 42.8142 121.965 42.6884C121.908 42.5625 121.964 42.4147 122.089 42.3578C122.223 42.2966 125.414 40.8867 128.786 43.3103C128.898 43.3909 128.924 43.5469 128.843 43.659C128.794 43.7271 128.718 43.7634 128.64 43.7634Z" fill="#333333"/>
  <path d="M124.571 12.6355L126.041 18.7828L131.921 19.9143L126.117 21.4983L124.42 27.5327L122.724 21.3474L117.372 20.2914L123.026 18.8961L124.571 12.6355Z" fill="white"/>
  <path d="M124.42 27.9316H124.419C124.307 27.9316 124.208 27.7816 124.178 27.6734L122.523 21.6002L117.322 20.5554C117.207 20.533 117.124 20.424 117.121 20.3067C117.118 20.1895 117.197 20.0817 117.311 20.0533L122.818 18.6916L124.327 12.5913C124.355 12.4797 124.455 12.415 124.57 12.415H124.57C124.686 12.415 124.786 12.4801 124.813 12.5921L126.245 18.5753L131.966 19.6726C132.08 19.6946 132.164 19.7908 132.169 19.9067C132.173 20.0231 132.097 20.1261 131.985 20.1567L126.317 21.7028L124.659 27.6751C124.63 27.7829 124.532 27.9316 124.42 27.9316ZM118.525 20.264L122.772 21.1019C122.865 21.12 122.94 21.1895 122.965 21.2813L124.423 26.5989L125.875 21.4308C125.899 21.3464 125.965 21.2804 126.05 21.2571L130.816 19.9567L125.993 19.0287C125.897 19.0102 125.82 18.9369 125.797 18.8412L124.567 13.6939L123.267 18.9559C123.245 19.0459 123.175 19.1162 123.085 19.1386L118.525 20.264Z" fill="#363636"/>
  <path d="M108.376 3.02051L109.4 7.30232L113.496 8.09066L109.453 9.19412L108.271 13.3975L107.09 9.08894L103.362 8.35316L107.3 7.38119L108.376 3.02051Z" fill="white"/>
  <path d="M108.27 13.7076H108.269C108.157 13.7076 108.059 13.602 108.029 13.4934L106.888 9.31933L103.312 8.60597C103.197 8.58355 103.114 8.48012 103.111 8.36288C103.108 8.24564 103.187 8.14045 103.301 8.11243L107.092 7.1754L108.132 3.04138C108.16 2.92974 108.26 2.93189 108.375 2.93189H108.376C108.491 2.93189 108.591 2.93063 108.618 3.0427L109.605 7.12752L113.542 7.86503C113.656 7.88701 113.74 7.97448 113.744 8.09086C113.749 8.20724 113.672 8.30597 113.56 8.33657L109.654 9.40036L108.511 13.4964C108.481 13.6041 108.382 13.7076 108.27 13.7076ZM104.514 8.32579L107.137 8.84347C107.23 8.86201 107.305 8.93093 107.33 9.02273L108.273 12.4632L109.211 9.12623C109.235 9.04175 109.301 8.97577 109.386 8.95249L112.39 8.13269L109.352 7.54776C109.255 7.52922 109.179 7.45597 109.156 7.36071L108.371 4.07844L107.541 7.4409C107.519 7.53098 107.448 7.60165 107.358 7.62363L104.514 8.32579Z" fill="#363636"/>
  <path d="M45.4483 9.33667L46.8949 15.3862L52.6809 16.4995L46.9689 18.0581L45.3002 23.9959L43.6309 17.9094L38.3645 16.8702L43.9278 15.4974L45.4483 9.33667Z" fill="white"/>
  <path d="M45.2989 24.0523H45.298C45.1861 24.0523 45.0875 24.0734 45.0582 23.9653L43.4299 18.0765L38.315 17.0916C38.2 17.0692 38.1164 16.9817 38.1134 16.8645C38.1103 16.7473 38.1896 16.6502 38.3033 16.6218L43.7201 15.2878L45.2046 9.21502C45.2321 9.10339 45.3321 8.96631 45.4471 8.96631H45.448C45.5635 8.96631 45.6633 9.10595 45.69 9.21802L47.0991 15.1404L52.7266 16.2382C52.8408 16.2602 52.9248 16.3653 52.9291 16.4817C52.9334 16.5981 52.8571 16.7055 52.7451 16.7365L47.1697 18.2597L45.5389 23.9657C45.5092 24.0739 45.4109 24.0523 45.2989 24.0523ZM39.5172 16.8429L43.6784 17.6641C43.7714 17.6822 43.8459 17.7516 43.8714 17.8434L45.3024 23.0618L46.7278 17.9903C46.7515 17.9058 46.8178 17.8399 46.9027 17.8166L51.576 16.5412L46.8471 15.6313C46.7506 15.6128 46.674 15.5395 46.6511 15.4442L45.4437 10.3952L44.1695 15.5572C44.1471 15.6472 44.0769 15.718 43.9868 15.74L39.5172 16.8429Z" fill="#363636"/>
  <path d="M95.6708 64.1385C95.5364 64.1385 95.4257 64.1765 95.421 64.0415C95.3917 63.1627 95.409 62.345 95.4714 61.4687C95.4813 61.3312 95.5985 61.2631 95.7385 61.2735C95.8763 61.2834 95.9797 61.4209 95.9698 61.5588C95.9082 62.4179 95.8914 63.1545 95.9203 64.0157C95.9246 64.1536 95.8169 64.1385 95.6786 64.1385C95.6765 64.1385 95.6734 64.1385 95.6708 64.1385Z" fill="#333333"/>
  <path d="M102.198 94.4628C118.938 92.4365 130.211 89.8362 135.881 102.399C141.551 114.962 127.848 128.875 94.402 132.455C60.9558 136.035 12.0658 119.861 21.5358 98.0765C28.0834 83.0147 55.1508 94.9697 55.1508 94.9697L61.091 92.1331L96.7311 90.512L102.198 94.4628Z" fill="#0BB4CA"/>
  <path d="M84.648 133.202C72.4544 133.202 58.9426 131.007 47.5765 127.178C35.4737 123.101 26.6022 117.489 22.5969 111.375C19.759 107.043 19.3249 102.535 21.3064 97.9762C23.5438 92.8289 28.3446 90.219 35.5749 90.219C44.3961 90.219 54.0302 94.2185 55.1454 94.6944L60.9831 91.9065C61.0133 91.8918 61.046 91.8841 61.0792 91.8823L96.7193 90.2612C96.7757 90.2591 96.8313 90.2755 96.8769 90.3082L102.265 94.2022C103.582 94.0422 104.868 93.8789 106.114 93.7203C111.213 93.0716 115.616 92.5121 119.548 92.5121C123.684 92.5121 126.798 93.15 129.349 94.5194C132.236 96.0694 134.447 98.6129 136.109 102.295C137.989 106.463 137.766 110.793 135.463 114.819C130.236 123.953 115.28 130.471 94.4285 132.702C91.3348 133.034 88.0441 133.202 84.648 133.202ZM35.5749 90.7194C28.5621 90.7194 23.9155 93.228 21.7647 98.1758C19.8547 102.57 20.2751 106.918 23.0152 111.1C26.9597 117.121 35.7391 122.663 47.7363 126.704C59.0525 130.516 72.5065 132.702 84.648 132.702C88.0265 132.702 91.299 132.535 94.3751 132.206C115.065 129.991 129.883 123.564 135.028 114.571C137.249 110.69 137.465 106.517 135.653 102.502C132.611 95.7616 127.944 93.0125 119.547 93.0125C115.647 93.0125 111.258 93.5707 106.177 94.2168C104.9 94.3793 103.58 94.547 102.228 94.7107C102.165 94.7181 102.102 94.7021 102.052 94.6651L96.6547 90.7651L61.1525 92.3798L55.2583 95.1948C55.1924 95.2263 55.1166 95.2275 55.0498 95.1978C54.9486 95.153 44.7997 90.7194 35.5749 90.7194Z" fill="#333333"/>
  <path d="M87.2019 113.319C87.1118 113.319 87.0252 113.27 86.9804 113.185C86.9162 113.063 86.9632 112.912 87.0855 112.848C88.7995 111.946 90.7328 110.91 92.7802 109.812C100.511 105.669 109.273 100.972 113.044 99.8267C117.794 98.384 120.013 98.5336 120.105 98.5409C120.243 98.5517 120.346 98.6715 120.335 98.8094C120.324 98.9469 120.201 99.0486 120.067 99.0396C120.045 99.0383 117.832 98.8948 113.189 100.305C109.465 101.436 100.727 106.12 93.0159 110.253C90.9681 111.351 89.0335 112.387 87.3177 113.29C87.2807 113.31 87.2411 113.319 87.2019 113.319Z" fill="#333333"/>
  <path d="M109.461 101.638C109.328 101.638 109.217 101.553 109.211 101.419C109.122 99.4522 111.488 97.3237 111.589 97.2336C111.692 97.1418 111.85 97.1556 111.942 97.2586C112.034 97.3617 112.025 97.522 111.922 97.6138C111.899 97.6345 109.632 99.6655 109.711 101.395C109.717 101.533 109.61 101.638 109.472 101.638C109.469 101.638 109.465 101.638 109.461 101.638Z" fill="#333333"/>
  <path d="M78.2748 115.708C78.2158 115.708 78.1564 115.687 78.1085 115.645C74.7731 112.665 67.7017 108.227 59.6542 104.062C51.533 99.8586 44.7247 97.1526 41.8869 96.9991C41.749 96.9918 41.6435 96.8737 41.6509 96.7358C41.6582 96.5983 41.7744 96.4931 41.914 96.4996C45.3851 96.6875 53.4727 100.3 59.8838 103.617C67.9662 107.8 75.0768 112.265 78.4415 115.271C78.5445 115.363 78.5535 115.521 78.4613 115.624C78.4117 115.68 78.3433 115.708 78.2748 115.708Z" fill="#333333"/>
  <path d="M63.4856 98.7005C63.4512 98.7005 63.4163 98.6932 63.3827 98.6781C63.3732 98.6738 62.3476 98.2117 55.0534 95.2014C54.9259 95.1488 54.8648 95.0027 54.9178 94.8751C54.9703 94.7475 55.1159 94.6863 55.2438 94.7393C62.5659 97.7612 63.5507 98.2057 63.589 98.2229C63.7148 98.2802 63.77 98.4281 63.7131 98.5539C63.6713 98.6458 63.5808 98.7005 63.4856 98.7005Z" fill="#333333"/>
  <path d="M94.7606 98.7852C94.6831 98.7852 94.6068 98.7495 94.5582 98.6818C94.4772 98.5702 94.5021 98.4137 94.6141 98.3326C94.6542 98.3033 98.6784 95.406 102.115 94.2267C102.245 94.1814 102.387 94.2512 102.432 94.3823C102.477 94.5133 102.407 94.6551 102.277 94.7C98.9102 95.8551 94.9467 98.7094 94.9071 98.7378C94.8627 98.7697 94.8114 98.7852 94.7606 98.7852Z" fill="#333333"/>
  <path d="M152.53 105.678C151.536 104.596 149.523 101.546 149.523 101.546C154.136 102.447 155.841 100.029 155.841 100.029L152.718 96.937C152.718 96.937 145.594 97.4784 145.655 93.2199C145.708 89.4747 149.834 91.9134 151.043 92.7664C152.251 93.6194 153.277 93.2931 154.117 91.6401C154.956 89.9872 150.168 85.6114 146.826 85.1907C144.481 84.8954 141.785 85.6497 140.385 86.126C138.549 85.2722 122.201 77.2253 120.793 74.721C118.416 70.4904 116.037 61.9742 112.223 55.3489L103.172 67.4957C103.172 67.4957 101.903 71.4633 100.742 75.2042C103.152 80.9813 106.11 86.8777 108.969 89.4208C112.155 92.2543 119.623 95.7875 126.367 98.6379C129.108 100.282 131.918 102.118 132.009 102.207C133.754 103.916 136.493 108.812 138.021 112.987C139.548 117.162 141.35 118.072 142.292 117.378C143.234 116.685 143.34 115.275 142.433 113.339C141.84 112.076 141.459 109.111 141.459 109.111C141.459 109.111 148.266 116.759 150.375 118.03C152.483 119.301 154.173 118.882 154.86 117.085C155.548 115.288 149.465 109.692 149.465 109.692C149.465 109.692 154.502 112.432 156.442 112.967C158.381 113.502 159.242 112.589 159.634 110.801C160.025 109.012 153.522 106.759 152.53 105.678Z" fill="#FCD4D5"/>
  <path d="M152.617 119.013C151.892 119.013 151.094 118.754 150.247 118.243C148.463 117.168 143.509 111.757 141.829 109.896C141.984 110.857 142.28 112.422 142.66 113.232C143.6 115.237 143.522 116.781 142.441 117.578C142.21 117.748 141.936 117.837 141.647 117.837C141.01 117.837 139.36 117.373 137.787 113.072C136.287 108.973 133.566 104.086 131.841 102.391C131.631 102.226 128.896 100.445 126.255 98.8601C117.343 95.0925 111.472 91.9792 108.804 89.6068C106.354 87.4276 103.564 82.6138 100.513 75.2993C100.491 75.2454 100.487 75.1846 100.505 75.129C101.653 71.43 102.922 67.4585 102.935 67.4188C102.943 67.3925 102.956 67.3675 102.973 67.3455L112.023 55.1987C112.074 55.1315 112.154 55.0927 112.238 55.0988C112.322 55.1035 112.398 55.1504 112.44 55.2237C114.607 58.9866 116.309 63.3473 117.81 67.1943C118.978 70.1891 119.988 72.7752 121.012 74.598C122.341 76.9609 137.963 84.71 140.401 85.8565C141.541 85.4746 143.663 84.8733 145.71 84.8733C146.111 84.8733 146.497 84.8966 146.858 84.9418C149.561 85.2819 153.043 88.0172 154.124 90.0555C154.489 90.7447 154.562 91.3159 154.34 91.7525C153.761 92.893 153.06 93.4715 152.258 93.4715C151.828 93.4715 151.371 93.3025 150.899 92.9697C149.903 92.2663 148.355 91.4452 147.272 91.4452C146.696 91.4452 145.928 91.6292 145.906 93.2223C145.895 94.0081 146.151 94.6719 146.667 95.1956C148.012 96.5606 150.816 96.708 151.96 96.708C152.409 96.708 152.697 96.6869 152.7 96.6865C152.771 96.6804 152.843 96.7072 152.895 96.758L156.018 99.8498C156.105 99.9356 156.117 100.072 156.047 100.172C155.994 100.246 154.724 101.996 151.487 101.996C151.029 101.996 150.549 101.96 150.055 101.889C150.662 102.79 151.981 104.71 152.714 105.507C153.031 105.852 154.072 106.384 155.175 106.948C157.518 108.145 160.174 109.501 159.878 110.853C159.508 112.545 158.712 113.367 157.445 113.367C157.123 113.367 156.763 113.313 156.376 113.206C155.101 112.854 152.569 111.597 150.915 110.739C152.715 112.544 155.634 115.762 155.094 117.172C154.641 118.36 153.76 119.013 152.617 119.013ZM141.459 108.86C141.529 108.86 141.597 108.89 141.646 108.944C141.713 109.02 148.452 116.578 150.505 117.815C151.274 118.278 151.984 118.513 152.617 118.513C153.552 118.513 154.248 117.988 154.628 116.994C155.085 115.801 151.601 111.994 149.298 109.875C149.205 109.789 149.19 109.648 149.264 109.545C149.337 109.443 149.476 109.411 149.586 109.471C149.636 109.498 154.62 112.203 156.51 112.725C158.126 113.172 158.983 112.611 159.391 110.747C159.604 109.772 156.803 108.341 154.949 107.394C153.706 106.76 152.725 106.258 152.347 105.847C151.352 104.763 149.399 101.809 149.316 101.684C149.261 101.6 149.261 101.491 149.317 101.407C149.373 101.323 149.473 101.281 149.573 101.301C150.241 101.432 150.885 101.498 151.489 101.498C153.887 101.498 155.116 100.45 155.502 100.043L152.624 97.1938C152.495 97.2007 152.264 97.2097 151.961 97.2097C150.463 97.2097 147.736 96.9942 146.312 95.5486C145.698 94.9262 145.394 94.1417 145.407 93.2171C145.434 91.3408 146.437 90.9469 147.273 90.9469C148.82 90.9469 150.806 92.293 151.189 92.5628C151.575 92.8352 151.935 92.9732 152.259 92.9732C152.859 92.9732 153.409 92.487 153.897 91.5275C154.076 91.1749 153.88 90.6607 153.684 90.2913C152.665 88.3694 149.287 85.753 146.798 85.4397C146.457 85.397 146.092 85.375 145.712 85.375C143.678 85.375 141.554 85.9944 140.468 86.3633C140.407 86.384 140.34 86.3806 140.282 86.3534C140.103 86.2703 122.117 77.5829 120.578 74.8441C119.537 72.9907 118.521 70.389 117.346 67.377C115.895 63.659 114.256 59.4599 112.197 55.8052L103.4 67.6119C103.265 68.0339 102.089 71.7183 101.011 75.1915C104.02 82.3888 106.754 87.1133 109.138 89.234C111.729 91.5387 117.722 94.7106 126.467 98.4075C126.478 98.4123 126.488 98.4175 126.499 98.4235C129.103 99.9856 132.053 101.897 132.187 102.028C133.955 103.76 136.735 108.739 138.258 112.901C139.455 116.173 140.795 117.339 141.649 117.339C141.834 117.339 142.001 117.284 142.147 117.177C143.015 116.537 143.038 115.212 142.21 113.446C141.607 112.162 141.23 109.266 141.214 109.144C141.2 109.035 141.258 108.929 141.358 108.884C141.389 108.868 141.424 108.86 141.459 108.86Z" fill="#333333"/>
  <path d="M155.335 100.414C157.343 98.8561 156.235 91.9485 154.117 91.6403C151.999 91.3321 151.303 95.3497 151.599 97.8953" fill="#FCD4D5"/>
  <path d="M155.335 100.664C155.261 100.664 155.187 100.63 155.138 100.567C155.053 100.458 155.073 100.301 155.182 100.216C156.273 99.3697 156.352 96.584 155.801 94.4887C155.404 92.9806 154.745 91.9836 154.082 91.8871C153.679 91.8284 153.33 91.9496 153.014 92.2573C152.005 93.2388 151.623 95.9327 151.848 97.8658C151.864 98.0029 151.766 98.1271 151.629 98.143C151.491 98.1602 151.368 98.0607 151.352 97.9236C151.111 95.8564 151.49 93.0422 152.666 91.8983C153.095 91.481 153.595 91.3112 154.154 91.3918C155.045 91.5215 155.822 92.6038 156.285 94.3611C156.882 96.6284 156.805 99.5895 155.489 100.611C155.443 100.646 155.389 100.664 155.335 100.664Z" fill="#333333"/>
  <path d="M149.467 109.69C147.231 107.868 145.147 104.894 145.147 104.894Z" fill="#FFB5A9"/>
  <path d="M149.468 109.941C149.412 109.941 149.357 109.922 149.31 109.885C147.073 108.061 145.029 105.16 144.944 105.038C144.864 104.925 144.892 104.769 145.005 104.689C145.118 104.61 145.274 104.638 145.353 104.751C145.373 104.78 147.444 107.718 149.626 109.497C149.733 109.584 149.749 109.741 149.662 109.848C149.612 109.909 149.54 109.941 149.468 109.941Z" fill="#2E333F"/>
  <path d="M139.643 107.609C139.643 107.609 142.315 106.605 145.971 103.871Z" fill="#FFB5A9"/>
  <path d="M139.642 107.859C139.541 107.859 139.446 107.797 139.408 107.697C139.36 107.568 139.425 107.424 139.554 107.375C139.581 107.365 142.24 106.349 145.82 103.67C145.931 103.588 146.087 103.61 146.17 103.721C146.253 103.832 146.23 103.988 146.12 104.071C142.477 106.796 139.841 107.802 139.731 107.843C139.701 107.854 139.671 107.859 139.642 107.859Z" fill="#2E333F"/>
  <path d="M142.837 97.413C141.637 97.413 139.72 97.072 137.432 95.4359C137.32 95.3557 137.294 95.1992 137.374 95.0872C137.454 94.9747 137.61 94.9488 137.723 95.029C141.354 97.6268 143.996 96.7751 144.023 96.7665C144.153 96.7229 144.295 96.7923 144.34 96.9229C144.384 97.0535 144.314 97.1958 144.183 97.2402C144.136 97.2561 143.651 97.413 142.837 97.413Z" fill="#333333"/>
  <path d="M8.01747 105.678C9.01081 104.597 11.0233 101.546 11.0233 101.546C6.40987 102.448 4.70534 100.029 4.70534 100.029L7.8288 96.9375C7.8288 96.9375 14.9523 97.4789 14.8916 93.2204C14.8382 89.4752 10.7128 91.9139 9.50405 92.7669C8.29533 93.6199 7.26921 93.2936 6.42966 91.6406C5.5901 89.9876 10.3789 85.6118 13.7204 85.1912C16.0659 84.8959 18.7616 85.6502 20.1616 86.1265C21.9975 85.2726 38.3454 77.2257 39.7535 74.7215C42.1305 70.4909 44.5096 61.9747 48.324 55.3494L57.3748 67.4962C57.3748 67.4962 58.6434 71.4638 59.8043 75.2047C57.3942 80.9818 54.4369 86.8782 51.5775 89.4213C48.3916 92.2548 40.9231 95.788 34.1795 98.6384C31.4381 100.283 28.6287 102.118 28.5378 102.207C26.7932 103.916 24.0539 108.813 22.526 112.988C20.9985 117.163 19.1962 118.072 18.2546 117.379C17.3129 116.685 17.2061 115.275 18.1137 113.34C18.7064 112.076 19.0881 109.112 19.0881 109.112C19.0881 109.112 12.2803 116.76 10.1717 118.031C8.06312 119.302 6.37367 118.882 5.6866 117.085C4.9991 115.289 11.0815 109.692 11.0815 109.692C11.0815 109.692 6.04456 112.432 4.10526 112.967C2.16596 113.503 1.3049 112.589 0.913338 110.802C0.521774 109.012 7.02412 106.759 8.01747 105.678Z" fill="#FCD4D5"/>
  <path d="M7.93221 119.014C6.78853 119.014 5.90845 118.36 5.45443 117.173C4.91468 115.763 7.83354 112.545 9.6337 110.741C7.98 111.598 5.44711 112.855 4.17291 113.207C3.78523 113.314 3.42557 113.369 3.10379 113.369C1.83691 113.369 1.04084 112.546 0.670385 110.854C0.37445 109.502 3.03051 108.146 5.37387 106.949C6.47619 106.386 7.51779 105.854 7.8344 105.509C8.56713 104.711 9.88611 102.791 10.4939 101.89C9.9994 101.961 9.51956 101.997 9.06123 101.997C5.8249 101.997 4.55458 100.247 4.50245 100.173C4.43224 100.073 4.44432 99.9368 4.5309 99.8506L7.65436 96.7589C7.70562 96.708 7.77671 96.6821 7.84908 96.6873C7.85209 96.6873 8.13984 96.7089 8.58956 96.7089C9.7328 96.7089 12.5375 96.5615 13.8823 95.1964C14.3984 94.6727 14.6543 94.0089 14.6431 93.2231C14.6207 91.6301 13.8526 91.446 13.2771 91.446C12.1942 91.446 10.646 92.2671 9.64964 92.9705C9.17795 93.3033 8.72093 93.4723 8.29146 93.4723C7.48852 93.4723 6.78806 92.8938 6.20868 91.7533C5.98684 91.3167 6.05966 90.7456 6.42538 90.0564C7.50573 88.0185 10.9876 85.2827 13.691 84.9426C14.0525 84.8974 14.4384 84.8741 14.8395 84.8741C16.8869 84.8741 19.008 85.4754 20.1487 85.8573C22.5872 84.7108 38.2093 76.9618 39.5377 74.5989C40.5617 72.7761 41.571 70.1899 42.7397 67.1951C44.2413 63.3477 45.9427 58.987 48.1095 55.2241C48.1517 55.1513 48.2275 55.1043 48.3115 55.0992C48.3977 55.0936 48.4765 55.1319 48.5269 55.1991L57.5776 67.346C57.594 67.3679 57.607 67.393 57.6156 67.4192C57.6281 67.4589 58.8975 71.4308 60.0455 75.1294C60.0627 75.1855 60.0601 75.2458 60.0373 75.2997C56.9853 82.6143 54.1958 87.428 51.746 89.6072C49.0788 91.9796 43.2075 95.0929 34.2954 98.8605C31.6548 100.445 28.9199 102.226 28.7088 102.391C26.984 104.086 24.2638 108.973 22.7638 113.072C21.1903 117.373 19.54 117.838 18.9033 117.838C18.6143 117.838 18.3399 117.748 18.1094 117.578C17.0278 116.781 16.9502 115.238 17.8906 113.232C18.2705 112.422 18.566 110.857 18.7215 109.897C17.042 111.758 12.0878 117.168 10.3036 118.243C9.45453 118.755 8.65718 119.014 7.93221 119.014ZM11.0824 109.441C11.1608 109.441 11.2374 109.478 11.2857 109.546C11.3589 109.648 11.3443 109.79 11.2516 109.875C8.94835 111.994 5.46477 115.802 5.92095 116.995C6.30131 117.989 6.99655 118.514 7.93174 118.514C8.56453 118.514 9.27532 118.279 10.0438 117.815C12.0964 116.578 18.8348 109.021 18.9024 108.944C18.9757 108.863 19.0933 108.838 19.1928 108.883C19.2923 108.929 19.3509 109.034 19.3371 109.143C19.3211 109.265 18.9434 112.16 18.3412 113.445C17.5132 115.211 17.5356 116.536 18.404 117.176C18.5501 117.284 18.7172 117.338 18.9016 117.338C19.7562 117.338 21.0959 116.172 22.2926 112.9C23.8153 108.738 26.5959 103.759 28.3638 102.027C28.4982 101.895 31.4475 99.9847 34.0515 98.4226C34.0614 98.4166 34.0722 98.4114 34.0829 98.4067C42.8287 94.7098 48.8211 91.5378 51.4121 89.2331C53.7964 87.1125 56.5305 82.3884 59.5394 75.1906C58.4608 71.7174 57.2852 68.033 57.1504 67.611L48.3528 55.8043C46.2938 59.459 44.6552 63.6581 43.204 67.3761C42.0284 70.3881 41.0136 72.9898 39.972 74.8433C38.4324 77.582 20.4467 86.2693 20.2675 86.3525C20.2094 86.3797 20.1426 86.3836 20.0819 86.3625C18.9964 85.9931 16.8723 85.3741 14.8382 85.3741C14.4583 85.3741 14.093 85.3957 13.7522 85.4388C11.2629 85.7521 7.88479 88.3685 6.86561 90.2905C6.66961 90.6598 6.47408 91.174 6.65327 91.5266C7.14047 92.4861 7.69137 92.9723 8.29057 92.9723C8.61493 92.9723 8.9751 92.8339 9.36106 92.5619C9.74358 92.2921 11.729 90.946 13.2767 90.946C14.1132 90.946 15.1161 91.34 15.1428 93.2163C15.1561 94.1408 14.8515 94.9248 14.2381 95.5477C12.814 96.9929 10.0877 97.2088 8.58908 97.2088C8.28582 97.2088 8.05496 97.1998 7.92616 97.1929L5.04738 100.042C5.43334 100.449 6.66231 101.497 9.06123 101.497C9.66473 101.497 10.3092 101.431 10.9768 101.3C11.0755 101.28 11.1763 101.323 11.2323 101.406C11.2883 101.49 11.2887 101.599 11.2331 101.683C11.1504 101.808 9.19819 104.763 8.2027 105.846C7.82535 106.257 6.84367 106.758 5.60134 107.393C3.74734 108.34 0.945226 109.771 1.15888 110.746C1.56725 112.61 2.42316 113.171 4.04025 112.724C5.92958 112.202 10.9131 109.497 10.9635 109.47C11.001 109.451 11.0419 109.441 11.0824 109.441Z" fill="#333333"/>
  <path d="M5.21336 100.414C3.20601 98.8561 4.31393 91.9485 6.43156 91.6403C8.5492 91.3321 9.2453 95.3497 8.94936 97.8953" fill="#FCD4D5"/>
  <path d="M5.21285 100.664C5.15944 100.664 5.10555 100.646 5.05989 100.611C3.74347 99.5896 3.66769 96.6288 4.2643 94.3616C4.72694 92.6043 5.50357 91.5224 6.39482 91.3923C6.95266 91.3117 7.45364 91.4815 7.88225 91.8987C9.05824 93.0423 9.43689 95.8565 9.19652 97.9237C9.18058 98.0607 9.05741 98.1603 8.91956 98.1431C8.78258 98.1271 8.68435 98.003 8.70029 97.8659C8.92515 95.9327 8.54348 93.2388 7.5342 92.2574C7.21802 91.9496 6.86909 91.8289 6.46676 91.8871C5.80338 91.9837 5.14476 92.9806 4.74759 94.4888C4.19579 96.5845 4.27549 99.3697 5.36619 100.216C5.47517 100.301 5.495 100.458 5.41057 100.567C5.36146 100.63 5.28737 100.664 5.21285 100.664Z" fill="#333333"/>
  <path d="M11.0812 109.941C11.0089 109.941 10.937 109.91 10.8874 109.849C10.8004 109.742 10.8163 109.585 10.9231 109.497C13.1054 107.718 15.1756 104.78 15.1963 104.751C15.2756 104.638 15.4315 104.611 15.5444 104.69C15.6572 104.769 15.6848 104.925 15.6056 105.038C15.5194 105.161 13.4754 108.062 11.2385 109.885C11.1924 109.922 11.1368 109.941 11.0812 109.941Z" fill="#333333"/>
  <path d="M20.9096 107.86C20.8803 107.86 20.8506 107.854 20.8217 107.844C20.7115 107.802 18.0757 106.796 14.4327 104.071C14.322 103.988 14.2996 103.832 14.3823 103.721C14.465 103.61 14.6218 103.588 14.7321 103.671C18.3186 106.353 20.9713 107.366 20.9975 107.375C21.1268 107.424 21.1922 107.568 21.1435 107.697C21.106 107.798 21.0108 107.86 20.9096 107.86Z" fill="#333333"/>
  <path d="M17.7128 97.4135C16.8987 97.4135 16.4141 97.2566 16.3667 97.2406C16.2362 97.1962 16.166 97.0544 16.2103 96.9234C16.2547 96.7928 16.396 96.7225 16.5265 96.7665C16.5636 96.7781 19.2188 97.6096 22.8269 95.029C22.9389 94.9488 23.0952 94.9747 23.1753 95.0872C23.2559 95.1997 23.2297 95.3557 23.1177 95.4359C20.8308 97.0725 18.9134 97.4135 17.7128 97.4135Z" fill="#333333"/>
  <path d="M87.1466 114.66C90.2903 114.342 104.542 112.914 109.395 111.396C114.248 109.878 113.3 113.402 113.3 113.402C116.954 123.342 107.857 133.505 105.972 133.654C104.499 133.771 87.7509 133.337 80.5055 133.143C78.306 133.084 76.1215 132.773 73.9931 132.216C71.4447 131.549 65.6343 131.415 61.9598 130.438C62.5211 120.532 64.5168 114.771 71.1962 110.281C73.4814 111.504 84.0029 114.978 87.1466 114.66Z" fill="#FCD4D5"/>
  <path d="M104.885 133.924C100.705 133.924 86.4363 133.552 80.496 133.392C78.2806 133.333 76.0704 133.018 73.9273 132.457C72.7961 132.161 70.9616 131.967 69.0197 131.761C66.6333 131.508 63.9284 131.221 61.8927 130.679C61.7781 130.649 61.7006 130.542 61.7075 130.424C62.2326 121.162 63.9298 114.863 71.0542 110.073C71.1308 110.022 71.2299 110.017 71.3113 110.06C73.4121 111.185 83.1445 114.431 86.6939 114.431C86.8499 114.431 86.9928 114.424 87.119 114.411L87.2423 114.399C101.547 112.952 107.143 111.837 109.318 111.157C110.148 110.898 110.87 110.766 111.464 110.766C112.277 110.766 112.874 111.008 113.24 111.485C113.764 112.168 113.618 113.106 113.559 113.386C115.873 119.785 112.967 125.822 111.024 128.858C109.088 131.882 106.903 133.832 105.989 133.904C105.816 133.917 105.455 133.924 104.885 133.924ZM62.2184 130.247C64.1938 130.746 66.7811 131.02 69.0727 131.263C71.034 131.471 72.8863 131.668 74.0536 131.973C76.1601 132.525 78.3323 132.834 80.5094 132.892C86.4479 133.052 100.711 133.423 104.885 133.423C105.433 133.423 105.791 133.417 105.949 133.405C106.639 133.35 108.743 131.491 110.602 128.588C112.503 125.619 115.35 119.71 113.063 113.488C113.045 113.439 113.042 113.387 113.056 113.337C113.058 113.327 113.3 112.385 112.841 111.787C112.352 111.152 111.18 111.099 109.466 111.634C107.269 112.321 101.638 113.446 87.2918 114.896L87.1686 114.909C87.026 114.923 86.8662 114.93 86.693 114.93C83.0711 114.93 73.6371 111.798 71.2097 110.571C64.4135 115.2 62.7443 121.308 62.2184 130.247Z" fill="#333333"/>
  <path d="M80.5421 133.053C87.5433 132.963 102.613 132.083 105.504 129.876C108.394 127.668 109.978 117.267 108.906 114.828C107.834 112.39 105.016 112.353 105.016 112.353C105.016 112.353 107.877 111.033 111.863 110.533C117.369 109.841 117.92 115.507 117.92 115.507C117.92 115.507 118.96 124.686 113.093 131.816C107.226 138.945 80.5421 133.053 80.5421 133.053Z" fill="#333333"/>
  <path d="M105.261 113.218C106.7 112.323 109.005 111.76 109.838 113.343C110.372 114.357 109.719 116.671 109.142 116.756L109.238 119.072C109.238 119.072 110.612 121.023 108.693 122.269C108.693 122.269 109.837 123.638 108.65 124.854C108.65 124.854 109.733 126.495 108.193 127.296C108.193 127.296 109.416 129.895 105.126 130.125L105.261 113.218Z" fill="#FCD4D5"/>
  <path d="M106.305 112.082C105.877 112.826 103.551 114.345 103.741 115.528C104.025 117.288 107.291 116.398 109.477 116.625C111.664 116.851 110.382 119.371 110.382 119.371C110.382 119.371 106.495 119.247 104.988 119.827C103.481 120.406 99.6359 126.372 98.6529 130.182C97.6699 133.991 95.5722 133.454 95.5722 133.454L92.7523 133.443C92.7523 133.443 93.6066 118.89 100.059 113.059L106.305 112.082Z" fill="#333333"/>
  <path d="M104.482 127.623C104.421 127.621 104.364 127.583 104.34 127.523C104.309 127.442 104.349 127.352 104.431 127.321C105.96 126.733 107.911 127.044 107.993 127.057C108.079 127.071 108.136 127.152 108.122 127.237C108.109 127.322 108.023 127.378 107.943 127.367C107.922 127.363 105.991 127.057 104.543 127.613C104.523 127.621 104.502 127.624 104.482 127.623Z" fill="#333333"/>
  <path d="M104.488 127.811L104.478 127.81C104.339 127.806 104.217 127.719 104.167 127.589C104.134 127.504 104.137 127.411 104.174 127.327C104.211 127.242 104.28 127.178 104.366 127.145C105.004 126.9 105.781 126.775 106.676 126.775C107.386 126.775 107.924 126.855 108.024 126.872C108.212 126.903 108.339 127.08 108.309 127.266C108.28 127.447 108.101 127.579 107.917 127.552C107.908 127.55 107.385 127.466 106.677 127.466C105.861 127.466 105.167 127.575 104.612 127.788C104.575 127.803 104.532 127.811 104.488 127.811Z" fill="#283B72"/>
  <path d="M105.2 122.159C105.133 122.157 105.072 122.112 105.053 122.044C105.031 121.961 105.08 121.874 105.163 121.851C106.287 121.542 107.752 121.738 107.815 121.746C107.9 121.759 107.96 121.838 107.949 121.924C107.936 122.009 107.854 122.068 107.771 122.058C107.758 122.054 106.308 121.862 105.246 122.154C105.231 122.158 105.215 122.16 105.2 122.159Z" fill="#333333"/>
  <path d="M105.206 122.347L105.195 122.347C105.043 122.342 104.914 122.24 104.874 122.094C104.824 121.91 104.933 121.721 105.114 121.67C105.55 121.55 106.08 121.49 106.689 121.49C107.328 121.49 107.821 121.557 107.842 121.56C108.029 121.586 108.161 121.76 108.136 121.948C108.11 122.132 107.935 122.268 107.749 122.243L107.736 122.241C107.65 122.229 107.207 122.179 106.688 122.179C106.139 122.179 105.671 122.232 105.297 122.335C105.263 122.343 105.234 122.347 105.206 122.347Z" fill="#283B72"/>
  <path d="M105.034 124.923C104.962 124.921 104.899 124.869 104.885 124.796C104.869 124.711 104.925 124.629 105.009 124.612C105.755 124.473 107.65 124.591 108.669 124.699C108.755 124.708 108.817 124.785 108.808 124.872C108.799 124.957 108.728 125.021 108.636 125.011C107.56 124.898 105.741 124.793 105.068 124.921C105.056 124.923 105.045 124.923 105.034 124.923Z" fill="#333333"/>
  <path d="M108.654 125.199C108.641 125.199 108.628 125.199 108.614 125.197C107.917 125.124 106.845 125.049 106.025 125.049C105.612 125.049 105.293 125.068 105.102 125.105C105.079 125.109 105.058 125.111 105.038 125.111C104.865 125.105 104.731 124.991 104.7 124.832C104.683 124.741 104.702 124.649 104.753 124.573C104.805 124.497 104.883 124.446 104.973 124.428C105.211 124.384 105.567 124.361 106.034 124.361C106.881 124.361 107.978 124.437 108.688 124.513C108.78 124.522 108.862 124.567 108.92 124.639C108.977 124.71 109.004 124.8 108.994 124.892C108.976 125.067 108.83 125.199 108.654 125.199Z" fill="#283B72"/>
  <path d="M80.4662 5.33884C80.3646 5.33884 80.2702 5.27633 80.2327 5.17762C79.8347 4.13324 78.9482 2.42809 78.2637 2.29965C78.128 2.27422 78.0389 2.14361 78.0639 2.00784C78.0893 1.87207 78.2203 1.78246 78.3555 1.80832C79.1111 1.95013 79.8114 3.09063 80.2486 3.97467C80.5786 1.32816 82.6627 0.675141 82.6864 0.668245C82.8191 0.62859 82.9578 0.704447 82.997 0.836773C83.0362 0.968668 82.9612 1.10787 82.8294 1.14752C82.7355 1.1764 80.5278 1.88673 80.7151 5.07418C80.7225 5.19745 80.639 5.3074 80.5184 5.33326C80.5011 5.33714 80.4834 5.33884 80.4662 5.33884Z" fill="#333333"/>
  <path d="M90.4433 40.7939C100.133 41.4013 106.993 43.3081 111.376 49.0283C115.759 54.7485 120.713 67.9047 120.713 67.9047C120.713 67.9047 113.282 78.9636 101.658 79.3451L101.787 79.7985L103.945 93.8362C103.945 93.8362 94.4171 105.658 78.6008 105.277C62.7849 104.895 54.4 94.9802 54.4 94.9802L57.8509 80.667C57.8509 80.667 50.589 80.2985 37.6312 71.5275C37.6312 71.5275 44.8723 52.8416 51.5419 46.9309C58.2114 41.0202 71.3596 40.8293 71.3596 40.8293L90.4433 40.7939Z" fill="#FC4F68"/>
  <path d="M79.3478 105.536C79.0941 105.536 78.8476 105.533 78.5934 105.527C70.3671 105.328 64.1788 102.519 60.4364 100.198C56.3764 97.6796 54.2291 95.1667 54.208 95.1417C54.1563 95.081 54.1369 94.9991 54.1558 94.9215L57.5386 80.8907C56.0348 80.726 49.0625 79.5678 37.49 71.7343C37.3935 71.6692 37.3547 71.5456 37.3969 71.4369C37.6933 70.6714 44.7364 52.6269 51.3749 46.7433C54.8628 43.6524 60.1133 42.1413 63.9036 41.4176C67.9985 40.6361 71.3213 40.5796 71.3545 40.5788L90.4416 40.5434C90.452 40.5413 90.4525 40.5434 90.4576 40.5438C101.449 41.2326 107.567 43.6469 111.573 48.8756C115.928 54.5596 120.896 67.6844 120.946 67.8163C120.974 67.8922 120.964 67.9771 120.919 68.0439C120.9 68.0719 119.004 70.8697 115.705 73.6722C112.707 76.2183 107.913 79.2855 101.984 79.5816L102.026 79.7299C102.028 79.7398 102.03 79.7501 102.032 79.7605L104.19 93.7982C104.201 93.8676 104.182 93.9383 104.138 93.993C104.114 94.0219 101.758 96.9176 97.548 99.768C93.6612 102.399 87.3488 105.536 79.3478 105.536ZM54.6719 94.9124C55.0979 95.3866 57.1592 97.5796 60.7173 99.7839C64.4046 102.068 70.5007 104.831 78.6051 105.026C78.855 105.033 79.0979 105.036 79.3473 105.036C87.2216 105.036 93.4384 101.946 97.2675 99.3537C101.018 96.815 103.265 94.253 103.679 93.7629L101.541 79.8515L101.416 79.4131C101.395 79.339 101.409 79.2597 101.455 79.1976C101.5 79.1355 101.572 79.0976 101.648 79.095C107.576 78.9006 112.382 75.8364 115.371 73.3003C118.262 70.8469 120.057 68.4004 120.432 67.8698C119.917 66.5232 115.263 54.5126 111.177 49.1795C107.27 44.08 101.26 41.7227 90.4347 41.043L71.3592 41.0784C71.2317 41.0801 58.2287 41.3365 51.7065 47.117C45.5121 52.6066 38.713 69.4701 37.9359 71.4317C50.5659 79.9424 57.7906 80.4127 57.8625 80.4166C57.9366 80.4204 58.0056 80.457 58.0499 80.5165C58.0943 80.576 58.1103 80.6523 58.0926 80.7247L54.6719 94.9124Z" fill="#333333"/>
  <path d="M97.9806 22.911C97.0053 21.3511 94.951 20.8761 93.6988 21.8839C93.7539 20.5774 93.713 19.7637 93.713 19.7637C93.713 19.7637 92.7964 6.87419 81.8382 6.50739C68.0921 6.04705 67.9395 18.9537 67.9395 18.9537C67.9395 18.9537 67.956 20.3003 68.0942 22.2692C66.9277 20.7882 64.5188 21.1783 63.4355 22.9106C62.2465 24.8196 62.5947 29.8019 66.3759 30.2407C67.561 30.3773 68.3592 29.757 68.8968 28.8342C69.082 29.81 70.811 34.688 75.1682 36.4987C75.2487 37.453 75.2113 39.3552 75.2286 40.478L70.214 40.7879C70.214 40.7879 70.8804 47.4887 80.3585 47.4887C89.8366 47.4887 90.4371 40.7935 90.4371 40.7935L85.8499 40.1211C85.8012 39.2276 85.8003 37.7306 85.8347 36.4987C90.4629 34.8987 92.351 29.9424 92.6155 28.9877C93.1531 29.823 93.9267 30.3687 95.0402 30.2407C98.8215 29.8023 99.1734 24.8205 97.9806 22.911Z" fill="#FCD4D5"/>
  <path d="M80.3594 47.7394C75.3647 47.7394 72.8059 45.867 71.5386 44.2959C70.1563 42.5821 69.9737 40.8847 69.9664 40.8132C69.9595 40.7455 69.9806 40.6783 70.0245 40.6266C70.0685 40.5748 70.1318 40.5434 70.1994 40.5391L74.9765 40.2438C74.974 39.9377 74.974 39.5904 74.974 39.2274C74.974 38.3305 74.974 37.3227 74.9309 36.6697C71.1514 35.0219 69.3254 31.1026 68.7973 29.4306C68.1636 30.2444 67.3369 30.603 66.3479 30.4896C64.5344 30.2788 63.6147 29.1151 63.1624 28.1755C62.2621 26.3052 62.4866 23.963 63.2245 22.7786C63.8702 21.7458 64.9928 21.1044 66.1541 21.1044C66.7757 21.1044 67.3431 21.2898 67.8031 21.6359C67.7049 20.0372 67.6907 18.9687 67.6907 18.957C67.6924 18.8213 67.7467 15.7395 69.4232 12.6067C70.9761 9.70463 74.2676 6.24561 81.1296 6.24561C81.3653 6.24561 81.6069 6.24946 81.8477 6.25765C86.4263 6.4111 89.9749 8.79899 92.1102 13.1632C93.7122 16.4372 93.9535 19.6122 93.9634 19.7459C93.9651 19.7795 93.9947 20.3945 93.9663 21.4118C94.354 21.2088 94.7934 21.1031 95.2617 21.1031C96.4243 21.1031 97.5477 21.7449 98.1934 22.7781C98.9317 23.9595 99.1583 26.2996 98.2593 28.1703C97.807 29.1116 96.886 30.2784 95.0704 30.4892C94.1266 30.5978 93.3297 30.2724 92.705 29.5306C92.0369 31.4068 89.9671 35.2478 86.0808 36.6771C86.0519 37.8439 86.0558 39.0873 86.0907 39.9041L90.4746 40.5468C90.6055 40.5662 90.6991 40.6843 90.6874 40.8167C90.681 40.8882 90.5147 42.5851 89.1487 44.298C87.8961 45.8678 85.3545 47.7394 80.3594 47.7394ZM70.5065 41.021C70.6116 41.5429 70.9507 42.7808 71.9445 44.0032C73.6654 46.1204 76.5752 47.2394 80.359 47.2394C84.1557 47.2394 87.0594 46.1144 88.7571 43.986C89.744 42.7485 90.0602 41.5084 90.1533 41.0054L85.8142 40.3692C85.6966 40.352 85.6074 40.2541 85.6009 40.1356C85.5548 39.2847 85.5488 37.821 85.5855 36.4925C85.5885 36.3887 85.6552 36.2973 85.7534 36.2632C90.6874 34.5577 92.3596 28.9776 92.3751 28.9216C92.4014 28.8267 92.4811 28.7561 92.5784 28.7414C92.6749 28.7272 92.7727 28.7707 92.8261 28.8535C93.3874 29.7259 94.1021 30.0978 95.0127 29.9931C96.6022 29.8086 97.4104 28.7823 97.8084 27.9539C98.6217 26.2613 98.4213 24.0872 97.7692 23.0436C97.2139 22.1553 96.2524 21.6036 95.2608 21.6036C94.728 21.6036 94.2421 21.7678 93.8557 22.079C93.779 22.1402 93.6739 22.1518 93.5865 22.1075C93.499 22.0631 93.4451 21.9717 93.4494 21.8738C93.5033 20.5963 93.464 19.7846 93.4636 19.7764C93.4615 19.7497 93.2173 16.558 91.654 13.3701C89.5751 9.13093 86.2699 6.90637 81.8301 6.75766C81.5944 6.7499 81.3587 6.74561 81.1283 6.74561C75.8178 6.74561 72.028 8.79687 69.8626 12.8429C68.2434 15.8687 68.1895 18.9264 68.1891 18.957C68.1891 18.9644 68.2071 20.3144 68.3432 22.2523C68.351 22.3617 68.2864 22.4635 68.1839 22.5031C68.0814 22.5428 67.9651 22.5109 67.8974 22.4247C67.4809 21.8962 66.861 21.6049 66.1524 21.6049C65.1621 21.6049 64.2019 22.1561 63.6466 23.0441C62.9953 24.0902 62.7963 26.2668 63.6113 27.9591C64.0093 28.7853 64.8166 29.809 66.404 29.9935C67.3667 30.1043 68.1119 29.6849 68.6801 28.7095C68.7326 28.6194 68.8357 28.5716 68.9382 28.5888C69.0411 28.6065 69.1221 28.6858 69.1415 28.7884C69.3435 29.8517 71.0674 34.5249 75.2634 36.2684C75.3496 36.3042 75.4086 36.3852 75.4168 36.4783C75.4723 37.1395 75.4724 38.249 75.4724 39.2274C75.4724 39.6865 75.4724 40.1196 75.478 40.4748C75.4801 40.6084 75.3768 40.7201 75.2437 40.7283L70.5065 41.021Z" fill="#333333"/>
  <path d="M93.853 21.3777C93.6953 23.0109 92.817 24.2065 91.8732 24.0716C90.9299 23.9367 91.6036 20.1605 90.8623 15.305C90.1209 10.4494 89.1099 8.76367 89.1099 8.76367C89.1099 8.76367 94.4849 14.8399 93.853 21.3777Z" fill="#DBD5EF"/>
  <path d="M92.0193 24.3319C91.959 24.3319 91.8983 24.3275 91.8384 24.3189C91.1092 24.2146 91.0812 23.0603 91.0303 20.9651C90.9929 19.4242 90.9464 17.5061 90.616 15.3428C89.894 10.6148 88.9062 8.9088 88.8963 8.89199C88.8304 8.78121 88.8598 8.63816 88.964 8.5623C89.0678 8.48644 89.2129 8.50152 89.2982 8.5985C89.3525 8.66014 94.7375 14.8324 94.103 21.4022C93.941 23.072 93.0454 24.3319 92.0193 24.3319ZM90.0233 10.3644C90.3597 11.4131 90.7637 12.9958 91.1105 15.2669C91.4456 17.4617 91.4926 19.3975 91.5305 20.9526C91.5628 22.2776 91.5994 23.7793 91.9099 23.8237C91.9466 23.8289 91.9837 23.8314 92.0203 23.8314C92.775 23.8314 93.4715 22.7427 93.6059 21.353C94.0401 16.854 91.5395 12.5286 90.0233 10.3644Z" fill="#363636"/>
  <path d="M67.663 21.8841C67.8207 23.5172 68.6995 24.7129 69.6429 24.578C70.5863 24.4431 69.9125 20.6668 70.6539 15.8113C71.3952 10.9558 72.4062 9.27002 72.4062 9.27002C72.4062 9.27002 67.0315 15.3462 67.663 21.8841Z" fill="#DBD5EF"/>
  <path d="M69.498 24.8382C68.4715 24.8382 67.5764 23.5783 67.4148 21.9081C66.7799 15.3379 72.1649 9.16603 72.2192 9.10439C72.3049 9.00741 72.45 8.99228 72.5542 9.06814C72.658 9.14443 72.6874 9.28758 72.6206 9.39835C72.6111 9.4143 71.6229 11.1207 70.9014 15.8487C70.571 18.0124 70.5245 19.93 70.4871 21.471C70.4362 23.5662 70.4082 24.7209 69.679 24.8248C69.6187 24.8339 69.5578 24.8382 69.498 24.8382ZM71.4937 10.8729C69.9774 13.0383 67.4777 17.3646 67.9124 21.8598C68.0468 23.2494 68.7428 24.3377 69.498 24.3377C69.5346 24.3377 69.5713 24.3352 69.6079 24.33C69.9184 24.2856 69.955 22.7839 69.9873 21.4589C70.0252 19.9038 70.0722 17.968 70.4073 15.7732C70.7532 13.5043 71.1573 11.9215 71.4937 10.8729Z" fill="#363636"/>
  <path d="M97.8222 16.0941C97.4108 13.9286 95.7515 12.3114 94.5975 10.5209C93.3121 8.52701 92.0987 6.35159 90.0487 5.04212C89.1372 4.4598 88.0025 3.97576 86.8071 3.693C85.0845 3.28525 83.2352 3.29561 81.7414 4.02922L79.3002 4.19127C74.424 2.91198 68.9124 5.62319 66.7788 10.1093C65.801 12.1653 65.306 14.4136 64.8649 16.6471C64.7025 17.47 64.5517 18.3523 64.8799 19.1238C65.0191 19.4505 65.2552 19.7522 65.5834 19.888C66.4764 20.2574 67.3315 19.2889 68.2693 19.0574C68.7599 20.4677 70.6669 20.3406 71.6525 19.6174C73.1175 18.5419 73.8825 16.4769 74.6958 14.9243C75.6547 13.0942 78.095 9.37869 80.5779 11.3325C81.0267 10.7541 82.0274 10.9813 82.4534 11.5769C82.8795 12.1726 82.8963 12.9588 82.8971 13.6911C82.898 14.6924 82.8992 15.6941 82.9001 16.6954C82.9009 17.5562 83.1061 18.6721 83.9555 18.8057C84.301 18.86 84.6525 18.7096 84.9248 18.4898C85.723 17.8458 85.9176 16.7118 85.9129 15.686C85.9086 14.6597 85.7673 13.5997 86.1094 12.6325C87.0239 13.7532 87.0729 15.317 87.265 16.751C87.4572 18.185 87.9987 19.7915 89.3448 20.3199C90.594 20.8104 92.1822 19.9531 92.4592 18.6389C93.6499 19.5247 95.3006 20.1639 96.5825 19.4165C97.6702 18.7816 98.057 17.3329 97.8222 16.0941Z" fill="white"/>
  <path d="M90.0983 20.7099C89.8019 20.7099 89.5175 20.6573 89.2518 20.553C87.7415 19.9603 87.2022 18.1763 87.0157 16.7845C86.9873 16.572 86.9618 16.3569 86.9364 16.1406C86.8162 15.1182 86.6922 14.066 86.2093 13.2216C86.1042 13.7846 86.124 14.3772 86.1447 14.9966C86.1525 15.2224 86.1602 15.4556 86.161 15.685C86.167 17.0914 85.803 18.1009 85.0798 18.6845C84.7167 18.9776 84.2933 19.1121 83.9151 19.0526C83.1117 18.9263 82.6499 18.0677 82.6487 16.6957L82.6456 13.6915C82.6447 12.9169 82.6141 12.2341 82.2484 11.7225C82.0451 11.438 81.6699 11.2471 81.3145 11.2471C81.1525 11.2471 80.9269 11.2885 80.7739 11.4859C80.733 11.5385 80.6732 11.5725 80.6068 11.5807C80.5409 11.5885 80.4741 11.5704 80.422 11.529C80.0011 11.198 79.5609 11.0298 79.1134 11.0298C77.168 11.0298 75.4083 14.0992 74.9155 15.0401C74.754 15.3492 74.5955 15.675 74.428 16.0203C73.7676 17.3806 73.0189 18.9229 71.7986 19.819C71.3067 20.1802 70.6273 20.3956 69.9816 20.3956C69.1141 20.3956 68.4502 20.0224 68.125 19.3625C67.8786 19.4526 67.6296 19.5901 67.387 19.7241C66.9442 19.9685 66.4868 20.2211 66.0004 20.2211C65.8229 20.2211 65.6503 20.1866 65.4866 20.1194C65.1295 19.9719 64.8318 19.653 64.6487 19.222C64.3028 18.4095 64.4368 17.5177 64.6181 16.5987C65.0506 14.4078 65.5563 12.0941 66.5514 10.0019C68.3373 6.24676 72.5537 3.62391 76.804 3.62391C77.6638 3.62391 78.5107 3.72997 79.3222 3.93902L81.6747 3.78296C82.5181 3.37823 83.4989 3.1731 84.5909 3.1731C85.3232 3.1731 86.0878 3.26618 86.8632 3.4498C88.047 3.72997 89.2255 4.22088 90.1818 4.83165C92.0349 6.01568 93.2117 7.87344 94.3503 9.6704C94.5023 9.91005 94.6536 10.1493 94.806 10.3859C95.1209 10.8747 95.4836 11.3626 95.8338 11.8346C96.7798 13.1083 97.7581 14.4255 98.0661 16.0479C98.2961 17.2582 97.9688 18.897 96.7066 19.6332C96.2931 19.8741 95.824 19.9965 95.3126 19.9965C94.2336 19.9965 93.2278 19.4668 92.5963 19.0435C92.2194 20.0017 91.1898 20.7099 90.0983 20.7099ZM86.1081 12.3824C86.1826 12.3824 86.2537 12.4156 86.3015 12.4742C87.1277 13.4863 87.2828 14.8057 87.4331 16.0819C87.4581 16.2953 87.483 16.5082 87.511 16.7177C87.6799 17.9767 88.1503 19.5832 89.4344 20.087C89.6416 20.1685 89.8648 20.2094 90.0983 20.2094C91.0925 20.2094 92.0216 19.497 92.2128 18.5875C92.2305 18.5039 92.2891 18.4354 92.3688 18.4052C92.4485 18.375 92.5381 18.3875 92.6066 18.4384C93.5099 19.1104 94.4959 19.4957 95.3122 19.4957C95.7339 19.4957 96.1185 19.3965 96.4545 19.2004C97.5069 18.5862 97.7731 17.1836 97.575 16.1406C97.2881 14.6311 96.3452 13.3609 95.4328 12.1324C95.0775 11.654 94.7099 11.1592 94.386 10.6566C94.2331 10.4191 94.0806 10.179 93.9281 9.93806C92.8189 8.18722 91.6722 6.37691 89.9125 5.25278C89.0023 4.67133 87.8785 4.20364 86.7482 3.93597C86.0103 3.7614 85.2844 3.67305 84.5909 3.67305C83.5566 3.67305 82.6344 3.86833 81.85 4.25366C81.8207 4.26789 81.7888 4.2765 81.7565 4.27866L79.3154 4.44071C79.2878 4.44201 79.2615 4.43988 79.2353 4.43298C78.453 4.22781 77.6354 4.12391 76.804 4.12391C72.7393 4.12391 68.7091 6.62948 67.0025 10.2165C66.0324 12.2566 65.5343 14.5358 65.1079 16.6957C64.942 17.5345 64.8175 18.344 65.1079 19.0258C65.1841 19.2051 65.3599 19.5258 65.6769 19.6569C65.7812 19.7 65.8871 19.7211 66 19.7211C66.3575 19.7211 66.7406 19.5099 67.1455 19.2862C67.4832 19.1 67.8325 18.9069 68.2077 18.8146C68.333 18.7832 68.461 18.8535 68.5036 18.975C68.7823 19.7759 69.5491 19.8957 69.9816 19.8957C70.5166 19.8957 71.0999 19.7116 71.5031 19.4155C72.6235 18.5931 73.3432 17.1099 73.9782 15.8018C74.1475 15.4531 74.3074 15.1237 74.4728 14.8078C75.1465 13.5216 76.9479 10.5299 79.1129 10.5299C79.6096 10.5299 80.092 10.6889 80.5504 11.0032C80.755 10.8363 81.0186 10.7471 81.3141 10.7471C81.831 10.7471 82.3574 11.0156 82.6546 11.4316C83.1436 12.1152 83.1444 13.026 83.1448 13.691L83.1479 16.6953C83.1483 17.216 83.2319 18.4392 83.9917 18.5586C84.2317 18.5957 84.5121 18.4996 84.7653 18.2953C85.3645 17.8117 85.6661 16.9341 85.6605 15.6871C85.6597 15.4647 85.6519 15.2354 85.6445 15.013C85.617 14.194 85.5886 13.3475 85.8716 12.5488C85.9018 12.4635 85.9754 12.4014 86.0646 12.3858C86.0792 12.3837 86.0939 12.3824 86.1081 12.3824Z" fill="#363636"/>
  <path d="M93.5446 27.8214C93.4123 27.8214 93.3016 27.7171 93.2951 27.5835C93.2137 25.9103 93.6027 24.709 94.4505 24.0128C95.6217 23.0512 97.2108 23.4348 97.2784 23.4512C97.4124 23.4848 97.4937 23.6206 97.4601 23.7547C97.4265 23.8883 97.2909 23.9706 97.1574 23.9366C97.135 23.9314 95.7359 23.6012 94.7649 24.4016C94.0481 24.9926 93.7217 26.0551 93.7945 27.5594C93.8009 27.6973 93.6949 27.8145 93.5567 27.8214C93.5528 27.8214 93.5489 27.8214 93.5446 27.8214Z" fill="#333333"/>
  <path d="M95.8684 26.3037C95.827 26.3037 95.7848 26.2933 95.7461 26.2714L93.8925 25.2261C93.7723 25.1584 93.7301 25.0058 93.7977 24.8856C93.8654 24.7653 94.0173 24.7226 94.1379 24.7907L95.9916 25.836C96.1118 25.9037 96.154 26.0562 96.0864 26.1765C96.0403 26.2575 95.9554 26.3037 95.8684 26.3037Z" fill="#333333"/>
  <path d="M67.8804 28.0736C67.8761 28.0736 67.8722 28.0736 67.8679 28.0736C67.7301 28.0667 67.6237 27.9495 67.6301 27.8115C67.7034 26.3073 67.3769 25.2448 66.6597 24.6538C65.6857 23.8512 64.2809 24.1853 64.2667 24.1887C64.1332 24.2211 63.9975 24.1401 63.9643 24.0064C63.9312 23.8724 64.0121 23.737 64.1461 23.7038C64.2133 23.687 65.8029 23.3038 66.9741 24.2655C67.8223 24.9616 68.2108 26.1633 68.1294 27.8361C68.1229 27.9693 68.0127 28.0736 67.8804 28.0736Z" fill="#333333"/>
  <path d="M65.5579 26.5559C65.4709 26.5559 65.3861 26.5102 65.34 26.4287C65.2723 26.3085 65.3145 26.1559 65.4347 26.0882L67.2879 25.043C67.4081 24.9753 67.5606 25.0175 67.6286 25.1378C67.6962 25.2581 67.654 25.4106 67.5339 25.4783L65.6803 26.5235C65.6415 26.5455 65.5992 26.5559 65.5579 26.5559Z" fill="#333333"/>
  <path d="M87.1853 6.34292C86.7364 6.34896 86.2708 6.35885 85.868 6.55712C85.6105 6.68384 85.3946 6.88084 85.1965 7.08859C84.6098 7.7041 84.1303 8.58771 84.4387 9.38037C84.7325 10.1347 85.7776 10.473 86.4569 10.0334C86.5624 9.96528 86.6581 9.88253 86.7658 9.81787C87.3481 9.46831 88.0869 9.71395 88.7365 9.91179C89.3861 10.1096 90.2079 10.2027 90.6369 9.67602C90.8566 9.4062 90.9084 9.02737 90.8403 8.68642C90.7723 8.34505 90.5965 8.03511 90.401 7.74718C90.1098 7.3196 89.7574 6.9179 89.3021 6.67351C88.6658 6.33213 87.9077 6.33344 87.1853 6.34292Z" fill="white"/>
  <path d="M75.1876 10.4486C75.4155 10.0999 75.4961 9.63484 75.3126 9.26071C75.117 8.86201 74.6845 8.65168 74.3127 8.40944C73.9716 8.18703 73.6619 7.91723 73.3948 7.60947C73.1015 7.27111 72.7965 6.85302 72.3494 6.83276C72.1693 6.82457 71.9935 6.88664 71.8298 6.96293C71.4348 7.14741 71.0825 7.42239 70.8072 7.76074C70.5944 8.02238 70.423 8.37581 70.5501 8.6883C70.6664 8.97364 70.9902 9.11459 71.2939 9.16416C71.5976 9.21373 71.9155 9.20169 72.2033 9.31117C72.5591 9.44694 72.8201 9.74823 73.1242 9.97797C73.7045 10.4163 74.4751 10.5917 75.1876 10.4486Z" fill="white"/>
  <path d="M90.2297 25.9491C89.3665 25.1568 87.3096 25.7262 86.4747 26.0861C84.9563 26.7409 85.7209 27.9654 87.0558 28.1589C88.1206 28.3132 89.4547 28.3059 90.2409 27.4503C90.5105 27.1564 90.6622 26.7176 90.5084 26.3495C90.4412 26.1883 90.3465 26.0564 90.2297 25.9491Z" fill="#EFB6B3"/>
  <path d="M71.7148 25.9491C72.5781 25.1568 74.6354 25.7262 75.4698 26.0861C76.9882 26.7409 76.2236 27.9654 74.8882 28.1589C73.8234 28.3132 72.4893 28.3059 71.7031 27.4503C71.4335 27.1564 71.2823 26.7176 71.4357 26.3495C71.5033 26.1883 71.5981 26.0564 71.7148 25.9491Z" fill="#EFB6B3"/>
  <path d="M86.8765 19.945C86.8916 19.4808 86.282 19.0839 85.5148 19.0589C84.7476 19.0339 84.1135 19.3899 84.0984 19.8541C84.0833 20.3183 84.6929 20.7153 85.4597 20.7403C86.2273 20.7657 86.8614 20.4092 86.8765 19.945Z" fill="#333333"/>
  <path d="M78.0753 19.9121C78.0903 19.4479 77.4807 19.0509 76.7136 19.0259C75.9464 19.0009 75.3123 19.3569 75.2973 19.8211C75.2822 20.2853 75.8917 20.6823 76.6589 20.7073C77.4261 20.7323 78.0602 20.3763 78.0753 19.9121Z" fill="#333333"/>
  <path d="M81.625 26.8632C81.5621 26.8632 81.4996 26.8399 81.4509 26.7925C81.3519 26.6964 81.3493 26.5378 81.4458 26.4391C82.2414 25.6188 81.6065 24.6499 81.5794 24.6093C81.5022 24.4947 81.5328 24.3391 81.6474 24.2624C81.7624 24.1848 81.9175 24.2163 81.9941 24.3305C82.3043 24.793 82.664 25.9011 81.8046 26.7873C81.7555 26.8378 81.6905 26.8632 81.625 26.8632Z" fill="#333333"/>
  <path d="M86.7847 26.6321C85.6776 26.6321 83.8052 26.0399 83.7259 26.0149C83.5945 25.9731 83.5216 25.8325 83.5634 25.7006C83.6052 25.5692 83.7448 25.4964 83.8774 25.5382C83.896 25.5442 85.7556 26.1321 86.7847 26.1321C86.9225 26.1321 87.0346 26.2442 87.0346 26.3821C87.0346 26.5201 86.9225 26.6321 86.7847 26.6321Z" fill="#333333"/>
  <path d="M75.2339 26.7203C75.2042 26.7203 75.1744 26.7199 75.1456 26.7186C75.0077 26.713 74.9005 26.5966 74.9061 26.4587C74.9117 26.3207 75.0246 26.2143 75.1659 26.219C76.1769 26.2548 77.927 25.4298 77.9447 25.4212C78.0696 25.3621 78.2183 25.4147 78.2777 25.5393C78.3368 25.6638 78.2841 25.813 78.1592 25.8725C78.0851 25.9083 76.3668 26.7203 75.2339 26.7203Z" fill="#333333"/>
  <path d="M76.2251 24.0984C74.5175 24.0984 73.3979 23.1105 73.3828 23.0967C73.2803 23.004 73.2721 22.8458 73.3648 22.7437C73.4569 22.6415 73.6151 22.6333 73.7176 22.7256C73.796 22.7958 75.6039 24.3721 78.1415 23.1316C78.266 23.0704 78.415 23.1225 78.4758 23.2462C78.5365 23.3704 78.4849 23.5199 78.3612 23.5807C77.5846 23.96 76.8635 24.0984 76.2251 24.0984Z" fill="#333333"/>
  <path d="M85.9585 24.0985C85.3197 24.0985 84.599 23.9601 83.8228 23.5808C83.6987 23.52 83.6474 23.3705 83.7082 23.2463C83.7685 23.1222 83.9176 23.0705 84.0425 23.1317C86.5818 24.3726 88.3905 22.7933 88.4663 22.7256C88.5688 22.6334 88.727 22.6425 88.8192 22.7446C88.9113 22.8472 88.9036 23.005 88.8011 23.0972C88.7851 23.111 87.6656 24.0985 85.9585 24.0985Z" fill="#333333"/>
  <path d="M78.0908 31.8378C78.0834 31.8378 78.0761 31.8374 78.0684 31.837C77.9309 31.8249 77.8292 31.7034 77.8413 31.5659L78.0955 28.6741C78.1076 28.5366 78.2294 28.4353 78.3664 28.447C78.5038 28.459 78.6055 28.5806 78.5935 28.7181L78.3393 31.6098C78.3276 31.7396 78.2187 31.8378 78.0908 31.8378Z" fill="#333333"/>
  <path d="M80.9022 30.888C79.3144 30.888 78.2285 30.2867 78.1613 30.2483C78.0412 30.1802 77.9994 30.0276 78.0674 29.9074C78.1355 29.7875 78.2876 29.7449 78.4077 29.813C78.4362 29.8289 80.692 31.0643 83.3899 29.835C83.5153 29.7776 83.6635 29.8332 83.7212 29.9587C83.7785 30.0845 83.7229 30.2328 83.5975 30.2897C82.6167 30.7375 81.6965 30.888 80.9022 30.888Z" fill="#333333"/>
  <path d="M85.8423 36.4187C85.8423 36.4187 81.1733 38.0079 76.8221 36.4187C76.8221 36.4187 80.6016 39.5333 85.8737 38.9609L85.8423 36.4187Z" fill="#333333"/>
  <path d="M84.5758 39.281C84.5754 39.281 84.5754 39.281 84.5758 39.281C79.955 39.2806 76.7941 36.7202 76.6618 36.6112C76.5679 36.5336 76.5434 36.4 76.6037 36.294C76.6644 36.1879 76.7924 36.1414 76.9061 36.1832C78.1618 36.6418 79.5703 36.8742 81.0922 36.8742C81.0926 36.8742 81.0927 36.8742 81.0927 36.8742C83.6937 36.8742 85.7394 36.1884 85.76 36.1815C85.8358 36.156 85.9194 36.1677 85.9845 36.2143C86.0499 36.2604 86.0891 36.3349 86.0899 36.4151L86.1218 38.9577C86.1235 39.0866 86.0271 39.1957 85.8987 39.2095C85.4615 39.2569 85.0161 39.281 84.5758 39.281ZM78.3323 37.1043C79.6603 37.8435 81.8758 38.7806 84.575 38.781C84.575 38.781 84.5754 38.781 84.5758 38.781C84.923 38.781 85.2733 38.7655 85.6201 38.7344L85.595 36.7552C84.9036 36.9535 83.1888 37.3745 81.0931 37.3745C80.1269 37.375 79.2037 37.284 78.3323 37.1043Z" fill="#333333"/>
  <path d="M74.4336 17.9197C74.3004 17.9197 74.1902 17.8149 74.1842 17.6809C74.1782 17.5429 74.285 17.4261 74.4228 17.4201C74.9738 17.3955 75.4136 16.9266 75.6415 16.4955C75.8362 16.127 75.9469 15.7223 76.0645 15.2934C76.1106 15.124 76.1588 14.9481 76.2122 14.7762C76.5271 13.7624 77.0578 12.7995 77.7462 11.9917C78.1705 11.4939 78.5672 11.162 78.9962 10.9474C79.5528 10.6685 80.1292 10.8064 80.6194 10.9775C80.7499 11.0232 80.8184 11.1654 80.7727 11.296C80.727 11.4262 80.5844 11.4956 80.4544 11.4495C80.043 11.3055 79.6084 11.1995 79.2194 11.3943C78.8528 11.578 78.5051 11.8706 78.1261 12.3158C77.4812 13.0727 76.9841 13.9744 76.6891 14.9244C76.6382 15.0886 76.5913 15.2598 76.5456 15.4253C76.4263 15.861 76.3031 16.3119 76.0826 16.7291C75.7901 17.2822 75.2064 17.8856 74.4444 17.9192C74.4414 17.9192 74.4374 17.9197 74.4336 17.9197Z" fill="#333333"/>
  <path d="M68.2682 19.3078C68.1536 19.3078 68.0501 19.228 68.0243 19.1112C67.488 16.6677 70.1394 12.7919 70.2527 12.6281C70.3311 12.5143 70.4865 12.4859 70.6003 12.5643C70.714 12.6428 70.7425 12.7988 70.6637 12.9122C70.637 12.9505 68.0222 16.7724 68.512 19.0039C68.5417 19.1388 68.4564 19.272 68.3216 19.3017C68.3039 19.3056 68.2863 19.3078 68.2682 19.3078Z" fill="#333333"/>
  <path d="M92.4563 18.8884C92.3301 18.8884 92.2215 18.7932 92.2081 18.6647C92.0027 16.716 90.3007 12.3855 90.2835 12.3419C90.2331 12.2135 90.296 12.0683 90.4244 12.0174C90.5532 11.967 90.6979 12.0299 90.7487 12.1583C90.8198 12.3385 92.4929 16.5966 92.7057 18.6121C92.7199 18.7496 92.6209 18.8725 92.4835 18.8871C92.474 18.888 92.465 18.8884 92.4563 18.8884Z" fill="#333333"/>
  <path d="M80.5762 11.5826C80.4388 11.5826 80.3272 11.4718 80.3264 11.3338L80.2949 5.9654C80.2941 5.82748 80.4052 5.71454 80.5434 5.71411H80.5448C80.6822 5.71411 80.7937 5.82484 80.7946 5.96277L80.826 11.3313C80.8269 11.4692 80.7158 11.5821 80.5775 11.5826C80.5775 11.5826 80.5771 11.5826 80.5762 11.5826Z" fill="#333333"/>
  <path d="M57.8486 80.917C57.7151 80.917 57.6044 80.8114 57.5993 80.6765L57.0066 65.2526C57.001 65.1147 57.1086 64.9983 57.2464 64.9931C57.2499 64.9927 57.2529 64.9927 57.2563 64.9927C57.3899 64.9927 57.5006 65.0983 57.5058 65.2332L58.0985 80.6571C58.1037 80.795 57.9965 80.9114 57.8586 80.9166C57.8552 80.917 57.8516 80.917 57.8486 80.917Z" fill="#333333"/>
  <path d="M101.654 79.5955C101.651 79.5955 101.648 79.5955 101.645 79.5955C101.507 79.5908 101.399 79.4748 101.404 79.3369L101.977 63.2005C101.982 63.0626 102.093 62.9561 102.236 62.9596C102.374 62.9643 102.482 63.0802 102.477 63.2182L101.904 79.3546C101.899 79.4895 101.788 79.5955 101.654 79.5955Z" fill="#333333"/>
  <path d="M57.255 69.4339C57.174 69.4339 57.0952 69.3947 57.047 69.3227L55.2684 66.6533C55.1917 66.5387 55.2227 66.383 55.3377 66.3068C55.4527 66.23 55.6074 66.2611 55.684 66.3762L57.4627 69.0455C57.5394 69.1606 57.5083 69.3158 57.3933 69.3925C57.3507 69.4205 57.3024 69.4339 57.255 69.4339Z" fill="#333333"/>
  <path d="M102.354 66.383C102.285 66.383 102.216 66.3546 102.167 66.299C102.075 66.1955 102.084 66.0378 102.187 65.946L103.331 64.9292C103.433 64.8378 103.592 64.8469 103.683 64.9499C103.775 65.0533 103.766 65.2111 103.663 65.3029L102.519 66.3197C102.472 66.3623 102.413 66.383 102.354 66.383Z" fill="#333333"/>
  <path d="M70.2121 80.3846C70.0816 80.3846 69.9506 80.3825 69.8196 80.3777C69.6818 80.3725 69.5736 80.257 69.5788 80.1191C69.5835 79.9811 69.6973 79.873 69.8373 79.8781C71.3867 79.9342 72.956 79.6281 74.4732 79.332C74.9138 79.2463 75.37 79.157 75.8197 79.0782C80.7744 78.2083 85.9724 78.3963 90.8512 79.6217C90.9852 79.6553 91.0662 79.7911 91.0326 79.9251C90.999 80.0592 90.8629 80.1402 90.7293 80.1066C85.9181 78.8984 80.7921 78.7131 75.9059 79.5704C75.461 79.6484 75.0073 79.7367 74.5683 79.8225C73.1503 80.0997 71.6866 80.3846 70.2121 80.3846Z" fill="#333333"/>
  <path d="M77.0671 49.6212C77.04 49.6212 77.012 49.6165 76.9849 49.607L74.6562 48.7919C73.6116 48.4264 72.5321 48.0484 71.5603 47.4506C70.7862 46.9747 69.7605 46.1463 69.2686 44.9006C69.2178 44.7721 69.2806 44.6269 69.409 44.5761C69.5374 44.5256 69.6826 44.5881 69.7334 44.7165C70.175 45.8342 71.1127 46.5885 71.8217 47.0243C72.7479 47.5936 73.8019 47.9626 74.8211 48.3195L77.1498 49.1346C77.2799 49.1803 77.3489 49.3229 77.3032 49.4531C77.2675 49.5566 77.1705 49.6212 77.0671 49.6212Z" fill="#333333"/>
</svg>