<svg width="238" height="238" viewBox="0 0 238 238" fill="none" xmlns="http://www.w3.org/2000/svg">
<path d="M200.681 82.6417C195.703 95.9139 180.979 105.449 163.681 105.449C158.557 105.449 153.664 104.613 149.178 103.089C153.145 97.2552 155.464 90.2173 155.464 82.6417C155.464 81.6691 155.421 80.7107 155.351 79.7622C160.38 77.454 165.187 74.1596 169.447 69.902C172.049 67.3011 174.287 64.4977 176.167 61.5615C187.784 64.8848 196.959 72.7154 200.681 82.6417ZM149.178 62.1947C153.664 60.6702 158.557 59.8346 163.681 59.8346C166.599 59.8346 169.447 60.1036 172.186 60.623C170.613 62.9217 168.795 65.1256 166.731 67.1882C163.109 70.8085 159.057 73.6733 154.812 75.7648C153.863 70.8137 151.912 66.2157 149.178 62.1947ZM176.757 24.9114C181.144 34.5634 180.205 46.5855 174.334 57.144C170.93 56.3933 167.359 55.9967 163.681 55.9967C157.655 55.9967 151.922 57.0637 146.732 58.9894C145.485 57.5306 144.125 56.1713 142.661 54.9207C144.588 49.7335 145.66 44.0034 145.66 37.9806C145.66 34.3037 145.259 30.735 144.508 27.332C155.076 21.4702 167.104 20.5264 176.757 24.9114ZM125.878 46.8451C127.97 42.6017 130.836 38.5566 134.458 34.9364C136.522 32.8737 138.727 31.0513 141.032 29.4796C141.547 32.2175 141.816 35.0634 141.816 37.9806C141.816 43.1021 140.98 47.9966 139.455 52.4756C135.431 49.7435 130.831 47.7941 125.878 46.8451ZM118.997 1C128.928 4.72408 136.767 13.8903 140.087 25.5063C137.15 27.3801 134.345 29.6218 131.742 32.2227C127.483 36.4755 124.187 41.2808 121.882 46.3121C120.928 46.2366 119.969 46.1988 118.997 46.1988C118.029 46.1988 117.07 46.2366 116.116 46.3121C113.807 41.2808 110.515 36.4755 106.256 32.2227C103.653 29.6218 100.849 27.3801 97.9063 25.5063C101.231 13.8898 109.071 4.7236 118.997 1ZM98.5444 52.4761C97.0192 47.9971 96.1784 43.1026 96.1784 37.9811C96.1784 35.0638 96.4524 32.2179 96.9668 29.4801C99.2714 31.0518 101.472 32.8737 103.541 34.9368C107.158 38.5571 110.029 42.6017 112.121 46.8456C107.168 47.7941 102.568 49.7435 98.5444 52.4761ZM61.2416 24.9114C70.8948 20.5264 82.922 21.4701 93.4911 27.3325C92.7401 30.7355 92.339 34.3042 92.339 37.9811C92.339 44.0039 93.4113 49.734 95.3381 54.9212C93.8737 56.1719 92.5138 57.5311 91.2672 58.9899C86.0727 57.0641 80.3392 55.9971 74.3185 55.9971C70.6397 55.9971 67.0696 56.3937 63.6643 57.1444C57.7943 46.5855 56.8501 34.5634 61.2416 24.9114ZM83.187 75.7648C78.9415 73.6733 74.8896 70.8085 71.2675 67.1882C69.2042 65.1256 67.3856 62.9217 65.8131 60.623C68.5524 60.1036 71.3997 59.8346 74.3185 59.8346C79.4426 59.8346 84.3349 60.6702 88.8209 62.1947C86.0869 66.2157 84.1313 70.8137 83.187 75.7648ZM37.3137 82.6417C41.0392 72.7154 50.2106 64.8848 61.8321 61.562C63.7069 64.4981 65.9501 67.3016 68.5523 69.9025C72.8121 74.16 77.6193 77.4545 82.649 79.7627C82.5734 80.7112 82.5357 81.6696 82.5357 82.6421C82.5357 90.2178 84.8545 97.2551 88.8214 103.089C84.3354 104.614 79.4431 105.449 74.3189 105.449C57.0197 105.449 42.2957 95.9144 37.3137 82.6417ZM93.373 102.81C88.9952 97.2594 86.3788 90.2551 86.3788 82.6417C86.3788 81.3953 86.4497 80.1683 86.5819 78.9648C86.606 78.8468 86.6197 78.7334 86.6244 78.6201C87.3707 72.5695 89.7793 67.0325 93.373 62.4732C94.9691 60.453 96.7967 58.6269 98.8179 57.0311C103.38 53.4345 108.924 51.0272 114.978 50.2817C115.091 50.2817 115.205 50.2675 115.318 50.2439C116.527 50.107 117.755 50.0362 118.997 50.0362C120.244 50.0362 121.471 50.107 122.681 50.2439C122.794 50.2675 122.907 50.2817 123.02 50.2817C129.075 51.0272 134.619 53.4345 139.176 57.0311C141.202 58.6269 143.03 60.453 144.621 62.4732C148.219 67.0325 150.628 72.5695 151.374 78.6201C151.378 78.7334 151.388 78.8468 151.412 78.9648C151.549 80.1683 151.619 81.3953 151.619 82.6417C151.619 90.2551 149.003 97.2594 144.621 102.81C143.898 103.726 143.129 104.604 142.311 105.439C142.802 103.523 143.124 101.384 143.124 98.9727C143.124 83.4018 131.809 72.2952 118.997 72.2952C106.19 72.2952 94.8751 83.4013 94.8751 98.9727C94.8751 101.384 95.1964 103.523 95.6871 105.439C94.87 104.604 94.1 103.726 93.373 102.81ZM101.893 110.919C101.841 110.759 101.77 110.608 101.676 110.466C100.259 107.497 98.714 103.891 98.714 98.9727C98.714 85.752 108.122 76.1373 118.997 76.1373C129.878 76.1373 139.284 85.752 139.284 98.9727C139.284 103.891 137.74 107.497 136.319 110.466C136.229 110.608 136.158 110.759 136.106 110.919C135.62 111.92 135.167 112.85 134.803 113.733C133.835 116.083 133.457 118.203 134.18 120.355C134.851 122.361 136.555 124.494 140.144 126.863C146.576 131.107 154.265 131.201 160.049 132.031C161.542 132.249 162.883 132.513 164.002 132.976C164.857 133.33 165.565 133.792 166.023 134.514C166.717 135.619 166.826 137.204 166.439 139.489C164.139 152.974 165.877 171.722 186.642 193.595C187.302 194.293 188.384 194.392 189.163 193.826C212.823 176.603 227.816 150.874 227.816 122.172C227.816 108.436 224.383 95.3808 218.211 83.6142C229.474 99.0105 236 117.225 236 136.742C236 172.412 214.206 203.719 181.508 221.485C181.357 221.566 181.22 221.665 181.098 221.783C180.932 221.82 180.772 221.877 180.62 221.957C162.713 231.497 141.599 237 118.997 237C96.4004 237 75.2863 231.497 57.3744 221.957C57.2275 221.877 57.0674 221.82 56.9021 221.783C56.7792 221.665 56.6423 221.566 56.4916 221.485C23.7905 203.719 2 172.412 2 136.742C2 117.225 8.52568 99.0152 19.7905 83.6142C13.6168 95.3808 10.1837 108.436 10.1837 122.172C10.1837 150.874 25.175 176.603 48.8313 193.826C49.6154 194.392 50.6919 194.293 51.3584 193.595C72.1229 171.723 73.8555 152.975 71.5608 139.489C71.1692 137.204 71.2821 135.619 71.9765 134.514C72.4347 133.792 73.1432 133.33 73.9977 132.976C75.1167 132.513 76.4583 132.249 77.95 132.031C83.7354 131.201 91.4231 131.107 97.8505 126.863C101.444 124.494 103.144 122.361 103.82 120.355C104.542 118.202 104.164 116.083 103.197 113.733C102.833 112.85 102.379 111.92 101.893 110.919ZM53.048 193.179C52.4014 193.453 51.9574 194.067 51.896 194.77C51.8298 195.473 52.1562 196.153 52.7462 196.54C59.6644 201.128 67.2439 205.013 75.3383 208.071C76.0416 208.34 76.8404 208.17 77.3742 207.642C85.2087 199.863 92.9767 190.159 96.5657 179.874C100.287 169.226 99.6403 157.954 90.3419 147.419C89.8454 146.862 89.076 146.636 88.3632 146.843C87.6499 147.051 87.1213 147.651 87.0032 148.387C84.9206 161.343 82.786 169.886 77.9405 176.518C73.1144 183.126 65.6242 187.789 53.048 193.179ZM185.253 196.54C185.838 196.153 186.169 195.473 186.103 194.77C186.041 194.067 185.598 193.453 184.946 193.179C172.375 187.789 164.88 183.126 160.059 176.518C155.213 169.886 153.074 161.343 150.996 148.387C150.878 147.65 150.349 147.051 149.631 146.843C148.918 146.636 148.148 146.862 147.657 147.419C138.358 157.954 137.712 169.225 141.428 179.874C145.021 190.158 152.79 199.863 160.625 207.641C161.158 208.17 161.956 208.34 162.66 208.07C170.755 205.013 178.335 201.128 185.253 196.54Z" fill="white"/>
</svg>
