<svg width="238" height="238" viewBox="0 0 238 238" fill="none" xmlns="http://www.w3.org/2000/svg">
<path d="M119.5 203.39C112.464 206.153 104.518 208.324 96.7003 209.351C86.8186 210.649 77.1487 210.107 69.7293 206.742C68.941 206.383 68.5779 205.465 68.9084 204.667C68.9084 204.667 70.5556 200.677 70.6638 196.222C70.7641 192.107 69.5041 187.519 63.8104 185.799C53.8256 182.786 50.0219 186.325 44.0654 187.774C40.372 188.671 34.9829 188.383 31.9542 185.123C29.9326 182.948 28.8072 179.408 30.1336 173.848C30.9707 170.338 31.0167 168.393 30.3926 167.153C29.8198 166.013 28.6956 165.613 27.5401 164.986C26.2237 164.272 24.0689 161.851 24.5143 158.8C24.7002 157.523 25.3364 156.087 26.8073 154.647C25.6877 154.113 24.4345 153.378 23.4719 152.451C22.5608 151.574 21.8982 150.531 21.6639 149.358C21.4233 148.156 21.6033 146.791 22.5604 145.288C22.5813 145.255 22.6034 145.222 22.6264 145.192C22.6264 145.192 23.1707 144.45 23.5467 143.431C23.8308 142.663 24.0681 141.711 23.6775 140.843C23.4557 140.35 23.0233 139.916 22.3398 139.545C21.6693 139.536 20.3555 139.466 19.0738 139.073C17.6195 138.627 16.2514 137.767 15.5592 136.356C14.8753 134.966 14.7587 132.899 16.4005 129.91C20.6821 122.108 24.7595 117.676 27.2005 114.107C28.2921 112.508 29.0445 111.135 29.1857 109.632C28.1989 109.385 26.7931 108.947 25.351 108.209C22.5449 106.764 19.6528 104.209 19.1189 99.8931C19.0278 99.154 19.451 98.4535 20.1445 98.1946C20.8371 97.9316 21.6196 98.1779 22.0386 98.7875C22.0386 98.7875 24.4541 102.34 28.5335 102.285C27.6441 99.9975 26.1556 96.0452 25.1547 92.7305C24.4449 90.3806 24.0054 88.3101 24.0648 87.2245C25.5541 59.8915 41.9023 44.1675 60.8573 35.8733C79.6519 27.6543 101.012 26.8025 112.744 29.111C115.073 29.5703 117.325 30.1126 119.501 30.7351C121.677 30.113 123.929 29.5703 126.258 29.111C137.989 26.8029 159.35 27.6547 178.144 35.8733C197.099 44.1675 213.447 59.8915 214.937 87.2245C214.996 88.3101 214.556 90.3806 213.847 92.7305C212.846 96.0448 211.357 99.9975 210.468 102.285C214.548 102.34 216.963 98.7875 216.963 98.7875C217.382 98.1779 218.164 97.9316 218.857 98.1946C219.55 98.4535 219.973 99.1545 219.882 99.8931C219.348 104.209 216.456 106.764 213.65 108.209C212.208 108.948 210.802 109.385 209.815 109.632C209.957 111.135 210.709 112.508 211.8 114.107C214.241 117.676 218.318 122.108 222.6 129.91C224.242 132.899 224.125 134.965 223.442 136.356C222.75 137.767 221.381 138.626 219.927 139.073C218.646 139.466 217.331 139.536 216.661 139.545C215.978 139.916 215.545 140.351 215.324 140.843C214.933 141.711 215.17 142.663 215.454 143.431C215.831 144.449 216.375 145.192 216.375 145.192C216.398 145.222 216.42 145.255 216.441 145.288C217.398 146.791 217.578 148.156 217.337 149.358C217.103 150.531 216.44 151.575 215.53 152.451C214.567 153.378 213.313 154.112 212.194 154.651C213.665 156.087 214.301 157.523 214.487 158.801C214.932 161.852 212.777 164.272 211.461 164.987C210.306 165.613 209.182 166.014 208.609 167.153C207.985 168.393 208.03 170.338 208.868 173.849C210.194 179.409 209.069 182.948 207.047 185.123C204.019 188.383 198.63 188.672 194.937 187.774C188.98 186.325 185.176 182.786 175.191 185.8C169.498 187.52 168.238 192.107 168.338 196.223C168.446 200.677 170.094 204.667 170.094 204.667C170.424 205.465 170.061 206.383 169.272 206.742C161.853 210.107 152.183 210.649 142.301 209.351C134.483 208.324 126.536 206.153 119.5 203.39ZM119.5 34.0879C117.659 33.5326 115.76 33.0399 113.801 32.6098C83.5237 43.9348 69.962 71.7973 70.9713 99.2932C72.0854 129.652 85.8502 143.761 96.8085 154.597C100.322 158.07 103.54 161.193 105.896 164.432C108.097 167.463 109.528 170.585 109.614 174.258C109.615 174.3 109.618 174.346 109.623 174.388C109.623 174.388 110.214 181.054 103.427 193.101C103.027 193.81 103.223 194.708 103.884 195.188C106.964 197.421 110.836 199.6 115.2 201.574C116.669 201.057 118.105 200.51 119.501 199.943C114.693 197.976 110.376 195.731 106.93 193.402C113.243 181.68 112.886 174.864 112.825 174.125C112.602 165.751 106.561 159.724 99.0686 152.314C88.5347 141.9 75.2529 128.359 74.1822 99.1767C73.1716 71.6391 87.482 43.7094 119.5 34.0879ZM119.5 199.942C120.895 200.51 122.332 201.057 123.801 201.574C128.165 199.599 132.037 197.421 135.117 195.187C135.778 194.708 135.974 193.81 135.574 193.1C128.787 181.053 129.378 174.388 129.378 174.388C129.382 174.346 129.385 174.3 129.386 174.258C129.472 170.585 130.904 167.462 133.105 164.432C135.46 161.193 138.678 158.07 142.192 154.597C153.15 143.761 166.915 129.652 168.029 99.2927C169.038 71.7968 155.476 43.9344 125.199 32.6094C123.241 33.0395 121.341 33.5326 119.5 34.0879C151.518 43.7094 165.829 71.6391 164.819 99.1763C163.747 128.358 150.466 141.899 139.932 152.314C132.439 159.723 126.398 165.751 126.175 174.129C126.114 174.859 125.756 181.68 132.071 193.401C128.625 195.731 124.308 197.976 119.5 199.942ZM109.242 119.818C109.246 119.835 109.251 119.851 109.256 119.872C109.428 120.536 109.519 121.233 109.519 121.938V133.422C109.519 135.058 110.171 136.632 111.33 137.788C112.489 138.948 114.061 139.6 115.701 139.6H124.921C126.561 139.6 128.133 138.948 129.292 137.788C130.451 136.631 131.103 135.058 131.103 133.422C131.103 132.269 131.103 130.971 131.103 129.615C131.104 127.065 131.106 124.314 131.112 121.943V121.938C131.112 121.233 131.202 120.536 131.376 119.872C131.38 119.851 131.385 119.835 131.389 119.818C131.932 117.781 133.247 116.003 135.101 114.888H135.102C143.443 109.862 149.025 100.721 149.025 90.2891C149.025 74.4523 136.158 61.5917 120.311 61.5917C104.463 61.5917 91.5973 74.4527 91.5973 90.2891C91.5973 100.721 97.1794 109.862 105.526 114.88C107.382 115.994 108.698 117.777 109.242 119.818ZM112.732 131.218H127.889C127.889 131.994 127.889 132.733 127.889 133.422C127.889 134.206 127.577 134.962 127.02 135.517C126.463 136.077 125.708 136.385 124.921 136.385H115.701C114.914 136.385 114.158 136.077 113.602 135.517C113.045 134.962 112.732 134.206 112.732 133.422L112.732 131.218ZM112.697 121.041H127.935C127.911 121.337 127.899 121.638 127.899 121.938C127.894 123.817 127.892 125.937 127.891 128.008H112.732V121.938C112.732 121.638 112.72 121.337 112.697 121.041ZM128.662 117.831H111.969C111.067 115.485 109.402 113.46 107.181 112.129C99.7687 107.675 94.8099 99.5566 94.8099 90.2891C94.8099 76.2222 106.236 64.8012 120.311 64.8012C134.385 64.8012 145.812 76.2222 145.812 90.2891C145.812 99.5561 140.852 107.675 133.444 112.137C131.227 113.469 129.564 115.489 128.662 117.831ZM204.379 91.9175C197.125 99.1679 185.364 99.1679 178.111 91.9175C171.732 85.5432 171.732 75.2076 178.111 68.8341C183.488 63.4576 192.206 63.4576 197.583 68.8341C201.96 73.2089 201.96 80.3006 197.583 84.675C194.208 88.0478 188.734 88.0478 185.359 84.675C182.984 82.3001 182.984 78.4514 185.359 76.0761C186.733 74.7028 188.961 74.7028 190.335 76.0761C190.708 76.4514 190.708 77.0573 190.335 77.4284C189.708 78.0543 189.708 79.0727 190.335 79.699C190.962 80.3252 191.98 80.3252 192.607 79.699C194.236 78.071 194.236 75.4327 192.607 73.8047C189.978 71.1793 185.716 71.1793 183.087 73.8047C179.457 77.4322 179.457 83.3182 183.087 86.9456C187.718 91.5706 195.225 91.5706 199.855 86.9456C205.487 81.3149 205.487 72.1898 199.855 66.5632C193.223 59.9345 182.471 59.9345 175.839 66.5632C168.207 74.1935 168.207 86.5615 175.839 94.1881C184.348 102.691 198.142 102.691 206.651 94.1881C207.278 93.5618 207.278 92.5434 206.651 91.9175C206.024 91.2913 205.006 91.2913 204.379 91.9175Z" fill="white"/>
</svg>
