<svg xmlns="http://www.w3.org/2000/svg" width="238" height="238" viewBox="0 0 238 238" fill="none">
  <path d="M119.5 203.39C112.458 206.153 104.505 208.324 96.6813 209.351C86.7915 210.649 77.1137 210.107 69.6882 206.742C68.8992 206.383 68.5359 205.465 68.8666 204.667C68.8666 204.667 70.5152 200.677 70.6235 196.222C70.7238 192.107 69.4628 187.519 63.7645 185.799C53.7714 182.786 49.9646 186.325 44.0033 187.774C40.3068 188.671 34.9133 188.383 31.8821 185.123C29.8589 182.948 28.7325 179.408 30.06 173.848C30.8978 170.338 30.9438 168.393 30.3192 167.153C29.746 166.013 28.6209 165.613 27.4644 164.986C26.1469 164.272 23.9904 161.851 24.4361 158.8C24.6221 157.523 25.2589 156.087 26.731 154.647C25.6105 154.113 24.3562 153.378 23.3929 152.451C22.481 151.574 21.8179 150.531 21.5833 149.358C21.3425 148.156 21.5227 146.791 22.4806 145.288C22.5015 145.255 22.5237 145.222 22.5467 145.192C22.5467 145.192 23.0914 144.45 23.4677 143.431C23.752 142.663 23.9895 141.711 23.5986 140.843C23.3766 140.35 22.9438 139.916 22.2598 139.545C21.5888 139.536 20.2738 139.466 18.9911 139.073C17.5357 138.627 16.1664 137.767 15.4736 136.356C14.7892 134.966 14.6725 132.899 16.3157 129.91C20.6008 122.108 24.6815 117.676 27.1245 114.107C28.217 112.508 28.97 111.135 29.1113 109.632C28.1237 109.385 26.7168 108.947 25.2735 108.209C22.4651 106.764 19.5706 104.209 19.0363 99.8931C18.9451 99.154 19.3687 98.4535 20.0627 98.1946C20.7559 97.9316 21.539 98.1779 21.9584 98.7875C21.9584 98.7875 24.3759 102.34 28.4586 102.285C27.5685 99.9975 26.0788 96.0452 25.077 92.7305C24.3667 90.3806 23.9268 88.3101 23.9862 87.2245C25.4767 59.8915 41.8383 44.1675 60.8089 35.8733C79.6189 27.6543 100.997 26.8025 112.738 29.111C115.069 29.5703 117.323 30.1126 119.501 30.7351C121.678 30.113 123.932 29.5703 126.263 29.111C138.004 26.8029 159.382 27.6547 178.192 35.8733C197.163 44.1675 213.524 59.8915 215.015 87.2245C215.074 88.3101 214.634 90.3806 213.924 92.7305C212.922 96.0448 211.433 99.9975 210.542 102.285C214.626 102.34 217.043 98.7875 217.043 98.7875C217.462 98.1779 218.245 97.9316 218.938 98.1946C219.632 98.4535 220.055 99.1545 219.964 99.8931C219.43 104.209 216.535 106.764 213.727 108.209C212.284 108.948 210.877 109.385 209.889 109.632C210.031 111.135 210.783 112.508 211.876 114.107C214.319 117.676 218.399 122.108 222.685 129.91C224.328 132.899 224.211 134.965 223.527 136.356C222.834 137.767 221.464 138.626 220.009 139.073C218.727 139.466 217.411 139.536 216.74 139.545C216.057 139.916 215.624 140.351 215.402 140.843C215.011 141.711 215.249 142.663 215.533 143.431C215.91 144.449 216.454 145.192 216.454 145.192C216.477 145.222 216.499 145.255 216.52 145.288C217.478 146.791 217.658 148.156 217.417 149.358C217.183 150.531 216.52 151.575 215.608 152.451C214.644 153.378 213.39 154.112 212.27 154.651C213.742 156.087 214.378 157.523 214.565 158.801C215.01 161.852 212.854 164.272 211.536 164.987C210.38 165.613 209.255 166.014 208.682 167.153C208.057 168.393 208.103 170.338 208.941 173.849C210.269 179.409 209.142 182.948 207.119 185.123C204.088 188.383 198.695 188.672 194.998 187.774C189.036 186.325 185.23 182.786 175.237 185.8C169.539 187.52 168.277 192.107 168.378 196.223C168.486 200.677 170.135 204.667 170.135 204.667C170.465 205.465 170.102 206.383 169.313 206.742C161.887 210.107 152.21 210.649 142.32 209.351C134.495 208.324 126.541 206.153 119.5 203.39ZM119.5 34.0879C117.658 33.5326 115.756 33.0399 113.796 32.6098C83.4939 43.9348 69.921 71.7973 70.9312 99.2932C72.0463 129.652 85.8223 143.761 96.7896 154.597C100.306 158.07 103.526 161.193 105.884 164.432C108.088 167.463 109.52 170.585 109.606 174.258C109.607 174.3 109.61 174.346 109.614 174.388C109.614 174.388 110.206 181.054 103.414 193.101C103.013 193.81 103.21 194.708 103.871 195.188C106.953 197.421 110.828 199.6 115.197 201.574C116.667 201.057 118.104 200.51 119.501 199.943C114.689 197.976 110.368 195.731 106.919 193.402C113.238 181.68 112.881 174.864 112.819 174.125C112.596 165.751 106.55 159.724 99.0515 152.314C88.5091 141.9 75.2163 128.359 74.1447 99.1767C73.1333 71.6391 87.4554 43.7094 119.5 34.0879ZM119.5 199.942C120.896 200.51 122.334 201.057 123.804 201.574C128.172 199.599 132.047 197.421 135.129 195.187C135.791 194.708 135.988 193.81 135.587 193.1C128.794 181.053 129.386 174.388 129.386 174.388C129.39 174.346 129.393 174.3 129.394 174.258C129.48 170.585 130.913 167.462 133.116 164.432C135.473 161.193 138.694 158.07 142.21 154.597C153.177 143.761 166.954 129.652 168.069 99.2927C169.078 71.7968 155.505 43.9344 125.204 32.6094C123.243 33.0395 121.343 33.5326 119.5 34.0879C151.544 43.7094 165.867 71.6391 164.855 99.1763C163.783 128.358 150.491 141.899 139.949 152.314C132.45 159.723 126.403 165.751 126.181 174.129C126.119 174.859 125.761 181.68 132.081 193.401C128.632 195.731 124.312 197.976 119.5 199.942ZM109.233 119.818C109.238 119.835 109.242 119.851 109.247 119.872C109.42 120.536 109.511 121.233 109.511 121.938V133.422C109.511 135.058 110.163 136.632 111.323 137.788C112.483 138.948 114.056 139.6 115.697 139.6H124.925C126.566 139.6 128.139 138.948 129.3 137.788C130.46 136.631 131.112 135.058 131.112 133.422C131.112 132.269 131.112 130.971 131.112 129.615C131.113 127.065 131.115 124.314 131.121 121.943V121.938C131.121 121.233 131.212 120.536 131.385 119.872C131.39 119.851 131.395 119.835 131.399 119.818C131.942 117.781 133.258 116.003 135.114 114.888H135.115C143.462 109.862 149.049 100.721 149.049 90.2891C149.049 74.4523 136.172 61.5917 120.311 61.5917C104.45 61.5917 91.5742 74.4527 91.5742 90.2891C91.5742 100.721 97.1608 109.862 105.514 114.88C107.372 115.994 108.689 117.777 109.233 119.818ZM112.726 131.218H127.896C127.896 131.994 127.896 132.733 127.896 133.422C127.896 134.206 127.583 134.962 127.026 135.517C126.469 136.077 125.713 136.385 124.925 136.385H115.697C114.91 136.385 114.154 136.077 113.596 135.517C113.039 134.962 112.726 134.206 112.726 133.422L112.726 131.218ZM112.691 121.041H127.941C127.917 121.337 127.906 121.638 127.906 121.938C127.901 123.817 127.899 125.937 127.897 128.008H112.726V121.938C112.726 121.638 112.714 121.337 112.691 121.041ZM128.669 117.831H111.963C111.06 115.485 109.394 113.46 107.171 112.129C99.7523 107.675 94.7894 99.5566 94.7894 90.2891C94.7894 76.2222 106.225 64.8012 120.311 64.8012C134.397 64.8012 145.833 76.2222 145.833 90.2891C145.833 99.5561 140.869 107.675 133.455 112.137C131.236 113.469 129.572 115.489 128.669 117.831ZM204.448 91.9175C197.189 99.1679 185.418 99.1679 178.159 91.9175C171.775 85.5432 171.775 75.2076 178.159 68.8341C183.54 63.4576 192.266 63.4576 197.647 68.8341C202.028 73.2089 202.028 80.3006 197.647 84.675C194.269 88.0478 188.791 88.0478 185.412 84.675C183.035 82.3001 183.035 78.4514 185.412 76.0761C186.788 74.7028 189.018 74.7028 190.393 76.0761C190.767 76.4514 190.767 77.0573 190.393 77.4284C189.765 78.0543 189.765 79.0727 190.393 79.699C191.02 80.3252 192.04 80.3252 192.667 79.699C194.297 78.071 194.297 75.4327 192.667 73.8047C190.036 71.1793 185.77 71.1793 183.139 73.8047C179.506 77.4322 179.506 83.3182 183.139 86.9456C187.774 91.5706 195.287 91.5706 199.921 86.9456C205.557 81.3149 205.557 72.1898 199.921 66.5632C193.284 59.9345 182.522 59.9345 175.885 66.5632C168.246 74.1935 168.246 86.5615 175.885 94.1881C184.4 102.691 198.207 102.691 206.722 94.1881C207.35 93.5618 207.35 92.5434 206.722 91.9175C206.095 91.2913 205.076 91.2913 204.448 91.9175Z" fill="url(#paint0_linear_86_799)"/>
  <defs>
    <linearGradient id="paint0_linear_86_799" x1="119.5" y1="28" x2="119.5" y2="210" gradientUnits="userSpaceOnUse">
      <stop offset="0.4" stop-color="white"/>
      <stop offset="1" stop-color="#A5CFD4"/>
    </linearGradient>
  </defs>
</svg>