<svg width="467" height="395" viewBox="0 0 467 395" fill="none" xmlns="http://www.w3.org/2000/svg">
<path d="M328.195 102.156C328.728 101.791 329.4 101.716 330.043 101.66C332.095 101.486 334.156 101.428 336.214 101.486C337.83 101.531 339.458 101.647 341.056 101.403C342.653 101.158 344.252 100.508 345.295 99.2718C346.791 97.4988 346.817 94.7473 345.617 92.7612C344.417 90.7763 342.175 89.5519 339.874 89.2606C337.573 88.9705 335.225 89.5342 333.12 90.509C329.874 92.0121 327.098 94.5101 325.262 97.5794C323.248 95.9413 323.598 92.6577 325.018 90.4849C326.437 88.3122 328.636 86.7624 330.214 84.7006C331.661 82.8078 332.563 80.4182 332.324 78.0475C332.086 75.6767 330.577 73.383 328.341 72.5596C325.382 71.4701 321.958 73.1926 320.183 75.7979C318.409 78.4032 317.941 81.6692 317.744 84.8154C317.405 90.2202 317.721 95.6666 318.681 100.997C317.695 97.3059 314.762 94.2012 311.142 92.9844C307.52 91.7662 303.32 92.4623 300.27 94.7637C299.305 95.4925 298.429 96.4043 297.999 97.5354C297.211 99.6098 298.138 102.066 299.825 103.508C301.513 104.949 303.804 105.505 306.022 105.553C308.24 105.601 310.438 105.19 312.641 104.92C313.62 104.8 314.635 104.711 315.573 105.011C317.729 105.699 318.77 108.185 318.956 110.441C319.143 112.697 318.763 154.3 319.323 156.493C321.33 156.478 323.335 156.461 325.341 156.446C325.142 151.776 324.997 107.563 327.183 103.432C327.44 102.949 327.741 102.465 328.195 102.156Z" fill="#448189"/>
<path d="M319.322 156.716C318.988 156.716 318.696 156.745 318.613 156.421C318.264 155.053 318.252 141.967 318.275 124.835C318.285 117.505 318.293 111.237 318.226 110.439C318.073 108.603 317.228 106.278 315.348 105.678C314.994 105.564 314.591 105.525 314.119 105.525C313.662 105.525 313.181 105.584 312.728 105.64C312.216 105.703 311.703 105.777 311.191 105.848C309.505 106.08 307.756 106.318 306.004 106.284C304.106 106.244 301.41 105.825 299.348 104.065C297.298 102.313 296.461 99.5214 297.313 97.2768C297.735 96.162 298.581 95.1217 299.827 94.181C301.979 92.5568 304.691 91.6627 307.464 91.6627C308.815 91.6627 310.13 91.8745 311.372 92.2919C313.74 93.0876 315.805 94.6098 317.296 96.5707C316.861 92.6565 316.766 88.7044 317.013 84.7712C317.204 81.7107 317.66 78.2038 319.578 75.3879C321.187 73.0248 323.884 71.4977 326.446 71.4977C327.19 71.4977 327.913 71.6252 328.593 71.8749C330.982 72.7538 332.774 75.2065 333.053 77.9769C333.294 80.383 332.492 82.929 330.794 85.1484C330.059 86.1093 329.198 86.9604 328.364 87.7826C327.34 88.7952 326.372 89.751 325.631 90.8871C324.557 92.529 324.175 94.9035 325.155 96.3852C327.051 93.5718 329.739 91.2706 332.813 89.8469C335.285 88.7019 337.726 88.2554 339.966 88.5366C342.644 88.8745 344.991 90.3134 346.243 92.384C347.65 94.7144 347.486 97.8089 345.855 99.7446C344.52 101.323 342.57 101.912 341.168 102.127C340.459 102.235 339.7 102.286 338.778 102.286C338.175 102.286 337.57 102.264 336.982 102.244C336.72 102.235 336.458 102.225 336.195 102.217C334.171 102.161 332.125 102.219 330.106 102.389C329.531 102.438 328.984 102.502 328.608 102.76C328.28 102.984 328.04 103.381 327.831 103.776C325.774 107.661 325.854 151.294 326.072 156.417C326.081 156.615 326.008 156.808 325.871 156.952C325.735 157.096 325.546 156.923 325.347 156.924L319.329 156.716C319.325 156.716 319.322 156.716 319.322 156.716ZM314.117 104.078C314.744 104.078 315.293 104.156 315.792 104.315C318.357 105.134 319.484 107.985 319.682 110.381C319.754 111.241 319.747 117.297 319.735 124.964C319.721 136.043 319.7 152.367 319.96 155.758L324.584 155.721C324.422 148.661 324.293 107.323 326.534 103.09C326.816 102.555 327.185 101.954 327.778 101.55C328.446 101.094 329.231 100.994 329.977 100.93C332.05 100.755 334.151 100.695 336.231 100.753C336.496 100.761 336.761 100.77 337.027 100.78C337.601 100.8 338.195 100.82 338.772 100.82C339.618 100.82 340.306 100.775 340.939 100.678C342.094 100.5 343.69 100.031 344.73 98.7988C345.971 97.3285 346.078 94.9489 344.985 93.1393C343.962 91.4483 342.016 90.2693 339.778 89.9868C337.812 89.7384 335.644 90.1445 333.422 91.1735C330.318 92.611 327.641 95.0196 325.883 97.9565C325.774 98.1381 325.591 98.2641 325.382 98.3007C325.173 98.3373 324.958 98.2818 324.793 98.1482C322.479 96.2667 322.776 92.5719 324.398 90.0864C325.226 88.8191 326.295 87.7624 327.33 86.741C328.164 85.9175 328.952 85.1395 329.625 84.258C331.076 82.364 331.791 80.127 331.59 78.1219C331.367 75.8962 329.957 73.9379 328.081 73.2481C327.564 73.0577 327.011 72.9606 326.44 72.9606C324.379 72.9606 322.105 74.267 320.781 76.2115C319.062 78.7348 318.646 82.0008 318.467 84.8633C318.131 90.2113 318.443 95.5958 319.394 100.869C319.463 101.255 319.216 101.627 318.832 101.713C318.45 101.798 318.068 101.567 317.966 101.189C317.05 97.7623 314.277 94.8152 310.9 93.679C309.808 93.3121 308.651 93.1255 307.459 93.1255C305.003 93.1255 302.603 93.9149 300.704 95.35C299.682 96.1205 299 96.944 298.676 97.7977C298.048 99.4496 298.729 101.617 300.293 102.954C302.027 104.434 304.37 104.787 306.031 104.824C307.679 104.859 309.356 104.627 310.986 104.403C311.506 104.331 312.025 104.259 312.545 104.196C313.048 104.134 313.583 104.078 314.117 104.078Z" fill="#333333"/>
<path d="M326.741 100.752C326.578 100.752 326.415 100.699 326.281 100.588C325.967 100.333 325.919 99.8733 326.173 99.5593C332.23 92.0991 341.814 93.7295 342.219 93.8039C342.616 93.8757 342.881 94.2567 342.809 94.6539C342.737 95.0511 342.36 95.3134 341.96 95.2441C341.861 95.2252 332.81 93.7081 327.31 100.481C327.165 100.659 326.953 100.752 326.741 100.752Z" fill="#333333"/>
<path d="M321.319 89.5442C321.293 89.5442 321.27 89.5429 321.243 89.5404C320.841 89.5 320.548 89.1406 320.59 88.7384C321.133 83.408 324.596 76.9579 324.742 76.6868C324.934 76.3312 325.378 76.1988 325.734 76.3917C326.089 76.5834 326.22 77.0273 326.029 77.3829C325.995 77.4472 322.558 83.8507 322.044 88.8885C322.007 89.2642 321.689 89.5442 321.319 89.5442Z" fill="#333333"/>
<path d="M316.284 101.431C316.137 101.431 315.988 101.387 315.858 101.293C308.712 96.1597 301.987 99.0966 301.704 99.2239C301.336 99.3891 300.904 99.2264 300.737 98.8594C300.571 98.4912 300.732 98.0587 301.099 97.8923C301.412 97.7498 308.857 94.4623 316.713 100.105C317.041 100.341 317.117 100.798 316.881 101.125C316.737 101.325 316.513 101.431 316.284 101.431Z" fill="#333333"/>
<path d="M149.057 185.78L137.352 185.625C137.352 185.625 140.574 127.971 138.387 118.456C136.201 108.941 127.824 108.478 127.973 97.2376C128.121 85.9969 137.958 85.4245 141.655 90.0411C145.352 94.6577 145.743 108.715 145.743 108.715C145.743 108.715 147.314 99.2502 153.37 100.385C159.425 101.519 163.672 108.251 149.048 121.056C149.048 121.056 145.719 175.899 149.057 185.78Z" fill="#448189"/>
<path d="M149.063 185.72C149.063 185.72 149.059 185.72 149.056 185.72C149.053 185.72 149.05 185.72 149.046 185.72L137.341 185.96C137.142 185.958 136.951 186.071 136.815 185.926C136.679 185.781 136.608 185.684 136.62 185.486C136.653 184.911 139.811 127.878 137.673 118.572C136.752 114.565 134.646 112.219 132.608 109.924C129.926 106.903 127.153 103.792 127.24 97.2162C127.345 89.3676 131.915 86.5884 135.796 86.5884C138.322 86.5884 140.724 87.7093 142.224 89.5807C144.781 92.7748 145.812 100.045 146.218 104.646C147.281 102.212 149.174 99.558 152.382 99.558C152.747 99.558 153.123 99.5945 153.501 99.6651C156.599 100.245 158.771 102.022 159.46 104.54C160.296 107.596 159.28 112.994 149.758 121.404C149.5 125.799 146.638 175.967 149.718 185.455C149.766 185.553 149.794 185.267 149.794 185.383C149.795 185.789 149.468 185.72 149.063 185.72ZM138.123 184.904L148.086 185.036C145.201 173.058 148.186 123.192 148.318 121.013C148.329 120.817 148.419 120.636 148.566 120.507C158.216 112.057 158.651 107.119 158.052 104.929C157.517 102.973 155.76 101.579 153.235 101.106C152.945 101.052 152.659 101.025 152.385 101.025C147.815 101.025 146.477 108.76 146.464 108.838C146.403 109.21 146.073 109.472 145.693 109.448C145.317 109.423 145.022 109.115 145.012 108.738C145.008 108.599 144.584 94.8719 141.083 90.5C139.859 88.9716 137.883 88.0587 135.797 88.0587C132.427 88.0587 128.794 90.4736 128.704 97.249C128.623 103.259 131.091 106.037 133.703 108.978C135.862 111.409 138.095 113.923 139.099 118.294C141.172 127.314 138.512 177.769 138.123 184.904Z" fill="#333333"/>
<path d="M67.7277 162.429C64.8488 160.639 61.5752 159.49 58.2095 159.084C56.255 158.85 53.9927 158.719 52.8288 157.131C52.163 156.223 52.0343 155.018 52.1731 153.9C52.8073 148.779 58.8112 145.482 63.8326 146.666C68.8552 147.85 72.5373 152.472 73.8727 157.455C74.4351 159.551 74.6607 161.756 75.561 163.731C76.7615 166.363 78.962 168.226 81.4979 169.696C81.1486 141.773 80.5133 118.287 79.4112 116.203C79.0859 115.588 78.7036 114.975 78.1299 114.583C77.454 114.121 76.6016 114.024 75.7858 113.955C73.1843 113.734 70.5701 113.661 67.9598 113.734C65.9107 113.792 63.8474 113.94 61.821 113.63C59.7945 113.319 57.7669 112.494 56.4453 110.927C54.5475 108.679 54.516 105.19 56.0368 102.671C57.5576 100.153 60.4001 98.6009 63.3193 98.2326C66.2373 97.8644 69.2146 98.5794 71.8842 99.8152C76.0001 101.721 79.5219 104.89 81.851 108.781C84.4046 106.704 83.9596 102.54 82.1601 99.7849C80.3607 97.0296 77.5712 95.0649 75.5712 92.4508C73.7351 90.051 72.5926 87.0197 72.894 84.0134C73.1954 81.0071 75.111 78.0979 77.947 77.0538C81.6985 75.673 86.0416 77.8557 88.2925 81.1609C90.5434 84.4647 91.1347 88.6061 91.3844 92.5959C91.8144 99.4508 91.4148 106.356 90.1967 113.115C91.4476 108.436 95.1664 104.497 99.7578 102.954C104.349 101.409 109.677 102.292 113.543 105.211C114.768 106.135 115.878 107.29 116.423 108.725C117.422 111.356 116.247 114.472 114.108 116.299C111.968 118.127 109.063 118.833 106.249 118.893C103.436 118.954 100.648 118.433 97.8561 118.09C96.6152 117.937 95.329 117.824 94.1374 118.205C91.4022 119.079 90.0831 122.23 89.846 125.091C89.7388 126.392 89.7793 155.529 89.7894 187.179C91.3745 186.446 92.9367 185.977 92.9367 185.977C99.8105 182.359 98.3629 176.571 104.875 178.741C111.387 180.911 107.407 196.105 92.9367 193.211C91.6757 192.959 90.6405 192.696 89.7906 192.426C89.7982 228.86 89.7503 292.599 89.3808 294.046C86.8373 294.026 84.2939 294.006 81.7491 293.987C81.8412 291.822 81.9243 245.791 81.8575 220.791C81.7062 220.823 81.5549 220.855 81.3972 220.887C66.927 223.781 62.9472 208.587 69.4591 206.417C75.971 204.247 74.5234 210.035 81.3972 213.652C81.3972 213.652 81.5611 213.702 81.8347 213.792C81.7881 201.254 81.7022 187.863 81.5623 175.142C79.3681 173.132 76.6456 171.631 73.6935 171.302C70.5611 170.952 67.1929 172.058 65.2232 174.518C64.3026 175.668 63.705 177.064 62.6987 178.14C61.2687 179.669 58.9976 180.402 56.9711 179.875C54.9447 179.348 53.2866 177.526 53.0709 175.444C52.762 172.447 55.2323 169.851 57.8867 168.426C61.5677 166.45 65.966 165.85 70.0416 166.765C70.8587 165.156 69.2636 163.382 67.7277 162.429Z" fill="#448189"/>
<path d="M89.3799 294.167H89.375L81.7433 294.414C81.5453 294.413 81.3549 294.484 81.2187 294.34C81.0825 294.196 81.0094 294.08 81.0183 293.881C81.1078 291.771 81.1896 246.584 81.1279 221.646C80.0131 221.846 78.9224 221.966 77.8796 221.966C70.6249 221.966 66.5391 217.157 65.8115 212.679C65.2668 209.321 66.6072 206.593 69.2264 205.719C70.2579 205.375 71.1381 205.211 71.9174 205.211C74.2213 205.211 75.2996 206.641 76.548 208.297C77.6123 209.709 78.8076 211.293 81.0989 212.65C81.046 199.253 80.9577 186.752 80.8354 175.474C79.2225 174.05 76.7231 172.379 73.6135 172.032C73.2642 171.993 72.9085 171.975 72.5529 171.975C69.8278 171.975 67.3009 173.098 65.7952 174.979C65.4182 175.45 65.0978 175.968 64.7586 176.517C64.311 177.24 63.8482 177.988 63.2341 178.644C61.9831 179.982 60.1459 180.781 58.3199 180.781C57.7978 180.781 57.2821 180.716 56.789 180.588C54.4158 179.972 52.5885 177.889 52.3452 175.524C51.9883 172.068 54.7965 169.261 57.543 167.787C60.1836 166.369 63.1901 165.62 66.2367 165.62C67.3476 165.62 68.4521 165.721 69.5302 165.919C69.5908 164.78 68.2 163.584 67.3425 163.05C64.5607 161.323 61.3729 160.203 58.1219 159.812L57.6428 159.756C55.6995 159.533 53.4965 159.281 52.238 157.566C51.3503 156.356 51.3174 154.857 51.446 153.813C52.0765 148.733 57.1634 145.696 61.7169 145.696C62.4975 145.696 63.2655 145.783 63.9994 145.957C68.8934 147.111 73.0462 151.551 74.5783 157.268C74.77 157.982 74.9236 158.711 75.0724 159.416C75.3738 160.84 75.6576 162.184 76.2251 163.43C77.075 165.294 78.5604 166.919 80.747 168.373C80.1947 125.539 79.2679 117.503 78.7622 116.548C78.4848 116.024 78.1657 115.497 77.7142 115.188C77.1985 114.836 76.4774 114.749 75.7208 114.686C73.1584 114.469 70.5505 114.395 67.9767 114.468C67.6413 114.478 67.3073 114.49 66.9719 114.501C66.2316 114.528 65.4648 114.554 64.7069 114.554C63.548 114.554 62.5948 114.491 61.7071 114.355C59.9618 114.087 57.5343 113.357 55.8836 111.401C53.8647 109.009 53.6654 105.181 55.4081 102.296C56.9642 99.7193 59.8872 97.93 63.2239 97.5088C66.0284 97.1557 69.0866 97.7181 72.1874 99.1544C76.1407 100.985 79.5857 103.969 81.9779 107.616C83.5012 105.684 83.0321 102.467 81.5441 100.187C80.5908 98.7281 79.3562 97.5088 78.0498 96.2175C76.9994 95.1797 75.9124 94.1052 74.9869 92.8971C72.8646 90.1229 71.8608 86.9427 72.1622 83.9415C72.5064 80.5027 74.7281 77.4586 77.689 76.369C78.5301 76.0601 79.4229 75.9025 80.3422 75.9025C83.53 75.9025 86.8844 77.8053 88.8907 80.7498C91.2955 84.2819 91.868 88.6968 92.1088 92.5517C92.4367 97.7749 92.2866 103.027 91.6637 108.224C93.5539 105.478 96.3143 103.34 99.5185 102.261C101.073 101.738 102.72 101.473 104.411 101.473C107.886 101.473 111.283 102.593 113.979 104.629C115.527 105.797 116.578 107.089 117.101 108.467C118.154 111.239 117.116 114.689 114.577 116.857C112.007 119.052 108.634 119.574 106.259 119.626C104.049 119.671 101.841 119.37 99.7103 119.076C99.0597 118.986 98.4101 118.897 97.7594 118.817C97.1793 118.746 96.5614 118.68 95.9725 118.68C95.3509 118.68 94.8213 118.752 94.3535 118.903C91.8794 119.693 90.776 122.65 90.568 125.153C90.4835 126.174 90.4935 146.226 90.5048 169.444L90.5125 186.066C91.539 185.65 92.4001 185.377 92.6485 185.298C95.3244 183.875 96.6284 182.147 97.7785 180.621C99.0269 178.966 100.105 177.537 102.409 177.537C103.187 177.537 104.067 177.705 105.1 178.048C107.719 178.92 109.059 181.654 108.515 185.011C107.788 189.489 103.701 194.308 96.4467 194.308C95.2764 194.308 94.0446 194.181 92.7861 193.929C91.9576 193.764 91.1972 193.587 90.515 193.402C90.5226 238.836 90.4532 292.47 90.0825 293.92C90.0068 294.248 89.7153 294.167 89.3799 294.167ZM82.496 293.263L88.7078 293.312C88.9399 288.097 89.0711 250.999 89.0597 192.429C89.0597 192.196 89.1707 191.977 89.3599 191.839C89.5478 191.702 89.7912 191.662 90.0144 191.732C90.8669 192.003 91.8995 192.26 93.0823 192.498C94.2462 192.731 95.3812 192.848 96.4556 192.848C102.855 192.848 106.448 188.665 107.079 184.779C107.502 182.167 106.548 180.072 104.646 179.437C103.766 179.143 103.037 179.001 102.418 179.001C100.91 179.001 100.23 179.813 98.9561 181.503C97.7657 183.08 96.2853 185.044 93.2803 186.625C93.2386 186.648 93.1945 186.665 93.1503 186.678C93.1352 186.683 91.6145 187.142 90.0988 187.843C89.8718 187.948 89.6083 187.93 89.3978 187.795C89.1872 187.66 89.0597 187.428 89.0597 187.179L89.052 169.442C89.0394 144.288 89.0296 126.112 89.1191 125.031C89.3663 122.056 90.7559 118.517 93.9172 117.509C94.5313 117.312 95.2072 117.217 95.9815 117.217C96.6498 117.217 97.3208 117.288 97.9475 117.365C98.6045 117.445 99.2614 117.536 99.9197 117.627C101.995 117.913 104.139 118.208 106.236 118.163C108.374 118.116 111.392 117.66 113.636 115.744C115.68 113.998 116.566 111.155 115.743 108.987C115.319 107.871 114.432 106.796 113.106 105.796C110.662 103.951 107.579 102.936 104.42 102.936C102.888 102.936 101.399 103.176 99.9939 103.647C95.6509 105.108 92.0838 108.9 90.906 113.304C90.8051 113.683 90.423 113.913 90.0397 113.829C89.6576 113.743 89.4091 113.371 89.4784 112.985C90.6865 106.283 91.0825 99.438 90.6563 92.6411C90.4268 88.9854 89.8959 84.8115 87.6891 81.572C85.9476 79.0159 83.0661 77.3639 80.3499 77.3639C79.6021 77.3639 78.8794 77.4901 78.201 77.7398C75.7533 78.6402 73.9137 81.1912 73.6236 84.0852C73.3639 86.6766 74.2858 89.5644 76.1546 92.0057C77.0171 93.1343 78.0676 94.1708 79.0839 95.1746C80.3891 96.4633 81.7371 97.795 82.7749 99.3851C84.7863 102.465 85.1633 107.033 82.3159 109.35C82.1507 109.483 81.9363 109.54 81.727 109.502C81.5176 109.466 81.3348 109.34 81.2264 109.158C78.978 105.401 75.5516 102.32 71.5794 100.48C68.7295 99.1607 65.9441 98.6398 63.4132 98.9589C60.5154 99.3246 57.9933 100.854 56.6654 103.05C55.2367 105.414 55.3805 108.529 57.0059 110.456C58.3641 112.065 60.4346 112.676 61.9327 112.907C62.7461 113.032 63.6274 113.09 64.7106 113.09C65.4432 113.09 66.1962 113.063 66.9238 113.037C67.2631 113.026 67.6009 113.013 67.9401 113.004C70.5668 112.93 73.2326 113.004 75.848 113.227C76.7672 113.306 77.7331 113.428 78.5427 113.98C79.2577 114.469 79.7106 115.206 80.0586 115.863C80.4382 116.58 81.5932 118.762 82.23 169.688C82.2338 169.952 82.0953 170.196 81.8683 170.329C81.6413 170.463 81.3601 170.462 81.1319 170.33C78.0537 168.544 76.0145 166.485 74.8973 164.036C74.2617 162.644 73.9475 161.156 73.6436 159.719C73.4986 159.033 73.3486 158.324 73.1671 157.647C71.7711 152.441 68.0424 148.411 63.6654 147.38C63.0412 147.233 62.3868 147.158 61.7184 147.158C57.8837 147.158 53.422 149.77 52.8987 153.991C52.7625 155.094 52.9466 156.055 53.4182 156.699C54.2984 157.899 56.0841 158.103 57.8092 158.301L58.2959 158.358C61.7561 158.774 65.1519 159.966 68.1128 161.806C70.104 163.043 71.6753 165.159 70.6955 167.098C70.5442 167.397 70.21 167.555 69.8821 167.481C68.698 167.215 67.4709 167.08 66.2351 167.08C63.4281 167.08 60.6615 167.769 58.2328 169.072C56.0109 170.265 53.5153 172.63 53.7978 175.37C53.9769 177.112 55.3892 178.71 57.1546 179.169C57.5279 179.266 57.9188 179.315 58.3173 179.315C59.746 179.315 61.1835 178.689 62.1633 177.641C62.6778 177.09 63.0839 176.436 63.5127 175.744C63.8595 175.182 64.219 174.601 64.6515 174.061C66.4333 171.836 69.3852 170.508 72.5516 170.508C72.9602 170.508 73.3713 170.531 73.7736 170.576C77.4292 170.985 80.2945 172.991 82.0548 174.604C82.2036 174.74 82.2906 174.933 82.2919 175.135C82.4205 186.822 82.5127 199.827 82.5644 213.79C82.5656 214.026 82.4521 214.246 82.2617 214.385C82.0713 214.523 81.8252 214.562 81.602 214.487C81.346 214.401 81.1899 214.355 81.1848 214.354C81.1394 214.34 81.0965 214.322 81.0537 214.301C78.0474 212.718 76.5667 210.755 75.3775 209.177C74.1039 207.487 73.4244 206.675 71.9162 206.675C71.297 206.675 70.5681 206.818 69.6879 207.111C67.7862 207.746 66.8305 209.843 67.2542 212.453C67.8847 216.34 71.4787 220.521 77.8783 220.521C78.9527 220.521 80.0877 220.403 81.2516 220.171C81.4004 220.14 81.5402 220.111 81.6802 220.081C81.8945 220.036 82.1318 220.086 82.3033 220.225C82.4748 220.364 82.5856 220.569 82.5868 220.79C82.6537 244.8 82.583 286.818 82.496 293.263Z" fill="#333333"/>
<path d="M79.9728 112.608C79.7597 112.608 79.5492 112.516 79.4042 112.338C72.3362 103.632 60.7548 105.606 60.6388 105.627C60.2441 105.699 59.861 105.435 59.7891 105.037C59.7172 104.64 59.9821 104.259 60.3793 104.187C60.8875 104.095 72.9312 102.046 80.539 111.415C80.7937 111.729 80.7458 112.19 80.4331 112.444C80.2981 112.555 80.1355 112.608 79.9728 112.608Z" fill="#333333"/>
<path d="M86.8527 98.3966C86.482 98.3966 86.1643 98.1166 86.1265 97.7396C85.4707 91.3109 81.0948 83.1583 81.0507 83.0764C80.859 82.7208 80.9916 82.2769 81.3472 82.0852C81.7015 81.8923 82.1465 82.0247 82.3382 82.3803C82.5236 82.7233 86.8967 90.8695 87.5815 97.5907C87.6218 97.993 87.3307 98.3524 86.9285 98.3927C86.902 98.3952 86.8767 98.3966 86.8527 98.3966Z" fill="#333333"/>
<path d="M93.2364 113.468C93.0094 113.468 92.785 113.362 92.6413 113.163C92.4055 112.835 92.4809 112.378 92.8088 112.143C102.68 105.051 112.021 109.177 112.414 109.356C112.782 109.524 112.943 109.958 112.776 110.325C112.608 110.692 112.174 110.854 111.807 110.686C111.695 110.636 102.811 106.758 93.6625 113.331C93.5326 113.424 93.3839 113.468 93.2364 113.468Z" fill="#333333"/>
<path d="M400.194 175.073C403.073 173.283 406.347 172.133 409.713 171.729C411.667 171.493 413.93 171.363 415.094 169.775C415.759 168.867 415.888 167.662 415.749 166.545C415.113 161.424 409.111 158.126 404.089 159.31C399.066 160.494 395.384 165.116 394.048 170.099C393.486 172.195 393.26 174.401 392.36 176.376C391.159 179.007 388.959 180.87 386.423 182.34C386.772 154.417 387.408 130.931 388.51 128.849C388.835 128.233 389.217 127.621 389.791 127.229C390.467 126.767 391.319 126.67 392.135 126.601C394.737 126.38 397.351 126.307 399.961 126.38C402.01 126.438 404.073 126.585 406.1 126.275C408.126 125.965 410.154 125.139 411.475 123.573C413.372 121.324 413.405 117.835 411.883 115.317C410.362 112.799 407.52 111.246 404.601 110.878C401.683 110.51 398.705 111.225 396.036 112.462C391.92 114.367 388.398 117.536 386.069 121.428C383.515 119.351 383.96 115.187 385.759 112.432C387.559 109.676 390.348 107.712 392.348 105.098C394.184 102.698 395.327 99.6663 395.026 96.6601C394.724 93.6538 392.809 90.7447 389.973 89.7006C386.221 88.3198 381.878 90.5038 379.627 93.8077C377.376 97.1116 376.785 101.253 376.534 105.243C376.104 112.098 376.504 119.003 377.722 125.763C376.471 121.082 372.752 117.145 368.161 115.602C363.57 114.058 358.242 114.94 354.375 117.859C353.151 118.783 352.04 119.939 351.495 121.374C350.496 124.004 351.672 127.12 353.81 128.947C355.95 130.774 358.856 131.481 361.669 131.541C364.482 131.602 367.27 131.081 370.062 130.738C371.303 130.585 372.59 130.472 373.781 130.853C376.516 131.726 377.835 134.878 378.072 137.739C378.18 139.04 378.139 168.178 378.129 199.827C376.544 199.094 374.982 198.625 374.982 198.625C368.108 195.007 369.555 189.219 363.044 191.389C356.532 193.559 360.511 208.753 374.982 205.859C376.243 205.607 377.278 205.344 378.128 205.074C378.12 241.508 378.168 305.247 378.538 306.694C381.081 306.674 383.625 306.654 386.17 306.635C386.077 304.47 385.994 258.439 386.061 233.439C386.212 233.471 386.363 233.504 386.521 233.535C400.991 236.429 404.971 221.235 398.459 219.065C391.947 216.894 393.395 222.683 386.521 226.3C386.521 226.3 386.357 226.35 386.082 226.44C386.129 213.902 386.215 200.511 386.355 187.79C388.549 185.78 391.272 184.28 394.224 183.95C397.356 183.601 400.724 184.706 402.694 187.167C403.614 188.317 404.212 189.713 405.218 190.789C406.648 192.319 408.92 193.051 410.946 192.524C412.972 191.997 414.632 190.176 414.846 188.093C415.155 185.097 412.685 182.5 410.03 181.075C406.349 179.101 401.951 178.499 397.876 179.414C397.063 177.8 398.658 176.027 400.194 175.073Z" fill="#448189"/>
<path d="M378.541 308.038C378.207 308.038 377.916 307.505 377.832 307.181C377.462 305.732 377.392 251.638 377.399 206.202C376.715 206.388 375.955 206.487 375.127 206.653C373.869 206.905 372.637 206.993 371.467 206.993C364.212 206.993 360.125 202.155 359.399 197.677C358.854 194.32 360.195 191.576 362.814 190.703C363.846 190.359 364.725 190.188 365.505 190.188C367.809 190.188 368.887 191.615 370.134 193.269C371.285 194.795 372.588 196.522 375.264 197.945C375.512 198.022 376.373 198.296 377.4 198.712L377.407 182.03C377.419 158.844 377.43 138.819 377.344 137.797C377.136 135.294 376.033 132.338 373.56 131.547C373.091 131.397 372.561 131.326 371.939 131.326C371.349 131.326 370.733 131.391 370.153 131.463C369.503 131.542 368.853 131.632 368.202 131.722C366.072 132.015 363.864 132.317 361.653 132.271C359.278 132.22 355.907 131.698 353.336 129.502C350.797 127.333 349.76 123.883 350.811 121.113C351.335 119.734 352.385 118.443 353.935 117.273C356.63 115.239 360.028 114.118 363.501 114.118C365.193 114.118 366.839 114.382 368.393 114.906C371.598 115.984 374.359 118.123 376.248 120.868C375.625 115.671 375.476 110.419 375.803 105.196C376.046 101.341 376.617 96.9249 379.022 93.3953C381.028 90.4508 384.382 88.548 387.57 88.548C388.49 88.548 389.383 88.7043 390.223 89.0145C393.184 90.1053 395.406 93.1481 395.75 96.5882C396.052 99.5894 395.049 102.77 392.925 105.543C392.001 106.752 390.914 107.825 389.864 108.863C388.556 110.154 387.322 111.375 386.368 112.834C384.879 115.113 384.411 118.33 385.933 120.261C388.324 116.615 391.769 113.631 395.724 111.8C398.228 110.64 400.687 110.052 403.033 110.052C403.591 110.052 404.147 110.086 404.687 110.154C408.025 110.576 410.947 112.364 412.504 114.941C414.247 117.825 414.047 121.655 412.029 124.047C410.378 126.003 407.951 126.733 406.205 127C405.316 127.136 404.363 127.199 403.204 127.199C402.444 127.199 401.677 127.173 400.934 127.147C400.601 127.135 400.267 127.124 399.936 127.114C397.364 127.043 394.754 127.115 392.192 127.332C391.435 127.396 390.714 127.482 390.198 127.835C389.748 128.143 389.429 128.67 389.151 129.194C388.646 130.15 387.719 138.184 387.167 181.019C389.354 179.563 390.839 177.938 391.688 176.074C392.257 174.828 392.541 173.484 392.842 172.06C392.991 171.357 393.145 170.628 393.336 169.914C394.87 164.195 399.023 159.755 403.917 158.603C404.651 158.43 405.419 158.342 406.199 158.342C410.753 158.342 415.841 161.378 416.47 166.459C416.6 167.503 416.567 169.001 415.678 170.212C414.418 171.928 412.215 172.18 410.271 172.403L409.795 172.459C406.544 172.85 403.355 173.97 400.575 175.698C399.717 176.231 398.325 177.427 398.386 178.566C399.464 178.368 400.569 178.267 401.68 178.267C404.728 178.267 407.734 179.016 410.374 180.433C413.119 181.908 415.928 184.713 415.572 188.17C415.329 190.535 413.502 192.617 411.128 193.234C410.635 193.363 410.119 193.427 409.597 193.427C407.771 193.427 405.934 192.627 404.682 191.29C404.068 190.633 403.605 189.886 403.159 189.164C402.819 188.615 402.498 188.097 402.121 187.626C400.614 185.745 398.088 184.621 395.363 184.621C395.009 184.621 394.652 184.641 394.303 184.681C391.193 185.029 388.693 186.698 387.081 188.122C386.957 199.387 386.869 211.886 386.817 225.299C389.11 223.942 390.304 222.359 391.368 220.946C392.617 219.292 393.693 217.862 395.999 217.862C396.777 217.862 397.657 218.028 398.69 218.372C401.309 219.246 402.649 221.979 402.104 225.337C401.378 229.815 397.291 234.635 390.036 234.635C388.994 234.635 387.903 234.534 386.788 234.333C386.726 259.271 386.808 304.496 386.898 306.606C386.907 306.804 386.834 306.997 386.697 307.141C386.561 307.285 386.372 307.673 386.173 307.675L378.541 308.042C378.545 308.039 378.541 308.038 378.541 308.038ZM378.131 204.342C378.284 204.342 378.436 204.39 378.564 204.484C378.752 204.621 378.864 204.84 378.864 205.074C378.853 263.646 378.984 300.743 379.216 305.957L385.427 305.907C385.34 299.462 385.269 257.443 385.333 233.437C385.334 233.216 385.434 233.008 385.605 232.869C385.777 232.73 386 232.679 386.217 232.723L386.264 232.733C386.397 232.761 386.53 232.79 386.67 232.817C387.835 233.051 388.97 233.168 390.044 233.168C396.444 233.168 400.037 228.985 400.668 225.1C401.092 222.49 400.136 220.393 398.234 219.758C397.354 219.465 396.625 219.322 396.006 219.322C394.498 219.322 393.818 220.134 392.545 221.824C391.355 223.401 389.875 225.364 386.869 226.946C386.827 226.969 386.783 226.987 386.739 227C386.734 227.002 386.577 227.048 386.32 227.134C386.097 227.208 385.851 227.171 385.661 227.032C385.47 226.894 385.358 226.673 385.358 226.437C385.41 212.458 385.502 199.453 385.631 187.781C385.633 187.58 385.719 187.387 385.868 187.25C387.628 185.639 390.493 183.631 394.149 183.223C394.551 183.177 394.962 183.155 395.371 183.155C398.536 183.155 401.489 184.484 403.27 186.708C403.702 187.248 404.061 187.829 404.408 188.39C404.837 189.083 405.242 189.737 405.756 190.287C406.736 191.335 408.174 191.96 409.603 191.96C410.001 191.96 410.392 191.911 410.765 191.814C412.53 191.355 413.942 189.757 414.122 188.016C414.405 185.276 411.91 182.91 409.687 181.718C407.258 180.415 404.492 179.726 401.685 179.726C400.45 179.726 399.223 179.861 398.039 180.127C397.712 180.201 397.377 180.042 397.225 179.744C396.246 177.805 397.817 175.688 399.808 174.451C402.769 172.613 406.164 171.42 409.625 171.002L410.111 170.946C411.837 170.748 413.623 170.543 414.504 169.343C414.976 168.7 415.16 167.739 415.023 166.635C414.5 162.415 410.038 159.802 406.204 159.802C405.536 159.802 404.881 159.876 404.257 160.024C399.88 161.055 396.15 165.086 394.755 170.29C394.574 170.966 394.425 171.676 394.28 172.36C393.976 173.799 393.662 175.287 393.026 176.679C391.909 179.13 389.87 181.188 386.792 182.973C386.564 183.106 386.282 183.104 386.055 182.972C385.828 182.839 385.69 182.595 385.692 182.331C386.329 131.405 387.484 129.223 387.864 128.506C388.212 127.849 388.664 127.112 389.378 126.623C390.188 126.071 391.154 125.949 392.074 125.87C394.691 125.648 397.355 125.573 399.983 125.647C400.32 125.656 400.657 125.669 400.993 125.68C401.724 125.705 402.478 125.733 403.212 125.733C404.295 125.733 405.178 125.675 405.991 125.55C407.489 125.321 409.56 124.709 410.918 123.099C412.544 121.172 412.687 118.057 411.26 115.694C409.933 113.497 407.41 111.968 404.512 111.602C401.982 111.283 399.196 111.804 396.345 113.123C392.373 114.963 388.947 118.044 386.699 121.801C386.59 121.983 386.407 122.109 386.198 122.145C385.989 122.183 385.774 122.126 385.61 121.993C382.762 119.676 383.14 115.108 385.15 112.028C386.189 110.438 387.538 109.105 388.842 107.816C389.857 106.814 390.908 105.776 391.772 104.649C393.639 102.207 394.562 99.3209 394.301 96.7295C394.011 93.8342 392.171 91.2845 389.724 90.3841C389.045 90.1344 388.323 90.0083 387.575 90.0083C384.858 90.0083 381.977 91.6602 380.236 94.2162C378.03 97.4545 377.498 101.629 377.269 105.286C376.842 112.081 377.238 118.926 378.447 125.63C378.516 126.015 378.269 126.387 377.885 126.473C377.503 126.558 377.121 126.327 377.019 125.949C375.842 121.543 372.275 117.752 367.932 116.292C366.527 115.82 365.038 115.58 363.506 115.58C360.348 115.58 357.264 116.596 354.821 118.441C353.495 119.441 352.608 120.515 352.185 121.631C351.361 123.8 352.248 126.642 354.292 128.389C356.534 130.304 359.553 130.761 361.69 130.807C363.791 130.851 365.932 130.558 368.008 130.271C368.665 130.181 369.322 130.09 369.979 130.009C370.604 129.932 371.275 129.861 371.943 129.861C372.719 129.861 373.395 129.957 374.009 130.153C377.17 131.163 378.56 134.7 378.807 137.675C378.897 138.755 378.888 156.907 378.874 182.029L378.866 199.823C378.866 200.073 378.739 200.305 378.528 200.438C378.319 200.573 378.056 200.592 377.827 200.486C376.312 199.785 374.791 199.326 374.776 199.322C374.73 199.308 374.687 199.291 374.644 199.269C371.638 197.687 370.158 195.723 368.969 194.147C367.694 192.457 367.014 191.645 365.507 191.645C364.889 191.645 364.159 191.788 363.279 192.081C361.377 192.716 360.422 194.813 360.845 197.423C361.476 201.31 365.07 205.492 371.469 205.492C372.544 205.492 373.678 205.374 374.842 205.142C376.025 204.905 377.058 204.648 377.911 204.376C377.982 204.354 378.057 204.342 378.131 204.342Z" fill="#333333"/>
<path d="M387.95 125.254C387.787 125.254 387.624 125.201 387.49 125.09C387.176 124.835 387.128 124.375 387.382 124.061C394.99 114.69 407.033 116.739 407.542 116.831C407.94 116.903 408.203 117.283 408.133 117.68C408.061 118.077 407.68 118.342 407.284 118.271C407.168 118.25 395.573 116.294 388.518 124.983C388.373 125.16 388.163 125.254 387.95 125.254Z" fill="#333333"/>
<path d="M381.072 111.041C381.046 111.041 381.022 111.04 380.997 111.037C380.595 110.997 380.302 110.637 380.344 110.235C381.03 103.514 385.402 95.3676 385.588 95.0246C385.78 94.6703 386.224 94.5366 386.58 94.7295C386.935 94.9212 387.067 95.3651 386.875 95.7207C386.83 95.8027 382.455 103.955 381.799 110.384C381.76 110.76 381.442 111.041 381.072 111.041Z" fill="#333333"/>
<path d="M374.687 126.114C374.54 126.114 374.391 126.07 374.261 125.976C365.098 119.395 356.204 123.293 356.116 123.333C355.749 123.5 355.315 123.337 355.148 122.969C354.981 122.601 355.143 122.168 355.51 122.002C355.903 121.823 365.243 117.698 375.115 124.788C375.442 125.024 375.518 125.481 375.282 125.809C375.139 126.008 374.914 126.114 374.687 126.114Z" fill="#333333"/>
<path d="M362.765 35.043L367.069 53.0276L384.282 56.3378L367.29 60.9721L362.324 78.6263L357.36 60.5306L341.691 57.4411L358.242 53.3592L362.765 35.043Z" fill="white"/>
<path d="M362.326 79.7939H362.323C361.995 79.7939 361.707 79.3551 361.62 79.0386L356.774 61.2709L341.549 58.2142C341.213 58.1486 340.968 57.8296 340.959 57.4866C340.95 57.1436 341.182 56.8283 341.515 56.7451L357.636 52.7614L362.055 34.9143C362.136 34.5877 362.428 34.3986 362.765 34.3986H362.767C363.105 34.3986 363.398 34.5889 363.476 34.9168L367.669 52.4211L384.418 55.6315C384.752 55.6958 384.998 55.9772 385.01 56.3164C385.023 56.6568 384.8 56.9582 384.472 57.0477L367.879 61.571L363.026 79.0437C362.941 79.3589 362.654 79.7939 362.326 79.7939ZM345.07 57.3617L357.502 59.8131C357.775 59.8661 357.993 60.0691 358.066 60.3377L362.335 75.895L366.587 60.7754C366.656 60.5282 366.85 60.3352 367.099 60.2671L381.051 56.4626L366.932 53.7477C366.65 53.6935 366.426 53.479 366.359 53.1991L362.756 38.14L358.953 53.5345C358.887 53.798 358.682 54.0037 358.418 54.0693L345.07 57.3617Z" fill="#363636"/>
<path d="M315.371 6.91345L318.368 19.4404L330.358 21.7467L318.522 24.975L315.063 37.2724L311.606 24.6673L300.691 22.5147L312.22 19.6711L315.371 6.91345Z" fill="white"/>
<path d="M315.064 38.1803H315.061C314.733 38.1803 314.445 37.8715 314.358 37.5537L311.018 25.342L300.549 23.255C300.213 23.1894 299.968 22.8868 299.959 22.5438C299.95 22.2008 300.183 21.8931 300.516 21.8111L311.615 19.0697L314.66 6.97519C314.741 6.64859 315.034 6.65485 315.37 6.65485H315.373C315.711 6.65485 316.003 6.65117 316.083 6.97904L318.971 18.9296L330.496 21.0873C330.83 21.1516 331.076 21.4075 331.089 21.748C331.101 22.0885 330.878 22.3773 330.55 22.4669L319.114 25.5791L315.768 37.5625C315.679 37.8777 315.392 38.1803 315.064 38.1803ZM304.069 22.4353L311.747 23.9498C312.02 24.0041 312.238 24.2057 312.311 24.4743L315.073 34.5398L317.818 24.7771C317.887 24.5299 318.081 24.3369 318.33 24.2688L327.125 21.8704L318.23 20.1591C317.948 20.1049 317.723 19.8905 317.657 19.6119L315.359 10.0092L312.929 19.8465C312.863 20.11 312.658 20.3168 312.394 20.3811L304.069 22.4353Z" fill="#363636"/>
<path d="M131.151 25.3923L135.386 43.0908L152.324 46.348L135.603 50.9078L130.718 68.2796L125.831 50.4728L110.414 47.4325L126.7 43.4162L131.151 25.3923Z" fill="white"/>
<path d="M130.717 68.4448H130.714C130.387 68.4448 130.098 68.5067 130.012 68.1902L125.245 50.962L110.272 48.0807C109.935 48.0151 109.691 47.7592 109.682 47.4162C109.673 47.0732 109.905 46.7893 110.238 46.7061L126.095 42.8033L130.441 25.0368C130.521 24.7102 130.814 24.3091 131.151 24.3091H131.153C131.491 24.3091 131.784 24.7177 131.862 25.0456L135.987 42.3721L152.461 45.5839C152.795 45.6482 153.041 45.9558 153.053 46.2963C153.066 46.6368 152.843 46.9509 152.515 47.0417L136.193 51.498L131.419 68.1915C131.332 68.508 131.045 68.4448 130.717 68.4448ZM113.792 47.3531L125.973 49.7554C126.245 49.8083 126.463 50.0114 126.538 50.28L130.727 65.547L134.9 50.7099C134.969 50.4627 135.163 50.2699 135.412 50.2018L149.092 46.4704L135.249 43.8083C134.966 43.7541 134.742 43.5398 134.675 43.2611L131.141 28.4895L127.411 43.5914C127.345 43.855 127.139 44.0619 126.876 44.1262L113.792 47.3531Z" fill="#363636"/>
<path d="M278.176 185.72C277.783 185.72 277.459 185.831 277.445 185.436C277.359 182.865 277.41 180.473 277.593 177.909C277.622 177.507 277.964 177.307 278.374 177.338C278.778 177.367 279.081 177.769 279.052 178.172C278.871 180.686 278.822 182.841 278.907 185.36C278.919 185.764 278.604 185.72 278.199 185.72C278.193 185.72 278.184 185.72 278.176 185.72Z" fill="#333333"/>
<path d="M297.276 274.439C346.28 268.511 379.28 260.903 395.878 297.657C412.476 334.41 372.363 375.116 274.453 385.589C176.542 396.061 33.4214 348.743 61.1437 285.011C80.3111 240.946 159.548 275.922 159.548 275.922L176.938 267.623L281.271 262.88L297.276 274.439Z" fill="#0BB4CA"/>
<path d="M245.898 387.777C210.202 387.777 170.648 381.353 137.375 370.151C101.945 358.225 75.9742 341.805 64.2493 323.917C55.9417 311.244 54.6708 298.055 60.4714 284.719C67.0212 269.659 81.075 262.024 102.241 262.024C128.064 262.024 156.267 273.725 159.532 275.117L176.621 266.961C176.71 266.918 176.805 266.895 176.902 266.89L281.235 262.148C281.401 262.141 281.563 262.189 281.697 262.285L297.47 273.677C301.325 273.209 305.092 272.731 308.737 272.267C323.664 270.369 336.554 268.733 348.063 268.733C360.172 268.733 369.289 270.599 376.755 274.605C385.207 279.14 391.679 286.581 396.544 297.354C402.05 309.547 401.397 322.216 394.653 333.993C379.351 360.715 335.569 379.786 274.529 386.314C265.473 387.285 255.84 387.777 245.898 387.777ZM102.241 263.488C81.7118 263.488 68.1094 270.827 61.8131 285.302C56.2218 298.159 57.4523 310.88 65.4736 323.114C77.0208 340.729 102.722 356.941 137.842 368.764C170.969 379.917 210.355 386.313 245.898 386.313C255.788 386.313 265.368 385.825 274.373 384.861C334.94 378.382 378.318 359.578 393.382 333.268C399.882 321.915 400.514 309.706 395.209 297.958C386.304 278.239 372.644 270.197 348.062 270.197C336.646 270.197 323.797 271.83 308.921 273.72C305.184 274.195 301.32 274.686 297.361 275.165C297.179 275.186 296.994 275.14 296.845 275.031L281.046 263.622L177.117 268.345L159.862 276.581C159.669 276.673 159.448 276.677 159.252 276.59C158.956 276.459 129.246 263.488 102.241 263.488Z" fill="#333333"/>
<path d="M253.383 329.602C253.119 329.602 252.866 329.459 252.734 329.211C252.547 328.854 252.684 328.412 253.042 328.224C258.06 325.586 263.719 322.554 269.713 319.344C292.344 307.221 317.994 293.481 329.034 290.13C342.938 285.909 349.433 286.347 349.703 286.368C350.107 286.399 350.408 286.75 350.377 287.153C350.345 287.556 349.984 287.853 349.591 287.827C349.529 287.823 343.05 287.403 329.459 291.529C318.557 294.838 292.975 308.542 270.403 320.632C264.408 323.844 258.745 326.877 253.722 329.518C253.614 329.576 253.498 329.602 253.383 329.602Z" fill="#333333"/>
<path d="M318.55 295.428C318.162 295.428 317.837 295.179 317.82 294.787C317.557 289.033 324.486 282.806 324.781 282.542C325.082 282.273 325.544 282.314 325.814 282.615C326.082 282.916 326.057 283.386 325.755 283.654C325.688 283.715 319.052 289.657 319.281 294.716C319.299 295.119 318.987 295.427 318.584 295.427C318.573 295.428 318.561 295.428 318.55 295.428Z" fill="#333333"/>
<path d="M227.243 336.592C227.071 336.592 226.897 336.53 226.757 336.407C216.993 327.689 196.292 314.704 172.733 302.519C148.959 290.223 129.029 282.306 120.721 281.857C120.318 281.836 120.009 281.49 120.03 281.087C120.052 280.685 120.392 280.377 120.801 280.396C130.962 280.945 154.638 291.513 173.405 301.219C197.066 313.456 217.882 326.52 227.731 335.314C228.033 335.584 228.059 336.046 227.789 336.347C227.644 336.51 227.444 336.592 227.243 336.592Z" fill="#333333"/>
<path d="M183.952 286.835C183.851 286.835 183.749 286.813 183.65 286.769C183.623 286.756 180.62 285.404 159.267 276.598C158.894 276.444 158.715 276.016 158.87 275.643C159.024 275.27 159.45 275.091 159.825 275.246C181.26 284.087 184.142 285.387 184.255 285.437C184.623 285.605 184.784 286.038 184.618 286.406C184.495 286.674 184.231 286.835 183.952 286.835Z" fill="#333333"/>
<path d="M275.511 287.083C275.284 287.083 275.061 286.978 274.918 286.78C274.681 286.454 274.754 285.996 275.082 285.759C275.2 285.673 286.98 277.197 297.039 273.746C297.421 273.614 297.838 273.818 297.969 274.202C298.1 274.585 297.895 275 297.513 275.131C287.659 278.511 276.056 286.861 275.94 286.944C275.81 287.038 275.66 287.083 275.511 287.083Z" fill="#333333"/>
<path d="M444.63 307.248C441.722 304.084 435.829 295.16 435.829 295.16C449.333 297.796 454.324 290.721 454.324 290.721L445.181 281.676C445.181 281.676 424.327 283.26 424.505 270.801C424.661 259.844 436.738 266.979 440.277 269.474C443.815 271.97 446.819 271.015 449.276 266.179C451.734 261.343 437.715 248.541 427.934 247.31C421.067 246.447 413.175 248.653 409.077 250.047C403.703 247.549 355.846 224.007 351.724 216.68C344.766 204.303 337.801 179.388 326.635 160.005L300.139 195.542C300.139 195.542 296.426 207.149 293.027 218.094C300.083 234.995 308.74 252.246 317.11 259.686C326.437 267.976 348.3 278.312 368.041 286.652C376.066 291.462 384.291 296.833 384.557 297.093C389.666 302.093 397.683 316.418 402.156 328.632C406.628 340.846 411.903 343.507 414.66 341.478C417.417 339.449 417.729 335.324 415.073 329.662C413.337 325.965 412.22 317.293 412.22 317.293C412.22 317.293 432.149 339.667 438.322 343.386C444.495 347.104 449.44 345.877 451.453 340.619C453.465 335.364 435.66 318.99 435.66 318.99C435.66 318.99 450.405 327.007 456.082 328.573C461.759 330.139 464.28 327.467 465.426 322.236C466.571 317.002 447.536 310.41 444.63 307.248Z" fill="#FCD4D5"/>
<path d="M444.88 346.263C442.758 346.263 440.424 345.505 437.942 344.009C432.719 340.863 418.218 325.034 413.3 319.589C413.755 322.4 414.62 326.979 415.732 329.348C418.485 335.216 418.258 339.732 415.091 342.063C414.417 342.56 413.613 342.823 412.767 342.823C410.903 342.823 406.074 341.464 401.467 328.881C397.076 316.888 389.112 302.59 384.063 297.631C383.446 297.151 375.439 291.938 367.709 287.302C341.619 276.28 324.432 267.171 316.623 260.231C309.451 253.855 301.284 239.772 292.351 218.372C292.286 218.215 292.277 218.037 292.327 217.874C295.688 207.052 299.404 195.433 299.441 195.317C299.466 195.24 299.502 195.167 299.552 195.103L326.047 159.566C326.195 159.369 326.429 159.256 326.676 159.274C326.922 159.287 327.144 159.425 327.268 159.639C333.611 170.648 338.592 183.406 342.986 194.66C346.407 203.422 349.362 210.988 352.361 216.321C356.25 223.234 401.982 245.904 409.121 249.259C412.459 248.141 418.669 246.382 424.661 246.382C425.834 246.382 426.965 246.45 428.022 246.583C435.936 247.578 446.129 255.58 449.292 261.543C450.362 263.56 450.575 265.231 449.926 266.508C448.23 269.845 446.179 271.537 443.829 271.537C442.572 271.537 441.234 271.043 439.853 270.069C436.936 268.011 432.404 265.609 429.234 265.609C427.549 265.609 425.301 266.147 425.235 270.808C425.202 273.107 425.951 275.049 427.462 276.581C431.399 280.575 439.61 281.006 442.958 281.006C444.273 281.006 445.116 280.944 445.125 280.943C445.333 280.925 445.544 281.004 445.694 281.152L454.837 290.198C455.092 290.449 455.126 290.847 454.921 291.139C454.767 291.358 451.048 296.477 441.574 296.477C440.232 296.477 438.828 296.371 437.38 296.163C439.158 298.799 443.021 304.417 445.166 306.75C446.092 307.759 449.141 309.315 452.368 310.963C459.228 314.465 467.004 318.433 466.137 322.388C465.053 327.338 462.723 329.744 459.014 329.744C458.072 329.744 457.019 329.585 455.884 329.273C452.154 328.244 444.739 324.564 439.898 322.056C445.168 327.335 453.713 336.75 452.133 340.876C450.805 344.351 448.228 346.263 444.88 346.263ZM412.218 316.559C412.422 316.559 412.622 316.645 412.764 316.804C412.962 317.027 432.689 339.138 438.698 342.757C440.949 344.113 443.029 344.8 444.882 344.8C447.619 344.8 449.655 343.263 450.768 340.356C452.105 336.865 441.906 325.727 435.165 319.526C434.892 319.277 434.849 318.863 435.065 318.563C435.28 318.263 435.685 318.171 436.009 318.346C436.156 318.426 450.746 326.34 456.276 327.865C461.008 329.172 463.516 327.531 464.711 322.077C465.336 319.226 457.134 315.04 451.706 312.269C448.07 310.413 445.197 308.946 444.091 307.743C441.177 304.573 435.461 295.93 435.219 295.563C435.056 295.317 435.057 294.998 435.221 294.754C435.385 294.509 435.678 294.384 435.97 294.443C437.925 294.825 439.811 295.018 441.578 295.018C448.599 295.018 452.196 291.954 453.328 290.764L444.901 282.427C444.524 282.447 443.848 282.474 442.96 282.474C438.574 282.474 430.593 281.843 426.423 277.614C424.627 275.793 423.736 273.498 423.775 270.793C423.853 265.304 426.789 264.151 429.238 264.151C433.767 264.151 439.58 268.089 440.7 268.879C441.83 269.676 442.883 270.079 443.834 270.079C445.588 270.079 447.201 268.657 448.627 265.85C449.151 264.818 448.578 263.314 448.005 262.233C445.022 256.61 435.133 248.956 427.845 248.039C426.848 247.914 425.779 247.85 424.666 247.85C418.712 247.85 412.494 249.662 409.316 250.741C409.137 250.802 408.943 250.792 408.772 250.713C408.248 250.469 355.597 225.053 351.09 217.041C348.042 211.618 345.07 204.007 341.628 195.195C337.381 184.317 332.584 172.032 326.556 161.34L300.803 195.882C300.408 197.117 296.965 207.896 293.809 218.057C302.617 239.114 310.621 252.936 317.601 259.14C325.186 265.883 342.728 275.162 368.331 285.978C368.362 285.992 368.392 286.007 368.423 286.025C376.047 290.595 384.681 296.186 385.074 296.571C390.249 301.636 398.389 316.205 402.847 328.381C406.351 337.952 410.272 341.364 412.774 341.364C413.313 341.364 413.803 341.205 414.23 340.891C416.772 339.018 416.838 335.141 414.414 329.975C412.651 326.217 411.546 317.747 411.499 317.388C411.459 317.07 411.629 316.761 411.92 316.628C412.012 316.581 412.116 316.559 412.218 316.559Z" fill="#333333"/>
<path d="M452.838 291.847C458.714 287.29 455.471 267.081 449.272 266.179C443.073 265.277 441.034 277.031 441.901 284.479" fill="#FCD4D5"/>
<path d="M452.841 292.578C452.623 292.578 452.407 292.481 452.263 292.295C452.015 291.976 452.074 291.517 452.393 291.268C455.585 288.793 455.818 280.643 454.204 274.513C453.041 270.101 451.113 267.184 449.171 266.902C447.992 266.73 446.972 267.084 446.046 267.985C443.092 270.856 441.973 278.738 442.633 284.393C442.679 284.794 442.392 285.157 441.991 285.204C441.586 285.255 441.227 284.963 441.18 284.562C440.475 278.514 441.585 270.281 445.027 266.934C446.283 265.714 447.746 265.217 449.383 265.453C451.992 265.832 454.266 268.999 455.62 274.14C457.368 280.773 457.145 289.436 453.292 292.423C453.155 292.528 452.997 292.578 452.841 292.578Z" fill="#333333"/>
<path d="M435.657 318.988C429.112 313.656 423.01 304.955 423.01 304.955L435.657 318.988Z" fill="#FFB5A9"/>
<path d="M435.654 319.719C435.492 319.719 435.329 319.665 435.193 319.556C428.644 314.221 422.661 305.735 422.41 305.375C422.178 305.045 422.258 304.589 422.589 304.356C422.92 304.124 423.376 304.205 423.608 304.536C423.668 304.621 429.729 313.218 436.117 318.421C436.431 318.677 436.478 319.137 436.222 319.45C436.077 319.627 435.866 319.719 435.654 319.719Z" fill="#2E333F"/>
<path d="M406.891 312.899C406.891 312.899 414.71 309.963 425.414 301.962L406.891 312.899Z" fill="#FFB5A9"/>
<path d="M406.89 313.63C406.594 313.63 406.315 313.448 406.205 313.156C406.063 312.778 406.255 312.356 406.633 312.214C406.711 312.185 414.494 309.211 424.976 301.375C425.3 301.133 425.757 301.2 426 301.523C426.242 301.847 426.175 302.305 425.852 302.547C415.188 310.519 407.471 313.462 407.149 313.583C407.063 313.615 406.976 313.63 406.89 313.63Z" fill="#2E333F"/>
<path d="M416.248 283.069C412.733 283.069 407.122 282.072 400.426 277.285C400.097 277.05 400.021 276.593 400.255 276.265C400.49 275.936 400.947 275.86 401.276 276.095C411.906 283.695 419.64 281.203 419.718 281.178C420.099 281.05 420.516 281.253 420.646 281.635C420.776 282.017 420.571 282.434 420.188 282.564C420.05 282.61 418.63 283.069 416.248 283.069Z" fill="#333333"/>
<path d="M21.5788 307.248C24.4867 304.084 30.3782 295.16 30.3782 295.16C16.8727 297.796 11.8828 290.721 11.8828 290.721L21.0265 281.676C21.0265 281.676 41.8799 283.26 41.7021 270.801C41.5458 259.844 29.469 266.979 25.9306 269.474C22.3922 271.97 19.3883 271.015 16.9306 266.179C14.4729 261.343 28.4917 248.541 38.2734 247.31C45.1397 246.447 53.0311 248.653 57.1295 250.047C62.5039 247.549 110.361 224.007 114.483 216.68C121.441 204.303 128.406 179.388 139.572 160.005L166.068 195.542C166.068 195.542 169.781 207.149 173.18 218.094C166.124 234.995 157.467 252.246 149.097 259.686C139.77 267.976 117.907 278.313 98.1655 286.652C90.1404 291.462 81.9161 296.833 81.6501 297.093C76.5429 302.093 68.524 316.418 64.0512 328.632C59.5796 340.847 54.3035 343.507 51.5469 341.478C48.7903 339.449 48.4776 335.325 51.1345 329.663C52.8697 325.965 53.9869 317.293 53.9869 317.293C53.9869 317.293 34.0578 339.668 27.8851 343.386C21.7124 347.105 16.7667 345.877 14.7554 340.62C12.7428 335.364 30.5485 318.991 30.5485 318.991C30.5485 318.991 15.8033 327.007 10.1262 328.573C4.44905 330.139 1.92838 327.467 0.782117 322.236C-0.36415 317.002 18.6709 310.411 21.5788 307.248Z" fill="#FCD4D5"/>
<path d="M21.3247 346.263C17.9767 346.263 15.4003 344.351 14.0712 340.878C12.4912 336.752 21.0359 327.337 26.3057 322.059C21.4646 324.567 14.0498 328.245 10.3197 329.275C9.1848 329.588 8.13193 329.747 7.18995 329.747C3.48129 329.747 1.15087 327.341 0.0663923 322.39C-0.799928 318.436 6.97545 314.467 13.8354 310.965C17.0623 309.318 20.1115 307.762 21.0384 306.752C23.1834 304.418 27.0446 298.801 28.8239 296.165C27.3762 296.374 25.9715 296.479 24.6298 296.479C15.1558 296.479 11.437 291.359 11.2844 291.141C11.0789 290.848 11.1142 290.451 11.3677 290.199L20.5113 281.154C20.6614 281.005 20.8695 280.929 21.0813 280.944C21.0902 280.944 21.9325 281.007 23.249 281.007C26.5958 281.007 34.8062 280.576 38.7431 276.582C40.2538 275.05 41.0029 273.108 40.9701 270.809C40.9045 266.149 38.6561 265.61 36.9714 265.61C33.8012 265.61 29.269 268.012 26.3523 270.07C24.9715 271.044 23.6336 271.538 22.3764 271.538C20.0258 271.538 17.9753 269.846 16.2792 266.509C15.6298 265.232 15.843 263.561 16.9136 261.545C20.0762 255.583 30.269 247.579 38.1831 246.584C39.2411 246.452 40.371 246.384 41.545 246.384C47.5387 246.384 53.748 248.143 57.0872 249.26C64.2258 245.906 109.958 223.235 113.847 216.322C116.844 210.989 119.799 203.423 123.22 194.662C127.616 183.406 132.597 170.648 138.94 159.639C139.063 159.426 139.285 159.289 139.531 159.274C139.783 159.257 140.014 159.369 140.162 159.566L166.657 195.103C166.705 195.167 166.743 195.24 166.768 195.317C166.805 195.433 170.521 207.054 173.881 217.874C173.932 218.038 173.924 218.215 173.857 218.373C164.923 239.772 156.757 253.855 149.586 260.231C141.777 267.171 124.59 276.28 98.5004 287.302C90.7704 291.938 82.7642 297.15 82.1463 297.631C77.0971 302.59 69.1338 316.888 64.7429 328.881C60.1364 341.463 55.3054 342.823 53.4416 342.823C52.5955 342.823 51.7922 342.56 51.1175 342.063C47.9511 339.732 47.724 335.216 50.4768 329.349C51.5891 326.978 52.4542 322.4 52.9095 319.589C47.9927 325.035 33.4898 340.863 28.2666 344.009C25.7811 345.505 23.447 346.263 21.3247 346.263ZM30.5465 318.257C30.776 318.257 31.0004 318.365 31.1416 318.563C31.356 318.863 31.3132 319.277 31.042 319.526C24.2994 325.727 14.1015 336.865 15.4369 340.356C16.5504 343.264 18.5856 344.8 21.3233 344.8C23.1758 344.8 25.2565 344.113 27.5062 342.757C33.5149 339.138 53.241 317.027 53.439 316.804C53.6534 316.564 53.9977 316.491 54.289 316.625C54.5803 316.757 54.7517 317.065 54.7114 317.384C54.6647 317.742 53.5588 326.212 51.7959 329.971C49.3722 335.138 49.4378 339.014 51.98 340.887C52.4075 341.201 52.8968 341.36 53.4365 341.36C55.9384 341.36 59.8602 337.949 63.3633 328.378C67.8211 316.201 75.9609 301.634 81.1362 296.567C81.5296 296.181 90.1636 290.591 97.7865 286.021C97.8155 286.003 97.847 285.988 97.8785 285.975C123.481 275.159 141.023 265.879 148.608 259.136C155.588 252.932 163.592 239.111 172.4 218.053C169.242 207.892 165.801 197.113 165.406 195.878L139.652 161.337C133.625 172.029 128.828 184.314 124.579 195.191C121.138 204.003 118.167 211.615 115.118 217.037C110.611 225.05 57.9598 250.465 57.4352 250.709C57.265 250.788 57.0695 250.8 56.8917 250.738C53.7139 249.657 47.4959 247.846 41.5413 247.846C40.4291 247.846 39.3598 247.909 38.3623 248.035C31.0749 248.952 21.1859 256.607 18.2023 262.23C17.6286 263.31 17.0562 264.815 17.5807 265.846C19.007 268.653 20.6197 270.076 22.3738 270.076C23.3233 270.076 24.3776 269.671 25.5075 268.875C26.6273 268.086 32.4393 264.148 36.9701 264.148C39.419 264.148 42.3547 265.3 42.4329 270.789C42.472 273.494 41.5803 275.788 39.7847 277.61C35.6157 281.838 27.6347 282.47 23.2476 282.47C22.3599 282.47 21.684 282.444 21.307 282.423L12.8796 290.76C14.0095 291.949 17.6072 295.016 24.6298 295.015C26.3965 295.015 28.283 294.822 30.2376 294.44C30.5264 294.382 30.8215 294.505 30.9854 294.75C31.1493 294.995 31.1505 295.315 30.9878 295.559C30.7457 295.926 25.0307 304.57 22.1165 307.74C21.0119 308.943 18.1381 310.408 14.5013 312.265C9.07388 315.036 0.870965 319.222 1.49643 322.074C2.69188 327.528 5.19748 329.17 9.93134 327.862C15.4622 326.335 30.0509 318.422 30.1985 318.342C30.3082 318.286 30.428 318.257 30.5465 318.257Z" fill="#333333"/>
<path d="M13.363 291.847C7.48668 287.29 10.73 267.081 16.9292 266.179C23.1284 265.277 25.1661 277.031 24.2998 284.479" fill="#FCD4D5"/>
<path d="M13.3629 292.578C13.2066 292.578 13.0488 292.528 12.9152 292.425C9.06148 289.436 8.83964 280.774 10.5861 274.141C11.9405 269 14.214 265.835 16.8231 265.454C18.4561 265.218 19.9226 265.715 21.1774 266.936C24.6199 270.281 25.7284 278.514 25.0248 284.562C24.9781 284.963 24.6175 285.254 24.214 285.204C23.813 285.157 23.5254 284.794 23.5721 284.393C24.2303 278.737 23.113 270.856 20.1585 267.985C19.2329 267.084 18.2114 266.731 17.0336 266.902C15.0917 267.184 13.1636 270.101 12.0009 274.513C10.3856 280.644 10.6189 288.793 13.8118 291.269C14.1309 291.517 14.1889 291.976 13.9417 292.296C13.798 292.481 13.5811 292.578 13.3629 292.578Z" fill="#333333"/>
<path d="M30.5481 319.719C30.3362 319.719 30.1257 319.627 29.9807 319.45C29.726 319.137 29.7725 318.676 30.0852 318.421C36.4735 313.216 42.5341 304.621 42.5946 304.535C42.8266 304.205 43.2831 304.124 43.6135 304.356C43.9439 304.588 44.0247 305.045 43.7927 305.375C43.5404 305.733 37.5568 314.221 31.0084 319.555C30.8734 319.665 30.7108 319.719 30.5481 319.719Z" fill="#333333"/>
<path d="M59.3147 313.63C59.229 313.63 59.142 313.615 59.0575 313.583C58.7347 313.462 51.0186 310.519 40.3542 302.547C40.0301 302.305 39.9644 301.847 40.2066 301.523C40.4487 301.199 40.9077 301.133 41.2305 301.375C51.7298 309.224 59.4952 312.185 59.5721 312.214C59.9504 312.356 60.1419 312.777 59.9994 313.156C59.8897 313.449 59.6111 313.63 59.3147 313.63Z" fill="#333333"/>
<path d="M49.957 283.069C47.5736 283.069 46.155 282.61 46.0163 282.563C45.6342 282.434 45.4286 282.019 45.5585 281.635C45.6884 281.253 46.102 281.048 46.4841 281.176C46.5925 281.21 54.3656 283.643 64.9279 276.093C65.2557 275.858 65.7133 275.934 65.9478 276.263C66.1837 276.592 66.107 277.049 65.7791 277.284C59.0844 282.072 53.4714 283.069 49.957 283.069Z" fill="#333333"/>
<path d="M253.224 333.525C262.427 332.594 304.146 328.417 318.353 323.977C332.56 319.535 329.787 329.844 329.787 329.844C340.481 358.927 313.851 388.659 308.333 389.095C304.02 389.437 254.993 388.169 233.783 387.599C227.344 387.426 220.949 386.517 214.719 384.886C207.258 382.936 190.249 382.545 179.492 379.685C181.135 350.705 186.977 333.852 206.531 320.713C213.221 324.293 244.021 334.456 253.224 333.525Z" fill="#FCD4D5"/>
<path d="M305.161 389.884C292.922 389.884 251.152 388.797 233.763 388.329C227.277 388.155 220.807 387.234 214.534 385.594C211.222 384.727 205.852 384.159 200.167 383.556C193.181 382.816 185.263 381.976 179.303 380.392C178.968 380.303 178.741 379.99 178.761 379.644C180.298 352.549 185.267 334.12 206.123 320.106C206.347 319.955 206.637 319.941 206.875 320.069C213.025 323.36 241.516 332.854 251.907 332.854C252.363 332.854 252.782 332.835 253.151 332.797L253.512 332.761C295.388 328.53 311.768 325.268 318.137 323.278C320.565 322.519 322.679 322.134 324.418 322.134C326.798 322.134 328.548 322.842 329.617 324.236C331.15 326.236 330.723 328.978 330.55 329.799C337.324 348.52 328.82 366.182 323.13 375.063C317.463 383.909 311.067 389.614 308.391 389.826C307.883 389.865 306.826 389.884 305.161 389.884ZM180.257 379.127C186.04 380.586 193.613 381.389 200.322 382.101C206.064 382.709 211.486 383.284 214.903 384.178C221.07 385.79 227.429 386.695 233.802 386.866C251.186 387.334 292.94 388.42 305.161 388.42C306.765 388.42 307.813 388.401 308.274 388.365C310.294 388.205 316.454 382.767 321.896 374.272C327.459 365.588 335.793 348.3 329.098 330.096C329.046 329.954 329.039 329.8 329.078 329.654C329.086 329.627 329.795 326.869 328.449 325.12C327.019 323.262 323.587 323.106 318.57 324.674C312.138 326.684 295.655 329.973 253.657 334.216L253.296 334.253C252.879 334.296 252.411 334.317 251.904 334.317C241.301 334.317 213.684 325.152 206.578 321.563C186.683 335.105 181.796 352.975 180.257 379.127Z" fill="#333333"/>
<path d="M233.891 387.339C254.386 387.074 298.502 384.5 306.963 378.043C315.424 371.585 320.061 341.154 316.924 334.02C313.786 326.887 305.534 326.779 305.534 326.779C305.534 326.779 313.912 322.917 325.579 321.453C341.696 319.431 343.311 336.007 343.311 336.007C343.311 336.007 346.356 362.86 329.179 383.718C312.004 404.577 233.891 387.339 233.891 387.339Z" fill="#333333"/>
<path d="M306.262 329.308C310.474 326.69 317.22 325.043 319.66 329.674C321.224 332.642 319.312 339.41 317.622 339.661L317.904 346.435C317.904 346.435 321.926 352.144 316.307 355.788C316.307 355.788 319.658 359.793 316.181 363.352C316.181 363.352 319.354 368.154 314.846 370.495C314.846 370.495 318.426 378.101 305.867 378.772L306.262 329.308Z" fill="#FCD4D5"/>
<path d="M309.305 325.981C308.05 328.158 301.24 332.602 301.798 336.063C302.627 341.212 312.19 338.61 318.589 339.273C324.99 339.935 321.239 347.307 321.239 347.307C321.239 347.307 309.861 346.945 305.448 348.64C301.037 350.334 289.78 367.788 286.902 378.934C284.025 390.08 277.884 388.509 277.884 388.509L269.629 388.476C269.629 388.476 272.13 345.899 291.019 328.842L309.305 325.981Z" fill="#333333"/>
<path d="M303.96 371.449C303.781 371.444 303.614 371.332 303.546 371.155C303.456 370.92 303.573 370.655 303.811 370.564C308.286 368.845 313.999 369.756 314.239 369.793C314.489 369.835 314.658 370.069 314.618 370.319C314.577 370.569 314.325 370.733 314.092 370.699C314.031 370.687 308.378 369.792 304.14 371.42C304.08 371.443 304.019 371.452 303.96 371.449Z" fill="#333333"/>
<path d="M303.975 371.999L303.943 371.998C303.536 371.985 303.179 371.73 303.034 371.351C302.938 371.102 302.944 370.828 303.054 370.583C303.164 370.335 303.363 370.148 303.615 370.051C305.483 369.333 307.759 368.968 310.378 368.968C312.458 368.968 314.031 369.203 314.325 369.251C314.874 369.342 315.247 369.86 315.16 370.406C315.074 370.935 314.551 371.322 314.012 371.241C313.985 371.236 312.454 370.991 310.381 370.991C307.994 370.991 305.961 371.308 304.336 371.932C304.227 371.975 304.103 371.999 303.975 371.999Z" fill="#283B72"/>
<path d="M306.072 355.463C305.876 355.457 305.698 355.325 305.643 355.126C305.577 354.883 305.72 354.628 305.963 354.561C309.255 353.657 313.543 354.23 313.726 354.255C313.976 354.29 314.151 354.521 314.118 354.773C314.083 355.024 313.842 355.195 313.6 355.165C313.56 355.155 309.315 354.592 306.208 355.448C306.164 355.459 306.117 355.464 306.072 355.463Z" fill="#333333"/>
<path d="M306.086 356.013L306.055 356.012C305.61 355.998 305.233 355.7 305.115 355.273C304.97 354.735 305.287 354.18 305.819 354.033C307.095 353.682 308.646 353.505 310.429 353.505C312.299 353.505 313.743 353.703 313.804 353.711C314.351 353.787 314.737 354.295 314.664 354.844C314.588 355.384 314.076 355.781 313.531 355.709L313.492 355.702C313.241 355.667 311.945 355.522 310.427 355.522C308.819 355.522 307.449 355.675 306.355 355.976C306.255 356.001 306.169 356.013 306.086 356.013Z" fill="#283B72"/>
<path d="M305.587 363.551C305.375 363.545 305.193 363.393 305.151 363.179C305.103 362.931 305.267 362.69 305.515 362.642C307.698 362.234 313.245 362.579 316.229 362.897C316.48 362.923 316.663 363.149 316.636 363.401C316.61 363.651 316.402 363.837 316.132 363.808C312.982 363.477 307.658 363.171 305.688 363.545C305.653 363.55 305.619 363.552 305.587 363.551Z" fill="#333333"/>
<path d="M316.188 364.359C316.15 364.359 316.11 364.357 316.071 364.353C314.029 364.139 310.89 363.921 308.491 363.921C307.281 363.921 306.348 363.976 305.789 364.082C305.721 364.095 305.661 364.1 305.602 364.1C305.096 364.085 304.703 363.749 304.612 363.284C304.561 363.018 304.617 362.749 304.768 362.526C304.92 362.304 305.149 362.154 305.413 362.104C306.107 361.974 307.152 361.907 308.516 361.907C310.998 361.907 314.207 362.13 316.288 362.35C316.555 362.378 316.796 362.509 316.965 362.719C317.134 362.928 317.212 363.192 317.182 363.46C317.129 363.972 316.701 364.359 316.188 364.359Z" fill="#283B72"/>
<path d="M233.67 13.6951C233.372 13.6951 233.096 13.5123 232.986 13.2235C231.821 10.168 229.226 5.17944 227.222 4.80365C226.825 4.72925 226.564 4.34716 226.637 3.94994C226.712 3.55272 227.095 3.29057 227.491 3.36623C229.703 3.7811 231.753 7.11776 233.033 9.70411C233.999 1.96145 240.1 0.0509832 240.169 0.0308069C240.558 -0.0852069 240.964 0.136721 241.078 0.523854C241.193 0.909726 240.974 1.31697 240.588 1.43298C240.313 1.51747 233.85 3.59561 234.399 12.9209C234.42 13.2815 234.176 13.6032 233.823 13.6788C233.772 13.6902 233.72 13.6951 233.67 13.6951Z" fill="#333333"/>
<path d="M262.86 117.424C291.227 119.201 311.308 124.78 324.139 141.515C336.97 158.25 351.473 196.74 351.473 196.74C351.473 196.74 329.718 229.094 295.689 230.21L296.067 231.536L302.384 272.605C302.384 272.605 274.493 307.191 228.192 306.075C181.893 304.959 157.347 275.952 157.347 275.952L167.449 234.077C167.449 234.077 146.191 232.999 108.258 207.339C108.258 207.339 129.456 152.671 148.98 135.378C168.504 118.086 206.994 117.528 206.994 117.528L262.86 117.424Z" fill="#F9EED7"/>
<path d="M230.382 306.833C229.639 306.833 228.918 306.824 228.174 306.807C204.092 306.227 185.976 298.008 175.021 291.217C163.136 283.85 156.849 276.498 156.788 276.425C156.636 276.247 156.579 276.007 156.635 275.78L166.538 234.732C162.136 234.25 141.725 230.862 107.847 207.944C107.565 207.753 107.451 207.392 107.575 207.074C108.443 204.834 129.06 152.043 148.494 134.83C158.705 125.787 174.075 121.366 185.171 119.249C197.158 116.963 206.885 116.797 206.982 116.795L262.858 116.691C262.889 116.685 262.89 116.691 262.905 116.693C295.083 118.708 312.991 125.771 324.719 141.068C337.468 157.697 352.011 196.095 352.156 196.481C352.239 196.703 352.21 196.952 352.079 197.147C352.024 197.229 346.471 205.414 336.815 213.613C328.039 221.062 314.004 230.036 296.646 230.902L296.77 231.336C296.777 231.365 296.784 231.395 296.789 231.425L303.106 272.494C303.138 272.697 303.082 272.904 302.952 273.064C302.884 273.149 295.987 281.62 283.661 289.959C272.283 297.657 253.804 306.833 230.382 306.833ZM158.146 275.754C159.393 277.141 165.427 283.557 175.843 290.006C186.637 296.687 204.483 304.773 228.208 305.344C228.939 305.361 229.65 305.37 230.381 305.37C253.432 305.37 271.631 296.331 282.84 288.747C293.82 281.32 300.398 273.825 301.609 272.391L295.35 231.691L294.985 230.409C294.924 230.192 294.965 229.96 295.099 229.778C295.231 229.597 295.441 229.486 295.665 229.478C313.017 228.91 327.087 219.945 335.836 212.525C344.299 205.347 349.555 198.19 350.652 196.638C349.144 192.698 335.52 157.56 323.559 141.957C312.121 127.038 294.529 120.142 262.838 118.153L206.996 118.256C206.623 118.262 168.558 119.012 149.465 135.923C131.331 151.984 111.428 201.32 109.153 207.059C146.126 231.957 167.275 233.333 167.486 233.345C167.703 233.356 167.905 233.463 168.035 233.637C168.165 233.811 168.211 234.034 168.16 234.246L158.146 275.754Z" fill="#333333"/>
<path d="M284.942 65.1044C282.087 60.5407 276.073 59.151 272.407 62.0993C272.569 58.2771 272.449 55.8964 272.449 55.8964C272.449 55.8964 269.766 18.1869 237.687 17.1137C197.446 15.767 197 53.5269 197 53.5269C197 53.5269 197.048 57.4664 197.452 63.2267C194.038 58.8938 186.986 60.0351 183.814 65.1031C180.334 70.6882 181.353 85.2643 192.422 86.548C195.891 86.9478 198.228 85.1331 199.802 82.4332C200.344 85.2882 205.406 99.5591 218.161 104.857C218.397 107.649 218.287 113.213 218.337 116.498L203.658 117.405C203.658 117.405 205.609 137.009 233.355 137.009C261.101 137.009 262.859 117.421 262.859 117.421L249.43 115.454C249.288 112.84 249.285 108.461 249.386 104.857C262.934 100.176 268.462 85.6754 269.236 82.8822C270.81 85.3261 273.074 86.9225 276.334 86.548C287.403 85.2655 288.434 70.6907 284.942 65.1044Z" fill="#FCD4D5"/>
<path d="M233.355 137.742C218.733 137.742 211.243 132.264 207.533 127.667C203.486 122.653 202.952 117.688 202.93 117.478C202.91 117.28 202.972 117.084 203.1 116.932C203.229 116.781 203.414 116.689 203.612 116.676L217.597 115.812C217.589 114.917 217.59 113.901 217.59 112.839C217.59 110.215 217.589 107.267 217.463 105.356C206.399 100.535 201.054 89.0688 199.508 84.1773C197.653 86.5581 195.233 87.6072 192.337 87.2755C187.029 86.6589 184.336 83.2543 183.012 80.5053C180.377 75.0337 181.034 68.1813 183.194 64.716C185.084 61.6946 188.37 59.8182 191.77 59.8182C193.59 59.8182 195.251 60.3605 196.597 61.3731C196.31 56.696 196.268 53.5698 196.268 53.5357C196.273 53.1385 196.432 44.1223 201.34 34.9572C205.886 26.4668 215.522 16.347 235.61 16.347C236.299 16.347 237.007 16.3583 237.712 16.3823C251.115 16.8312 261.503 23.8173 267.754 36.5851C272.444 46.1638 273.15 55.4526 273.179 55.8435C273.184 55.9419 273.271 57.7413 273.188 60.7173C274.323 60.1234 275.609 59.8144 276.98 59.8144C280.383 59.8144 283.672 61.692 285.562 64.7147C287.723 68.1711 288.387 75.0172 285.755 80.49C284.431 83.2441 281.735 86.6577 276.42 87.2743C273.657 87.5921 271.324 86.64 269.495 84.4698C267.54 89.959 261.48 101.196 250.104 105.378C250.019 108.791 250.03 112.429 250.133 114.819L262.966 116.699C263.349 116.756 263.623 117.101 263.589 117.488C263.57 117.698 263.083 122.662 259.085 127.674C255.418 132.266 247.978 137.742 233.355 137.742ZM204.511 118.086C204.819 119.613 205.812 123.235 208.721 126.811C213.759 133.005 222.277 136.279 233.354 136.279C244.468 136.279 252.968 132.988 257.938 126.761C260.827 123.14 261.753 119.512 262.025 118.041L249.323 116.179C248.979 116.129 248.718 115.843 248.699 115.496C248.564 113.007 248.546 108.724 248.654 104.838C248.662 104.534 248.858 104.267 249.145 104.167C263.589 99.1771 268.484 82.852 268.53 82.688C268.607 82.4106 268.84 82.2038 269.125 82.161C269.407 82.1193 269.693 82.2467 269.85 82.4888C271.493 85.0411 273.585 86.1293 276.251 85.8229C280.904 85.2832 283.27 82.2807 284.435 79.857C286.816 74.905 286.229 68.5445 284.32 65.4916C282.695 62.8926 279.88 61.2784 276.977 61.2784C275.417 61.2784 273.995 61.7589 272.864 62.6693C272.639 62.8484 272.332 62.8825 272.076 62.7526C271.82 62.6227 271.662 62.3554 271.675 62.0692C271.832 58.3315 271.717 55.9569 271.716 55.9329C271.71 55.8547 270.995 46.517 266.419 37.1905C260.333 24.7884 250.657 18.2802 237.66 17.8451C236.97 17.8224 236.28 17.8099 235.606 17.8099C220.06 17.8099 208.965 23.8111 202.626 35.6482C197.886 44.5006 197.729 53.4462 197.727 53.5357C197.727 53.5572 197.78 57.5067 198.179 63.1762C198.201 63.4965 198.012 63.7942 197.712 63.9102C197.412 64.0262 197.072 63.9329 196.874 63.6807C195.654 62.1347 193.839 61.2823 191.765 61.2823C188.866 61.2823 186.055 62.8951 184.43 65.4928C182.523 68.5533 181.94 74.9214 184.326 79.8721C185.491 82.2895 187.855 85.2844 192.502 85.8241C195.32 86.1482 197.501 84.9214 199.165 82.0677C199.319 81.8041 199.62 81.6641 199.92 81.7146C200.222 81.7663 200.459 81.9983 200.515 82.2984C201.107 85.4094 206.153 99.0813 218.437 104.182C218.689 104.287 218.862 104.524 218.886 104.796C219.048 106.731 219.049 109.977 219.049 112.839C219.049 114.182 219.048 115.449 219.065 116.488C219.071 116.879 218.769 117.206 218.379 117.23L204.511 118.086Z" fill="#333333"/>
<path d="M272.86 60.6215C272.398 65.3995 269.827 68.8975 267.064 68.5028C264.302 68.1081 266.275 57.0604 264.105 42.855C261.934 28.6496 258.975 23.7177 258.975 23.7177C258.975 23.7177 274.71 41.4943 272.86 60.6215Z" fill="#DBD5EF"/>
<path d="M267.489 69.2645C267.313 69.2645 267.135 69.2519 266.96 69.2266C264.825 68.9215 264.743 65.5445 264.594 59.4146C264.484 54.9065 264.348 49.295 263.381 42.966C261.268 29.1339 258.376 24.1427 258.347 24.0935C258.154 23.7694 258.24 23.3509 258.545 23.1289C258.849 22.907 259.274 22.9511 259.524 23.2348C259.682 23.4152 275.446 41.4729 273.589 60.6934C273.115 65.5786 270.493 69.2645 267.489 69.2645ZM261.646 28.4011C262.631 31.4692 263.814 36.0997 264.829 42.744C265.81 49.1651 265.947 54.8284 266.058 59.3782C266.153 63.2545 266.26 67.6479 267.169 67.7778C267.276 67.793 267.385 67.8005 267.492 67.8005C269.701 67.8005 271.74 64.6151 272.134 60.5496C273.405 47.3871 266.085 34.7327 261.646 28.4011Z" fill="#363636"/>
<path d="M196.184 62.0994C196.646 66.8774 199.218 70.3755 201.98 69.9808C204.742 69.5861 202.769 58.5383 204.94 44.3329C207.11 30.1276 210.069 25.1957 210.069 25.1957C210.069 25.1957 194.336 42.9723 196.184 62.0994Z" fill="#DBD5EF"/>
<path d="M201.553 70.7424C198.548 70.7424 195.928 67.0565 195.455 62.17C193.596 42.9483 209.36 24.8918 209.519 24.7115C209.77 24.4278 210.195 24.3835 210.5 24.6054C210.804 24.8286 210.89 25.2474 210.694 25.5715C210.667 25.6182 207.774 30.6105 205.662 44.4426C204.695 50.7729 204.558 56.3832 204.449 60.8913C204.3 67.0211 204.218 70.3994 202.083 70.7033C201.907 70.7298 201.729 70.7424 201.553 70.7424ZM207.396 29.8853C202.957 36.2207 195.639 48.8775 196.912 62.0287C197.305 66.0942 199.343 69.2783 201.553 69.2783C201.66 69.2783 201.768 69.2708 201.875 69.2557C202.784 69.1258 202.891 64.7324 202.986 60.856C203.097 56.3063 203.234 50.643 204.215 44.2219C205.228 37.5839 206.411 32.9534 207.396 29.8853Z" fill="#363636"/>
<path d="M284.465 45.1625C283.261 38.8272 278.403 34.0959 275.025 28.8576C271.262 23.0242 267.71 16.6597 261.709 12.8287C259.04 11.1251 255.719 9.70897 252.219 8.88174C247.176 7.68882 241.763 7.71912 237.39 9.86538L230.243 10.3395C215.969 6.59679 199.834 14.5287 193.588 27.6534C190.726 33.6685 189.277 40.2459 187.985 46.7805C187.51 49.1878 187.069 51.7691 188.03 54.0263C188.437 54.9822 189.128 55.8648 190.089 56.262C192.703 57.3427 195.206 54.5092 197.951 53.832C199.388 57.9581 204.97 57.5862 207.855 55.4702C212.144 52.324 214.384 46.2823 216.764 41.7401C219.572 36.3858 226.715 25.5159 233.984 31.2321C235.298 29.5398 238.227 30.2043 239.474 31.9471C240.721 33.6898 240.771 35.9899 240.773 38.1324C240.776 41.0618 240.779 43.9923 240.782 46.9217C240.784 49.4399 241.385 52.7047 243.871 53.0956C244.883 53.2545 245.912 52.8145 246.709 52.1714C249.045 50.2874 249.615 46.9697 249.601 43.9685C249.589 40.966 249.175 37.865 250.177 35.0353C252.854 38.3139 252.997 42.889 253.56 47.0844C254.122 51.2798 255.707 55.9797 259.648 57.5257C263.305 58.9607 267.954 56.4525 268.765 52.6077C272.251 55.1991 277.083 57.0691 280.836 54.8825C284.02 53.025 285.152 48.7867 284.465 45.1625Z" fill="white"/>
<path d="M261.857 58.6656C260.989 58.6656 260.157 58.5117 259.379 58.2066C254.958 56.4727 253.379 51.2534 252.833 47.1816C252.75 46.5599 252.675 45.9306 252.601 45.2976C252.249 42.3064 251.886 39.2283 250.472 36.758C250.164 38.4049 250.223 40.1387 250.283 41.9508C250.306 42.6115 250.328 43.2938 250.331 43.9647C250.348 48.0794 249.283 51.0327 247.166 52.7401C246.103 53.5976 244.863 53.991 243.756 53.817C241.404 53.4475 240.052 50.9356 240.049 46.9217L240.04 38.1325C240.037 35.8664 239.948 33.869 238.877 32.3721C238.282 31.5399 237.183 30.9812 236.143 30.9812C235.669 30.9812 235.008 31.1024 234.561 31.6799C234.441 31.8337 234.266 31.9333 234.071 31.9573C233.879 31.98 233.683 31.927 233.53 31.806C232.298 30.8375 231.01 30.3456 229.699 30.3456C224.005 30.3456 218.853 39.3254 217.411 42.0782C216.938 42.9824 216.474 43.9356 215.983 44.9457C214.05 48.9255 211.859 53.4375 208.286 56.0592C206.846 57.1159 204.857 57.7463 202.967 57.7463C200.427 57.7463 198.484 56.6543 197.532 54.7237C196.811 54.9872 196.082 55.3895 195.372 55.7817C194.075 56.4967 192.736 57.2357 191.313 57.2357C190.793 57.2357 190.288 57.1347 189.808 56.938C188.763 56.5067 187.892 55.5737 187.356 54.3127C186.343 51.9356 186.735 49.3265 187.266 46.638C188.532 40.2283 190.013 33.4592 192.925 27.3382C198.154 16.3522 210.497 8.67876 222.939 8.67876C225.456 8.67876 227.935 8.98907 230.311 9.60067L237.198 9.1441C239.667 7.96 242.538 7.35986 245.734 7.35986C247.878 7.35986 250.117 7.6322 252.386 8.1694C255.852 8.98906 259.302 10.4253 262.101 12.2121C267.526 15.6762 270.971 21.1112 274.304 26.3684C274.749 27.0696 275.192 27.7695 275.638 28.4618C276.56 29.8918 277.622 31.3192 278.647 32.7C281.416 36.4263 284.28 40.28 285.182 45.0265C285.855 48.5675 284.897 53.3618 281.202 55.5157C279.992 56.2206 278.618 56.5787 277.121 56.5787C273.962 56.5787 271.018 55.0289 269.169 53.7905C268.066 56.5938 265.052 58.6656 261.857 58.6656ZM250.176 34.3028C250.394 34.3028 250.602 34.3999 250.742 34.5714C253.161 37.5322 253.615 41.3922 254.055 45.1261C254.128 45.7503 254.201 46.3732 254.283 46.9861C254.777 50.6695 256.154 55.3694 259.913 56.8435C260.52 57.0818 261.173 57.2015 261.857 57.2015C264.767 57.2015 267.487 55.1171 268.047 52.4564C268.099 52.2118 268.27 52.0113 268.504 51.923C268.737 51.8347 268.999 51.8713 269.2 52.0201C271.844 53.9861 274.73 55.1134 277.12 55.1134C278.355 55.1134 279.481 54.8233 280.464 54.2496C283.545 52.4526 284.324 48.3493 283.744 45.2976C282.904 40.8815 280.144 37.1653 277.473 33.5714C276.433 32.1717 275.357 30.724 274.409 29.2536C273.961 28.5588 273.515 27.8564 273.068 27.1515C269.821 22.0292 266.464 16.733 261.313 13.4442C258.648 11.7431 255.359 10.3748 252.05 9.59174C249.89 9.08103 247.765 8.82254 245.734 8.82254C242.707 8.82254 240.007 9.39383 237.711 10.5212C237.625 10.5628 237.532 10.588 237.437 10.5943L230.291 11.0684C230.21 11.0722 230.133 11.066 230.056 11.0458C227.766 10.4455 225.373 10.1416 222.939 10.1416C211.04 10.1416 199.242 17.4719 194.246 27.9661C191.406 33.9345 189.948 40.6028 188.7 46.9217C188.214 49.3757 187.85 51.7439 188.7 53.7388C188.923 54.2634 189.437 55.2016 190.366 55.5849C190.671 55.711 190.981 55.7729 191.311 55.7729C192.358 55.7729 193.479 55.1549 194.665 54.5005C195.653 53.9557 196.676 53.3908 197.774 53.1209C198.141 53.0289 198.516 53.2345 198.64 53.5901C199.456 55.9331 201.701 56.2836 202.967 56.2836C204.533 56.2836 206.241 55.7452 207.421 54.8788C210.701 52.4728 212.808 48.1336 214.667 44.3064C215.162 43.2862 215.63 42.3228 216.115 41.3985C218.087 37.6356 223.36 28.8829 229.698 28.8829C231.152 28.8829 232.564 29.3483 233.906 30.2676C234.505 29.7795 235.277 29.5184 236.142 29.5184C237.655 29.5184 239.196 30.304 240.066 31.5209C241.498 33.5209 241.5 36.1855 241.501 38.1312L241.51 46.9205C241.511 48.4438 241.756 52.0226 243.98 52.3719C244.683 52.4803 245.504 52.1992 246.245 51.6015C247.999 50.1866 248.882 47.6191 248.866 43.971C248.863 43.3203 248.84 42.6495 248.819 41.9988C248.738 39.6029 248.655 37.1262 249.484 34.7895C249.572 34.5398 249.787 34.3582 250.049 34.3128C250.091 34.3065 250.134 34.3028 250.176 34.3028Z" fill="#363636"/>
<path d="M271.947 79.4687C271.56 79.4687 271.235 79.1635 271.217 78.7726C270.978 73.8773 272.117 70.3628 274.599 68.3262C278.027 65.5129 282.679 66.6352 282.877 66.6832C283.269 66.7815 283.508 67.1787 283.409 67.5709C283.311 67.9618 282.914 68.2027 282.523 68.103C282.457 68.0879 278.362 67.1219 275.519 69.4636C273.421 71.1925 272.465 74.301 272.678 78.7019C272.697 79.1055 272.387 79.4485 271.982 79.4687C271.971 79.4687 271.959 79.4687 271.947 79.4687Z" fill="#333333"/>
<path d="M278.754 75.0298C278.633 75.0298 278.509 74.9996 278.396 74.9353L272.969 71.8773C272.618 71.6793 272.494 71.2329 272.692 70.881C272.89 70.5292 273.335 70.4044 273.688 70.6036L279.114 73.6617C279.466 73.8597 279.59 74.306 279.392 74.6578C279.257 74.8948 279.008 75.0298 278.754 75.0298Z" fill="#333333"/>
<path d="M196.82 80.2076C196.807 80.2076 196.796 80.2076 196.783 80.2076C196.38 80.1874 196.068 79.8446 196.087 79.441C196.301 75.0401 195.346 71.9316 193.246 70.2027C190.395 67.8547 186.282 68.832 186.241 68.8421C185.85 68.9367 185.453 68.6997 185.356 68.3087C185.259 67.9166 185.496 67.5206 185.888 67.4235C186.084 67.3743 190.738 66.2532 194.167 69.0666C196.65 71.1031 197.787 74.6189 197.548 79.5129C197.53 79.9026 197.207 80.2076 196.82 80.2076Z" fill="#333333"/>
<path d="M190.014 75.7688C189.759 75.7688 189.511 75.6352 189.376 75.3969C189.178 75.0451 189.301 74.5986 189.653 74.4006L195.078 71.3428C195.43 71.1448 195.876 71.2683 196.075 71.6202C196.273 71.972 196.15 72.4183 195.798 72.6163L190.372 75.6743C190.258 75.7386 190.135 75.7688 190.014 75.7688Z" fill="#333333"/>
<path d="M253.334 16.6335C252.02 16.6511 250.657 16.6801 249.478 17.2602C248.724 17.6309 248.092 18.2072 247.512 18.815C245.795 20.6158 244.391 23.2009 245.294 25.5199C246.154 27.7267 249.213 28.7166 251.202 27.4304C251.511 27.2311 251.791 26.989 252.106 26.7998C253.811 25.7772 255.974 26.4958 257.875 27.0746C259.777 27.6534 262.183 27.9258 263.439 26.3848C264.082 25.5954 264.233 24.4871 264.034 23.4897C263.835 22.4909 263.32 21.5842 262.748 20.7418C261.895 19.4909 260.864 18.3157 259.531 17.6007C257.668 16.6019 255.449 16.6057 253.334 16.6335Z" fill="white"/>
<path d="M218.213 28.6445C218.88 27.6243 219.116 26.2637 218.579 25.1691C218.006 24.0027 216.74 23.3874 215.652 22.6787C214.653 22.028 213.747 21.2386 212.965 20.3383C212.106 19.3484 211.213 18.1252 209.904 18.0659C209.377 18.042 208.863 18.2235 208.383 18.4467C207.227 18.9865 206.196 19.7909 205.39 20.7808C204.767 21.5463 204.265 22.5803 204.637 23.4945C204.978 24.3293 205.926 24.7417 206.815 24.8867C207.704 25.0317 208.634 24.9965 209.477 25.3168C210.518 25.714 211.282 26.5954 212.173 27.2676C213.871 28.55 216.127 29.0632 218.213 28.6445Z" fill="white"/>
<path d="M262.248 73.9921C259.721 71.6744 253.699 73.3402 251.255 74.3931C246.81 76.3086 249.048 79.8911 252.956 80.4573C256.073 80.9087 259.979 80.8874 262.28 78.3843C263.07 77.5243 263.514 76.2405 263.063 75.1635C262.867 74.6919 262.589 74.3061 262.248 73.9921Z" fill="#EFB6B3"/>
<path d="M208.043 73.9921C210.57 71.6744 216.593 73.3402 219.036 74.3931C223.481 76.3086 221.242 79.8911 217.333 80.4573C214.216 80.9087 210.311 80.8874 208.009 78.3843C207.22 77.5243 206.777 76.2405 207.226 75.1635C207.424 74.6919 207.702 74.3061 208.043 73.9921Z" fill="#EFB6B3"/>
<path d="M252.422 56.4259C252.467 55.0678 250.682 53.9065 248.436 53.8334C246.19 53.7603 244.334 54.8018 244.29 56.1599C244.246 57.5181 246.03 58.6795 248.275 58.7526C250.522 58.827 252.378 57.7841 252.422 56.4259Z" fill="#333333"/>
<path d="M226.653 56.3303C226.697 54.9722 224.912 53.8107 222.666 53.7376C220.42 53.6644 218.564 54.706 218.52 56.0641C218.476 57.4222 220.26 58.5837 222.506 58.6568C224.752 58.73 226.608 57.6884 226.653 56.3303Z" fill="#333333"/>
<path d="M237.046 76.6667C236.862 76.6667 236.679 76.5987 236.537 76.4599C236.247 76.1787 236.239 75.7146 236.522 75.4258C238.851 73.0261 236.992 70.1913 236.913 70.0728C236.687 69.7374 236.776 69.2822 237.112 69.0578C237.449 68.8308 237.902 68.9228 238.127 69.257C239.035 70.61 240.088 73.852 237.572 76.4447C237.428 76.5922 237.238 76.6667 237.046 76.6667Z" fill="#333333"/>
<path d="M252.156 75.9908C248.915 75.9908 243.434 74.2582 243.202 74.185C242.817 74.0627 242.604 73.6516 242.726 73.2657C242.848 72.8811 243.257 72.6681 243.645 72.7904C243.699 72.808 249.143 74.5281 252.156 74.5281C252.559 74.5281 252.887 74.8559 252.887 75.2595C252.887 75.663 252.559 75.9908 252.156 75.9908Z" fill="#333333"/>
<path d="M218.343 76.2481C218.256 76.2481 218.169 76.2469 218.084 76.2431C217.681 76.2267 217.367 75.8862 217.383 75.4827C217.4 75.0792 217.73 74.7677 218.144 74.7815C221.103 74.8862 226.227 72.4727 226.279 72.4475C226.644 72.2747 227.08 72.4284 227.254 72.7929C227.426 73.1573 227.272 73.5937 226.907 73.7677C226.69 73.8724 221.66 76.2481 218.343 76.2481Z" fill="#333333"/>
<path d="M221.24 68.5798C216.241 68.5798 212.964 65.6896 212.919 65.6492C212.619 65.3781 212.595 64.9152 212.866 64.6163C213.136 64.3175 213.599 64.2935 213.899 64.5634C214.129 64.7689 219.421 69.3805 226.85 65.7513C227.214 65.5722 227.651 65.7248 227.828 66.0867C228.006 66.4499 227.855 66.8874 227.493 67.0653C225.22 68.1749 223.109 68.5798 221.24 68.5798Z" fill="#333333"/>
<path d="M249.745 68.5798C247.874 68.5798 245.765 68.175 243.492 67.0653C243.129 66.8875 242.979 66.4499 243.157 66.0867C243.333 65.7236 243.77 65.5723 244.135 65.7513C251.569 69.3818 256.864 64.7614 257.086 64.5634C257.386 64.2936 257.849 64.3201 258.119 64.619C258.389 64.9191 258.366 65.3806 258.066 65.6505C258.019 65.6909 254.742 68.5798 249.745 68.5798Z" fill="#333333"/>
<path d="M226.706 91.2214C226.684 91.2214 226.663 91.2202 226.64 91.219C226.238 91.1837 225.94 90.828 225.975 90.4258L226.72 81.9656C226.755 81.5633 227.112 81.267 227.513 81.3011C227.915 81.3364 228.213 81.692 228.177 82.0943L227.433 90.5544C227.399 90.934 227.08 91.2214 226.706 91.2214Z" fill="#333333"/>
<path d="M234.923 88.4409C230.275 88.4409 227.096 86.6817 226.9 86.5695C226.548 86.3703 226.426 85.9239 226.625 85.572C226.824 85.2215 227.269 85.0966 227.621 85.2959C227.704 85.3425 234.308 88.9566 242.206 85.3602C242.573 85.1925 243.007 85.3552 243.176 85.7221C243.343 86.0903 243.181 86.5241 242.814 86.6905C239.942 88.0007 237.249 88.4409 234.923 88.4409Z" fill="#333333"/>
<path d="M249.39 104.622C249.39 104.622 235.722 109.272 222.984 104.622C222.984 104.622 234.048 113.734 249.482 112.06L249.39 104.622Z" fill="#333333"/>
<path d="M245.686 112.997C245.685 112.997 245.685 112.997 245.686 112.997C232.159 112.995 222.906 105.505 222.518 105.186C222.244 104.959 222.172 104.568 222.348 104.258C222.526 103.948 222.901 103.811 223.234 103.934C226.909 105.275 231.033 105.955 235.488 105.955C235.489 105.955 235.489 105.955 235.489 105.955C243.103 105.955 249.092 103.949 249.153 103.929C249.374 103.854 249.619 103.888 249.81 104.025C250.001 104.16 250.116 104.378 250.118 104.612L250.212 112.051C250.217 112.428 249.934 112.747 249.559 112.787C248.279 112.926 246.975 112.997 245.686 112.997ZM227.409 106.629C231.296 108.791 237.782 111.533 245.684 111.534C245.684 111.534 245.685 111.534 245.686 111.534C246.702 111.534 247.728 111.488 248.743 111.398L248.67 105.607C246.646 106.187 241.626 107.419 235.491 107.419C232.662 107.42 229.96 107.154 227.409 106.629Z" fill="#333333"/>
<path d="M215.994 50.5032C215.605 50.5032 215.282 50.1967 215.264 49.8045C215.247 49.401 215.559 49.0592 215.963 49.0416C217.576 48.9697 218.863 47.5977 219.53 46.3367C220.1 45.2585 220.424 44.0745 220.769 42.8198C220.904 42.3242 221.045 41.8096 221.201 41.3065C222.123 38.3405 223.677 35.5235 225.692 33.1603C226.934 31.7038 228.095 30.7329 229.351 30.1049C230.98 29.289 232.668 29.6925 234.103 30.1931C234.485 30.3268 234.685 30.7429 234.552 31.125C234.418 31.5058 234 31.7088 233.62 31.5739C232.415 31.1527 231.143 30.8426 230.004 31.4126C228.931 31.9498 227.914 32.8059 226.804 34.1085C224.916 36.3229 223.461 38.9609 222.597 41.7402C222.448 42.2207 222.311 42.7213 222.177 43.2055C221.828 44.4804 221.467 45.7995 220.822 47.0201C219.965 48.638 218.257 50.4034 216.026 50.5018C216.017 50.5018 216.006 50.5032 215.994 50.5032Z" fill="#333333"/>
<path d="M197.949 54.5637C197.613 54.5637 197.31 54.3303 197.235 53.9886C195.665 46.8399 203.427 35.5008 203.758 35.0216C203.988 34.6887 204.443 34.6055 204.776 34.835C205.109 35.0645 205.192 35.521 204.961 35.8527C204.883 35.9649 197.229 47.1463 198.662 53.6746C198.749 54.0693 198.5 54.459 198.105 54.546C198.053 54.5573 198.002 54.5637 197.949 54.5637Z" fill="#333333"/>
<path d="M268.761 53.339C268.392 53.339 268.074 53.0604 268.035 52.6846C267.433 46.9836 262.451 34.314 262.4 34.1866C262.253 33.8109 262.437 33.386 262.813 33.2372C263.19 33.0896 263.614 33.2736 263.762 33.6494C263.971 34.1765 268.868 46.6342 269.491 52.5307C269.533 52.933 269.243 53.2924 268.841 53.3353C268.813 53.3378 268.787 53.339 268.761 53.339Z" fill="#333333"/>
<path d="M233.982 31.9636C233.579 31.9636 233.253 31.6395 233.25 31.2359L233.158 15.53C233.156 15.1265 233.481 14.7961 233.886 14.7948H233.89C234.292 14.7948 234.618 15.1188 234.621 15.5223L234.713 31.2284C234.715 31.6319 234.39 31.9623 233.985 31.9636C233.985 31.9636 233.984 31.9636 233.982 31.9636Z" fill="#333333"/>
<path d="M167.446 234.809C167.055 234.809 166.731 234.5 166.716 234.105L164.981 188.981C164.965 188.577 165.28 188.237 165.683 188.221C165.693 188.22 165.702 188.22 165.712 188.22C166.103 188.22 166.427 188.529 166.443 188.924L168.178 234.048C168.193 234.452 167.879 234.792 167.475 234.807C167.465 234.809 167.455 234.809 167.446 234.809Z" fill="#333333"/>
<path d="M295.685 230.941C295.676 230.941 295.667 230.941 295.658 230.941C295.255 230.927 294.939 230.588 294.954 230.184L296.632 182.976C296.647 182.572 296.971 182.261 297.39 182.271C297.793 182.284 298.11 182.624 298.095 183.027L296.416 230.236C296.402 230.631 296.077 230.941 295.685 230.941Z" fill="#333333"/>
<path d="M165.712 201.213C165.475 201.213 165.245 201.098 165.103 200.887L159.897 193.078C159.672 192.742 159.763 192.287 160.1 192.064C160.436 191.839 160.889 191.93 161.113 192.267L166.32 200.076C166.545 200.413 166.454 200.867 166.117 201.092C165.992 201.174 165.851 201.213 165.712 201.213Z" fill="#333333"/>
<path d="M297.74 192.287C297.538 192.287 297.338 192.204 297.193 192.041C296.924 191.739 296.952 191.277 297.253 191.009L300.6 188.034C300.901 187.766 301.364 187.793 301.633 188.094C301.901 188.397 301.873 188.858 301.572 189.127L298.225 192.102C298.087 192.227 297.914 192.287 297.74 192.287Z" fill="#333333"/>
<path d="M203.651 233.252C203.269 233.252 202.886 233.246 202.502 233.232C202.099 233.217 201.782 232.879 201.797 232.476C201.811 232.072 202.144 231.756 202.554 231.771C207.09 231.935 211.684 231.039 216.125 230.173C217.415 229.922 218.751 229.661 220.067 229.43C234.571 226.886 249.788 227.435 264.07 231.02C264.463 231.119 264.7 231.516 264.601 231.908C264.503 232.3 264.104 232.537 263.714 232.439C249.629 228.904 234.623 228.362 220.32 230.87C219.017 231.099 217.689 231.357 216.404 231.608C212.253 232.419 207.968 233.252 203.651 233.252Z" fill="#333333"/>
<path d="M223.713 143.25C223.634 143.25 223.552 143.236 223.472 143.208L216.655 140.824C213.597 139.754 210.437 138.648 207.592 136.899C205.326 135.507 202.324 133.083 200.884 129.439C200.735 129.063 200.919 128.638 201.295 128.49C201.67 128.342 202.096 128.525 202.244 128.901C203.537 132.17 206.282 134.377 208.358 135.652C211.069 137.318 214.154 138.397 217.138 139.441L223.955 141.826C224.336 141.96 224.538 142.377 224.404 142.758C224.3 143.061 224.016 143.25 223.713 143.25Z" fill="#333333"/>
</svg>
