<svg xmlns="http://www.w3.org/2000/svg" width="122" height="130" viewBox="0 0 122 130" fill="none">
  <path d="M54.7542 112.166C56.9688 110.898 59.1186 109.315 61.0297 107.383C62.9901 109.362 65.1967 110.976 67.4683 112.258L65.4822 127.666C65.3318 128.829 64.3436 129.699 63.1717 129.699H59.3984C58.2444 129.699 57.2643 128.856 57.0931 127.715L54.7542 112.166ZM63.6124 65.2719C63.6539 65.2481 63.693 65.2216 63.7291 65.1923C64.4476 64.7198 65.3601 64.4279 66.3896 64.293C69.3538 63.9046 73.2538 64.8285 76.993 66.988C79.4073 68.3819 81.4093 70.0915 82.833 71.8714C82.8642 71.9178 82.8979 71.9617 82.9368 72.0027C83.6677 72.9378 84.2386 73.8903 84.6274 74.8257C85.2966 76.4411 85.4157 77.9867 84.7055 79.2155C83.9974 80.4441 82.5998 81.1153 80.8648 81.3423C79.5448 81.5151 78.0384 81.4277 76.4434 81.0865C76.4123 81.0766 76.3785 81.0683 76.3448 81.0611C76.3189 81.0556 76.2959 81.0517 76.2697 81.0486C74.3352 80.614 72.2762 79.8097 70.2639 78.6473C66.5247 76.488 63.7758 73.5714 62.6296 70.8097C62.2846 69.9823 62.0875 69.1727 62.0696 68.4153C62.0722 68.3461 62.0722 68.2776 62.0696 68.2088C62.0851 67.5648 62.2379 66.9613 62.5494 66.4195C62.8138 65.9619 63.1743 65.581 63.6124 65.2719ZM59.9896 68.2091C59.9896 68.2532 59.987 68.2978 59.9896 68.3419C59.987 68.366 59.987 68.3899 59.987 68.414C59.987 68.4338 59.987 68.4535 59.987 68.4732C59.9636 69.2137 59.7665 70.003 59.4319 70.8099C58.2857 73.5719 55.5344 76.4883 51.7975 78.6475C49.7827 79.8097 47.7239 80.6143 45.7892 81.0489C45.7659 81.052 45.7402 81.0559 45.7169 81.0613C45.6829 81.0684 45.6494 81.0769 45.6155 81.0868C44.0208 81.428 42.5141 81.5154 41.1941 81.3426C39.4593 81.1156 38.0643 80.4443 37.3536 79.2158C36.6458 77.987 36.7625 76.4413 37.4315 74.8259C37.8128 73.91 38.3676 72.977 39.0783 72.0606C39.117 72.0196 39.1507 71.9757 39.1818 71.9295C40.6081 70.1291 42.6253 68.3974 45.0659 66.9883C48.8051 64.829 52.7054 63.9048 55.6693 64.2932C56.6755 64.425 57.5701 64.7066 58.2805 65.1599C58.3195 65.1892 58.3584 65.2156 58.3999 65.2392C58.859 65.5542 59.2348 65.9458 59.5094 66.4203C59.8212 66.9618 59.9743 67.5651 59.9896 68.2091ZM69.2007 110.84C69.1281 110.79 69.0503 110.748 68.9673 110.716C66.4106 109.328 63.921 107.497 61.8024 105.166C61.6027 104.949 61.3225 104.825 61.0297 104.825C60.7366 104.825 60.4565 104.949 60.2593 105.166C58.177 107.453 55.7422 109.26 53.2371 110.638C53.1541 110.67 53.0766 110.712 53.0063 110.762C47.82 113.554 42.3639 114.522 39.133 114.118C38.4433 114.031 37.8701 113.886 37.4499 113.662C37.2528 113.555 37.0818 113.461 37.0455 113.295C36.9986 113.1 37.1282 112.895 37.3101 112.637C37.3334 112.603 37.3591 112.569 37.3853 112.534C37.3957 112.521 37.4058 112.507 37.4165 112.494C37.769 112.042 38.324 111.55 39.0889 111.01C42.2033 108.812 44.4228 105.158 45.8077 100.936C47.711 95.1315 48.0456 88.2594 47.1303 82.8579C48.9973 82.3524 50.9398 81.553 52.8405 80.4545C56.712 78.2179 59.5982 75.2159 61.0297 72.3294C62.4636 75.2159 65.3474 78.2179 69.2215 80.4545C71.1222 81.5528 73.0644 82.3522 74.9289 82.8579C74.0135 88.2594 74.3482 95.1315 76.2541 100.936C77.6387 105.158 79.8585 108.812 82.9705 111.01C83.7302 111.545 84.2799 112.033 84.6352 112.482C84.6456 112.497 84.6559 112.51 84.6689 112.524C84.6974 112.562 84.7262 112.6 84.7519 112.637C84.9332 112.895 85.0603 113.1 85.0165 113.295C84.9776 113.461 84.8064 113.555 84.6095 113.662C84.1919 113.886 83.6163 114.031 82.9266 114.118C79.7264 114.518 74.3429 113.572 69.2007 110.84ZM64.1285 12.9057C64.1285 5.78292 69.9083 0.000253382 77.0294 0.000253382C84.1502 0.000253382 89.9328 5.78292 89.9328 12.9057C89.9328 13.8037 89.8397 14.6807 89.6659 15.5273C87.5574 14.3966 85.1511 13.7549 82.5941 13.7549C75.9065 13.7549 70.2377 18.1458 68.3111 24.2002C68.1347 24.7487 68.4381 25.3361 68.9877 25.511C69.5348 25.6856 70.1236 25.3818 70.2974 24.8333C71.9569 19.6214 76.8374 15.8418 82.5941 15.8418C85.2367 15.8418 87.6949 16.6384 89.7411 18.0044C90.8329 18.7317 91.8053 19.6206 92.6273 20.6364V20.6377C94.4217 22.8543 95.4955 25.6765 95.4955 28.7478C95.4955 34.5774 91.6237 39.5095 86.3129 41.1086C85.7633 41.2744 85.4497 41.8569 85.6157 42.4083C85.7817 42.9596 86.3653 43.2725 86.9149 43.1065C93.084 41.2493 97.5832 35.5198 97.5832 28.7478C97.5832 25.7585 96.7065 22.9726 95.1974 20.6331C95.9312 20.5028 96.6858 20.4351 97.4587 20.4351C104.58 20.4351 110.36 26.218 110.36 33.3408C110.36 35.7725 109.685 38.0488 108.516 39.9911C108.464 40.0752 108.425 40.1657 108.402 40.2604C108.28 40.7091 108.472 41.1841 108.869 41.4234C108.955 41.4739 109.045 41.5126 109.138 41.5378C116.254 43.4402 121.5 49.9374 121.5 57.6505C121.5 62.6111 119.33 67.0687 115.889 70.1247C115.518 70.4529 115.429 70.9983 115.676 71.4267C117.092 73.8758 117.898 76.7177 117.898 79.7464C117.898 88.9506 110.43 96.4226 101.229 96.4226C100.643 96.4226 100.062 96.3925 99.4917 96.3334C99.5358 95.8173 99.5566 95.295 99.5566 94.7678C99.5566 91.0328 98.4649 87.5516 96.5797 84.6266C96.9997 83.0704 97.2227 81.4342 97.2227 79.7461C97.2227 76.7867 96.5356 73.986 95.3142 71.4952C95.0602 70.9783 94.4349 70.7645 93.9164 71.018C93.4005 71.272 93.1875 71.8976 93.4417 72.4145C94.5259 74.6277 95.1378 77.1165 95.1378 79.7461C95.1378 81.3992 94.8963 82.9962 94.4481 84.5044L94.4453 84.5057C93.504 87.674 91.6447 90.4485 89.1762 92.5218C88.7352 92.8921 88.6781 93.5509 89.0491 93.9914C89.4174 94.4325 90.076 94.4899 90.5169 94.1196C92.7263 92.2634 94.5023 89.9075 95.6693 87.2259C96.8207 89.4916 97.4715 92.0543 97.4715 94.7678C97.4715 95.5547 97.4172 96.3295 97.3109 97.0879C96.4163 103.512 91.8548 108.769 85.8154 110.675C85.3955 110.243 84.8507 109.784 84.174 109.305C81.3966 107.345 79.4699 104.051 78.2355 100.285C76.4489 94.8339 76.1223 88.386 76.97 83.2995C78.4663 83.54 79.8771 83.5761 81.1372 83.4113C83.5979 83.0888 85.5067 82.0032 86.5129 80.2588C87.519 78.5144 87.506 76.3191 86.5544 74.0262C86.1474 73.0424 85.5612 72.0362 84.8196 71.0435C85.1205 69.7622 85.6053 68.5152 86.2872 67.3339C86.8991 66.2761 87.6331 65.328 88.468 64.4949L88.4706 64.493C88.6756 64.287 88.888 64.0883 89.1085 63.8963C91.445 61.8442 94.4427 60.6008 97.6686 60.2381C98.2418 60.1737 98.6542 59.6572 98.5894 59.0848C98.5245 58.5127 98.0086 58.1004 97.4354 58.1645C94.0305 58.5477 90.8538 59.8082 88.2919 61.8584C88.1519 61.4394 87.9962 61.0258 87.8224 60.619C87.1561 59.0625 86.2405 57.6032 85.0686 56.2948C83.2065 54.2149 80.8962 52.7378 78.3499 51.8642C77.8052 51.6771 77.2112 51.968 77.0247 52.5123C76.8379 53.0569 77.1284 53.6511 77.6731 53.8376C79.8849 54.5976 81.8972 55.8791 83.5152 57.687C84.5319 58.8225 85.3277 60.0884 85.9036 61.4389C86.1808 62.0883 86.4094 62.7575 86.5858 63.4409C85.7921 64.2958 85.0842 65.2468 84.4801 66.2906C83.9483 67.2122 83.5206 68.1683 83.1912 69.1478C81.7807 67.7021 80.0405 66.3391 78.036 65.1811C73.8403 62.7575 69.4474 61.7886 66.1206 62.2243C65.4073 62.3174 64.7412 62.4747 64.129 62.6937V12.9057H64.1285ZM12.859 41.5375C12.955 41.5121 13.0457 41.4737 13.1287 41.4231C13.5279 41.1836 13.7176 40.7085 13.598 40.2602C13.572 40.1655 13.536 40.0749 13.4841 39.9909C12.312 38.0485 11.6405 35.7722 11.6405 33.3405C11.6405 26.2178 17.4205 20.4348 24.5413 20.4348C25.3116 20.4348 26.0687 20.5025 26.8028 20.6328C25.2937 22.9724 24.417 25.7582 24.417 28.7475C24.417 35.5195 28.9163 41.249 35.0854 43.1062C35.635 43.2723 36.2186 42.9594 36.3846 42.408C36.548 41.8567 36.2371 41.2742 35.6846 41.1084C30.3763 39.5093 26.5045 34.5771 26.5045 28.7475C26.5045 25.6763 27.5781 22.8541 29.3727 20.6375V20.6362C30.1947 19.6204 31.1672 18.7317 32.2589 18.0042C34.3052 16.6381 36.7633 15.8415 39.4059 15.8415C45.1626 15.8415 50.0431 19.6211 51.7026 24.833C51.8764 25.3815 52.465 25.6853 53.0123 25.5107C53.5619 25.3358 53.8653 24.7484 53.6889 24.1999C51.762 18.1456 46.0935 13.7547 39.4059 13.7547C36.8492 13.7547 34.4424 14.3963 32.3341 15.5271C32.1604 14.6804 32.0672 13.8035 32.0672 12.9055C32.0672 5.78266 37.8498 0 44.9706 0C52.0888 0 57.8715 5.78266 57.8715 12.9055V62.6721C57.2752 62.4643 56.6296 62.3143 55.9422 62.224C52.6151 61.7881 48.2199 62.7572 44.0239 65.1809C41.9987 66.3513 40.2432 67.7311 38.822 69.1943C38.4926 68.1984 38.0597 67.2265 37.5178 66.2906C36.9163 65.2468 36.2083 64.2956 35.4148 63.4409C35.5912 62.7575 35.8194 62.0883 36.0969 61.4389C36.6725 60.0884 37.466 58.8225 38.4851 57.687C40.1034 55.8791 42.113 54.5976 44.3274 53.8376C44.8721 53.6508 45.1626 53.0567 44.9758 52.5123C44.7888 51.9677 44.1951 51.6771 43.6507 51.8642C41.1043 52.7378 38.7937 54.2152 36.9319 56.2948C35.7598 57.6032 34.8418 59.0625 34.1781 60.619C34.0043 61.0258 33.8486 61.4394 33.7086 61.8584C31.1464 59.8082 27.9698 58.5474 24.5651 58.1645C23.9919 58.1004 23.476 58.5127 23.4111 59.0848C23.3463 59.6572 23.7587 60.1737 24.3317 60.2381C27.5579 60.6006 30.5553 61.8439 32.8918 63.8963C33.1097 64.088 33.3224 64.287 33.5299 64.493L33.5325 64.4949C34.3674 65.3283 35.1014 66.2761 35.7133 67.3339C36.4056 68.5344 36.8958 69.8027 37.1939 71.1055C36.4754 72.0779 35.905 73.0629 35.5056 74.0262C34.5541 76.3194 34.541 78.5147 35.5471 80.2588C36.5561 82.0034 38.4617 83.0888 40.923 83.4113C42.1831 83.5763 43.5939 83.54 45.09 83.2995C45.9382 88.386 45.6139 94.8339 43.8244 100.285C42.59 104.051 40.6633 107.345 37.8859 109.305C37.2014 109.789 36.6544 110.254 36.2316 110.69C30.1662 108.796 25.5866 103.528 24.6894 97.0879C24.583 96.3292 24.5286 95.5547 24.5286 94.7678C24.5286 92.0543 25.177 89.4913 26.3282 87.2259C27.498 89.9075 29.2716 92.2634 31.4808 94.1196C31.9241 94.4899 32.58 94.4325 32.9512 93.9914C33.3221 93.5509 33.265 92.8921 32.8241 92.5218C30.3553 90.4487 28.4961 87.674 27.5522 84.5057V84.5044C27.1037 82.9962 26.8624 81.3992 26.8624 79.7461C26.8624 77.1165 27.472 74.6277 28.5583 72.4145C28.8125 71.8976 28.5998 71.2723 28.0813 71.018C27.5654 70.7643 26.9403 70.9783 26.6861 71.4952C25.4647 73.986 24.7776 76.7864 24.7776 79.7461C24.7776 81.4342 25.0004 83.0704 25.4206 84.6266C23.5352 87.5516 22.4434 91.0328 22.4434 94.7678C22.4434 95.295 22.4642 95.8173 22.5083 96.3334C21.9353 96.3923 21.3571 96.4226 20.7709 96.4226C11.5704 96.4226 4.09974 88.9503 4.09974 79.7464C4.09974 76.7174 4.90872 73.8758 6.32183 71.4267C6.57083 70.9986 6.48263 70.4529 6.11171 70.1247C2.6705 67.0687 0.5 62.6111 0.5 57.6505C0.5 49.9371 5.74629 43.4399 12.859 41.5375Z" fill="#057988"/>
</svg>