<svg xmlns="http://www.w3.org/2000/svg" width="121" height="130" viewBox="0 0 121 130" fill="none">
  <path d="M86.1288 40.1155C86.6118 39.4766 87.0586 38.8153 87.4689 38.1401C91.8848 45.374 93.8589 53.8872 93.5474 62.344C92.8695 80.7641 84.4976 89.3253 77.8325 95.8998C75.7051 97.9988 73.7544 99.8834 72.3279 101.841C71.006 103.656 70.1434 105.528 70.0917 107.731C70.0891 107.76 70.0891 107.788 70.0863 107.817C70.0863 107.817 69.7357 111.829 73.8321 119.084C74.102 119.562 73.9695 120.164 73.5254 120.485C68.2212 124.318 59.0519 127.915 50.1578 129.08C44.1394 129.869 38.248 129.536 33.7284 127.491C33.1987 127.251 32.9545 126.635 33.1779 126.099C33.1779 126.099 34.1699 123.701 34.2348 121.023C34.2946 118.573 33.5465 115.84 30.1489 114.817C24.1174 113 21.8186 115.14 18.2209 116.013C15.9454 116.565 12.6311 116.381 10.7661 114.378C9.52187 113.041 8.82059 110.871 9.63616 107.456C10.1348 105.368 10.1738 104.212 9.80248 103.473C9.46472 102.803 8.79463 102.575 8.11416 102.207C7.29339 101.763 5.94491 100.255 6.22318 98.3529C6.3349 97.5955 6.70102 96.7426 7.53997 95.8853C6.88783 95.5628 6.17613 95.1341 5.62038 94.6006C5.05397 94.0538 4.6409 93.4031 4.49306 92.6738C4.34236 91.9229 4.45407 91.0702 5.05399 90.1311C5.06698 90.109 5.08255 90.0878 5.09814 90.0671C5.09814 90.0671 5.41749 89.6293 5.64093 89.0284C5.80488 88.5873 5.94754 88.0385 5.72409 87.5399C5.59964 87.2646 5.35797 87.0242 4.98124 86.8154C4.55799 86.8095 3.76815 86.7626 2.99415 86.5266C2.08504 86.2479 1.23075 85.7069 0.796851 84.828C0.373346 83.9655 0.290464 82.6808 1.31103 80.826C3.91105 76.1006 6.38918 73.4139 7.87223 71.2496C8.50099 70.3314 8.94244 69.5391 9.04897 68.6807C8.44878 68.5263 7.62801 68.2627 6.78646 67.8319C5.05658 66.9456 3.27711 65.3718 2.9474 62.7162C2.8879 62.223 3.17083 61.7519 3.63824 61.5763C4.10332 61.4004 4.63047 61.5649 4.91108 61.9749C4.91108 61.9749 6.28529 63.9908 8.61249 64.0454C8.06687 62.6416 7.20193 60.34 6.615 58.3977C6.1785 56.9599 5.91347 55.6941 5.94985 55.0289C6.85636 38.4314 16.8048 28.8832 28.3457 23.8483C39.7749 18.86 52.7677 18.3461 59.9034 19.7466C66.5685 21.0551 72.1973 23.5077 76.8291 26.7718C77.2029 27.4374 77.6706 28.0544 78.2211 28.6037C78.8603 29.2422 79.5954 29.7672 80.3876 30.1664C80.3746 30.8792 80.3408 31.6547 80.2706 32.4669C80.1462 33.9412 79.9071 35.5362 79.4836 37.0952C79.2916 37.7979 79.063 38.4928 78.7876 39.1665C78.7512 39.2567 78.7148 39.3468 78.6758 39.4361C77.7197 38.2835 76.6966 37.1903 75.6079 36.1625C73.8988 34.5457 72.031 33.0911 70.0337 31.8238C68.7375 31.0009 67.3841 30.2565 65.9839 29.5986C68.4075 34.1119 68.9451 40.6639 66.5968 50.1841C66.4568 50.7555 65.8748 51.1054 65.3032 50.965C64.7293 50.8244 64.3786 50.2465 64.5186 49.6752C67.1864 38.8562 66.0564 32.1942 62.342 28.1217C58.591 26.8308 54.5649 26.1299 50.3777 26.1299C47.6841 26.1299 45.0449 26.4104 42.4914 26.9427C42.7691 28.6657 42.494 31.1527 40.6264 34.6089C38.7536 38.0787 38.2677 40.4605 38.7378 42.262C39.1846 43.9834 40.5092 45.0919 42.0445 46.1119C42.5329 46.4383 42.6678 47.1008 42.3407 47.5906C42.0135 48.0802 41.3487 48.2128 40.8576 47.8864C38.8627 46.5616 37.2472 45.0329 36.6649 42.7974C36.1066 40.6424 36.5015 37.7492 38.743 33.5983C40.2522 30.8079 40.5848 28.8216 40.4053 27.4395C29.6334 30.3197 20.6665 37.7192 16.308 47.335C16.9628 49.8469 18.6119 52.4733 22.3629 53.9514C22.9137 54.1677 23.1811 54.7878 22.9654 55.3351C22.7472 55.8824 22.1265 56.1507 21.5757 55.9347C18.217 54.6109 16.2558 52.5212 15.1391 50.2911C14.1596 53.176 13.5857 56.2243 13.482 59.3811C13.482 59.3832 13.482 59.385 13.482 59.3868C13.3729 62.2598 15.017 64.9126 17.6433 66.0994C17.6459 66.0999 17.6459 66.1004 17.6485 66.1012C21.763 67.9806 26.2828 69.1236 31.044 69.3606C33.361 64.011 37.9796 60.0178 43.1799 57.4792C43.1799 57.4056 43.1773 57.3318 43.1773 57.2575C43.1773 52.2233 47.2785 48.1366 52.3283 48.1366C57.3782 48.1366 61.4769 52.2233 61.4769 57.2575C61.4769 62.2919 57.3782 66.3786 52.3283 66.3786C48.1281 66.3786 44.5824 63.5502 43.5098 59.7013C38.8082 62.129 34.6757 65.8489 32.7481 70.8393C32.6549 71.0823 32.5481 71.3185 32.4288 71.5539C31.8107 72.8303 31.8627 74.3292 32.5691 75.5595C33.2808 76.7937 34.5562 77.5969 35.9798 77.7049C35.9824 77.7052 35.985 77.7052 35.9873 77.7055C36.9954 77.7889 38.0162 77.8308 39.0472 77.8308C41.8576 77.8308 44.5957 77.5156 47.2245 76.9178L47.2271 76.9173C50.0817 76.268 52.809 75.2863 55.3703 74.0156V74.0145C58.0953 72.6612 60.6277 70.9802 62.9162 69.0236C63.2511 68.7359 63.7321 68.6846 64.1216 68.8954C68.605 71.3208 73.6546 72.8407 79.016 73.2098H79.0185C79.8627 73.2681 80.7147 73.2976 81.5747 73.2976C82.0629 73.2976 82.5485 73.288 83.0317 73.2707C84.5667 73.2144 85.8682 72.1289 86.1982 70.6318V70.629C86.2657 70.3288 86.3281 70.0276 86.3878 69.7245C86.8318 67.452 87.0634 65.104 87.0634 62.7027C87.0634 55.9611 85.2292 49.6428 82.0317 44.2173C82.6162 43.7868 83.1697 43.3226 83.6943 42.831C84.5886 41.9944 85.3989 41.0806 86.1288 40.1155ZM77.9933 75.2656C72.8969 74.7999 68.0862 73.3507 63.7485 71.1102C61.6315 72.8539 59.3251 74.3784 56.8677 75.6484C56.8573 75.8297 56.8521 76.0123 56.8521 76.1959C56.8521 82.0229 61.5979 86.7538 67.4423 86.7538C73.2893 86.7538 78.0326 82.0229 78.0326 76.1959C78.0323 75.8825 78.0193 75.5725 77.9933 75.2656ZM54.7221 76.6738C53.0855 77.3947 51.392 78.0064 49.6491 78.4996C54.9691 83.4944 59.2939 89.2447 61.9045 96.2929L65.985 95.4087L63.0966 88.1266C58.3507 86.4059 54.9193 81.9491 54.7221 76.6738ZM82.4534 31.9598C82.5129 31.0714 82.5339 30.2347 82.5339 29.4815C82.5368 29.0443 82.2689 28.6514 81.8612 28.49C81.0716 28.1777 80.3467 27.706 79.7338 27.0958C78.5548 25.9191 77.8896 24.3225 77.8896 22.6581V6.27561C77.8896 4.61119 78.5548 3.0149 79.7338 1.83821C80.9157 0.661254 82.516 0 84.1861 0H114.206C115.876 0 117.476 0.661254 118.658 1.83821C119.837 3.0149 120.5 4.61145 120.5 6.27561V22.6581C120.5 24.3225 119.837 25.9191 118.658 27.0958C117.476 28.2727 115.876 28.934 114.206 28.934H89.5345C89.0227 28.934 88.5838 29.2953 88.4851 29.7962C88.0125 32.2201 86.9966 34.933 85.4356 37.4058C85.3605 37.5275 85.2797 37.6485 85.202 37.7686C84.2438 39.2232 83.0902 40.5838 81.7446 41.7398C81.6718 41.802 81.5991 41.8639 81.5264 41.9247C80.5757 42.7134 79.5314 43.4003 78.3937 43.9476C79.4015 42.7836 80.1807 41.422 80.7728 39.9682C80.8095 39.8718 80.8482 39.7752 80.8872 39.6783C80.8976 39.6501 80.908 39.6216 80.9184 39.5929C81.8301 37.1985 82.2559 34.5874 82.43 32.2879C82.4375 32.1773 82.4456 32.0683 82.4534 31.9598ZM109.644 15.9116H118.17C118.759 15.9116 119.24 15.4338 119.24 14.8455C119.24 14.2571 118.759 13.7792 118.17 13.7792H109.644C109.052 13.7792 108.574 14.2571 108.574 14.8455C108.574 15.4338 109.052 15.9116 109.644 15.9116ZM81.139 15.9116H89.6664C90.2562 15.9116 90.7367 15.4338 90.7367 14.8455C90.7367 14.2571 90.256 13.7792 89.6664 13.7792H81.139C80.5492 13.7792 80.0713 14.2571 80.0713 14.8455C80.0713 15.4338 80.5494 15.9116 81.139 15.9116ZM95.3919 15.9116H103.917C104.509 15.9116 104.987 15.4338 104.987 14.8455C104.987 14.2571 104.509 13.7792 103.917 13.7792H95.3919C94.8021 13.7792 94.3216 14.2571 94.3216 14.8455C94.3216 15.4338 94.8021 15.9116 95.3919 15.9116ZM70.8942 59.8409C70.8397 59.6495 70.7776 59.4687 70.7072 59.2975C69.8734 57.2704 67.9772 56.833 67.9772 56.833C67.4005 56.7081 67.0341 56.1393 67.1591 55.5646C67.2861 54.9893 67.8554 54.6241 68.4317 54.7492C68.4317 54.7492 71.3071 55.3467 72.6215 58.337C74.9594 57.9625 78.5909 58.6815 82.0091 64.9815C82.2897 65.4993 82.0974 66.1465 81.578 66.4268C81.0584 66.7065 80.4091 66.5138 80.1287 65.996C77.5285 61.2041 74.9516 60.2734 73.1828 60.4255C73.3958 62.2002 73.1126 64.5443 71.84 67.627C71.614 68.1712 70.988 68.431 70.4424 68.207C69.8968 67.9829 69.637 67.3592 69.8607 66.8148C71.1647 63.6587 71.323 61.453 70.9153 59.9116C70.9073 59.888 70.8994 59.8644 70.8942 59.8409ZM47.436 37.5138C46.8462 37.498 46.3811 37.0077 46.397 36.4192C46.4128 35.831 46.9034 35.3663 47.4931 35.3816C47.4931 35.3816 59.4885 35.7325 60.4495 46.9074C60.5015 47.494 60.0653 48.0107 59.4757 48.061C58.8885 48.1112 58.3689 47.6758 58.3198 47.0897C57.5167 37.7489 47.436 37.5138 47.436 37.5138ZM30.066 38.3859C30.4376 37.9279 31.1102 37.8557 31.5698 38.225C32.0297 38.5946 32.1025 39.2665 31.7312 39.7244C31.7312 39.7244 25.3776 47.5272 31.9908 54.1921C32.4065 54.6104 32.4039 55.2861 31.983 55.7001C31.5649 56.1139 30.8868 56.1103 30.4713 55.692C22.559 47.7186 30.066 38.3859 30.066 38.3859Z" fill="#057988"/>
</svg>