<?xml version="1.0" encoding="UTF-8"?>
<svg version="1.1" width="467" height="395" viewBox="0 0 467 395" fill="#057988"  xmlns="http://www.w3.org/2000/svg">
<path d="M0 0 C1.14586728 0.71771385 2.27420968 1.46489767 3.375 2.25 C4.261875 2.78625 5.14875 3.3225 6.0625 3.875 C13.64787055 11.66538056 14.375 20.89083663 14.375 31.25 C15.365 31.91 16.355 32.57 17.375 33.25 C16.93221731 38.78478368 15.55459506 41.76115992 12.375 46.25 C11.30597061 48.55252483 10.30324183 50.8872026 9.375 53.25 C8.983125 54.24 8.59125 55.23 8.1875 56.25 C6.61351104 62.06165154 7.2882782 66.76493576 9.1328125 72.35546875 C12.47353237 77.45059182 18.06320408 78.98498709 23.6875 80.375 C24.34758057 80.54402832 25.00766113 80.71305664 25.68774414 80.88720703 C29.21159937 81.77778057 32.73386059 82.50154366 36.3125 83.125 C42.56827111 84.47982802 47.27917054 88.56500489 51.1875 93.5 C56.18784735 101.39242903 56.82809477 110.03231315 56.96484375 119.15234375 C57.02786284 121.44857133 57.09101832 123.74479518 57.15429688 126.04101562 C57.23600354 129.60123129 57.31197718 133.16149022 57.38354492 136.72192383 C57.76285853 154.35325515 58.26772729 172.15775547 66 188.375 C71.16050053 199.58574253 72.05097703 210.72454753 73.14257812 222.9453125 C74.13962411 233.14713109 75.79624176 240.92157405 82.125 249.0625 C83.0179927 250.26681878 83.90727112 251.47389982 84.79296875 252.68359375 C85.22915527 253.27897949 85.6653418 253.87436523 86.11474609 254.48779297 C91.03188443 261.36340407 95.20955974 267.64710657 95.375 276.25 C93.625 277 93.625 277 91.375 277.25 C89.125 275.3125 89.125 275.3125 87.375 273.25 C87.68549726 274.68793392 87.9984776 276.1253318 88.3125 277.5625 C88.48652344 278.36300781 88.66054688 279.16351563 88.83984375 279.98828125 C89.37386159 282.395401 89.37386159 282.395401 90.375 285.25 C90.50281786 287.92394964 90.41891871 290.57095857 90.375 293.25 C88.0625 293.125 88.0625 293.125 85.375 292.25 C83.5625 289.1875 83.5625 289.1875 82.375 286.25 C82.045 290.54 81.715 294.83 81.375 299.25 C80.055 299.25 78.735 299.25 77.375 299.25 C75.57182779 295.28302114 74.88297009 291.5677458 74.375 287.25 C74.31441406 287.94867188 74.25382813 288.64734375 74.19140625 289.3671875 C74.10761719 290.27726562 74.02382813 291.18734375 73.9375 292.125 C73.81568359 293.48238281 73.81568359 293.48238281 73.69140625 294.8671875 C73.375 297.25 73.375 297.25 72.375 299.25 C71.055 298.92 69.735 298.59 68.375 298.25 C67.715 295.28 67.055 292.31 66.375 289.25 C65.715 290.57 65.055 291.89 64.375 293.25 C63.385 293.25 62.395 293.25 61.375 293.25 C60.24097298 289.84791893 60.16584599 287.07841959 60.05859375 283.4921875 C60.0274221 282.49845627 60.0274221 282.49845627 59.99562073 281.48464966 C59.95241094 280.08097557 59.91136235 278.67723353 59.87231445 277.2734375 C59.81329301 275.15348352 59.74809844 273.03379506 59.68164062 270.9140625 C59.34283602 259.7126967 59.34283602 259.7126967 59.47265625 254.109375 C59.37737046 250.34368065 58.90112741 248.02866573 57.375 244.625 C56.91996094 243.60792969 56.46492187 242.59085938 55.99609375 241.54296875 C53.91195983 237.30941478 51.66143071 233.17806193 49.3996582 229.03759766 C45.78450783 222.32704423 42.95491986 215.41554545 40.375 208.25 C40.05660156 207.37601563 39.73820313 206.50203125 39.41015625 205.6015625 C37.1739285 198.5479884 36.66833538 191.29087007 36.10839844 183.94873047 C35.89111165 174.48193752 35.89111165 174.48193752 32.375 166.25 C31.48321 176.63458939 31.06732449 186.9874208 30.9699707 197.40722656 C30.9484107 199.12878504 30.91433087 200.85023448 30.86743164 202.57128906 C30.53589616 214.95018678 32.26262552 224.83463684 36.68783569 236.38647461 C38.09865331 240.21248017 38.96311539 244.13282395 39.75 248.125 C39.91371094 248.83011719 40.07742188 249.53523437 40.24609375 250.26171875 C43.60622038 266.83646104 40.98604779 284.28388147 38.6875 300.8125 C38.41467251 302.84881699 38.14229766 304.88519467 37.87036133 306.92163086 C36.25236649 318.85615397 34.30073988 330.66142925 31.92797852 342.47045898 C30.14564923 351.63957764 29.63155755 360.67589363 29.47827148 369.99829102 C29.37060063 372.34592282 29.0696307 374.61563013 28.73828125 376.94140625 C28.25437601 380.96490767 28.86770413 383.73403419 30.3125 387.5625 C36.54262256 407.86485744 30.13010914 427.79010217 23.85253906 447.24755859 C16.72215873 469.15461593 16.72215873 469.15461593 20.1796875 491.44140625 C22.03290653 496.65689409 22.67757836 500.70273006 22.375 506.25 C13.38321516 510.84580114 2.32694532 511.19247957 -7.625 510.25 C-8.285 509.59 -8.945 508.93 -9.625 508.25 C-9.45252492 502.98951005 -8.46689399 498.54529929 -6.8125 493.5625 C-3.94452392 484.74923045 -2.56904164 475.64132123 -1.04223633 466.51733398 C-0.625 464.25 -0.625 464.25 -0.10502625 462.45675659 C0.47122004 459.80766127 0.48710934 457.38644699 0.47265625 454.67456055 C0.46935303 453.55627365 0.4660498 452.43798676 0.46264648 451.28581238 C0.45434814 450.08161148 0.4460498 448.87741058 0.4375 447.63671875 C0.43371338 446.39380569 0.42992676 445.15089264 0.42602539 443.87031555 C0.411732 439.22035192 0.38854482 434.57045305 0.36462402 429.92053223 C0.34166435 425.36760223 0.32633897 420.81468418 0.3125 416.26171875 C0.30005249 414.46452644 0.30005249 414.46452644 0.28735352 412.63102722 C0.27099019 407.04447194 0.42413803 401.75386117 1.375 396.25 C1.97960068 388.67684801 0.52930859 381.4276044 -0.8125 374 C-11.02772573 315.05892112 -11.02772573 315.05892112 -10.625 292.25 C-11.945 292.25 -13.265 292.25 -14.625 292.25 C-14.66089233 293.07624878 -14.66089233 293.07624878 -14.69750977 293.91918945 C-15.53919623 311.22129054 -17.69736159 328.28813383 -20.0625 345.4375 C-20.21357208 346.54114899 -20.36464417 347.64479797 -20.52029419 348.78189087 C-22.09789159 360.25502674 -23.74848382 371.6753077 -26.06958008 383.02416992 C-27.05025889 388.71986625 -27.15641472 394.33184897 -26.12060547 400.01977539 C-25.63388589 403.19208416 -25.49568738 406.15664084 -25.4921875 409.36328125 C-25.49041504 410.52053711 -25.48864258 411.67779297 -25.48681641 412.87011719 C-25.49334229 414.69784668 -25.49334229 414.69784668 -25.5 416.5625 C-25.5004834 417.81836914 -25.5009668 419.07423828 -25.50146484 420.36816406 C-25.52663444 427.10840744 -25.71325012 433.78254293 -26.25 440.5 C-27.09344975 453.16414994 -24.50530144 465.29671031 -22.1875 477.6875 C-21.98237793 478.78956787 -21.77725586 479.89163574 -21.56591797 481.02709961 C-20.47658634 486.64196965 -19.16177339 491.98337886 -17.25610352 497.37573242 C-16.49559241 499.634318 -16.06516684 501.81928372 -15.8125 504.1875 C-15.72355469 504.91839844 -15.63460937 505.64929688 -15.54296875 506.40234375 C-15.625 508.25 -15.625 508.25 -17.625 510.25 C-20.29677148 510.48011902 -22.82782318 510.58124908 -25.5 510.5625 C-26.25925781 510.56048584 -27.01851563 510.55847168 -27.80078125 510.55639648 C-43.59662908 510.27837092 -43.59662908 510.27837092 -47.625 506.25 C-48.0438238 500.97282006 -47.87181174 497.33555967 -45.6875 492.5 C-38.29068463 475.32882147 -45.88943743 456.6296232 -51.31201172 439.98046875 C-54.97573227 428.6351526 -58.21053189 417.31925435 -58.0625 405.3125 C-58.06000244 404.46913086 -58.05750488 403.62576172 -58.05493164 402.75683594 C-57.91024718 395.95859533 -56.59651775 390.02197779 -54.40234375 383.609375 C-53.6219749 380.2369267 -53.768511 377.7268858 -54.32055664 374.33105469 C-54.62859845 372.22540243 -54.72805145 370.20483703 -54.765625 368.078125 C-55.00283253 357.10122573 -56.47890774 346.68492259 -58.53710938 335.90820312 C-60.52368836 325.31501263 -62.00087723 314.68770683 -63.375 304 C-63.48154907 303.17308655 -63.58809814 302.3461731 -63.69787598 301.49420166 C-64.3504645 296.41405684 -64.99079013 291.33246997 -65.625 286.25 C-65.71637741 285.55151443 -65.80775482 284.85302887 -65.90190125 284.13337708 C-67.4781141 271.97294581 -67.52424775 259.59174106 -65 247.5625 C-64.85989502 246.88920654 -64.71979004 246.21591309 -64.57543945 245.5222168 C-63.68099148 241.69148128 -62.56048644 238.02742876 -61.15307617 234.35595703 C-56.80930479 222.79412339 -55.84305739 212.78231928 -56.1875 200.5 C-56.20912574 198.82164771 -56.22801143 197.14325786 -56.24414062 195.46484375 C-56.36368293 186.03035748 -56.82349645 176.65251225 -57.625 167.25 C-59.56979771 170.88517729 -60.13434571 173.94888947 -60.625 178.0625 C-60.70838623 178.72121094 -60.79177246 179.37992188 -60.87768555 180.05859375 C-61.29688476 183.38374037 -61.67277306 186.70928362 -62.01953125 190.04296875 C-63.69179499 204.87454157 -68.80013359 217.32444387 -75.64501953 230.37939453 C-77.12194306 233.19857443 -78.56407957 236.03475642 -80 238.875 C-80.46148437 239.77476562 -80.92296875 240.67453125 -81.3984375 241.6015625 C-83.88665512 246.97421074 -84.84701034 251.19121519 -84.6875 257.125 C-84.56765187 264.44994045 -84.76404999 271.74308207 -85.0625 279.0625 C-85.10189697 280.11872559 -85.14129395 281.17495117 -85.18188477 282.26318359 C-85.22369873 283.25527832 -85.2655127 284.24737305 -85.30859375 285.26953125 C-85.36358032 286.60141479 -85.36358032 286.60141479 -85.41967773 287.96020508 C-85.625 290.25 -85.625 290.25 -86.625 293.25 C-87.615 293.25 -88.605 293.25 -89.625 293.25 C-90.285 291.93 -90.945 290.61 -91.625 289.25 C-92.285 292.22 -92.945 295.19 -93.625 298.25 C-94.945 298.58 -96.265 298.91 -97.625 299.25 C-98.90946919 296.68106162 -98.95477144 294.48423663 -99.1875 291.625 C-99.27128906 290.62210937 -99.35507813 289.61921875 -99.44140625 288.5859375 C-99.50199219 287.81507813 -99.56257813 287.04421875 -99.625 286.25 C-99.74617188 287.00925781 -99.86734375 287.76851563 -99.9921875 288.55078125 C-100.15976563 289.54464844 -100.32734375 290.53851563 -100.5 291.5625 C-100.74363281 293.04169922 -100.74363281 293.04169922 -100.9921875 294.55078125 C-101.625 297.25 -101.625 297.25 -103.625 300.25 C-104.615 300.25 -105.605 300.25 -106.625 300.25 C-106.955 295.63 -107.285 291.01 -107.625 286.25 C-108.945 288.56 -110.265 290.87 -111.625 293.25 C-112.945 293.25 -114.265 293.25 -115.625 293.25 C-116.03350553 286.16923749 -114.52920731 280.05074041 -112.625 273.25 C-113.54539063 274.24773437 -113.54539063 274.24773437 -114.484375 275.265625 C-115.54398438 276.24789062 -115.54398438 276.24789062 -116.625 277.25 C-118.875 277 -118.875 277 -120.625 276.25 C-120.44595687 266.93975737 -115.40916385 260.00834104 -110.04296875 252.68359375 C-109.38059204 251.77891357 -109.38059204 251.77891357 -108.70483398 250.85595703 C-107.84596489 249.69765845 -106.97511134 248.54810778 -106.09008789 247.40966797 C-99.77164625 238.98925715 -99.06269277 229.86881167 -98.1875 219.625 C-96.99757449 207.30859173 -95.7465354 195.46066644 -89.63671875 184.47265625 C-84.51817647 173.22767339 -83.52904339 160.80933455 -83.23046875 148.6484375 C-83.16165701 146.36065137 -83.0919675 144.0728915 -83.02148438 141.78515625 C-82.91455503 138.21122029 -82.81280198 134.63748116 -82.72631836 131.06298828 C-81.92596584 98.84824212 -81.92596584 98.84824212 -72.50390625 88.8359375 C-66.52147287 83.78631597 -60.02725219 82.80209816 -52.54882812 81.23242188 C-46.05025252 79.79295244 -39.46713925 78.18382117 -34.6875 73.25 C-32.18639709 68.54204158 -32.12820589 63.46633819 -32.625 58.25 C-33.80237669 54.64162706 -33.80237669 54.64162706 -35.625 51.25 C-35.94984375 50.59 -36.2746875 49.93 -36.609375 49.25 C-38.1437846 46.1339682 -39.71977984 43.08331821 -41.4375 40.0625 C-42.78070556 36.88122367 -42.81752185 35.46063574 -41.625 32.25 C-40.965 31.92 -40.305 31.59 -39.625 31.25 C-39.44336108 28.94229243 -39.3564302 26.62692802 -39.3125 24.3125 C-38.95416692 16.43197904 -37.48357787 10.05300165 -31.7265625 4.37890625 C-23.19219817 -2.4387756 -10.12935862 -4.91003261 0 0 Z M-2.625 111.25 C-4.25450412 115.37168689 -4.88764601 117.95700357 -3.625 122.25 C-4.945 122.25 -6.265 122.25 -7.625 122.25 C-9.109375 120.71875 -9.109375 120.71875 -10.375 118.75 C-10.80296875 118.1003125 -11.2309375 117.450625 -11.671875 116.78125 C-11.98640625 116.2759375 -12.3009375 115.770625 -12.625 115.25 C-13.945 115.58 -15.265 115.91 -16.625 116.25 C-16.46 117.3225 -16.295 118.395 -16.125 119.5 C-15.20394737 126.40789474 -15.20394737 126.40789474 -16.625 129.25 C-17.11152635 134.8937057 -16.51622605 138.02936261 -13.76171875 142.91015625 C-12.34759415 145.82101755 -11.55409654 148.75878958 -10.6875 151.875 C-9.11026534 157.13244885 -7.98449751 160.80295546 -3.625 164.25 C-0.12473266 165.14638356 -0.12473266 165.14638356 3.375 163.25 C9.07355101 156.66739705 14.19011303 147.2924425 14.4609375 138.44140625 C14.13080284 134.22913258 13.75468312 131.81952468 11.375 128.25 C11.6875 125.4375 11.6875 125.4375 12.375 122.25 C12.560625 121.13625 12.74625 120.0225 12.9375 118.875 C13.081875 118.00875 13.22625 117.1425 13.375 116.25 C12.055 116.25 10.735 116.25 9.375 116.25 C7.1736134 120.05427492 7.1736134 120.05427492 6.375 124.25 C3.405 123.755 3.405 123.755 0.375 123.25 C0.42720703 122.32767578 0.42720703 122.32767578 0.48046875 121.38671875 C0.50753906 120.57847656 0.53460938 119.77023438 0.5625 118.9375 C0.59730469 118.13699219 0.63210938 117.33648437 0.66796875 116.51171875 C0.31301608 113.77148416 -0.51866282 112.95828921 -2.625 111.25 Z M-111.625 270.25 C-110.625 272.25 -110.625 272.25 -110.625 272.25 Z "   transform="translate(268.625,1.75)"/>
</svg>
