<svg width="424" height="395" viewBox="0 0 424 395" fill="none" xmlns="http://www.w3.org/2000/svg">
<path d="M423.484 8.45966L371.174 85.7969L365.651 58.2421L311.849 94.1309L269.388 85.6511L201.642 141.676L131.415 127.65L20.7958 200.61L1.99219 172.05L124.365 91.4145L192.492 105.02L260.143 48.978L304.702 57.8775L349.348 28.0965L328.513 9.23025L423.484 8.45966Z" fill="#0BB4CA"/>
<path d="M421.491 0L369.182 77.3373L363.658 49.7824L309.856 85.6712L267.396 77.1901L199.649 133.216L129.423 119.189L18.8036 192.151L0 163.59L122.371 82.9536L190.5 96.5606L258.149 40.5183L302.71 49.4166L347.355 19.6369L326.52 0.76921L421.491 0Z" fill="#BAF3FA"/>
<path d="M370.343 23.8492C370.343 23.8492 378.906 24.9301 378.711 29.9028C378.711 29.9028 380.558 29.8651 381.743 32.4219C382.928 34.9786 379.616 39.3153 379.616 39.3153L360.596 42.6464L357.779 37.8056L370.343 23.8492Z" fill="#FFD2D2"/>
<path d="M360.596 43.3742C360.34 43.3742 360.099 43.2384 359.967 43.0122L357.15 38.1714C356.99 37.8973 357.027 37.5517 357.238 37.3167L369.801 23.3613C369.961 23.1841 370.197 23.0949 370.435 23.125C370.797 23.1703 378.968 24.2614 379.424 29.2844C380.226 29.5069 381.5 30.1643 382.404 32.1139C383.735 34.9861 380.563 39.2762 380.196 39.7564C380.084 39.9022 379.923 40.0003 379.742 40.0317L360.722 43.3628C360.681 43.3703 360.638 43.3742 360.596 43.3742ZM358.677 37.8961L360.971 41.838L379.203 38.6441C380.117 37.367 381.849 34.3815 381.081 32.7247C380.13 30.6758 378.77 30.6306 378.713 30.6293C378.516 30.6256 378.323 30.5438 378.188 30.4005C378.054 30.2585 377.975 30.0674 377.982 29.8701C378.128 26.1619 372.18 24.895 370.621 24.6273L358.677 37.8961Z" fill="#333333"/>
<path d="M367.752 37.7216C367.635 37.7216 367.515 37.6938 367.406 37.6335C367.052 37.4424 366.92 36.9999 367.112 36.6455L372.018 27.5687C372.21 27.2155 372.652 27.0822 373.006 27.2745C373.361 27.4656 373.493 27.9093 373.3 28.2626L368.394 37.3393C368.262 37.5819 368.011 37.7216 367.752 37.7216Z" fill="#333333"/>
<path d="M374.84 38.3261C374.683 38.3261 374.524 38.2758 374.391 38.1702C374.074 37.9226 374.018 37.4638 374.267 37.147C376.336 34.5048 377.788 31.033 377.795 29.0494C377.796 28.6484 378.123 28.0815 378.524 28.0815H378.527C378.929 28.0815 379.254 28.6534 379.253 29.0557C379.243 31.3698 377.701 35.0064 375.414 37.9252C375.271 38.1099 375.056 38.3261 374.84 38.3261Z" fill="#333333"/>
<path d="M376.694 36.4972C373.616 36.8479 364.577 37.24 363.401 36.0082C362.226 34.7775 372.378 26.695 374.692 24.1697C377.244 21.3855 384.186 16.7031 380.988 14.541C377.358 12.0873 374.929 16.5295 367.234 21.2873C359.798 25.8854 342.368 37.2765 341.204 38.0382C325.969 42.7809 294.414 53.3019 285.78 56.2547C274.874 59.9842 256.301 59.3143 232.346 61.3444L241.627 91.4181C241.627 91.4181 272.542 85.4323 287.584 84.1577C299.656 83.1345 334.934 61.7152 348.393 53.297C350.288 53.3159 354.493 53.238 357.065 52.2952C360.465 51.0495 364.005 46.3759 366.006 45.7599C368.007 45.144 377.912 43.6884 379.927 42.4704C381.941 41.2536 379.771 36.1465 376.694 36.4972Z" fill="#FFD2D2"/>
<path d="M241.624 92.1485C241.31 92.1485 241.023 91.9448 240.928 91.6343L231.646 61.5606C231.581 61.3494 231.614 61.1206 231.738 60.9384C231.861 60.7548 232.061 60.6379 232.281 60.619C240.352 59.9352 247.905 59.5532 254.569 59.215C267.883 58.5413 278.4 58.0082 285.54 55.5671C294.85 52.3831 326.152 41.9639 340.886 37.3746C343.151 35.8938 359.629 25.1313 366.847 20.6689C369.321 19.1391 371.278 17.6157 372.851 16.3914C375.293 14.4895 377.058 13.1155 378.937 13.1155C379.771 13.1155 380.574 13.3846 381.393 13.9377C382.272 14.5323 382.499 15.265 382.535 15.7741C382.678 17.8444 380.066 20.1962 377.538 22.4714C376.648 23.2721 375.807 24.0301 375.226 24.6637C374.49 25.4669 373.046 26.7616 371.372 28.2599C368.973 30.4106 364.605 34.325 364.082 35.592C364.47 35.7617 365.745 36.1176 369.591 36.1176C372.21 36.1176 375.103 35.944 376.608 35.7731C378.878 35.5204 380.691 37.5594 381.253 39.5743C381.686 41.1292 381.32 42.4791 380.3 43.0951C378.976 43.8945 375.2 44.6614 370.402 45.5802C368.506 45.9435 366.87 46.2565 366.216 46.4576C365.477 46.6852 364.292 47.7562 363.036 48.89C361.298 50.4613 359.325 52.2423 357.312 52.9802C354.721 53.9292 350.62 54.0373 348.595 54.0273C334.147 63.0576 299.722 83.861 287.642 84.8842C272.812 86.1412 242.072 92.0744 241.764 92.1347C241.717 92.1435 241.671 92.1485 241.624 92.1485ZM233.308 61.9954L242.129 90.5785C246.651 89.7149 273.811 84.5913 287.52 83.4299C299.335 82.4293 333.754 61.5895 348.005 52.6773C348.123 52.6031 348.252 52.5566 348.398 52.5667C350.247 52.588 354.353 52.5114 356.812 51.6101C358.56 50.9703 360.42 49.2896 362.061 47.8076C363.499 46.5079 364.741 45.3867 365.789 45.0636C366.519 44.8386 368.113 44.5331 370.129 44.1472C373.4 43.5212 378.341 42.5748 379.547 41.847C380.068 41.5327 380.045 40.6678 379.848 39.9652C379.45 38.5347 378.182 37.0577 376.774 37.2211C375.275 37.3908 372.389 37.5744 369.593 37.5744C363.887 37.5744 363.176 36.829 362.871 36.511C362.728 36.3614 362.561 36.0974 362.576 35.6964C362.629 34.3463 364.925 32.0774 370.4 27.1726C371.976 25.761 373.464 24.4261 374.152 23.6756C374.78 22.9893 375.646 22.2099 376.563 21.3854C378.509 19.6331 381.173 17.2347 381.079 15.8734C381.067 15.6986 381.001 15.4322 380.576 15.1444C379.998 14.7534 379.478 14.5713 378.937 14.5713C377.558 14.5713 375.959 15.8156 373.747 17.539C372.147 18.7847 370.154 20.3358 367.614 21.9058C360.313 26.4197 343.492 37.4085 341.599 38.6466C341.542 38.6831 341.481 38.712 341.417 38.7321C326.735 43.3026 295.336 53.7545 286.012 56.9422C278.678 59.45 268.072 59.9867 254.642 60.6668C248.241 60.9948 241.016 61.3606 233.308 61.9954Z" fill="#333333"/>
<path d="M143.435 18.483L148.23 38.521L167.407 42.209L148.476 47.3716L142.944 67.0399L137.412 46.88L119.957 43.4384L138.396 38.8893L143.435 18.483Z" fill="white"/>
<path d="M142.943 67.0499H142.941C142.613 67.0499 142.326 67.1894 142.239 66.8727L136.827 47.3275L119.813 44.063C119.477 43.9977 119.234 43.7513 119.225 43.4094C119.217 43.0675 119.447 42.7885 119.779 42.7068L137.791 38.2746L142.726 18.4378C142.806 18.1122 143.099 18.0255 143.434 18.0255H143.436C143.773 18.0255 144.065 18.1223 144.142 18.4491L148.827 37.9603L167.542 41.5252C167.875 41.5894 168.12 41.857 168.133 42.1964C168.145 42.5358 167.923 42.83 167.596 42.9193L149.062 47.9699L143.642 66.8789C143.557 67.1945 143.27 67.0499 142.943 67.0499ZM123.323 43.3592L137.553 46.1648C137.825 46.2175 138.042 46.42 138.115 46.6865L142.952 64.316L147.773 47.1741C147.842 46.9277 148.036 46.7355 148.283 46.6676L164.184 42.331L148.092 39.2362C147.81 39.1821 147.587 38.9685 147.52 38.6907L143.423 21.5703L139.102 39.064C139.036 39.3267 138.832 39.5328 138.569 39.5969L123.323 43.3592Z" fill="#363636"/>
<path d="M343.962 111.821L348.756 131.857L367.933 135.545L349.003 140.708L343.471 160.376L337.939 140.216L320.482 136.775L338.922 132.227L343.962 111.821Z" fill="white"/>
<path d="M343.471 161.325H343.469C343.142 161.325 342.854 160.995 342.769 160.679L337.356 140.899L320.342 137.516C320.007 137.451 319.763 137.147 319.754 136.805C319.747 136.463 319.977 136.155 320.308 136.073L338.32 131.626L343.255 111.623C343.336 111.298 343.628 111.044 343.963 111.044H343.965C344.301 111.044 344.594 111.299 344.672 111.626L349.357 131.218L368.071 134.823C368.404 134.887 368.649 135.175 368.662 135.514C368.674 135.853 368.452 136.158 368.125 136.247L349.593 141.302L344.173 160.684C344.085 160.998 343.798 161.325 343.471 161.325ZM323.851 136.695L338.081 139.501C338.353 139.554 338.57 139.756 338.643 140.023L343.48 157.652L348.301 140.51C348.37 140.264 348.563 140.072 348.811 140.004L364.712 135.667L348.62 132.573C348.338 132.519 348.115 132.305 348.048 132.027L343.952 114.907L339.631 132.4C339.566 132.663 339.361 132.869 339.098 132.933L323.851 136.695Z" fill="#363636"/>
<path d="M167.357 7.71545L169.591 17.0526L178.528 18.7709L169.706 21.1767L167.128 30.3429L164.55 20.9481L156.416 19.3441L165.009 17.2248L167.357 7.71545Z" fill="white"/>
<path d="M167.126 30.5967H167.124C166.796 30.5967 166.509 30.6144 166.423 30.2977L163.964 21.457L156.272 20.0003C155.936 19.9349 155.693 19.6735 155.684 19.3315C155.676 18.9896 155.906 18.703 156.238 18.6213L164.404 16.6151L166.647 7.4012C166.728 7.07564 167.02 6.71362 167.355 6.71362H167.358C167.694 6.71362 167.986 7.08205 168.064 7.40887L170.188 16.3561L178.663 18.0204C178.996 18.0845 179.241 18.3875 179.254 18.7256C179.267 19.0637 179.044 19.3755 178.717 19.466L170.294 21.7676L167.828 30.3001C167.74 30.6144 167.453 30.5967 167.126 30.5967ZM159.78 19.2648L164.689 20.2327C164.961 20.2855 165.178 20.4879 165.251 20.7557L167.134 27.6189L169.001 20.9808C169.07 20.7344 169.263 20.542 169.511 20.4741L175.302 18.8953L169.449 17.7703C169.168 17.7162 168.944 17.5026 168.877 17.2235L167.341 10.8027L165.711 17.3995C165.646 17.6623 165.441 17.8671 165.178 17.9325L159.78 19.2648Z" fill="#363636"/>
<path d="M133.084 165.951L135.319 175.288L144.255 177.006L135.433 179.412L132.855 188.578L130.277 179.184L122.143 177.58L130.736 175.459L133.084 165.951Z" fill="white"/>
<path d="M132.855 190.236C132.527 190.236 132.24 189.551 132.153 189.236L129.694 180.045L122.003 178.412C121.667 178.346 121.423 177.997 121.414 177.655C121.407 177.313 121.637 176.982 121.968 176.901L130.134 174.872L132.378 165.721C132.458 165.395 132.75 165.098 133.085 165.098C133.087 165.098 133.087 165.098 133.088 165.098C133.425 165.098 133.717 165.393 133.795 165.72L135.919 174.631L144.394 176.276C144.727 176.34 144.972 176.633 144.984 176.972C144.997 177.312 144.774 177.619 144.448 177.708L136.024 180.007L133.558 189.241C133.469 189.554 133.182 190.236 132.855 190.236ZM125.509 177.5L130.418 178.468C130.69 178.521 130.907 178.724 130.98 178.991L132.863 185.854L134.73 179.216C134.799 178.97 134.992 178.778 135.24 178.71L141.031 177.131L135.178 176.006C134.897 175.952 134.674 175.738 134.607 175.459L133.07 169.038L131.44 175.635C131.375 175.898 131.17 176.103 130.907 176.168L125.509 177.5Z" fill="#363636"/>
<path d="M134.815 330.262L126.336 300.432L126.73 300.302L125.682 298.129L125.022 295.807L124.642 295.972L111.174 268.038C111.174 268.038 63.7851 254.121 13.6543 312.579C13.6543 312.579 46.691 315.495 71.7382 307.226C71.7382 307.226 64.5544 311.297 49.8562 327.108L49.9392 327.325C71.4278 329.389 79.3054 327.144 79.3054 327.144C55.0866 337.593 32.3196 361.708 32.3196 361.708C108.62 372.134 134.815 330.262 134.815 330.262Z" fill="#F9EED7"/>
<path d="M55.8602 364.107C55.8564 364.107 55.8552 364.107 55.8514 364.107C48.298 364.107 40.3486 363.542 32.222 362.432C31.9518 362.394 31.7243 362.21 31.6325 361.952C31.542 361.694 31.6023 361.408 31.7896 361.209C32.0033 360.983 52.1268 339.821 74.4613 328.605C72.4514 328.786 69.7866 328.928 66.3713 328.928C61.474 328.928 55.9217 328.634 49.8705 328.052C49.594 328.026 49.3577 327.844 49.2584 327.584L49.1754 327.367C49.0774 327.108 49.1338 326.815 49.3224 326.611C58.0548 317.218 64.1226 311.96 67.6547 309.216C53.9207 312.972 38.599 313.807 27.6995 313.807C19.3693 313.807 13.6474 313.311 13.5908 313.306C13.3193 313.282 13.0829 313.109 12.9798 312.855C12.8767 312.601 12.9233 312.312 13.1018 312.104C28.1658 294.538 44.4905 281.74 61.621 274.067C76.7642 267.284 89.6989 265.86 97.8833 265.86C106.252 265.86 111.176 267.277 111.381 267.337C111.578 267.395 111.743 267.535 111.832 267.721L125.022 295.078C125.129 295.078 125.237 295.102 125.335 295.149C125.525 295.239 125.667 295.406 125.725 295.609L126.367 297.87L127.388 299.987C127.479 300.175 127.485 300.395 127.402 300.589C127.359 300.689 127.295 300.779 127.214 300.849L135.517 330.063C135.573 330.262 135.543 330.474 135.434 330.649C135.219 330.992 130.03 339.156 117.583 347.427C106.133 355.037 86.1289 364.107 55.8602 364.107ZM33.855 361.178C41.4159 362.153 48.8084 362.647 55.8502 362.647C55.8514 362.647 55.8577 362.647 55.8589 362.647C85.7192 362.647 105.425 353.737 116.701 346.262C127.686 338.98 133.02 331.611 134.021 330.14L125.634 300.632C125.568 300.398 125.623 300.158 125.764 299.98L125.024 298.447C125.007 298.409 124.992 298.37 124.981 298.33L124.516 296.692C124.293 296.652 124.092 296.51 123.986 296.29L110.664 268.657C109.473 268.356 104.873 267.32 97.8833 267.32C81.434 267.32 48.9429 273.148 15.1558 311.96C17.343 312.106 21.8757 312.349 27.7007 312.349C39.6498 312.349 56.9512 311.34 71.5099 306.534C71.8668 306.416 72.2528 306.589 72.4049 306.932C72.557 307.275 72.4237 307.677 72.0982 307.862C72.029 307.901 65.0816 311.94 51.2231 326.716C56.7577 327.217 61.8486 327.471 66.3713 327.471C75.3577 327.471 79.0709 326.455 79.1073 326.445C79.4756 326.34 79.864 326.541 79.9922 326.903C80.1204 327.265 79.9469 327.664 79.5949 327.816C58.6356 336.857 38.5135 356.464 33.855 361.178Z" fill="#333333"/>
<path d="M212.028 312.769C214.2 318.294 190.637 365.409 122.071 386.841L120.332 382.421C120.332 382.421 148.116 365.184 135.649 333.48L158.178 303.749L212.028 312.769Z" fill="#FC4F68"/>
<path d="M122.073 387.57C121.78 387.57 121.507 387.393 121.394 387.107L119.656 382.688C119.528 382.361 119.651 381.987 119.95 381.801C120.018 381.759 126.855 377.452 132.088 369.395C139.073 358.636 140.045 346.643 134.974 333.746C134.881 333.51 134.917 333.242 135.072 333.038L157.601 303.308C157.765 303.091 158.036 302.985 158.303 303.029L212.152 312.049C212.404 312.092 212.615 312.263 212.71 312.501C213.295 313.992 212.449 317.32 210.385 321.63C208.022 326.566 200.696 339.626 183.757 354.264C166.844 368.879 146.165 380.074 122.292 387.536C122.218 387.56 122.145 387.57 122.073 387.57ZM121.23 382.705L122.502 385.941C186.031 365.856 206.892 325.544 209.068 321C211.092 316.774 211.513 314.399 211.426 313.408L158.495 304.541L136.478 333.595C142.812 350.072 138.25 362.606 133.279 370.238C128.646 377.352 122.957 381.535 121.23 382.705Z" fill="#363636"/>
<path d="M122.503 392.718L116.385 377.159C115.969 376.1 116.494 374.892 117.554 374.476C118.614 374.06 119.822 374.585 120.238 375.645L126.355 391.204C126.771 392.263 126.246 393.471 125.186 393.887C124.127 394.304 122.919 393.777 122.503 392.718Z" fill="#333333"/>
<path d="M178.587 227.718C176.415 222.193 127.072 203.745 62.2715 234.754L64.0098 239.174C64.0098 239.174 96.0925 232.871 108.56 264.576L145.304 270.999L178.587 227.718Z" fill="#FC4F68"/>
<path d="M145.304 271.729C145.262 271.729 145.22 271.725 145.178 271.718L108.433 265.295C108.183 265.251 107.973 265.08 107.88 264.843C99.173 242.7 80.7905 239.394 70.6088 239.394C66.7359 239.394 64.1755 239.886 64.1503 239.891C63.8059 239.96 63.4602 239.769 63.332 239.442L61.5935 235.022C61.454 234.666 61.6124 234.263 61.9581 234.097C86.0185 222.584 111.208 216.498 134.802 216.498C160.785 216.498 177.806 223.733 179.267 227.451C179.36 227.689 179.322 227.959 179.167 228.163L145.884 271.445C145.743 271.626 145.528 271.729 145.304 271.729ZM109.086 263.928L144.995 270.204L177.714 227.657C175.671 225.006 160.608 217.956 134.8 217.956C111.622 217.956 86.8782 223.889 63.1987 235.12L64.4709 238.357C65.4727 238.204 67.6586 237.935 70.6075 237.935C81.1036 237.935 100.003 241.323 109.086 263.928Z" fill="#363636"/>
<path d="M58.5821 230.16L64.7 245.719C65.1174 246.779 66.3239 247.304 67.3836 246.888C68.4433 246.472 68.9688 245.264 68.5527 244.205L62.4349 228.645C62.0188 227.586 60.8108 227.06 59.7512 227.476C58.6915 227.892 58.166 229.1 58.5821 230.16Z" fill="#333333"/>
<path d="M301.611 287.537C353.617 266.158 383.095 196.944 383.095 196.944L382.789 196.167C382.789 196.167 314.064 165.568 261.424 185.337C208.785 205.106 108.373 264.106 108.373 264.106L121.984 298.718L122.289 299.495L135.9 334.108C135.9 334.108 249.606 308.915 301.611 287.537Z" fill="white"/>
<path d="M135.9 334.837C135.606 334.837 135.333 334.659 135.221 334.375L107.695 264.372C107.564 264.039 107.695 263.658 108.004 263.477C109.008 262.886 209.074 204.218 261.168 184.654C273.002 180.209 286.612 177.957 301.624 177.957C343.198 177.957 382.692 195.326 383.087 195.501C383.261 195.579 383.398 195.722 383.469 195.9L383.774 196.677C383.845 196.856 383.842 197.054 383.767 197.23C383.693 197.404 376.208 214.832 362.455 234.64C354.374 246.28 345.736 256.459 336.785 264.894C325.575 275.456 313.836 283.301 301.89 288.211C250.422 309.369 137.197 334.568 136.059 334.82C136.005 334.832 135.952 334.837 135.9 334.837ZM109.281 264.42L136.351 333.261C145.405 331.233 251.939 307.169 301.335 286.864C328.035 275.888 348.657 251.954 361.257 233.809C373.991 215.471 381.305 199.211 382.307 196.931L382.223 196.716C378.667 195.184 341.076 179.416 301.625 179.416C286.79 179.416 273.351 181.637 261.682 186.02C211.682 204.796 117.292 259.736 109.281 264.42Z" fill="#333333"/>
<path d="M353.594 246.784C373.471 221.582 384.162 196.508 384.162 196.508L383.842 195.694C383.842 195.694 360.13 185.154 329.519 180.077C328.794 190.747 330.54 214.996 353.594 246.784Z" fill="#FC4F68"/>
<path d="M353.593 247.513C353.588 247.513 353.583 247.513 353.578 247.513C353.349 247.508 353.137 247.397 353.002 247.211C330.11 215.644 328.007 191.569 328.791 180.027C328.805 179.822 328.905 179.632 329.066 179.504C329.227 179.377 329.435 179.322 329.638 179.357C359.989 184.391 383.9 194.921 384.138 195.027C384.313 195.105 384.45 195.248 384.521 195.427L384.841 196.24C384.911 196.418 384.908 196.617 384.834 196.793C384.727 197.044 373.876 222.247 354.168 247.235C354.027 247.41 353.816 247.513 353.593 247.513ZM330.198 180.93C329.588 192.466 332.042 215.482 353.618 245.571C371.737 222.385 382.16 199.248 383.373 196.492L383.274 196.241C380.576 195.078 358.244 185.689 330.198 180.93Z" fill="#363636"/>
<path d="M148.571 241.248C125.145 254.251 108.373 264.105 108.373 264.105L121.984 298.718L122.289 299.495L135.9 334.108C135.9 334.108 154.409 330.007 179.902 323.712L148.571 241.248Z" fill="#FF99A5"/>
<path d="M135.9 334.837C135.606 334.837 135.333 334.659 135.221 334.375L107.695 264.372C107.564 264.039 107.695 263.658 108.004 263.477C108.173 263.379 125.053 253.469 148.218 240.611C148.403 240.508 148.624 240.49 148.823 240.564C149.022 240.637 149.179 240.792 149.254 240.99L180.584 323.455C180.658 323.65 180.644 323.867 180.547 324.052C180.45 324.237 180.278 324.371 180.076 324.422C154.867 330.648 136.243 334.781 136.057 334.822C136.005 334.832 135.952 334.837 135.9 334.837ZM109.281 264.418L136.351 333.261C139.715 332.508 156.674 328.688 178.928 323.201L148.191 242.294C127.713 253.67 112.299 262.654 109.281 264.418Z" fill="#363636"/>
<path d="M201.389 267.426L201.298 267.195L199.642 262.98L199.551 262.75C199.551 262.75 154.986 260.084 91.0801 305.402L91.8694 307.411L92.1284 308.069L92.9191 310.078C170.576 299.731 201.389 267.426 201.389 267.426Z" fill="#FC4F68"/>
<path d="M92.9161 310.807C92.6195 310.807 92.3493 310.626 92.2375 310.344L90.3984 305.668C90.2753 305.357 90.3821 305.001 90.6548 304.807C148.122 264.056 190.236 261.991 198.096 261.991C199.064 261.991 199.571 262.02 199.592 262.023C199.875 262.039 200.124 262.219 200.227 262.484L202.066 267.16C202.169 267.424 202.111 267.724 201.915 267.931C201.597 268.264 193.933 276.198 176.619 285.515C160.68 294.093 133.237 305.442 93.013 310.801C92.9815 310.805 92.9488 310.807 92.9161 310.807ZM91.9659 305.667L93.3863 309.28C133.085 303.92 160.171 292.71 175.929 284.23C191.094 276.07 198.902 268.842 200.535 267.248L199.045 263.461C198.814 263.454 198.496 263.449 198.096 263.449C190.338 263.449 148.832 265.492 91.9659 305.667Z" fill="#363636"/>
<path d="M92.6688 316.847L86.5508 301.288C86.1348 300.228 86.6603 299.02 87.7199 298.604C88.7796 298.188 89.9876 298.713 90.4037 299.773L96.5214 315.332C96.9375 316.392 96.4122 317.6 95.3525 318.016C94.2929 318.433 93.0849 317.906 92.6688 316.847Z" fill="#333333"/>
<path d="M158.515 264.767L157.852 251.908C155.485 250.948 153.4 249.932 152.306 248.35C148.853 243.572 150.948 235.203 151.883 227.998C141.583 230.364 128.102 233.771 126.389 235.755C123.57 239.017 128.728 251.904 132.271 256.902C135.815 261.899 139.636 281.607 144.796 281.964C149.956 282.321 169.412 275.889 171.312 273.427C173.21 270.967 158.515 264.767 158.515 264.767Z" fill="#363636"/>
<path d="M145.245 282.343C145.077 282.343 144.919 282.338 144.774 282.328C141.307 282.088 138.652 274.439 136.085 267.043C134.64 262.877 133.273 258.943 131.976 257.112C128.29 251.913 123.169 238.925 126.115 235.516C127.526 233.882 136.169 231.232 151.804 227.642C151.921 227.617 152.043 227.647 152.131 227.728C152.219 227.808 152.263 227.926 152.248 228.045C152.093 229.232 151.905 230.476 151.721 231.679C150.78 237.866 149.807 244.264 152.605 248.135C153.605 249.581 155.482 250.552 157.992 251.568C158.123 251.621 158.212 251.745 158.22 251.887L158.872 264.519C160.844 265.361 171.08 269.851 171.803 272.598C171.905 272.985 171.836 273.35 171.604 273.65C169.66 276.17 150.939 282.343 145.245 282.343ZM151.455 228.471C136.72 231.87 127.923 234.538 126.666 235.993C124.08 238.987 129.041 251.71 132.571 256.69C133.928 258.606 135.31 262.588 136.774 266.804C139.03 273.304 141.837 281.394 144.824 281.601C144.955 281.609 145.095 281.614 145.245 281.614C151.115 281.614 169.368 275.354 171.025 273.206C171.119 273.084 171.141 272.955 171.097 272.784C170.535 270.65 161.724 266.515 158.377 265.102C158.247 265.048 158.162 264.925 158.154 264.786L157.503 252.158C154.979 251.123 153.079 250.103 152.01 248.558C149.042 244.45 150.038 237.902 151.001 231.569C151.155 230.546 151.316 229.493 151.455 228.471Z" fill="#363636"/>
<path d="M152.308 248.35C153.403 249.932 155.487 250.948 157.854 251.907L157.78 250.457L179.148 247.615L163.835 225.383C163.835 225.383 158.52 226.474 151.886 227.999C150.951 235.203 148.855 243.571 152.308 248.35Z" fill="#FFD2D2"/>
<path d="M157.854 252.637C157.763 252.637 157.67 252.619 157.58 252.584C154.889 251.495 152.86 250.428 151.709 248.766C148.657 244.543 149.665 237.92 150.639 231.515C150.821 230.318 151.01 229.082 151.162 227.905C151.201 227.602 151.425 227.356 151.721 227.288C158.288 225.779 163.634 224.681 163.687 224.67C163.973 224.61 164.268 224.729 164.433 224.97L179.746 247.201C179.89 247.41 179.915 247.679 179.812 247.91C179.709 248.142 179.492 248.304 179.241 248.338L158.539 251.092L158.58 251.87C158.592 252.119 158.478 252.356 158.274 252.501C158.152 252.59 158.004 252.637 157.854 252.637ZM152.542 228.596C152.401 229.632 152.239 230.698 152.082 231.734C151.152 237.849 150.19 244.172 152.901 247.923C153.711 249.092 155.15 249.947 157.067 250.785L157.052 250.493C157.034 250.114 157.308 249.783 157.685 249.733L177.873 247.047L163.51 226.194C162.108 226.487 157.751 227.405 152.542 228.596Z" fill="#333333"/>
<path d="M163.267 126.869C163.267 126.869 152.861 142.47 156.099 157.46C159.337 172.45 208.471 209.266 208.471 209.266L157.766 223.245L169.28 259.013C169.28 259.013 248.326 234.172 255.86 231.974C263.396 229.775 259.438 213.959 256.88 206.009C254.321 198.061 219.963 161.1 219.963 161.1L262.201 140.319L237.643 113.363L181.482 133.181L163.267 126.869Z" fill="#0BB4CA"/>
<path d="M169.279 259.742C168.971 259.742 168.684 259.545 168.585 259.237L157.071 223.469C157.011 223.279 157.029 223.073 157.124 222.9C157.218 222.725 157.38 222.595 157.571 222.543L206.851 208.957C199.154 203.106 158.399 171.565 155.386 157.615C152.122 142.497 162.228 127.113 162.661 126.466C162.846 126.189 163.191 126.071 163.507 126.182L181.481 132.409L237.4 112.677C237.677 112.579 237.985 112.656 238.182 112.873L262.74 139.829C262.895 139.999 262.96 140.23 262.917 140.456C262.875 140.681 262.729 140.874 262.523 140.976L221.163 161.325C226.104 166.669 255.164 198.301 257.574 205.788C259.658 212.262 262.704 223.969 259.694 229.642C258.872 231.192 257.65 232.213 256.064 232.675C248.623 234.848 170.288 259.462 169.498 259.711C169.426 259.731 169.352 259.742 169.279 259.742ZM158.692 223.746L169.752 258.101C177.563 255.646 248.575 233.339 255.656 231.274C256.866 230.921 257.766 230.163 258.406 228.957C261.267 223.563 257.806 211.269 256.185 206.233C253.705 198.528 219.77 161.966 219.427 161.597C219.27 161.428 219.202 161.195 219.244 160.968C219.285 160.742 219.432 160.548 219.638 160.445L261.007 140.092L237.428 114.21L181.723 133.867C181.567 133.922 181.398 133.922 181.242 133.868L163.573 127.747C161.909 130.449 153.987 144.229 156.811 157.305C159.954 171.859 208.417 208.316 208.906 208.682C209.129 208.849 209.237 209.128 209.185 209.401C209.134 209.675 208.93 209.895 208.662 209.968L158.692 223.746Z" fill="#333333"/>
<path d="M308.18 199.997C300.902 199.107 287.114 198.416 281.216 195.096C276.564 204.187 265.235 202.943 256.059 198.471C256.647 207.826 258.33 227.544 262.111 228.506C267.076 229.768 278.46 224.584 282.243 223.008C286.027 221.431 310.825 214.879 315.618 211.995C320.411 209.11 316.835 201.054 308.18 199.997Z" fill="#363636"/>
<path d="M263.905 229.318C263.196 229.318 262.562 229.122 262.02 228.984C258.31 228.041 256.532 211.887 255.694 198.555C255.686 198.426 255.747 198.27 255.855 198.198C255.963 198.125 256.101 198.1 256.217 198.158C260.707 200.346 265.326 201.544 269.224 201.544C274.645 201.544 278.68 199.255 280.891 194.934C280.936 194.845 281.015 194.777 281.111 194.749C281.206 194.72 281.308 194.731 281.395 194.779C286.056 197.403 295.981 198.387 303.228 199.106C305.053 199.287 306.776 199.458 308.224 199.635C314 200.341 317.339 203.987 317.998 207.074C318.468 209.279 317.67 211.186 315.807 212.307C312.687 214.183 301.541 217.494 292.585 220.154C287.827 221.567 283.718 222.788 282.383 223.343C282.036 223.488 281.626 223.788 281.162 223.986C277.191 225.675 268.929 229.318 263.905 229.318ZM256.462 199.067C257.602 216.67 259.74 227.527 262.2 228.151C262.683 228.273 263.256 228.336 263.904 228.336C268.779 228.336 276.95 224.859 280.877 223.189C281.342 222.991 281.754 222.815 282.103 222.671C283.473 222.1 287.402 220.934 292.376 219.455C300.822 216.948 312.389 213.511 315.43 211.682C317.008 210.732 317.685 209.108 317.284 207.226C316.678 204.383 313.557 201.021 308.135 200.358C306.696 200.182 304.976 200.011 303.155 199.83C296.007 199.121 286.277 198.155 281.366 195.59C278.988 199.958 274.798 202.265 269.224 202.265C265.383 202.266 260.872 201.133 256.462 199.067Z" fill="#363636"/>
<path d="M281.214 195.096C280.099 194.469 279.263 193.747 278.811 192.912C275.959 187.662 255.795 193.618 255.795 193.618C255.795 193.618 255.873 195.542 256.056 198.471C265.231 202.943 276.562 204.187 281.214 195.096Z" fill="#F0A5A3"/>
<path d="M243.658 110.67C243.658 110.67 276.374 92.728 291.042 94.1308C305.712 95.5337 303.961 115.231 300.356 133.632C296.752 152.035 289.207 199.308 289.207 199.308L248.065 204.233L258.721 140.078L243.658 110.67Z" fill="#0BB4CA"/>
<path d="M248.065 204.962C247.868 204.962 247.677 204.882 247.538 204.737C247.38 204.571 247.308 204.34 247.346 204.114L257.961 140.196L243.008 111.002C242.828 110.65 242.96 110.22 243.306 110.031C244.55 109.348 273.945 93.3224 289.311 93.3224C289.94 93.3224 290.544 93.3502 291.11 93.4042C294.925 93.77 297.907 95.3588 299.973 98.128C305.643 105.729 303.538 121.169 301.069 133.772C297.508 151.951 290 198.949 289.925 199.421C289.873 199.743 289.614 199.992 289.291 200.03L248.149 204.955C248.123 204.961 248.094 204.962 248.065 204.962ZM244.632 110.973L259.369 139.745C259.441 139.884 259.465 140.043 259.44 140.197L248.944 203.393L288.573 198.648C289.424 193.33 296.283 150.633 299.639 133.491C302.05 121.184 304.132 106.141 298.805 98.9991C296.97 96.5391 294.408 95.1841 290.972 94.8547C290.453 94.8045 289.893 94.7794 289.311 94.7794C275.523 94.7806 249.03 108.623 244.632 110.973Z" fill="#333333"/>
<path d="M250.058 109.947L243.085 95.5285L267.341 89.7766C267.341 89.7766 265.393 58.0409 265.104 58.0472C256.963 58.2445 228.264 56.0171 221.961 58.2445C214.903 60.7397 210.794 54.2887 201.085 59.8346C191.376 65.3805 183.071 76.5579 179.496 83.3042C175.921 90.0518 172.518 99.9193 166.395 104.158C160.274 108.398 156.63 121.746 163.27 126.868L181.486 133.18L250.058 109.947Z" fill="#F2D270"/>
<path d="M181.485 133.91C181.405 133.91 181.323 133.896 181.246 133.87L163.031 127.558C162.957 127.533 162.887 127.496 162.825 127.446C160.256 125.464 158.899 122.134 159.004 118.067C159.151 112.359 162.085 106.257 165.98 103.558C170.507 100.425 173.59 93.8983 176.313 88.1399C177.183 86.2984 178.005 84.5587 178.851 82.9623C182.975 75.1789 191.579 64.4226 200.722 59.201C203.614 57.5493 206.241 56.7802 208.99 56.7802C210.875 56.7802 212.536 57.1408 214.141 57.4915C215.616 57.812 217.01 58.1164 218.47 58.1151C219.593 58.1151 220.655 57.9327 221.718 57.5569C223.697 56.858 227.842 56.5175 234.391 56.5175C240.176 56.5175 246.872 56.8178 252.779 57.0453C258.077 57.2489 262.558 57.4048 265.086 57.4048C265.82 57.4048 265.864 57.831 266.009 59.3859C266.086 60.213 266.185 61.4046 266.302 62.972C266.499 65.6055 266.753 69.2672 267.057 73.8742C267.574 81.7179 268.062 89.6571 268.067 89.7376C268.088 90.0908 267.852 90.4076 267.507 90.4893L244.136 96.0301L250.714 109.631C250.804 109.819 250.811 110.037 250.73 110.23C250.65 110.423 250.49 110.571 250.291 110.639L181.719 133.873C181.644 133.897 181.564 133.91 181.485 133.91ZM163.624 126.221L181.488 132.41L249.042 109.522L242.427 95.8466C242.331 95.648 242.331 95.4153 242.425 95.2155C242.519 95.0156 242.7 94.8699 242.915 94.8184L266.573 89.2083C265.886 78.0273 264.841 61.9715 264.49 58.7863C264.312 58.7875 264.124 58.7889 263.929 58.7889C261.264 58.7889 257.306 58.6366 252.722 58.4607C246.828 58.2344 240.149 57.9767 234.391 57.9767C228.099 57.9767 223.998 58.2985 222.203 58.932C220.982 59.3644 219.761 59.5745 218.47 59.5745C216.851 59.5745 215.315 59.24 213.829 58.917C212.3 58.5839 210.717 58.2395 208.989 58.2395C206.505 58.2395 204.108 58.9472 201.445 60.4682C192.555 65.5465 184.168 76.0436 180.139 83.6473C179.308 85.2147 178.494 86.9394 177.63 88.7646C174.831 94.6888 171.657 101.403 166.81 104.759C163.323 107.173 160.594 112.91 160.461 118.104C160.371 121.644 161.493 124.521 163.624 126.221Z" fill="#333333"/>
<path d="M203.815 103.993C203.727 103.993 203.638 103.977 203.55 103.943L200.357 102.697C199.982 102.55 199.796 102.128 199.942 101.753C200.088 101.379 200.51 101.193 200.886 101.338L204.079 102.584C204.454 102.73 204.64 103.154 204.494 103.528C204.382 103.816 204.107 103.993 203.815 103.993Z" fill="#333333"/>
<path d="M204.51 210.328C204.172 210.328 203.869 210.092 203.797 209.749C203.714 209.355 203.967 208.968 204.36 208.885L221.693 205.245C222.088 205.161 222.474 205.415 222.557 205.808C222.64 206.203 222.387 206.589 221.992 206.672L204.659 210.312C204.609 210.323 204.559 210.328 204.51 210.328Z" fill="#333333"/>
<path d="M213.165 122.879C212.887 122.879 212.625 122.719 212.503 122.454L201.1 97.6893C200.932 97.3236 201.092 96.8899 201.457 96.7214C201.824 96.553 202.257 96.7127 202.425 97.0785L213.555 121.251L249.826 109.254C250.208 109.127 250.62 109.334 250.747 109.718C250.873 110.1 250.665 110.512 250.283 110.639L213.394 122.841C213.318 122.866 213.242 122.879 213.165 122.879Z" fill="#333333"/>
<path d="M232.236 13.6058C231.351 13.3405 230.759 13.255 230.759 13.255C230.759 13.255 230.492 20.0617 227.741 25.3449C227.732 25.3575 227.729 25.3675 227.725 25.3788C225.927 28.813 223.462 31.7594 221.432 33.1409C220.411 33.2716 219.39 33.4024 218.37 33.5331C217.529 32.799 215.216 31.2931 211.717 32.8932C210.751 33.3344 209.975 33.9416 209.391 34.6518C208.8 34.7235 208.225 34.7976 207.671 34.8618C202.954 35.4475 199.66 35.8435 199.66 35.8435L228.202 7.25536C228.482 7.17994 228.805 7.13976 229.157 7.13599C230.671 7.84242 231.694 10.4959 232.236 13.6058Z" fill="#7089E4"/>
<path d="M218.37 33.5332C215.219 33.9304 212.129 34.3164 209.393 34.652C209.977 33.9418 210.753 33.3346 211.719 32.8934C215.216 31.2919 217.529 32.7979 218.37 33.5332Z" fill="#7089E4"/>
<path d="M240.779 30.2623C240.31 30.4333 239.769 30.5791 239.148 30.6884C236.135 31.2139 228.894 32.1868 221.43 33.1409C223.464 31.7532 225.944 28.7942 227.739 25.3449C230.489 20.0617 230.757 13.255 230.757 13.255C230.757 13.255 236.771 14.1212 238.897 18.9531C240.938 23.5902 240.184 28.6257 240.779 30.2623Z" fill="#7089E4"/>
<path d="M211.598 48.3545C208.296 48.2992 198.963 42.1927 197.346 33.8336C195.729 25.4745 225.973 10.1089 230.761 13.2564C235.549 16.404 226.859 41.495 226.859 41.495L211.598 48.3545Z" fill="#BAF3FA"/>
<path d="M211.599 48.1947C211.595 48.1947 211.591 48.1947 211.586 48.1947C208.104 48.1947 198.365 42.4955 196.631 33.5268C196.3 31.8185 197.05 30.0624 198.863 27.8665C204.976 20.4577 222.231 11.9968 228.874 11.9968C229.862 11.9968 230.611 12.2281 231.162 12.5914C233.462 14.1035 233.512 19.3893 231.315 28.6949C229.752 35.3206 227.57 41.6558 227.549 41.7187C227.484 41.9085 227.342 42.0693 227.16 42.1523L211.898 48.5707C211.803 48.6134 211.702 48.1947 211.599 48.1947ZM228.874 13.5668C222.648 13.5668 205.775 22.0025 199.988 29.0179C198.488 30.8355 197.822 32.4534 198.062 33.6953C199.62 41.7464 208.57 47.3764 211.46 47.6178L226.273 40.9594C229.541 31.4364 233.47 15.9099 230.361 13.866C230.154 13.729 229.728 13.5668 228.874 13.5668Z" fill="#333333"/>
<path d="M243.504 34.1527C242.864 33.3834 241.545 31.7407 240.858 30.4485C240.826 30.3906 240.801 30.3327 240.778 30.2636C240.184 28.6257 240.938 23.5915 238.897 18.9544C236.77 14.1224 230.756 13.2564 230.756 13.2564C230.756 13.2564 230.49 20.063 227.738 25.3462C225.942 28.7954 223.463 31.7544 221.429 33.1422C220.347 33.8863 219.393 34.1843 218.726 33.8801C218.726 33.8801 218.606 33.738 218.366 33.5331C217.525 32.799 215.212 31.2931 211.714 32.8933C210.747 33.3345 209.972 33.9417 209.387 34.6519C207.258 37.2099 207.484 39.847 210.061 42.4264C211.529 43.8971 212.047 44.3422 212.168 44.1901C212.026 44.4616 211.745 50.7717 206.824 57.8813L218.315 65.0689C218.315 65.0689 238.765 74.3934 224.639 61.1206L226.686 52.6572C226.686 52.6572 235.429 54.7928 239.03 51.6968C239.041 51.6855 239.054 51.673 239.065 51.6617C243.416 46.6852 242.403 37.8823 242.403 37.8823C243.233 37.0628 243.602 35.9403 243.759 35.2402C243.847 34.8555 243.756 34.4557 243.504 34.1527Z" fill="#FFD4D4"/>
<path d="M228.285 68.9794C225.174 68.9794 218.306 65.8633 218.015 65.7313C217.986 65.7188 217.957 65.7037 217.931 65.6861L206.441 58.4985C206.272 58.3929 206.153 58.222 206.113 58.0271C206.072 57.8323 206.114 57.6286 206.227 57.4652C208.952 53.5295 210.677 49.213 211.354 44.6337C210.984 44.3546 210.451 43.8456 209.547 42.9406C206.69 40.0797 206.442 37.0515 208.829 34.1842C209.507 33.3609 210.376 32.7023 211.414 32.2297C212.537 31.7155 213.65 31.454 214.721 31.454C216.787 31.454 218.192 32.4119 218.847 32.9826C218.969 33.0869 219.066 33.1787 219.138 33.2504C219.189 33.2617 219.245 33.2666 219.306 33.2666C219.55 33.2666 220.098 33.1724 221.018 32.5389C223.048 31.1549 225.432 28.1984 227.095 25.0056C229.734 19.9348 230.027 13.2904 230.03 13.2238C230.037 13.0176 230.133 12.8239 230.293 12.6919C230.452 12.5599 230.66 12.5009 230.863 12.5311C231.125 12.5688 237.304 13.5141 239.568 18.6578C240.953 21.8066 241.099 25.0659 241.205 27.4467C241.255 28.5742 241.299 29.5484 241.467 30.0123C241.484 30.06 241.492 30.0815 241.504 30.1016C242.175 31.3636 243.52 33.0278 244.067 33.684C244.464 34.1604 244.612 34.7852 244.475 35.3973C244.301 36.1779 243.932 37.2551 243.166 38.1388C243.31 39.8609 243.688 47.4859 239.619 52.1406C239.607 52.1544 239.596 52.167 239.582 52.1796L239.55 52.211C239.538 52.2236 239.524 52.2362 239.51 52.2488C238.078 53.4794 235.822 54.1028 232.802 54.1028C230.485 54.1028 228.315 53.7358 227.232 53.5196L225.451 60.8793C230.31 65.4963 230.606 67.0624 230.242 67.98C230.061 68.4376 229.576 68.9794 228.285 68.9794ZM218.663 64.424C219.247 64.6867 225.606 67.5212 228.285 67.5212C228.772 67.5212 228.903 67.4183 228.903 67.4183C228.896 67.4057 229.115 66.3246 224.143 61.6524C223.952 61.4726 223.872 61.2037 223.933 60.9497L225.981 52.4863C226.026 52.2977 226.146 52.1356 226.31 52.035C226.476 51.9345 226.675 51.903 226.862 51.9495C226.891 51.9571 229.76 52.6471 232.8 52.6471C235.409 52.6471 237.392 52.1344 238.538 51.1627C242.601 46.4879 241.692 38.052 241.682 37.9678C241.657 37.7453 241.735 37.5228 241.895 37.3657C242.615 36.6555 242.928 35.6298 243.051 35.0817C243.089 34.9145 243.05 34.7462 242.946 34.6205C242.23 33.7619 240.923 32.1215 240.217 30.7916C240.165 30.6948 240.122 30.5955 240.087 30.4899C239.851 29.8388 239.804 28.8132 239.747 27.5147C239.646 25.2495 239.508 22.1472 238.232 19.2485C236.735 15.8458 233.045 14.5573 231.43 14.145C231.263 16.1738 230.631 21.3729 228.387 25.6832C226.594 29.1249 224.087 32.2145 221.842 33.7455C220.485 34.6782 219.31 34.9472 218.425 34.545C218.326 34.4997 218.238 34.4332 218.169 34.3502C218.169 34.3502 218.076 34.2434 217.896 34.09C217.389 33.6475 216.312 32.9146 214.722 32.9146C213.862 32.9146 212.953 33.1308 212.021 33.5569C211.187 33.9378 210.492 34.4621 209.954 35.1158C208.069 37.3809 208.275 39.6033 210.58 41.9124C210.909 42.2417 211.843 43.1769 212.218 43.4635C212.34 43.4711 212.461 43.5099 212.569 43.5803C212.851 43.7638 212.967 44.1147 212.862 44.4252C212.849 44.4905 212.834 44.601 212.813 44.7506C212.148 49.345 210.481 53.6867 207.854 57.6651L218.663 64.424Z" fill="#333333"/>
<path d="M217.675 40.2029C217.294 40.2029 216.973 39.9075 216.948 39.5216C216.88 38.4909 215.909 37.0866 214.569 36.6404C213.463 36.2709 212.363 36.6757 211.39 37.8095C211.127 38.1149 210.667 38.1502 210.362 37.8874C210.056 37.6247 210.021 37.1647 210.284 36.8592C212.134 34.7047 214.052 34.9309 215.03 35.2565C216.807 35.8498 218.288 37.6813 218.403 39.426C218.429 39.8283 218.125 40.1751 217.723 40.2015C217.706 40.2015 217.691 40.2029 217.675 40.2029Z" fill="#333333"/>
<path d="M213.97 39.6698C213.842 39.6698 213.713 39.6358 213.596 39.5654C213.25 39.358 213.139 38.9105 213.347 38.5648L214.81 36.1288C215.017 35.7843 215.466 35.6712 215.81 35.8799C216.156 36.0873 216.267 36.5348 216.059 36.8805L214.596 39.3165C214.459 39.5441 214.218 39.6698 213.97 39.6698Z" fill="#333333"/>
<path d="M238.589 43.9022C234.941 43.9022 232.537 41.2398 232.415 41.1015C232.149 40.7998 232.176 40.3386 232.479 40.0721C232.781 39.8056 233.24 39.8331 233.508 40.1348C233.631 40.2718 236.565 43.4885 240.676 42.0857C241.058 41.9562 241.472 42.1599 241.602 42.5408C241.731 42.9217 241.527 43.3364 241.146 43.4659C240.241 43.7751 239.385 43.9022 238.589 43.9022Z" fill="#333333"/>
<path d="M232.158 42.1058C231.987 42.1058 231.815 42.0455 231.676 41.9235C231.375 41.657 231.346 41.197 231.612 40.8941L233.133 39.1695C233.4 38.8679 233.86 38.8389 234.162 39.1054C234.464 39.3719 234.493 39.8319 234.227 40.1348L232.706 41.8595C232.56 42.023 232.359 42.1058 232.158 42.1058Z" fill="#333333"/>
<path d="M235.387 23.3C234.932 23.2949 234.454 23.3742 234.092 23.652C233.731 23.9298 233.527 24.445 233.713 24.8611C233.871 25.2143 234.249 25.4066 234.605 25.5562C235.281 25.8403 235.982 26.0692 236.695 26.2389C236.875 26.2816 237.059 26.3218 237.243 26.3168C237.61 26.3068 237.969 26.1093 238.171 25.8026C238.375 25.4972 238.419 25.0899 238.286 24.748C238.145 24.3872 237.833 24.1208 237.504 23.9159C236.871 23.5237 236.131 23.3088 235.387 23.3Z" fill="#333333"/>
<path d="M229.134 7.13976C228.951 7.11965 228.824 7.00031 228.647 6.97266C203.628 2.8346 196.886 14.8603 193.152 27.4153C189.419 39.9702 197.835 34.2459 197.835 34.2459C197.835 34.2459 198.844 37.7202 204.135 37.2074C205.466 37.0804 206.643 36.1616 207.67 34.8606C210.718 30.984 212.359 23.7009 212.359 23.7009C212.359 23.7009 213.257 29.7069 219.341 27.9597C225.424 26.2074 224.488 21.6093 224.488 21.6093C224.488 21.6093 225.969 23.9736 227.714 25.3789C228.892 26.328 230.175 26.8433 231.212 25.9018C232.726 24.5317 233.042 18.5132 232.19 13.6172C234.381 14.1539 237.418 15.6434 238.876 18.9556C240.916 23.5927 240.186 28.6233 240.78 30.2612C245.81 28.4247 242.454 23.398 242.454 23.398C242.454 23.398 247.135 25.3413 247.823 20.1448C248.467 15.2563 234.532 7.73935 229.134 7.13976Z" fill="#333333"/>
<path d="M221.943 15.2688C221.372 14.8439 220.555 15.2047 220.005 15.6547C219.487 16.0783 219.03 16.5773 218.487 16.9708C217.946 17.3642 217.285 17.6521 216.62 17.5666C215.941 17.4799 215.355 17.0072 214.988 16.429C214.621 15.8508 214.444 15.1745 214.31 14.502C214.105 13.4612 214.016 12.3035 214.597 11.4148C215.456 10.0987 217.442 9.99816 218.837 10.7197C219.413 11.0176 219.937 11.4261 220.554 11.6285C222.054 12.1225 223.627 11.2992 225.173 10.9799C225.442 11.7995 225.715 12.6341 225.732 13.4964C225.748 14.3587 225.471 15.2701 224.81 15.8232C224.148 16.3763 223.06 16.4442 222.456 15.8295C222.277 15.6485 222.147 15.4209 221.943 15.2688Z" fill="white"/>
<path d="M230.262 32.5313C231.532 32.9536 232.847 33.2377 234.178 33.3823C235.224 33.4966 236.935 33.8398 237.725 32.9133C239.087 31.3169 236.679 29.8048 235.429 29.395C233.718 28.8344 231.056 28.2411 229.325 28.9953C228.629 29.2983 228.054 30.0047 228.142 30.7576C228.251 31.6953 229.208 32.1642 229.998 32.4407C230.085 32.4709 230.173 32.5011 230.262 32.5313Z" fill="white"/>
<path d="M235.924 34.2684C235.408 34.2684 234.907 34.2056 234.465 34.1503C234.337 34.1339 234.215 34.1188 234.1 34.1063C232.711 33.9554 231.342 33.6575 230.034 33.2226C229.943 33.1924 229.851 33.161 229.76 33.1296C229.224 32.9423 227.596 32.3729 227.418 30.8419C227.3 29.8275 227.963 28.793 229.033 28.3267C229.668 28.0489 230.441 27.9093 231.331 27.9093C232.907 27.9093 234.553 28.3405 235.656 28.7012C236.561 28.9979 238.379 29.9381 238.781 31.3724C238.918 31.8626 238.943 32.6092 238.281 33.386C237.774 33.9793 237.004 34.2684 235.924 34.2684ZM231.331 29.3675C230.643 29.3675 230.066 29.4668 229.616 29.6628C229.21 29.8401 228.82 30.2649 228.866 30.6722C228.915 31.0933 229.365 31.4453 230.239 31.752C230.322 31.7809 230.407 31.8098 230.491 31.8374C231.703 32.2409 232.969 32.5162 234.257 32.6558C234.379 32.6683 234.509 32.6846 234.644 32.7022C235.044 32.7525 235.498 32.809 235.923 32.809C236.549 32.809 236.957 32.6885 237.17 32.4383C237.434 32.1291 237.419 31.9166 237.376 31.7658C237.197 31.1285 236.106 30.383 235.2 30.0851C234.382 29.8186 232.788 29.3675 231.331 29.3675Z" fill="#333333"/>
<path d="M234.073 31.1524C234.048 30.2649 234.748 29.5246 235.635 29.4995C236.523 29.4744 237.263 30.1744 237.288 31.0619C237.313 31.9493 236.613 32.6898 235.726 32.7149C234.838 32.74 234.098 32.0398 234.073 31.1524Z" fill="#333333"/>
<path d="M233.196 37.2375C232.898 37.2375 232.617 37.0539 232.511 36.7572C232.374 36.3789 232.569 35.9604 232.947 35.8234L235.292 34.9724C235.671 34.8341 236.089 35.0301 236.226 35.4085C236.363 35.7868 236.169 36.2055 235.79 36.3425L233.445 37.1935C233.363 37.2236 233.279 37.2375 233.196 37.2375Z" fill="#333333"/>
<path d="M226.689 52.6572C226.689 52.6572 221.775 50.4071 219.496 48.2187C219.496 48.2187 221.319 55.5106 225.33 57.5155L226.689 52.6572Z" fill="#363636"/>
<path d="M225.331 58.2459C225.219 58.2459 225.107 58.2207 225.004 58.1692C220.743 56.0386 218.867 48.7076 218.79 48.3972C218.71 48.0817 218.85 47.7524 219.131 47.589C219.413 47.4268 219.767 47.4683 220.003 47.6945C222.165 49.7699 226.946 51.9734 226.994 51.9948C227.32 52.1444 227.489 52.5089 227.393 52.8545L226.034 57.7141C225.975 57.924 225.826 58.0962 225.626 58.1842C225.532 58.2244 225.432 58.2459 225.331 58.2459ZM220.931 50.2776C221.672 52.2348 222.983 54.9801 224.887 56.3892L225.821 53.0531C224.835 52.5742 222.74 51.5107 220.931 50.2776Z" fill="#333333"/>
<path d="M243.081 95.5286C237.359 83.4526 232.748 67.1492 223.684 64.8828C214.619 62.6164 208.184 63.8107 208.184 63.8107" fill="white"/>
<path d="M243.082 96.2578C242.809 96.2578 242.547 96.1044 242.422 95.8404C241.168 93.1919 239.946 90.2957 238.766 87.4939C234.575 77.5522 230.242 67.2724 223.508 65.5893C214.723 63.3933 208.38 64.5158 208.317 64.5271C207.921 64.6 207.541 64.3386 207.467 63.9427C207.394 63.5467 207.656 63.1671 208.051 63.0929C208.32 63.0426 214.747 61.895 223.861 64.1739C231.303 66.0343 235.779 76.6547 240.109 86.9269C241.283 89.7137 242.499 92.5948 243.739 95.2144C243.912 95.5776 243.757 96.0126 243.393 96.1861C243.293 96.2351 243.186 96.2578 243.082 96.2578Z" fill="#363636"/>
<path d="M240.445 277.337C240.968 269.786 235.27 263.242 227.719 262.719C220.169 262.196 213.625 267.894 213.102 275.445C212.579 282.996 218.277 289.54 225.828 290.063C233.378 290.586 239.923 284.888 240.445 277.337Z" fill="#BAF3FA"/>
<path d="M226.789 290.926C226.453 290.926 226.114 290.863 225.778 290.841C221.932 290.574 218.42 288.802 215.888 285.893C213.357 282.986 212.11 279.254 212.375 275.407C212.897 267.872 219.214 261.962 226.76 261.962C227.094 261.962 227.435 261.971 227.771 261.994C235.71 262.543 241.722 269.498 241.173 277.437C240.653 284.974 234.334 290.926 226.789 290.926ZM226.76 263.415C219.978 263.415 214.298 268.721 213.83 275.495C213.592 278.953 214.713 282.297 216.988 284.91C219.263 287.524 222.421 289.095 225.879 289.335C226.181 289.356 226.487 289.366 226.788 289.366C233.569 289.366 239.25 284.061 239.717 277.287C240.211 270.149 234.806 263.941 227.669 263.447C227.367 263.426 227.062 263.415 226.76 263.415Z" fill="#333333"/>
<path d="M277.885 267.544C278.408 259.993 272.71 253.449 265.159 252.926C257.608 252.403 251.064 258.101 250.541 265.652C250.018 273.203 255.716 279.746 263.267 280.269C270.818 280.791 277.362 275.094 277.885 267.544Z" fill="#BAF3FA"/>
<path d="M264.227 280.903C263.891 280.903 263.552 280.956 263.216 280.932C255.277 280.383 249.265 273.508 249.814 265.569C250.336 258.033 256.653 252.146 264.199 252.146C264.534 252.146 264.874 252.167 265.21 252.189C269.056 252.456 272.568 254.207 275.1 257.115C277.632 260.023 278.879 263.679 278.613 267.526C278.091 275.063 271.772 280.903 264.227 280.903ZM264.198 253.622C257.417 253.622 251.736 258.928 251.268 265.702C250.774 272.839 256.18 279.048 263.317 279.542C263.619 279.563 263.925 279.573 264.226 279.573C271.007 279.573 276.686 274.267 277.155 267.493C277.394 264.035 276.273 260.692 273.998 258.078C271.723 255.465 268.565 253.894 265.107 253.654C264.806 253.633 264.5 253.622 264.198 253.622Z" fill="#333333"/>
<path d="M314.937 257.724C315.459 250.173 309.762 243.629 302.211 243.106C294.661 242.584 288.117 248.281 287.594 255.832C287.072 263.383 292.769 269.927 300.32 270.45C307.872 270.971 314.416 265.275 314.937 257.724Z" fill="#BAF3FA"/>
<path d="M301.282 270.797C300.946 270.797 300.607 270.993 300.271 270.969C292.332 270.42 286.32 263.617 286.869 255.677C287.39 248.142 293.708 242.291 301.254 242.291C301.588 242.291 301.929 242.329 302.263 242.352C306.11 242.618 309.622 244.378 312.154 247.287C314.685 250.194 315.933 253.713 315.667 257.559C315.144 265.095 308.826 270.797 301.282 270.797ZM301.253 243.802C294.47 243.802 288.791 249.108 288.323 255.882C287.829 263.019 293.234 269.228 300.372 269.722C300.673 269.743 300.98 269.753 301.28 269.753C308.062 269.753 313.741 264.447 314.21 257.673C314.449 254.215 313.328 250.872 311.052 248.259C308.777 245.645 305.62 244.074 302.162 243.834C301.86 243.812 301.554 243.802 301.253 243.802Z" fill="#333333"/>
<path d="M269.115 198.372C269.073 198.372 269.03 198.368 268.986 198.36C268.59 198.29 268.325 197.912 268.396 197.514C268.488 196.997 277.662 145.598 280.066 133.814C280.519 131.595 281.012 129.537 281.488 127.547C282.864 121.801 283.951 117.262 282.414 115.189C281.788 114.345 280.682 113.885 279.034 113.784C275.251 113.554 253.447 124.185 234.209 133.563C208.269 146.21 192.224 153.908 189.381 152.876C183.763 150.833 182.034 134.434 181.855 132.571C181.816 132.17 182.11 131.813 182.511 131.776C182.915 131.743 183.268 132.031 183.307 132.432C183.768 137.24 185.85 150.039 189.88 151.504C190.336 151.673 192.69 151.473 204.643 146.069C212.752 142.402 223.336 137.242 233.571 132.253C254.853 121.878 274.942 112.075 279.122 112.33C281.227 112.457 282.687 113.109 283.586 114.322C285.527 116.942 284.428 121.533 282.906 127.888C282.432 129.866 281.943 131.911 281.494 134.107C279.093 145.873 269.923 197.254 269.83 197.772C269.769 198.124 269.461 198.372 269.115 198.372Z" fill="#333333"/>
<path d="M317.227 188.964C314.319 186.898 303.011 184.81 296.805 182.894C291.61 172.501 260.649 129.615 256.837 125.015C252.897 120.259 249.036 111.237 249.036 111.237L217.949 121.14C217.949 121.14 234.337 146.374 243.107 158.511C251.876 170.648 283.791 198.413 283.791 198.413L284.143 198.305C288.902 203.498 295.362 205.735 299.631 206.672C304.399 207.718 312.07 214.109 314.64 214.018C317.208 213.927 317.79 211.686 317.43 210.72C317.43 210.72 319.647 212.618 322.474 211.874C325.301 211.13 323.796 208.208 323.796 208.208C323.796 208.208 326.092 207.427 327.256 206.031C328.42 204.635 326.674 202.099 326.674 202.099C326.674 202.099 328 202.996 329.603 199.885C331.206 196.775 320.991 191.64 317.227 188.964Z" fill="#FFD2D2"/>
<path d="M314.585 214.747C313.116 214.747 310.778 213.33 307.821 211.537C305.003 209.83 301.808 207.893 299.475 207.382C295.005 206.401 288.722 204.175 283.917 199.13C283.703 199.167 283.48 199.107 283.313 198.961C282.007 197.825 251.235 171.002 242.517 158.936C233.837 146.922 217.503 121.787 217.339 121.535C217.214 121.344 217.187 121.106 217.263 120.892C217.34 120.677 217.512 120.511 217.728 120.444L248.815 110.541C249.174 110.426 249.56 110.604 249.707 110.948C249.745 111.038 253.572 119.928 257.4 124.548C261.555 129.563 291.804 171.59 297.316 182.285C299.398 182.913 301.981 183.553 304.708 184.229C310.329 185.621 315.637 186.937 317.649 188.367C318.476 188.955 319.663 189.69 320.92 190.468C326.021 193.626 331.804 197.208 330.252 200.217C329.528 201.621 328.74 202.488 327.899 202.806C328.363 203.841 328.759 205.366 327.817 206.496C326.951 207.534 325.572 208.249 324.738 208.615C324.926 209.241 325.069 210.162 324.691 211.011C324.454 211.544 323.909 212.249 322.661 212.577C322.165 212.708 321.653 212.773 321.143 212.773C319.94 212.773 318.91 212.412 318.173 212.044C318.082 212.445 317.915 212.842 317.681 213.192C317.043 214.146 315.972 214.696 314.666 214.743L314.585 214.747ZM284.142 197.575C284.344 197.575 284.54 197.658 284.681 197.811C289.264 202.813 295.425 205.002 299.787 205.959C302.357 206.522 305.66 208.524 308.576 210.29C311.008 211.765 313.524 213.288 314.585 213.288L314.614 213.287C315.451 213.257 316.092 212.945 316.467 212.385C316.824 211.85 316.845 211.24 316.747 210.976C316.63 210.664 316.739 210.313 317.012 210.123C317.285 209.932 317.652 209.95 317.904 210.167C317.916 210.177 319.292 211.319 321.143 211.319C321.528 211.319 321.916 211.269 322.29 211.17C322.851 211.023 323.2 210.778 323.359 210.423C323.645 209.779 323.294 208.826 323.149 208.543C323.052 208.355 323.042 208.134 323.121 207.937C323.2 207.741 323.361 207.588 323.561 207.52C323.582 207.513 325.682 206.785 326.697 205.567C327.37 204.761 326.377 202.955 326.074 202.515C325.864 202.211 325.875 201.764 326.154 201.52C326.427 201.282 326.791 201.25 327.064 201.48C327.083 201.485 327.113 201.491 327.156 201.491C327.543 201.491 328.219 200.982 328.956 199.553C329.89 197.741 323.556 193.819 320.152 191.712C318.875 190.921 317.669 190.175 316.805 189.56C315.017 188.29 309.354 186.886 304.358 185.65C301.479 184.936 298.76 184.263 296.591 183.593C296.401 183.534 296.242 183.401 296.153 183.222C291.076 173.068 260.453 130.524 256.276 125.483C252.862 121.363 249.577 114.26 248.631 112.134L219.082 121.546C221.949 125.945 235.915 147.315 243.697 158.086C251.863 169.388 280.677 194.724 283.964 197.6C284.024 197.582 284.083 197.575 284.142 197.575Z" fill="#333333"/>
<path d="M317.428 211.45C317.242 211.45 317.056 211.379 316.914 211.237C311.935 206.281 307.456 203.859 307.411 203.836C307.055 203.646 306.922 203.204 307.112 202.849C307.302 202.495 307.743 202.36 308.099 202.55C308.288 202.652 312.814 205.098 317.942 210.205C318.227 210.489 318.229 210.951 317.945 211.236C317.803 211.378 317.615 211.45 317.428 211.45Z" fill="#333333"/>
<path d="M323.795 208.937C323.587 208.937 323.381 208.849 323.237 208.678C323.18 208.61 317.491 201.878 314.862 200.066C314.531 199.837 314.448 199.384 314.675 199.052C314.904 198.72 315.358 198.636 315.69 198.866C318.479 200.788 324.113 207.455 324.352 207.739C324.612 208.047 324.572 208.507 324.264 208.767C324.128 208.882 323.961 208.937 323.795 208.937Z" fill="#333333"/>
<path d="M326.674 202.828C326.493 202.828 326.312 202.761 326.171 202.627L317.845 194.685C317.553 194.407 317.543 193.946 317.821 193.654C318.099 193.363 318.56 193.351 318.852 193.63L327.178 201.572C327.47 201.85 327.48 202.311 327.202 202.603C327.059 202.752 326.866 202.828 326.674 202.828Z" fill="#333333"/>
<path d="M181.485 133.181C181.485 133.181 174.198 142.103 163.626 142.468C153.053 142.832 150.864 141.01 143.572 142.468C136.281 143.926 132.27 138.821 132.27 138.821C132.27 138.821 134.943 135.297 144.422 125.453C153.901 115.609 158.714 108.19 167.271 97.257C180.397 80.486 189.511 63.3494 195.709 60.4331C201.908 57.5169 207.377 56.0574 207.377 56.0574L216.127 61.8911C216.127 61.8911 225.971 62.2557 231.075 66.9959C236.18 71.736 245.295 93.9762 247.846 100.904C250.398 107.831 257.69 118.769 257.69 118.769C257.69 118.769 247.117 130.437 223.053 134.447L216.368 121.808L181.485 133.181Z" fill="#F2D270"/>
<path d="M140.991 143.458C135.053 143.458 131.829 139.442 131.695 139.271C131.49 139.011 131.487 138.644 131.687 138.38C131.798 138.234 134.495 134.71 143.896 124.946C150.712 117.868 155.129 112.017 160.244 105.242C162.245 102.591 164.315 99.8491 166.695 96.8071C171.725 90.3788 176.169 83.8926 180.088 78.1707C186.41 68.9418 191.403 61.6524 195.397 59.772C201.583 56.8607 207.132 55.3674 207.187 55.3523C207.388 55.2983 207.605 55.3335 207.779 55.4504L216.362 61.1723C217.871 61.2552 226.684 61.9239 231.57 66.4604C237.022 71.5236 246.481 95.0886 248.53 100.65C251.024 107.417 258.224 118.254 258.297 118.362C258.483 118.64 258.455 119.008 258.23 119.256C257.792 119.74 247.21 131.157 223.173 135.163C222.864 135.215 222.556 135.063 222.409 134.785L216.012 122.689L181.908 133.808C180.806 135.093 173.749 142.846 163.649 143.194C162.691 143.227 161.746 143.245 160.84 143.245C157.671 143.245 155.372 143.046 153.344 142.871C151.793 142.737 150.453 142.621 149.03 142.621C147.314 142.621 145.625 142.8 143.714 143.182C142.798 143.365 141.881 143.458 140.991 143.458ZM133.227 138.79C134.178 139.745 136.865 142.001 140.991 142.001C141.786 142.001 142.605 141.918 143.428 141.754C145.435 141.352 147.215 141.165 149.029 141.165C150.515 141.165 151.883 141.284 153.469 141.421C155.467 141.593 157.734 141.789 160.838 141.789C161.727 141.789 162.656 141.773 163.598 141.74C173.705 141.392 180.848 132.808 180.918 132.721C181.006 132.613 181.124 132.532 181.256 132.49L216.142 121.115C216.48 121.004 216.847 121.154 217.013 121.467L223.45 133.64C244.139 130.066 254.661 120.724 256.756 118.679C255.29 116.441 249.434 107.327 247.161 101.156C244.436 93.7588 235.443 72.0491 230.577 67.5314C225.734 63.0339 216.193 62.6253 216.098 62.6215C215.963 62.6165 215.832 62.5737 215.721 62.4996L207.248 56.8519C206.005 57.2064 201.247 58.6344 196.018 61.0943C192.382 62.8051 187.488 69.9511 181.291 78.9978C177.359 84.7372 172.903 91.2435 167.844 97.7083C165.471 100.74 163.405 103.477 161.408 106.123C156.265 112.936 151.823 118.818 144.947 125.959C137.502 133.689 134.249 137.536 133.227 138.79Z" fill="#333333"/>
<path d="M190.934 170.677C190.329 170.677 189.794 170.628 189.346 170.523C188.953 170.43 188.711 170.038 188.803 169.645C188.894 169.253 189.288 169.009 189.68 169.102C195.579 170.489 219.445 160.528 219.685 160.428C220.057 160.273 220.483 160.448 220.639 160.819C220.795 161.19 220.62 161.617 220.248 161.773C219.32 162.163 198.914 170.677 190.934 170.677Z" fill="#333333"/>
<path d="M164.717 241.638C164.401 241.638 164.11 241.432 164.018 241.112C163.905 240.725 164.126 240.32 164.513 240.207C183.938 234.527 235.007 218.356 238.01 211.839C238.159 211.516 238.092 211.367 238.067 211.31C234.865 204.197 203.855 168.098 203.542 167.735C203.279 167.429 203.314 166.969 203.62 166.706C203.925 166.444 204.385 166.479 204.648 166.784C205.932 168.276 236.11 203.407 239.397 210.713C239.564 211.084 239.689 211.686 239.337 212.45C238.379 214.528 233.954 217.256 225.806 220.788C219.497 223.523 210.985 226.727 200.508 230.31C182.685 236.405 165.099 241.557 164.924 241.609C164.854 241.629 164.785 241.638 164.717 241.638Z" fill="#333333"/>
<path d="M216.37 122.537C216.087 122.537 215.819 122.372 215.7 122.095C215.632 121.938 208.888 106.305 206.397 102.389C203.987 98.6019 199.079 96.1119 199.03 96.0867C198.67 95.907 198.524 95.4682 198.704 95.1087C198.884 94.7492 199.322 94.6033 199.682 94.7831C199.898 94.8912 204.997 97.4732 207.627 101.606C210.182 105.62 216.761 120.872 217.04 121.52C217.2 121.889 217.029 122.318 216.659 122.478C216.565 122.518 216.467 122.537 216.37 122.537Z" fill="#333333"/>
<path d="M166.905 143.561C166.831 143.561 166.756 143.55 166.681 143.526C166.297 143.402 166.087 142.99 166.212 142.607C166.376 142.097 170.298 130.045 173.614 125.622C176.843 121.316 184.04 115.761 190.531 110.893C196.093 106.721 197.539 101.146 197.553 101.091C197.651 100.7 198.047 100.461 198.436 100.56C198.827 100.658 199.065 101.054 198.967 101.445C198.905 101.693 197.377 107.582 191.405 112.061C184.994 116.869 177.893 122.347 174.779 126.499C171.608 130.727 167.637 142.934 167.598 143.057C167.499 143.365 167.212 143.561 166.905 143.561Z" fill="#333333"/>
</svg>
