<svg xmlns="http://www.w3.org/2000/svg" width="102" height="130" viewBox="0 0 102 130" fill="none">
  <path d="M20.8899 53.9573C20.3559 53.3336 19.8507 52.6916 19.3763 52.0341C16.3753 47.8856 14.5768 43.0974 14.3617 37.9988H8.76388C8.19101 37.9988 7.72726 37.5354 7.72726 36.9635C7.72726 36.3914 8.19101 35.9283 8.76388 35.9283H14.3617C15.0224 20.2468 30.6626 7.52868 50.1092 7.15098V1.03526C50.1092 0.463138 50.5732 0 51.1458 0C51.7184 0 52.1824 0.463138 52.1824 1.03526V7.15847C71.4766 7.6581 86.9532 20.3063 87.6347 35.8892H94.1473C94.7199 35.8892 95.1839 36.3526 95.1839 36.9244C95.1839 37.4965 94.7199 37.9597 94.1473 37.9597H87.6399C87.4296 43.0738 85.6288 47.875 82.6227 52.0338C82.1483 52.6914 81.6431 53.3334 81.1091 53.957C80.9201 53.3903 80.7128 52.8311 80.4924 52.2774C80.4222 52.1014 80.3498 51.9254 80.2747 51.7493C80.7721 51.1153 81.2413 50.4655 81.6765 49.7979C83.9934 46.2394 85.3771 42.2249 85.564 37.9597H77.2271L83.5323 44.2592C83.9388 44.663 83.9388 45.3204 83.5323 45.7242C83.1277 46.1278 82.4721 46.1278 82.0679 45.7242L74.0084 37.6749C73.801 37.4678 73.6999 37.196 73.705 36.9244C73.705 36.5804 73.8761 36.2749 74.1351 36.0859L82.0679 28.1635C82.4723 27.7597 83.1279 27.7597 83.5323 28.1635C83.9388 28.5676 83.9388 29.2249 83.5323 29.6285L77.2631 35.8892H85.5612C84.8719 21.3284 70.2349 9.718 52.1822 9.22898V17.9329L58.49 11.6334C58.8944 11.2296 59.5525 11.2296 59.9569 11.6334C60.361 12.0396 60.361 12.6946 59.9569 13.0981L51.897 21.1474C51.6896 21.3545 51.4175 21.4552 51.1456 21.4501C50.8008 21.4501 50.4923 21.2794 50.3059 21.0206L42.3731 13.0981C41.9687 12.6943 41.9687 12.0396 42.3731 11.6334C42.7777 11.2296 43.4359 11.2296 43.84 11.6334L50.1089 17.8964V9.2238C31.9087 9.5914 17.1032 21.2688 16.4347 35.928H25.6864L19.3786 29.6285C18.974 29.2246 18.974 28.5674 19.3786 28.1635C19.7827 27.7597 20.4383 27.7597 20.8427 28.1635L28.9023 36.2128C29.1097 36.4199 29.2105 36.6917 29.2056 36.9633C29.2056 37.3073 29.0371 37.6128 28.7753 37.8018L20.8427 45.7242C20.438 46.1278 19.7825 46.1278 19.3786 45.7242C18.974 45.3201 18.974 44.6628 19.3786 44.2592L25.6476 37.9985H16.4347C16.6291 42.2508 18.0128 46.2495 20.3219 49.7976C20.7574 50.4653 21.2237 51.115 21.7237 51.749C21.6488 51.9251 21.5763 52.1011 21.506 52.2772C21.2862 52.8317 21.0788 53.3906 20.8899 53.9573ZM81.1091 53.957C82.1742 57.1246 82.7497 60.5154 82.7497 64.038C82.7497 77.3357 74.6538 97.1012 63.1085 106.144C59.3817 109.061 55.2949 110.852 50.9981 110.852C46.7015 110.852 42.617 109.061 38.8905 106.144C27.3454 97.101 19.2493 77.3357 19.2493 64.038C19.2493 60.5154 19.8247 57.1249 20.8899 53.9573C27.3532 61.517 38.0092 66.5486 50.1478 66.7764V71.9216C50.1478 72.4934 50.6118 72.9568 51.1847 72.9568C51.7547 72.9568 52.221 72.4934 52.221 71.9216V66.766C64.2047 66.4476 74.7108 61.4393 81.1091 53.957ZM80.2749 51.7496C74.343 59.2914 64.0132 64.3667 52.2213 64.6955V55.0598L58.4905 61.3205C58.8949 61.7244 59.553 61.7244 59.9574 61.3205C60.3615 60.9167 60.3615 60.262 59.9574 59.8584L52.0243 51.936C51.8353 51.6745 51.5295 51.5065 51.185 51.5065C50.9125 51.5013 50.6383 51.6023 50.4306 51.8094L42.3736 59.8584C41.9692 60.2622 41.9692 60.9169 42.3736 61.3205C42.7783 61.7244 43.4364 61.7244 43.8405 61.3205L50.1481 55.021V64.7033C38.2012 64.4729 27.7161 59.3717 21.7243 51.7496C25.4718 42.867 33.1558 36.0396 42.5888 33.4542C42.1351 34.5335 41.8865 35.7215 41.8865 36.9638C41.8865 41.9873 45.9682 46.0662 50.9981 46.0662C56.0285 46.0662 60.1127 41.9873 60.1127 36.9638C60.1127 35.7215 59.8638 34.5335 59.4102 33.4542C68.8437 36.0396 76.5277 42.8672 80.2749 51.7496ZM26.5162 77.9775C33.7258 82.0669 40.6218 81.8728 47.2459 77.9674C47.7381 77.6774 47.9014 77.0406 47.6111 76.549C47.321 76.0574 46.6834 75.8943 46.1909 76.1842C40.233 79.6961 34.0263 79.8569 27.5396 76.1764C27.0421 75.8943 26.4099 76.0677 26.1274 76.5648C25.8448 77.0613 26.0185 77.693 26.5162 77.9775ZM41.7725 97.7976H61.463C62.0356 97.7976 62.4993 97.3316 62.4993 96.7624C62.4993 96.1902 62.0356 95.7271 61.463 95.7271H41.7725C41.1996 95.7271 40.7356 96.1902 40.7356 96.7624C40.7356 97.3316 41.1996 97.7976 41.7725 97.7976ZM56.0051 77.9775C63.2147 82.0669 70.111 81.8728 76.735 77.9674C77.2273 77.6774 77.3906 77.0406 77.1003 76.549C76.81 76.0574 76.1752 75.8943 75.6801 76.1842C69.7222 79.6961 63.5154 79.8569 57.0288 76.1764C56.5313 75.8943 55.8991 76.0677 55.6165 76.5648C55.334 77.0613 55.5077 77.693 56.0051 77.9775ZM50.9981 29.9319C54.8856 29.9319 58.0395 33.0817 58.0395 36.9638C58.0395 40.8433 54.8856 43.9957 50.9981 43.9957C47.1134 43.9957 43.9597 40.8433 43.9597 36.9638C43.9597 33.0817 47.1134 29.9319 50.9981 29.9319ZM38.5952 108.515C42.4439 111.287 46.6315 112.922 50.9983 112.922C55.3677 112.922 59.5556 111.287 63.4016 108.515C66.6333 114.16 72.7441 118.655 81.8536 118.365C95.5678 117.93 100.212 126.179 101.5 129.406C101.5 129.406 12.9083 129.406 0.5 129.406C1.78806 126.179 6.43221 117.93 20.1464 118.365C29.2551 118.655 35.3662 114.16 38.5952 108.515Z" fill="#057988"/>
</svg>