<svg xmlns="http://www.w3.org/2000/svg" width="108" height="108" viewBox="0 0 124 108" fill="none">
  <path d="M61.9998 103.401C57.8556 105.03 53.1753 106.31 48.5708 106.915C42.7505 107.68 37.0549 107.361 32.6849 105.377C32.2206 105.166 32.0068 104.624 32.2014 104.154C32.2014 104.154 33.1716 101.801 33.2353 99.1754C33.2944 96.749 32.5523 94.0443 29.1987 93.0304C23.3176 91.2536 21.0772 93.3405 17.5689 94.1944C15.3935 94.7234 12.2193 94.5536 10.4354 92.6316C9.24468 91.3494 8.5818 89.2626 9.36304 85.9848C9.85614 83.9151 9.88321 82.7683 9.51559 82.0372C9.17824 81.3655 8.5161 81.1294 7.8355 80.7602C7.06016 80.339 5.79098 78.9118 6.05328 77.1132C6.16277 76.36 6.53752 75.5135 7.4039 74.6645C6.74446 74.3496 6.00628 73.9164 5.43936 73.37C4.9027 72.853 4.51245 72.2379 4.37441 71.5465C4.23268 70.8378 4.33873 70.0331 4.90245 69.1472C4.91476 69.1275 4.9278 69.1078 4.94133 69.0906C4.94133 69.0906 5.26195 68.6527 5.4834 68.0521C5.65072 67.5992 5.79049 67.0384 5.56042 66.5264C5.42976 66.236 5.17509 65.9799 4.77253 65.7611C4.3776 65.7562 3.60375 65.7146 2.84883 65.483C1.9923 65.2198 1.18645 64.7127 0.778727 63.881C0.375926 63.0616 0.307273 61.8433 1.27429 60.0811C3.79616 55.4815 6.19772 52.8681 7.63545 50.764C8.2784 49.8215 8.72156 49.0119 8.80473 48.1258C8.22353 47.9806 7.39554 47.7223 6.54614 47.2868C4.89335 46.4352 3.18987 44.9292 2.87541 42.3845C2.82177 41.9488 3.07103 41.5358 3.47949 41.3832C3.88745 41.2281 4.34832 41.3733 4.59512 41.7327C4.59512 41.7327 6.01784 43.8269 8.42063 43.7947C7.89676 42.446 7.02005 40.116 6.43049 38.1618C6.01243 36.7764 5.75358 35.5558 5.78852 34.9158C6.66572 18.8016 16.2948 9.5315 27.4593 4.64168C38.5293 -0.203835 51.1106 -0.705998 58.0203 0.65498C59.3921 0.925748 60.7186 1.24547 62.0003 1.61249C63.282 1.24572 64.6085 0.925748 65.9803 0.65498C72.8899 -0.705752 85.4713 -0.203589 96.5413 4.64168C107.706 9.5315 117.335 18.8016 118.212 34.9158C118.247 35.5558 117.988 36.7764 117.57 38.1618C116.981 40.1157 116.104 42.446 115.58 43.7947C117.983 43.8269 119.405 41.7327 119.405 41.7327C119.652 41.3733 120.113 41.2281 120.521 41.3832C120.929 41.5358 121.179 41.949 121.125 42.3845C120.81 44.9292 119.107 46.4352 117.454 47.2868C116.605 47.7225 115.777 47.9806 115.195 48.1258C115.279 49.0119 115.722 49.8215 116.365 50.764C117.802 52.8681 120.204 55.4815 122.726 60.0811C123.693 61.8431 123.624 63.0613 123.221 63.881C122.814 64.7127 122.008 65.2196 121.152 65.483C120.397 65.7144 119.622 65.7562 119.228 65.7611C118.825 65.9802 118.57 66.2362 118.44 66.5264C118.21 67.0384 118.35 67.5992 118.517 68.0521C118.739 68.6524 119.059 69.0906 119.059 69.0906C119.073 69.1078 119.086 69.1275 119.098 69.1472C119.662 70.0331 119.768 70.8378 119.626 71.5465C119.488 72.2382 119.098 72.8533 118.561 73.37C117.994 73.9164 117.256 74.3494 116.597 74.6672C117.463 75.5135 117.838 76.3602 117.947 77.1134C118.209 78.9123 116.94 80.3393 116.165 80.7604C115.484 81.1294 114.822 81.3657 114.485 82.0375C114.117 82.7685 114.144 83.9154 114.638 85.985C115.419 89.2628 114.756 91.3497 113.565 92.6319C111.781 94.5538 108.607 94.7237 106.432 94.1947C102.923 93.3406 100.683 91.2539 94.8019 93.0307C91.4486 94.0446 90.7062 96.749 90.7653 99.1756C90.8292 101.802 91.7994 104.154 91.7994 104.154C91.9938 104.624 91.7803 105.166 91.3157 105.377C86.9457 107.361 81.2501 107.681 75.4298 106.915C70.8248 106.31 66.144 105.03 61.9998 103.401ZM61.9998 3.5891C60.9157 3.26172 59.7968 2.97125 58.643 2.71771C40.8098 9.39436 32.8219 25.8207 33.4164 42.0308C34.0727 59.9291 42.1801 68.247 48.6345 74.6354C50.7042 76.6829 52.5993 78.5239 53.9868 80.4336C55.2836 82.2201 56.1263 84.0609 56.1773 86.2265C56.1778 86.2511 56.1795 86.2782 56.1822 86.3028C56.1822 86.3028 56.5304 90.2329 52.5331 97.3349C52.2971 97.7533 52.4128 98.2826 52.8021 98.5654C54.616 99.8821 56.8965 101.167 59.4673 102.331C60.3325 102.026 61.1785 101.703 62.0003 101.369C59.1684 100.209 56.6258 98.8854 54.5958 97.5123C58.3146 90.6021 58.1044 86.5834 58.068 86.1477C57.9371 81.2111 54.3786 77.6577 49.9657 73.2894C43.7613 67.1496 35.9383 59.1665 35.3077 41.9621C34.7124 25.7274 43.1412 9.26144 61.9998 3.5891ZM61.9998 101.368C62.8216 101.703 63.6676 102.025 64.533 102.33C67.1036 101.166 69.3843 99.8818 71.198 98.5651C71.5875 98.2823 71.7032 97.7531 71.4672 97.3346C67.4697 90.2324 67.8181 86.3026 67.8181 86.3026C67.8206 86.278 67.8223 86.2509 67.8226 86.2263C67.8735 84.0606 68.7165 82.2199 70.013 80.4333C71.4005 78.5237 73.2959 76.6829 75.3653 74.6352C81.8195 68.2467 89.9274 59.9288 90.5834 42.0305C91.1777 25.8204 83.1898 9.39412 65.3568 2.71747C64.203 2.97101 63.0844 3.26172 61.9998 3.5891C80.8586 9.26144 89.2877 25.7274 88.6924 41.9619C88.0615 59.1662 80.2385 67.1492 74.0344 73.2892C69.621 77.6574 66.0625 81.2111 65.9316 86.1499C65.8957 86.5807 65.6846 90.6018 69.404 97.5121C67.3743 98.8854 64.832 100.209 61.9998 101.368ZM55.9578 54.1312C55.9605 54.141 55.9632 54.1508 55.9659 54.1631C56.0675 54.5545 56.1212 54.9654 56.1212 55.3811V62.1513C56.1212 63.116 56.5048 64.0437 57.1876 64.7253C57.8702 65.4093 58.7963 65.7934 59.7621 65.7934H65.1927C66.1585 65.7934 67.0844 65.4093 67.7675 64.7253C68.45 64.0434 68.8339 63.116 68.8339 62.1513C68.8339 61.4719 68.8339 60.7066 68.8341 59.9069C68.8344 58.4034 68.8359 56.7817 68.8393 55.3838V55.3811C68.8393 54.9654 68.8924 54.5545 68.9946 54.1631C68.9973 54.1508 69.0002 54.141 69.0027 54.1312C69.3226 52.9302 70.0969 51.8818 71.1889 51.2248H71.1897C76.102 48.2619 79.3899 42.8724 79.3899 36.7225C79.3899 27.3859 71.8115 19.8039 62.4774 19.8039C53.1431 19.8039 45.5652 27.3862 45.5652 36.7225C45.5652 42.8724 48.853 48.2619 53.7691 51.2199C54.8623 51.8769 55.6377 52.9277 55.9578 54.1312ZM58.0134 60.8519H66.9412C66.9412 61.3097 66.9412 61.7454 66.9412 62.1513C66.9412 62.6138 66.7569 63.0591 66.4291 63.3867C66.1011 63.7166 65.6563 63.8985 65.1927 63.8985H59.7621C59.2985 63.8985 58.8537 63.7166 58.5257 63.3867C58.1977 63.0593 58.0136 62.6138 58.0136 62.1513L58.0134 60.8519ZM57.9927 54.8524H66.9678C66.9537 55.0269 66.9471 55.2044 66.9471 55.3811C66.9441 56.4888 66.9427 57.7388 66.9419 58.9594H58.0134V55.3811C58.0134 55.2041 58.0065 55.0269 57.9927 54.8524ZM67.3964 52.9597H57.5643C57.0328 51.5768 56.0523 50.383 54.744 49.598C50.3781 46.9723 47.4574 42.1861 47.4574 36.7225C47.4574 28.4293 54.1874 21.6961 62.4774 21.6961C70.7672 21.6961 77.4974 28.4293 77.4974 36.7225C77.4974 42.1858 74.5762 46.9723 70.2128 49.6029C68.907 50.3882 67.9274 51.5793 67.3964 52.9597ZM111.993 37.6825C107.721 41.957 100.794 41.957 96.5216 37.6825C92.7645 33.9245 92.7645 27.8312 96.5216 24.0737C99.6889 20.904 104.824 20.904 107.991 24.0737C110.569 26.6529 110.569 30.8338 107.991 33.4127C106.003 35.4011 102.779 35.4011 100.79 33.4127C99.3916 32.0126 99.3916 29.7436 100.79 28.3432C101.6 27.5336 102.912 27.5336 103.722 28.3432C103.942 28.5645 103.942 28.9216 103.722 29.1405C103.352 29.5095 103.352 30.1098 103.722 30.4791C104.091 30.8483 104.691 30.8483 105.06 30.4791C106.019 29.5193 106.019 27.9639 105.06 27.0041C103.511 25.4563 101.001 25.4563 99.4527 27.0041C97.3147 29.1427 97.3147 32.6128 99.4527 34.7513C102.18 37.478 106.602 37.478 109.329 34.7513C112.646 31.4317 112.646 26.052 109.329 22.7349C105.423 18.8269 99.0897 18.8269 95.1835 22.7349C90.688 27.2333 90.688 34.5249 95.1835 39.0211C100.195 44.034 108.32 44.034 113.332 39.0211C113.701 38.6519 113.701 38.0515 113.332 37.6825C112.962 37.3133 112.363 37.3133 111.993 37.6825Z" fill="#057988"/>
</svg>