<svg width="664" height="638" viewBox="0 0 664 638" fill="none" xmlns="http://www.w3.org/2000/svg">
<path d="M662.279 103.039C661.762 96.7466 658.001 91.1811 652.354 88.3578L604.184 64.2729C601.635 62.9983 598.868 62.3651 596.107 62.3651C592.804 62.3651 589.509 63.2702 586.609 65.0638C581.285 68.3541 578.042 74.1688 578.042 80.4298V92.4411H550.578V20.1759C550.578 10.199 542.49 2.11328 532.513 2.11328H429.538C419.562 2.11328 411.474 10.2011 411.474 20.1759V123.15C411.474 133.127 419.562 141.215 429.538 141.215C439.515 141.215 447.603 133.127 447.603 123.15V38.2406H514.45V110.506C514.45 120.483 522.538 128.571 532.515 128.571H578.042V139.44C578.042 146.229 581.849 152.446 587.897 155.531C593.946 158.616 601.212 158.051 606.709 154.065L654.879 119.142C659.989 115.434 662.794 109.331 662.279 103.039Z" fill="#0BB4CA"/>
<path d="M596.105 158.707C593.076 158.707 590.049 157.978 587.349 156.604C580.865 153.295 576.836 146.719 576.836 139.44V129.775H532.513C521.888 129.775 513.244 121.131 513.244 110.506V39.4449H448.805V123.151C448.805 133.775 440.161 142.419 429.536 142.419C418.912 142.419 410.268 133.775 410.268 123.151V20.1761C410.268 9.55149 418.912 0.907227 429.536 0.907227H532.511C543.135 0.907227 551.78 9.55149 551.78 20.1761V91.2372H576.836V80.4299C576.836 73.7039 580.253 67.5758 585.974 64.0384C589.02 62.1555 592.524 61.1612 596.105 61.1612C599.08 61.1612 602.059 61.8649 604.722 63.1955L652.892 87.2806C658.875 90.272 662.931 96.2714 663.479 102.939C664.025 109.607 661 116.188 655.584 120.113L607.415 155.037C604.105 157.439 600.192 158.707 596.105 158.707ZM447.603 37.0368H514.45C515.115 37.0368 515.654 37.5765 515.654 38.2408V110.506C515.654 119.802 523.217 127.365 532.513 127.365H578.04C578.704 127.365 579.244 127.904 579.244 128.569V139.438C579.244 145.807 582.769 151.562 588.443 154.458C590.805 155.662 593.454 156.299 596.103 156.299C599.682 156.299 603.103 155.191 606.001 153.09L654.171 118.166C658.91 114.731 661.557 108.972 661.077 103.139C660.6 97.3052 657.05 92.0553 651.814 89.4375L603.645 65.3524C601.315 64.1878 598.708 63.5734 596.107 63.5734C592.972 63.5734 589.908 64.4432 587.243 66.0915C582.236 69.1846 579.246 74.5468 579.246 80.4341V92.4455C579.246 93.1098 578.706 93.6496 578.042 93.6496H550.578C549.913 93.6496 549.374 93.1098 549.374 92.4455V20.1803C549.374 10.8843 541.811 3.32159 532.513 3.32159H429.538C420.242 3.32159 412.68 10.8843 412.68 20.1803V123.155C412.68 132.451 420.242 140.013 429.538 140.013C438.834 140.013 446.397 132.451 446.397 123.155V38.2408C446.399 37.5765 446.937 37.0368 447.603 37.0368Z" fill="#333333"/>
<path d="M144.51 70.7954H91.5244V57.5489C91.5244 50.7586 87.7171 44.5433 81.67 41.4584C75.6228 38.3736 68.3549 38.9403 62.8579 42.924L14.688 77.8474C9.5771 81.553 6.77044 87.6582 7.28735 93.9483C7.80218 100.24 11.5658 105.806 17.2124 108.629L65.3822 132.714C67.9314 133.989 70.6986 134.622 73.4596 134.622C76.7624 134.622 80.057 133.717 82.957 131.925C88.2818 128.635 91.5244 122.82 91.5244 116.559V106.925H126.448V347.776C126.448 357.753 134.536 365.841 144.512 365.841C154.489 365.841 162.577 357.753 162.577 347.776V88.8602C162.575 78.8833 154.487 70.7954 144.51 70.7954Z" fill="#448189"/>
<path d="M144.51 367.043C133.885 367.043 125.241 358.399 125.241 347.774V108.129H92.7275V116.559C92.7275 123.287 89.3106 129.414 83.5893 132.951C80.5439 134.834 77.0397 135.828 73.4588 135.828C70.4839 135.828 67.503 135.124 64.8437 133.794L16.6738 109.709C10.6909 106.717 6.63463 100.718 6.08659 94.05C5.54062 87.3821 8.5652 80.8014 13.9813 76.8758L62.1513 41.9524C65.4603 39.5526 69.3713 38.2842 73.4629 38.2842C76.4917 38.2842 79.5184 39.0108 82.2171 40.3893C88.7023 43.6983 92.7296 50.2748 92.7296 57.5531V69.5955H144.512C155.136 69.5955 163.78 78.2397 163.78 88.8643V347.779C163.778 358.399 155.134 367.043 144.51 367.043ZM91.5235 105.719H126.447C127.111 105.719 127.651 106.259 127.651 106.923V347.774C127.651 357.07 135.214 364.633 144.51 364.633C153.806 364.633 161.368 357.07 161.368 347.774V88.8602C161.368 79.5641 153.806 72.0015 144.51 72.0015H91.5235C90.8593 72.0015 90.3195 71.4618 90.3195 70.7975V57.5509C90.3195 51.182 86.7945 45.4275 81.121 42.5336C78.7586 41.3296 76.1098 40.6923 73.4609 40.6923C69.882 40.6923 66.4588 41.8029 63.5629 43.9016L15.3929 78.8251C10.6536 82.2608 8.00683 88.0193 8.48637 93.8527C8.96384 99.6861 12.5136 104.936 17.7491 107.554L65.9189 131.639C68.2481 132.803 70.8535 133.418 73.4588 133.418C76.5934 133.418 79.6575 132.548 82.323 130.9C87.3302 127.805 90.3195 122.445 90.3195 116.557V106.923C90.3195 106.259 90.8572 105.719 91.5235 105.719Z" fill="#333333"/>
<path d="M282.252 317.248C282.252 317.248 201.812 289.91 220.213 195.275C238.614 100.639 355.856 103.795 355.856 103.795L397.391 235.232L338.507 322.506L282.252 317.248Z" fill="#363636"/>
<path d="M209.133 1.43018L219.154 43.308L259.234 51.0158L219.667 61.8065L208.106 102.916L196.543 60.7789L160.061 53.5859L198.598 44.0803L209.133 1.43018Z" fill="white"/>
<path d="M208.107 103.797H208.103C207.561 103.797 207.088 103.595 206.945 103.072L195.581 61.736L159.829 54.7277C159.275 54.6177 158.872 54.1589 158.858 53.5942C158.845 53.0296 159.225 52.5418 159.773 52.4069L197.607 43.0796L207.966 1.02542C208.099 0.487756 208.582 0 209.135 0H209.137C209.693 0 210.175 0.496069 210.306 1.03581L220.145 42.2161L259.464 49.8057C260.014 49.9116 260.418 50.3973 260.439 50.9557C260.46 51.5162 260.092 52.0228 259.553 52.1702L220.644 62.7844L209.265 103.076C209.12 103.597 208.647 103.797 208.107 103.797ZM165.621 53.4552L196.777 59.5979C197.225 59.6871 197.584 60.0193 197.705 60.4615L208.119 98.4178L218.507 61.4829C218.622 61.076 218.941 60.7583 219.35 60.6462L253.912 51.2214L218.925 44.4934C218.46 44.4041 218.09 44.0512 217.98 43.5904L209.112 6.52872L199.766 44.3688C199.658 44.8027 199.32 45.1411 198.886 45.2491L165.621 53.4552Z" fill="#333333"/>
<path d="M601.371 339.089L607.588 365.075L632.46 369.858L607.908 376.555L600.733 402.064L593.559 375.918L570.919 371.453L594.834 365.555L601.371 339.089Z" fill="white"/>
<path d="M600.734 402.731H600.729C600.188 402.731 599.714 402.635 599.571 402.114L592.594 376.821L570.687 372.567C570.132 372.457 569.73 372.011 569.715 371.449C569.703 370.884 570.083 370.402 570.631 370.267L593.839 364.55L600.202 339.041C600.335 338.504 600.819 338.377 601.371 338.377H601.375C601.931 338.377 602.413 338.514 602.542 339.056L608.579 364.164L632.686 368.739C633.236 368.845 633.641 369.285 633.662 369.846C633.683 370.406 633.315 370.89 632.776 371.038L608.882 377.546L601.892 402.127C601.747 402.646 601.273 402.731 600.734 402.731ZM576.479 371.322L593.792 374.735C594.24 374.824 594.599 375.156 594.72 375.598L600.748 397.566L606.75 376.229C606.864 375.823 607.184 375.505 607.592 375.393L627.142 370.062L607.364 366.259C606.899 366.169 606.53 365.817 606.42 365.356L601.354 344.185L596.005 365.841C595.897 366.275 595.558 366.614 595.124 366.722L576.479 371.322Z" fill="#333333"/>
<path d="M79.2203 265.692L84.0655 285.945L103.448 289.671L84.3146 294.89L78.7221 314.771L73.1315 294.394L55.4883 290.915L74.1259 286.319L79.2203 265.692Z" fill="white"/>
<path d="M78.7215 315.541H78.7173C78.1755 315.541 77.7022 315.394 77.559 314.873L72.1657 295.324L55.253 292.044C54.6987 291.934 54.2961 291.481 54.2815 290.919C54.2691 290.354 54.6489 289.87 55.197 289.736L73.1268 285.32L78.0468 266.02C78.1796 265.482 78.6612 265.723 79.2155 265.723H79.2197C79.776 265.723 80.2577 265.491 80.3864 266.033L85.0509 285.22L103.67 288.648C104.22 288.754 104.625 289.148 104.646 289.707C104.666 290.267 104.299 290.728 103.759 290.875L85.2834 295.895L79.8777 314.892C79.7344 315.409 79.2612 315.541 78.7215 315.541ZM61.0491 290.784L73.3656 293.213C73.814 293.302 74.1731 293.634 74.2935 294.076L78.7381 310.273L83.1556 294.566C83.2698 294.159 83.5895 293.842 83.9985 293.73L98.1294 289.877L83.8407 287.128C83.3757 287.039 83.0062 286.686 82.8962 286.225L79.2031 270.791L75.2962 286.607C75.1882 287.041 74.8498 287.379 74.4159 287.487L61.0491 290.784Z" fill="#333333"/>
<path d="M459.525 246.491C459.525 246.491 468.576 227.692 482.85 235.352C497.124 243.01 483.545 284.091 460.569 281.654C437.592 279.214 459.525 246.491 459.525 246.491Z" fill="white"/>
<path d="M462.527 282.96C461.838 282.96 461.136 282.922 460.443 282.849C455.201 282.293 451.686 280.18 449.997 276.568C445.187 266.277 457.478 247.399 458.479 245.892C459.083 244.669 465.456 232.313 476.07 232.313C478.501 232.313 480.974 232.977 483.419 234.291C489.394 237.497 491.441 246.116 488.758 256.786C485.591 269.391 476.029 282.96 462.527 282.96ZM476.07 234.721C466.637 234.721 460.669 246.89 460.609 247.015C460.584 247.067 460.555 247.114 460.524 247.162C460.397 247.351 447.842 266.282 452.176 275.548C453.503 278.382 456.289 279.987 460.694 280.454C461.304 280.518 461.919 280.551 462.523 280.551C474.192 280.551 483.378 268.299 486.419 256.197C488.781 246.797 487.156 239.031 482.277 236.413C480.189 235.29 478.101 234.721 476.07 234.721Z" fill="#333333"/>
<path d="M540.291 605.759C540.291 605.759 554.216 368.337 496.427 347.449C438.637 326.561 316.794 349.537 279.195 340.486C241.598 331.435 153.869 312.635 112.093 347.449C70.3172 382.262 67.5312 603.519 67.5312 603.519" fill="white"/>
<path d="M540.29 606.172C540.267 606.172 540.242 606.172 540.219 606.172C539.555 606.172 539.048 605.958 539.088 605.294C539.123 604.7 542.524 545.48 538.826 484.292C533.96 403.744 519.157 356.844 496.017 348.482C461.841 336.128 405.849 339.23 356.45 341.922C323.1 343.741 294.296 345.335 278.914 341.632C258.723 336.772 228.282 330.154 197.155 328.709C159 326.936 130.641 333.554 112.864 348.368C96.0307 362.395 83.0583 410.908 75.3462 488.655C69.5004 547.589 68.7426 602.981 68.7364 603.533C68.7281 604.197 68.178 604.723 67.5179 604.723C66.8536 604.714 66.3199 604.169 66.3282 603.504C66.3344 602.95 67.0943 547.454 72.9484 488.421C80.8349 408.913 93.745 361.17 111.322 346.525C129.574 331.314 158.491 324.516 197.265 326.318C228.595 327.773 259.188 334.434 279.476 339.317C294.517 342.937 323.156 341.376 356.319 339.57C405.948 336.865 462.198 333.799 496.837 346.319C510.409 351.225 521.171 368.044 528.822 396.31C534.878 418.68 539.053 448.307 541.23 484.366C544.934 545.696 541.527 604.843 541.492 605.437C541.455 606.074 540.923 606.172 540.29 606.172Z" fill="#333333"/>
<path d="M467.181 190.788C465.886 134.946 398.952 112.814 398.952 112.814C378.989 132.712 332.198 142.174 332.198 142.174L291.408 231.913C286.418 224.84 273.572 210.232 253.969 212.922C228.283 216.447 219.722 261.775 245.408 281.417C257.336 290.539 274.985 292.588 283.295 292.53L267.568 339.336C279.401 384.589 355.789 395.486 355.789 395.486L356.185 394.745L371.099 366.944C469.971 380.865 465.093 277.826 465.093 269.472C465.093 261.117 467.881 220.73 467.181 190.788Z" fill="#FFD2D2"/>
<path d="M355.786 396.69C355.73 396.69 355.672 396.686 355.616 396.677C355.423 396.65 336.135 393.836 315.658 385.497C288.37 374.382 271.337 358.526 266.401 339.641C266.34 339.415 266.349 339.176 266.423 338.954L281.621 293.722C270.833 293.489 255.201 290.427 244.674 282.375C229.345 270.652 226.389 250.613 230.261 235.955C233.862 222.316 242.664 213.261 253.804 211.731C255.438 211.506 257.082 211.392 258.691 211.392C274.603 211.392 285.499 222.083 291.162 229.542L331.101 141.676C331.261 141.326 331.581 141.07 331.958 140.993C332.423 140.9 378.627 131.371 398.102 111.961C398.423 111.64 398.899 111.53 399.331 111.671C399.499 111.727 416.443 117.409 433.299 129.891C455.715 146.493 467.849 167.54 468.386 190.76C468.876 211.722 467.679 237.414 466.883 254.416C466.555 261.437 466.298 266.982 466.298 269.471C466.298 269.747 466.304 270.127 466.31 270.604C466.794 304.66 457.901 332.946 441.269 349.815C428.271 362.997 410.553 369.925 388.61 369.925C388.608 369.925 388.613 369.925 388.61 369.925C383.275 369.925 377.61 369.281 371.764 368.495L356.851 396.177C356.637 396.572 356.226 396.69 355.786 396.69ZM268.823 339.378C274.951 362.068 298.142 375.762 316.567 383.267C334.381 390.522 351.254 393.537 355.128 394.166L370.035 366.375C370.274 365.931 370.766 365.682 371.264 365.752C377.295 366.601 383.128 367.031 388.604 367.033C409.88 367.033 427.021 360.589 439.55 347.883C455.725 331.477 464.372 304.045 463.898 270.639C463.892 270.147 463.886 269.757 463.886 269.473C463.886 266.928 464.133 261.634 464.475 254.304C465.266 237.337 466.464 211.695 465.976 190.816C465.318 162.456 447.062 143.084 431.863 131.828C417.223 120.985 402.561 115.385 399.26 114.199C380.024 132.773 338.78 142.015 333.04 143.231L292.503 232.413C292.325 232.806 291.949 233.073 291.519 233.113C291.09 233.156 290.67 232.961 290.423 232.608C285.468 225.583 274.758 213.8 258.691 213.8C257.19 213.8 255.656 213.906 254.132 214.116C243.989 215.509 235.936 223.902 232.59 236.569C228.922 250.455 231.689 269.066 246.137 280.114C256.625 288.133 272.518 290.631 282.942 290.631H283.284C283.681 290.631 284.04 291.16 284.268 291.475C284.496 291.791 284.559 292.37 284.434 292.74L268.823 339.378Z" fill="#333333"/>
<path d="M370.612 367.313L355.699 395.114C340.868 380.022 323.615 345.036 323.615 345.036C340.679 363.834 370.612 367.313 370.612 367.313Z" fill="#333333"/>
<path d="M355.696 396.318C355.377 396.318 355.065 396.189 354.837 395.959C340.042 380.902 323.241 347.006 322.533 345.569C322.268 345.032 322.44 344.38 322.936 344.042C323.432 343.703 324.103 343.784 324.506 344.228C341.059 362.463 370.454 366.084 370.751 366.119C371.148 366.165 371.494 366.404 371.679 366.759C371.864 367.111 371.862 367.533 371.673 367.886L356.759 395.687C356.579 396.025 356.249 396.255 355.869 396.309C355.811 396.314 355.755 396.318 355.696 396.318ZM327.997 350.903C333.509 361.311 345.005 381.863 355.422 393.079L368.735 368.262C362.748 367.325 342.873 363.391 327.997 350.903Z" fill="#333333"/>
<path d="M281.163 267.795C280.511 267.795 279.975 266.881 279.959 266.225C279.656 253.485 272.228 240.328 262.681 235.879C258.873 234.104 253.092 232.888 247.163 237.631C246.644 238.049 245.886 237.914 245.471 237.395C245.056 236.876 245.139 236.093 245.658 235.678C251.037 231.375 257.443 230.598 263.698 233.513C274.015 238.323 282.041 252.584 282.365 266.175C282.381 266.84 281.854 267.795 281.19 267.795C281.183 267.795 281.173 267.795 281.163 267.795Z" fill="#333333"/>
<path d="M259.006 253.411C258.589 253.411 258.184 253.195 257.962 252.809C257.63 252.232 257.827 251.497 258.404 251.165L271.499 243.61C272.076 243.278 272.811 243.476 273.143 244.053C273.475 244.63 273.278 245.365 272.701 245.697L259.606 253.251C259.417 253.359 259.21 253.411 259.006 253.411Z" fill="#333333"/>
<path d="M336.768 261.642C338.237 262.123 339.672 262.669 341.059 263.276C350.44 267.365 361.048 279.893 345.161 284.008C336.942 286.136 327.522 286.987 319.205 284.871C313.22 283.348 294.442 270.919 304.697 264.239C314.076 258.129 326.297 258.212 336.768 261.642Z" fill="#EFB6B3"/>
<path d="M378.723 217.161C379.421 213.206 374.688 209.063 368.148 207.909C361.609 206.754 355.743 209.025 355.045 212.98C354.346 216.935 359.081 221.078 365.62 222.233C372.159 223.387 378.026 221.118 378.723 217.161Z" fill="#363636"/>
<path d="M329.956 249.338C337.392 251.968 345.113 253.786 352.937 254.789C359.088 255.578 369.129 257.795 373.891 252.422C382.093 243.168 368.072 233.984 360.746 231.429C350.724 227.933 335.102 224.138 324.816 228.393C320.687 230.102 317.214 234.198 317.648 238.647C318.19 244.183 323.772 247.056 328.403 248.775C328.92 248.968 329.437 249.155 329.956 249.338Z" fill="white"/>
<path d="M363.793 257.123C360.75 257.123 357.686 256.68 354.981 256.29C354.207 256.178 353.47 256.072 352.78 255.985C344.821 254.964 337.005 253.11 329.553 250.473C329.028 250.289 328.507 250.098 327.986 249.904C325.305 248.91 317.147 245.886 316.452 238.765C315.945 233.584 320.045 229.066 324.357 227.281C327.529 225.969 331.388 225.303 335.828 225.303C344.931 225.303 354.62 228.016 361.144 230.291C366.675 232.22 375.539 237.528 377.291 244.241C378.115 247.401 377.274 250.421 374.794 253.22C372.464 255.846 368.867 257.123 363.793 257.123ZM335.826 227.713C331.703 227.713 328.156 228.317 325.276 229.509C321.785 230.953 318.455 234.516 318.847 238.533C319.223 242.367 322.393 245.263 328.824 247.648C329.335 247.837 329.846 248.022 330.358 248.204C337.651 250.783 345.299 252.597 353.09 253.598C353.789 253.687 354.539 253.795 355.328 253.909C357.952 254.287 360.924 254.716 363.795 254.716C368.14 254.716 371.148 253.706 372.992 251.628C374.933 249.437 375.578 247.22 374.962 244.854C373.54 239.398 365.564 234.387 360.353 232.568C355.151 230.754 345.056 227.713 335.826 227.713Z" fill="#363636"/>
<path d="M349.777 240.001C349.729 234.765 353.935 230.48 359.17 230.433C364.406 230.385 368.691 234.591 368.738 239.826C368.786 245.062 364.58 249.346 359.345 249.394C354.109 249.442 349.827 245.236 349.777 240.001Z" fill="#363636"/>
<path d="M312.142 273.33C311.87 273.33 311.598 273.238 311.374 273.052C310.863 272.626 310.793 271.868 311.216 271.355L319.813 261.005C320.238 260.492 320.996 260.424 321.509 260.847C322.019 261.273 322.09 262.03 321.666 262.543L313.07 272.894C312.831 273.18 312.489 273.33 312.142 273.33Z" fill="#333333"/>
<path d="M331.148 277.896C331.022 277.896 330.891 277.876 330.762 277.832C330.131 277.62 329.793 276.935 330.007 276.306L333.083 267.191C333.297 266.56 333.978 266.221 334.609 266.435C335.24 266.647 335.578 267.332 335.364 267.961L332.288 277.077C332.12 277.579 331.651 277.896 331.148 277.896Z" fill="#333333"/>
<path d="M406.621 279.692C406.337 279.692 406.05 279.591 405.82 279.387C405.323 278.945 405.28 278.183 405.722 277.687C412.811 269.742 406.337 260.716 406.27 260.627C405.876 260.092 405.992 259.338 406.528 258.943C407.063 258.549 407.817 258.665 408.211 259.201C408.288 259.307 415.894 269.907 407.52 279.29C407.283 279.555 406.953 279.692 406.621 279.692Z" fill="#333333"/>
<path d="M404.166 308.654C390.785 308.654 377.655 302.76 376.833 302.385C376.228 302.108 375.961 301.394 376.237 300.788C376.513 300.184 377.229 299.916 377.833 300.192C378.124 300.325 407.019 313.287 421.7 300.684C422.204 300.25 422.964 300.309 423.398 300.813C423.832 301.317 423.773 302.077 423.269 302.511C417.909 307.113 411.004 308.654 404.166 308.654Z" fill="#313131"/>
<path d="M377.293 307.333C376.656 307.333 376.123 306.831 376.091 306.187L375.462 293.319C375.429 292.654 375.942 292.09 376.606 292.056C377.266 292.021 377.835 292.536 377.868 293.2L378.497 306.069C378.531 306.733 378.018 307.298 377.354 307.331C377.333 307.331 377.312 307.333 377.293 307.333Z" fill="#313131"/>
<path d="M218.386 215.7C206.848 212.65 198.978 201.137 197.249 189.329C195.52 177.521 198.897 165.537 203.512 154.533C218.706 118.308 248.178 88.2999 284.125 72.4585C296.238 67.1192 310.356 63.3867 322.5 68.6533C325.361 69.8947 328.066 71.6198 331.132 72.1906C335.155 72.94 339.238 71.6073 343.15 70.4012C359.12 65.4833 375.949 62.4358 392.548 64.3623C416.685 67.1648 438.721 80.4217 455.837 97.6686C472.953 114.917 485.639 136.019 497.057 157.468C502.01 166.772 506.251 179.581 498.46 186.678C493.401 191.289 485.205 190.77 479.287 187.332C473.368 183.894 469.198 178.169 465.206 172.608C469.682 181.565 461.307 193.917 451.328 193.076C445.15 192.555 440.083 188.15 435.618 183.851C424.003 172.672 413.156 160.692 403.179 148.029C397.809 141.211 389.187 133.393 381.785 137.923C376.888 140.918 376.163 147.555 375.25 153.22C373.423 164.543 368.75 175.394 361.779 184.501C360.029 186.788 358.019 189.051 355.327 190.074C350.226 192.015 344.403 188.744 341.321 184.241C338.238 179.738 337.098 174.235 335.346 169.068C331.159 179.215 326.889 189.504 320.103 198.133C313.316 206.763 303.572 213.665 292.63 214.539C281.688 215.411 269.876 208.945 266.888 198.382C263.635 209.063 250.713 212.8 239.743 214.876C232.681 216.208 225.334 217.537 218.386 215.7Z" fill="#363636"/>
<path d="M336.522 77.8078C336.149 77.8078 335.789 77.6335 335.557 77.3242C330.612 70.7165 327.017 62.9733 325.163 54.9311C325.013 54.2834 325.418 53.6357 326.066 53.4862C326.716 53.3346 327.361 53.7415 327.511 54.3892C329.047 61.0509 331.827 67.4988 335.611 73.2159C336.948 62.9587 342.296 53.2226 350.311 46.6772C350.826 46.2558 351.585 46.3346 352.005 46.8474C352.426 47.3622 352.349 48.1221 351.834 48.5414C343.477 55.365 338.202 65.8754 337.726 76.6536C337.704 77.1622 337.365 77.6003 336.877 77.7518C336.759 77.7912 336.641 77.8078 336.522 77.8078Z" fill="#333333"/>
<path d="M311.62 131.11C314.368 131.411 317.32 132.291 318.848 134.597C319.996 136.331 320.112 138.544 319.963 140.62C319.228 150.885 312.496 160.503 303.102 164.704C298.629 166.706 292.858 167.32 289.252 164.003C287.819 162.687 286.889 160.881 285.39 159.641C280.913 155.938 274.301 158.842 269.011 161.248C262.007 164.435 254.511 166.533 246.869 167.453C244.001 167.798 240.806 167.889 238.543 166.091C237.291 165.097 236.498 163.646 235.842 162.188C230.953 151.354 232.286 137.96 239.215 128.303C243.878 121.803 251.15 116.952 259.122 116.273C267.093 115.596 275.551 119.586 279.192 126.711C280.427 129.127 281.39 132.108 283.929 133.067C284.911 133.439 285.992 133.431 287.041 133.379C295.278 132.978 303.418 130.213 311.62 131.11Z" fill="white"/>
<path d="M243.972 167.953C241.572 167.953 239.735 167.422 238.359 166.326C237.015 165.259 236.195 163.698 235.571 162.311C230.615 151.331 231.952 137.913 238.973 128.127C243.968 121.162 251.491 116.62 259.097 115.972C259.687 115.922 260.287 115.897 260.884 115.897C268.731 115.897 276.199 120.188 279.46 126.572C279.678 127 279.887 127.444 280.099 127.892C281.06 129.931 282.055 132.038 284.035 132.785C284.61 133.001 285.281 133.103 286.146 133.103C286.441 133.103 286.734 133.092 287.027 133.078C290.248 132.92 293.516 132.391 296.673 131.878C300.456 131.263 304.365 130.63 308.226 130.63C309.409 130.63 310.563 130.691 311.651 130.809C315.263 131.203 317.767 132.422 319.098 134.429C320.399 136.395 320.387 138.913 320.262 140.638C319.523 150.968 312.677 160.748 303.223 164.977C300.815 166.054 298.218 166.646 295.909 166.646C293.144 166.646 290.772 165.807 289.046 164.221C288.359 163.59 287.784 162.847 287.228 162.131C286.582 161.298 285.972 160.509 285.198 159.87C283.817 158.728 282.169 158.174 280.155 158.174C276.491 158.174 272.24 160.107 269.134 161.518C262.078 164.728 254.601 166.822 246.905 167.748C245.761 167.889 244.827 167.953 243.972 167.953ZM260.882 116.502C260.303 116.502 259.718 116.526 259.147 116.574C251.715 117.205 244.356 121.656 239.461 128.48C232.563 138.095 231.25 151.28 236.119 162.066C236.714 163.386 237.491 164.869 238.732 165.857C239.999 166.864 241.713 167.354 243.972 167.354C244.802 167.354 245.714 167.291 246.835 167.156C254.468 166.239 261.887 164.161 268.887 160.976C272.043 159.542 276.363 157.576 280.157 157.576C282.285 157.576 284.112 158.192 285.584 159.411C286.41 160.094 287.068 160.945 287.707 161.767C288.249 162.465 288.808 163.187 289.458 163.783C291.091 165.286 293.263 166.048 295.912 166.048C298.137 166.048 300.647 165.473 302.98 164.431C312.237 160.291 318.94 150.713 319.664 140.599C319.781 138.963 319.797 136.578 318.597 134.766C317.37 132.914 315.012 131.785 311.587 131.411C310.503 131.293 309.405 131.234 308.226 131.234C304.413 131.234 300.526 131.865 296.769 132.474C293.595 132.989 290.311 133.522 287.054 133.682C286.753 133.697 286.447 133.709 286.144 133.709C285.204 133.709 284.465 133.595 283.821 133.352C281.615 132.519 280.566 130.298 279.553 128.152C279.344 127.71 279.138 127.271 278.922 126.85C275.761 120.66 268.509 116.502 260.882 116.502Z" fill="#363636"/>
<path d="M478.088 515.167C478.088 525.144 470.003 533.232 460.024 533.232H331.169V589.832C331.169 599.809 323.083 607.895 313.106 607.895H85.501V618.733C85.501 624.994 82.2625 630.805 76.9336 634.099C74.0315 635.893 70.737 636.796 67.4384 636.796C64.6753 636.796 61.9102 636.163 59.3568 634.888L11.1868 610.803C5.54444 607.98 1.78085 602.416 1.26394 596.124C0.747037 589.832 3.55162 583.733 8.66464 580.023L56.8345 545.1C62.3315 541.114 69.5994 540.547 75.6445 543.636C81.6959 546.719 85.501 552.932 85.501 559.725V571.767H295.041V515.167C295.041 505.19 303.129 497.104 313.106 497.104H460.026C470.003 497.102 478.088 505.188 478.088 515.167Z" fill="#FC4F68"/>
<path d="M67.4379 638C64.4631 638 61.482 637.296 58.8186 635.964L10.6488 611.879C4.66801 608.885 0.611641 602.886 0.0635956 596.22C-0.48445 589.556 2.54018 582.975 7.95628 579.046L56.1261 544.122C59.4351 541.722 63.3462 540.454 67.4337 540.454C70.4625 540.454 73.4912 541.183 76.1899 542.563C82.6751 545.866 86.7025 552.443 86.7025 559.725V570.563H293.835V515.167C293.835 504.543 302.479 495.898 313.103 495.898H460.023C470.648 495.898 479.292 504.543 479.292 515.167C479.292 525.792 470.648 534.436 460.023 534.436H332.372V589.832C332.372 600.457 323.728 609.101 313.103 609.101H86.7025V618.735C86.7025 625.461 83.2855 631.589 77.5621 635.127C74.5209 637.006 71.0189 638 67.4379 638ZM67.4358 542.862C63.8589 542.862 60.4378 543.973 57.5419 546.072L9.37208 580.995C4.63274 584.435 1.98587 590.193 2.46541 596.023C2.94495 601.854 6.49486 607.106 11.7283 609.724L59.8981 633.809C62.2294 634.975 64.8367 635.59 67.44 635.59C70.5746 635.59 73.6386 634.72 76.3021 633.072C81.3092 629.976 84.2985 624.617 84.2985 618.729V607.891C84.2985 607.226 84.8383 606.687 85.5026 606.687H313.108C322.404 606.687 329.966 599.124 329.966 589.828V533.228C329.966 532.564 330.506 532.024 331.17 532.024H460.025C469.321 532.024 476.886 524.461 476.886 515.165C476.886 505.869 469.323 498.306 460.025 498.306H313.105C303.809 498.306 296.245 505.869 296.245 515.165V571.765C296.245 572.43 295.705 572.969 295.041 572.969H85.5006C84.8363 572.969 84.2965 572.43 84.2965 571.765V559.723C84.2965 553.352 80.7716 547.597 75.0981 544.708C72.7357 543.502 70.0847 542.862 67.4358 542.862Z" fill="#363636"/>
<path d="M278.381 389.623H110.688V571.767H278.381V389.623Z" fill="#F9EED7"/>
<path d="M278.378 572.971H110.684C110.02 572.971 109.48 572.432 109.48 571.767V389.623C109.48 388.959 110.02 388.419 110.684 388.419H278.378C279.042 388.419 279.582 388.959 279.582 389.623V571.767C279.584 572.432 279.044 572.971 278.378 572.971ZM111.891 570.561H277.174V390.825H111.891V570.561Z" fill="#333333"/>
<path d="M587.217 510.575L583.279 430.452C582.623 417.106 572.289 406.257 558.988 404.97C533.488 402.502 493.553 401.036 474.139 412.908C444.322 431.145 435.307 453.939 432.562 465.952C423.264 506.661 430.158 602.175 426.127 605.368C482.613 608.191 514.387 607.485 559.576 606.78C559.576 582.774 556.925 565.336 562.401 563.002C589.442 551.485 587.217 510.575 587.217 510.575Z" fill="#FFD2D2"/>
<path d="M503.599 608.617C503.595 608.617 503.591 608.617 503.591 608.617C478.265 608.617 454.356 607.986 426.069 606.572C425.569 606.547 425.135 606.215 424.984 605.738C424.843 605.293 424.969 604.812 425.304 604.496C426.505 602.474 426.387 585.524 426.263 567.584C426.036 535.048 425.729 490.486 431.392 465.687C434.172 453.514 443.341 430.338 473.515 411.885C484.169 405.369 501.899 402.064 526.212 402.064C536.324 402.064 547.393 402.639 559.11 403.772C572.896 405.107 583.805 416.552 584.486 430.394L588.424 510.517C588.447 510.936 588.957 521.05 586.124 532.754C582.335 548.405 574.297 559.249 562.877 564.113C559.654 565.485 559.988 575.745 560.411 588.73C560.585 594.11 560.785 600.212 560.785 606.782C560.785 607.44 560.258 607.976 559.599 607.986L552.716 608.094C535.031 608.374 519.756 608.617 503.599 608.617ZM427.844 604.247C455.371 605.603 478.802 606.207 503.591 606.207C503.595 606.207 503.599 606.207 503.599 606.207C519.74 606.207 535.002 605.964 552.674 605.684L558.371 605.595C558.35 599.512 558.165 593.845 557.999 588.806C557.492 573.283 557.187 563.914 561.929 561.894C587.872 550.842 586.036 511.038 586.014 510.637L582.076 430.508C581.453 417.851 571.478 407.387 558.873 406.166C547.233 405.039 536.243 404.468 526.208 404.468C502.345 404.468 485.038 407.652 474.767 413.934C445.347 431.928 436.432 454.415 433.736 466.219C428.135 490.746 428.442 535.144 428.666 567.564C428.822 589.73 428.795 600.122 427.844 604.247Z" fill="#333333"/>
<path d="M484.421 515.119C484.091 515.119 483.763 514.984 483.524 514.721C483.08 514.227 483.12 513.465 483.616 513.021C509.148 490.065 513.133 449.103 513.171 448.692C513.231 448.029 513.814 447.537 514.479 447.602C515.141 447.662 515.629 448.247 515.569 448.91C515.531 449.331 511.452 491.232 485.225 514.812C484.994 515.016 484.708 515.119 484.421 515.119Z" fill="#333333"/>
<path d="M504.15 357.55L502.097 550.13C502.007 558.567 508.773 565.48 517.211 565.569L519.779 565.596C528.216 565.685 535.129 558.92 535.22 550.481L537.273 357.901C537.356 350.083 531.087 343.679 523.269 343.596L518.459 343.544C510.639 343.463 504.233 349.732 504.15 357.55Z" fill="#333333"/>
<path d="M591.687 527.532C592.538 527.214 593.379 526.869 594.16 526.396C599.624 523.073 603.19 516.077 602.773 508.225C602.403 501.261 598.961 495.411 594.158 492.33C599.08 488.805 602.287 482.289 601.895 474.903C601.428 466.105 596.08 459.074 589.231 457.216C590.157 456.888 591.062 456.502 591.905 455.987C597.367 452.663 600.936 445.669 600.518 437.816C599.956 427.212 592.335 419.056 583.498 419.598L533.952 422.651C525.104 423.204 518.409 432.238 518.974 442.846C519.441 451.648 524.795 458.683 531.647 460.537C524.707 462.989 519.866 470.861 520.348 479.933C520.715 486.874 524.134 492.71 528.913 495.799C523.997 499.33 520.834 505.875 521.226 513.255C521.699 522.178 527.19 529.298 534.18 531.032C529.696 534.172 526.8 540.095 527.157 546.78C527.661 556.285 534.493 563.597 542.417 563.113L586.836 560.375C588.893 560.248 590.822 559.605 592.54 558.561C597.438 555.582 600.637 549.31 600.263 542.271C599.912 535.626 596.437 530.12 591.687 527.532Z" fill="#FFD2D2"/>
<path d="M541.673 564.34C533.38 564.34 526.477 556.655 525.956 546.844C525.637 540.844 527.812 535.165 531.721 531.486C525.161 528.779 520.467 521.64 520.025 513.32C519.66 506.44 522.271 499.903 526.917 495.849C522.361 492.263 519.49 486.461 519.147 479.995C518.707 471.724 522.479 464.195 528.557 460.649C522.487 457.67 518.19 450.786 517.773 442.908C517.175 431.665 524.399 422.039 533.878 421.447L583.424 418.394C593.011 417.808 601.126 426.525 601.721 437.752C602.149 445.796 598.541 453.358 592.531 457.014C592.473 457.049 592.415 457.085 592.355 457.118C598.404 460.109 602.68 466.981 603.096 474.836C603.459 481.691 600.831 488.215 596.162 492.276C600.744 495.857 603.629 501.67 603.974 508.161C604.401 516.207 600.793 523.768 594.784 527.424C594.597 527.538 594.41 527.644 594.221 527.743C598.431 530.934 601.148 536.273 601.464 542.206C601.848 549.464 598.591 556.287 593.166 559.588C591.223 560.771 589.118 561.44 586.91 561.577L542.491 564.315C542.217 564.331 541.945 564.34 541.673 564.34ZM584.329 420.777C584.078 420.777 583.827 420.785 583.571 420.8L534.025 423.853C525.861 424.362 519.647 432.854 520.177 442.782C520.602 450.788 525.448 457.612 531.964 459.374C532.473 459.511 532.834 459.964 532.852 460.491C532.873 461.019 532.547 461.496 532.049 461.673C525.423 464.012 521.107 471.496 521.551 479.868C521.885 486.181 524.883 491.759 529.568 494.788C529.903 495.004 530.108 495.371 530.118 495.77C530.129 496.168 529.94 496.544 529.618 496.777C524.829 500.216 522.074 506.506 522.431 513.191C522.865 521.356 527.816 528.21 534.474 529.861C534.932 529.975 535.281 530.344 535.368 530.809C535.456 531.274 535.263 531.746 534.876 532.015C530.54 535.053 528.045 540.685 528.364 546.713C528.831 555.515 535.04 562.343 542.348 561.909L586.766 559.171C588.579 559.059 590.312 558.506 591.919 557.529C596.598 554.683 599.403 548.716 599.064 542.333C598.747 536.354 595.701 531.088 591.113 528.588C590.698 528.362 590.455 527.916 590.489 527.444C590.522 526.973 590.827 526.566 591.269 526.402C592.025 526.122 592.822 525.8 593.536 525.366C598.799 522.165 601.954 515.462 601.574 508.288C601.238 501.952 598.223 496.365 593.511 493.341C593.175 493.125 592.967 492.757 592.957 492.357C592.946 491.958 593.135 491.581 593.459 491.348C598.275 487.898 601.049 481.62 600.694 474.963C600.27 466.962 595.427 460.14 588.917 458.374C588.408 458.237 588.049 457.784 588.029 457.257C588.008 456.73 588.334 456.252 588.83 456.076C589.822 455.725 590.601 455.368 591.281 454.955C596.544 451.754 599.699 445.051 599.317 437.878C598.809 428.29 592.224 420.777 584.329 420.777Z" fill="#333333"/>
<path d="M569.315 460.589L535.324 460.761C534.66 460.761 534.12 460.331 534.122 459.667C534.122 459.003 534.662 458.575 535.326 458.575H535.328L569.319 458.621C569.984 458.621 570.523 458.943 570.521 459.607C570.519 460.269 569.98 460.589 569.315 460.589Z" fill="#333333"/>
<path d="M529.908 494.072C529.262 494.072 528.729 494.159 528.706 493.509C528.683 492.845 529.202 492.585 529.868 492.563L591.114 490.582C591.781 490.572 592.337 491.153 592.36 491.819C592.383 492.484 591.864 492.48 591.197 492.505L529.951 494.074C529.937 494.072 529.922 494.072 529.908 494.072Z" fill="#333333"/>
<path d="M534.181 532.236C533.55 532.236 533.02 531.746 532.981 531.106C532.939 530.442 533.444 529.871 534.106 529.828L563.767 527.953C564.431 527.918 565.002 528.416 565.046 529.078C565.087 529.742 564.583 530.313 563.921 530.355L534.26 532.229C534.233 532.236 534.208 532.236 534.181 532.236Z" fill="#333333"/>
<path d="M501.3 340.706L500.89 379.018L540.885 379.446L541.295 341.134L501.3 340.706Z" fill="#F7B154"/>
<path d="M540.904 380.5C540.9 380.5 540.896 380.5 540.892 380.5L500.895 380.074C500.575 380.07 500.27 379.941 500.048 379.713C499.823 379.484 499.701 379.177 499.703 378.858L500.112 340.544C500.118 339.884 500.656 339.353 501.316 339.353C501.32 339.353 501.324 339.353 501.329 339.353L541.326 339.778C541.645 339.782 541.95 339.911 542.173 340.139C542.397 340.368 542.519 340.675 542.517 340.995L542.108 379.308C542.1 379.97 541.562 380.5 540.904 380.5ZM502.122 377.678L539.71 378.079L540.092 342.174L502.504 341.773L502.122 377.678Z" fill="#333333"/>
<path d="M607.654 284.42C628.418 235.47 605.568 178.955 556.618 158.191C507.667 137.427 451.152 160.277 430.388 209.228C409.624 258.178 432.474 314.693 481.425 335.457C530.376 356.221 586.89 333.371 607.654 284.42Z" fill="#FFD2D2"/>
<path d="M519.065 344.357C518.712 344.357 518.359 344.355 518.004 344.351C464.256 343.778 420.994 299.584 421.567 245.836C421.843 219.984 432.119 195.735 450.501 177.558C469.123 159.147 493.861 149.116 520.082 149.398C546.119 149.677 570.49 160.077 588.704 178.684C606.919 197.29 616.798 221.877 616.52 247.914C616.244 273.765 605.968 298.012 587.585 316.189C569.218 334.355 544.884 344.357 519.065 344.357ZM519.024 151.802C467.169 151.802 424.532 193.998 423.977 245.863C423.419 298.282 465.61 341.385 518.031 341.943C518.378 341.947 518.721 341.949 519.065 341.949C570.922 341.949 613.559 299.754 614.112 247.889C614.382 222.496 604.749 198.517 586.983 180.369C569.22 162.221 545.45 152.078 520.057 151.809C519.713 151.804 519.368 151.802 519.024 151.802Z" fill="#333333"/>
<path d="M576.744 281.474C574.217 271.308 553.07 267.814 529.51 273.67C505.95 279.527 488.901 292.516 491.429 302.682C493.956 312.847 515.103 316.341 538.663 310.485C562.22 304.629 579.27 291.64 576.744 281.474Z" fill="#EFB6B3"/>
<path d="M510.179 193.004C509.12 186.147 499.073 182.008 487.736 183.76C476.402 185.512 468.071 192.489 469.13 199.346C470.188 206.203 480.236 210.342 491.573 208.59C502.907 206.838 511.238 199.861 510.179 193.004Z" fill="#363636"/>
<path d="M571.29 294.031C570.915 294.031 570.545 293.854 570.308 293.526L556.809 274.604C556.423 274.062 556.549 273.311 557.089 272.925C557.631 272.539 558.382 272.665 558.768 273.205L572.268 292.127C572.654 292.669 572.528 293.42 571.988 293.807C571.776 293.958 571.533 294.031 571.29 294.031Z" fill="#333333"/>
<path d="M537.967 299.49C537.431 299.49 536.941 299.129 536.802 298.587L532.657 282.495C532.49 281.851 532.879 281.195 533.522 281.029C534.166 280.863 534.824 281.251 534.988 281.895L539.133 297.987C539.3 298.631 538.911 299.287 538.268 299.453C538.166 299.478 538.067 299.49 537.967 299.49Z" fill="#333333"/>
<path d="M551.236 253.606C538.475 258.385 525.2 261.771 511.721 263.751C501.123 265.308 483.851 269.458 475.454 260.328C460.998 244.607 484.921 228.296 497.49 223.652C514.689 217.296 541.55 210.246 559.449 217.273C566.633 220.094 572.761 227.059 572.153 234.755C571.393 244.333 561.842 249.475 553.897 252.587C553.011 252.933 552.125 253.274 551.236 253.606Z" fill="white"/>
<path d="M492.096 267.258C484.083 267.258 478.349 265.259 474.567 261.144C470.404 256.616 468.926 251.694 470.176 246.515C472.887 235.276 488.112 225.835 497.072 222.523C506.548 219.021 524.952 213.146 541.725 213.146C548.696 213.146 554.807 214.157 559.887 216.152C567.091 218.98 574.029 226.31 573.352 234.85C572.418 246.623 558.808 251.956 554.336 253.71C553.446 254.059 552.555 254.401 551.658 254.736C538.927 259.504 525.547 262.938 511.894 264.943C510.704 265.117 509.43 265.325 508.091 265.543C503.165 266.348 497.58 267.258 492.096 267.258ZM541.725 215.557C525.325 215.557 507.231 221.338 497.906 224.784C489.412 227.923 475.009 236.752 472.518 247.08C471.469 251.431 472.754 255.614 476.339 259.514C479.64 263.104 484.795 264.85 492.096 264.85C497.385 264.85 502.868 263.957 507.705 263.168C509.054 262.948 510.343 262.738 511.543 262.562C525.026 260.579 538.239 257.187 550.811 252.481C551.694 252.151 552.576 251.813 553.454 251.468C560.614 248.661 570.219 243.866 570.948 234.661C571.531 227.29 565.382 220.9 559.005 218.396C554.21 216.512 548.395 215.557 541.725 215.557Z" fill="#363636"/>
<path d="M557.458 230.283C557.375 221.239 549.974 213.973 540.929 214.056C531.885 214.139 524.619 221.54 524.702 230.584C524.785 239.629 532.186 246.895 541.23 246.812C550.277 246.729 557.541 239.328 557.458 230.283Z" fill="#363636"/>
<path d="M173.415 435.084H127.051V485.06H173.415V435.084Z" fill="#BAF3FA"/>
<path d="M173.414 486.264H127.05C126.385 486.264 125.846 485.724 125.846 485.06V435.084C125.846 434.42 126.385 433.88 127.05 433.88H173.414C174.078 433.88 174.618 434.42 174.618 435.084V485.06C174.618 485.724 174.078 486.264 173.414 486.264ZM128.254 483.856H172.21V436.288H128.254V483.856Z" fill="#333333"/>
<path d="M213.453 440.803H191.776C191.112 440.803 190.572 440.263 190.572 439.599C190.572 438.935 191.112 438.395 191.776 438.395H213.453C214.117 438.395 214.657 438.935 214.657 439.599C214.657 440.263 214.117 440.803 213.453 440.803Z" fill="#333333"/>
<path d="M260.117 441.405H223.388C222.723 441.405 222.184 440.865 222.184 440.201C222.184 439.537 222.723 438.997 223.388 438.997H260.117C260.781 438.997 261.321 439.537 261.321 440.201C261.321 440.868 260.783 441.405 260.117 441.405Z" fill="#333333"/>
<path d="M243.862 451.641H191.175C190.51 451.641 189.971 451.102 189.971 450.437C189.971 449.773 190.51 449.233 191.175 449.233H243.862C244.526 449.233 245.066 449.773 245.066 450.437C245.066 451.102 244.526 451.641 243.862 451.641Z" fill="#333333"/>
<path d="M243.862 462.48H191.175C190.51 462.48 189.971 461.941 189.971 461.276C189.971 460.612 190.51 460.072 191.175 460.072H243.862C244.526 460.072 245.066 460.612 245.066 461.276C245.066 461.941 244.526 462.48 243.862 462.48Z" fill="#333333"/>
<path d="M243.862 472.114H191.175C190.51 472.114 189.971 471.574 189.971 470.91C189.971 470.246 190.51 469.706 191.175 469.706H243.862C244.526 469.706 245.066 470.246 245.066 470.91C245.066 471.574 244.526 472.114 243.862 472.114Z" fill="#333333"/>
<path d="M259.515 500.715H129.757C129.092 500.715 128.553 500.175 128.553 499.511C128.553 498.846 129.092 498.307 129.757 498.307H259.515C260.179 498.307 260.719 498.846 260.719 499.511C260.719 500.177 260.179 500.715 259.515 500.715Z" fill="#333333"/>
<path d="M259.515 526.005H129.757C129.092 526.005 128.553 525.466 128.553 524.801C128.553 524.137 129.092 523.597 129.757 523.597H259.515C260.179 523.597 260.719 524.137 260.719 524.801C260.719 525.466 260.179 526.005 259.515 526.005Z" fill="#333333"/>
<path d="M259.515 537.446H129.757C129.092 537.446 128.553 536.906 128.553 536.242C128.553 535.577 129.092 535.038 129.757 535.038H259.515C260.179 535.038 260.719 535.577 260.719 536.242C260.719 536.906 260.179 537.446 259.515 537.446Z" fill="#333333"/>
<path d="M176.723 513.359H129.757C129.092 513.359 128.553 512.819 128.553 512.155C128.553 511.49 129.092 510.951 129.757 510.951H176.723C177.387 510.951 177.927 511.49 177.927 512.155C177.927 512.821 177.387 513.359 176.723 513.359Z" fill="#333333"/>
<path d="M176.723 550.392H129.757C129.092 550.392 128.553 549.852 128.553 549.187C128.553 548.523 129.092 547.983 129.757 547.983H176.723C177.387 547.983 177.927 548.523 177.927 549.187C177.927 549.852 177.387 550.392 176.723 550.392Z" fill="#333333"/>
<path d="M234.227 513.359H187.261C186.596 513.359 186.057 512.819 186.057 512.155C186.057 511.49 186.596 510.951 187.261 510.951H234.227C234.891 510.951 235.431 511.49 235.431 512.155C235.431 512.821 234.891 513.359 234.227 513.359Z" fill="#333333"/>
<path d="M418.981 188.501C418.699 188.501 418.417 188.403 418.188 188.202C409.189 180.311 404.587 169.035 400.136 158.128C396.532 149.299 392.806 140.171 386.775 132.932C386.35 132.422 386.418 131.662 386.929 131.236C387.44 130.811 388.199 130.879 388.625 131.39C394.894 138.915 398.691 148.219 402.363 157.217C406.91 168.354 411.203 178.873 419.774 186.39C420.275 186.828 420.324 187.589 419.886 188.09C419.65 188.362 419.318 188.501 418.981 188.501Z" fill="#333333"/>
</svg>
